<?xml version="1.0" encoding="utf-8"?>
<!-- Generator: Adobe Illustrator 26.0.0, SVG Export Plug-In . SVG Version: 6.00 Build 0)  -->
<svg version="1.1" id="Layer_1" xmlns="http://www.w3.org/2000/svg" xmlns:xlink="http://www.w3.org/1999/xlink" x="0px" y="0px"
	 viewBox="0 0 179.7 88.9" style="enable-background:new 0 0 179.7 88.9;" xml:space="preserve">
<style type="text/css">
	.st0{fill:#695F50;}
	.st1{fill:#FDBB30;}
	.st2{enable-background:new    ;}
</style>
<g transform="translate(127 326.541)">
	<path class="st0" d="M51.5-271.2c-0.5-2.8-5.6-6.3-5.6-6.3c-6-12.6-26.3-14.4-26.3-14.4c-15-21-33.1-30.5-33.1-30.5
		c-21.2-7.7-98.5-2.1-98.5-2.1c-12.1,0.9-10.6,4.4-10.6,4.4c-5.2,13.3-4.3,60.3-4.3,60.3c0.7,9.5,8.6,10.2,8.6,10.2l2.6,0v-0.1
		c0-10.5,8.5-19,19-19c10.5,0,19,8.5,19,19c0,0.1,0,0.3,0,0.4c22.9,0.2,56.4,0.3,78.5,0.5c0-0.3,0-0.6,0-0.9c0-10.5,8.5-19,19-19
		s19,8.5,19,19c0,0.4,0,0.8,0,1.2c2-0.2,3.9-0.6,5.9-1.1c7.7-2.6,8.1-7.2,8.1-7.2L51.5-271.2z"/>
	<path class="st1" d="M-96.8-261.7c-6.6,0-12,5.4-12,12c0,6.6,5.4,12,12,12s12-5.4,12-12c0,0,0,0,0,0
		C-84.8-256.3-90.1-261.7-96.8-261.7C-96.8-261.7-96.8-261.7-96.8-261.7"/>
	<path class="st1" d="M19.7-261.7c-6.6,0-12,5.4-12,12c0,6.6,5.4,12,12,12s12-5.4,12-12c0,0,0,0,0,0
		C31.7-256.3,26.3-261.7,19.7-261.7"/>
</g>
<g class="st2">
	<path class="st1" d="M32.1,25.3c0.2-0.2,0.4-0.3,0.6-0.3h3.2c0.2,0,0.3,0.2,0.2,0.3l-4,6c-0.1,0.2-0.1,0.4,0,0.6l4.1,6
		c0.1,0.2,0,0.3-0.2,0.3h-3.3c-0.3,0-0.5-0.1-0.6-0.3l-2.1-3c-0.1-0.1-0.3-0.1-0.4,0l-2,3c-0.1,0.2-0.4,0.3-0.6,0.3h-3.3
		c-0.2,0-0.3-0.2-0.2-0.3l4.1-6c0.1-0.2,0.1-0.4,0-0.6l-4-6c-0.1-0.2,0-0.3,0.2-0.3h3.2c0.3,0,0.5,0.1,0.6,0.3l2,3
		c0.1,0.2,0.3,0.2,0.4,0L32.1,25.3z"/>
</g>
<g class="st2">
	<path class="st1" d="M46,25.6c-0.4,0.1-0.7-0.1-0.7-0.5v-4.8c0-0.4,0.3-0.8,0.7-1l3.7-1.3c0.4-0.1,1-0.2,1.4-0.2h2.6
		c0.4,0,0.7,0.3,0.7,0.7v22c0,0.4-0.3,0.7-0.7,0.7h-4.5c-0.4,0-0.7-0.3-0.7-0.7V25.3c0-0.3-0.3-0.5-0.6-0.4L46,25.6z"/>
	<path class="st1" d="M73.1,40.5c0,0.4-0.3,0.7-0.7,0.7H68c-0.4,0-0.7-0.3-0.7-0.7v-2.7c0-0.3-0.3-0.6-0.6-0.6h-9.4
		c-0.4,0-0.7-0.3-0.7-0.7v-3.2c0-0.4,0.1-1,0.4-1.4l7.5-13.5c0.2-0.4,0.7-0.6,1.1-0.6h5.2c0.3,0,0.5,0.3,0.4,0.6L64,31.1
		c-0.2,0.2,0,0.5,0.3,0.5h2.4c0.3,0,0.6-0.3,0.6-0.6v-3.1c0-0.4,0.3-0.7,0.7-0.7h4.4c0.4,0,0.7,0.3,0.7,0.7V31
		c0,0.3,0.3,0.6,0.6,0.6h1c0.4,0,0.7,0.3,0.7,0.7v4.2c0,0.4-0.3,0.7-0.7,0.7h-1c-0.3,0-0.6,0.3-0.6,0.6V40.5z"/>
	<path class="st1" d="M92.5,17.8c0.4,0,0.7,0.3,0.7,0.7v4.6c0,0.4-0.3,0.7-0.7,0.7h-7.4c-0.3,0-0.6,0.3-0.7,0.6l-0.1,1
		c0,0.3,0.2,0.5,0.5,0.4c0.7-0.2,1.4-0.3,2.4-0.3c4.4,0,7.6,3.4,7.6,7.7c0,4.8-3.9,8.3-9.1,8.3c-3.9,0-6.9-2-8.7-4.5
		c-0.2-0.3-0.1-0.8,0.2-1l3.8-2.2c0.4-0.2,0.8-0.2,1.1,0.2c1,1.1,2.2,1.7,3.5,1.7c1.9,0,3-1.1,3-2.5c0-1-0.6-2.4-2.4-2.4
		c-1,0-1.9,0.4-3,1.3c-0.4,0.3-0.8,0.4-1.2,0.1l-3.7-1.7c-0.4-0.2-0.6-0.6-0.5-1l2-11.1c0.1-0.4,0.4-0.7,0.8-0.7H92.5z"/>
</g>
</svg>
