<?xml version="1.0" encoding="utf-8"?>
<!-- Generator: Adobe Illustrator 26.0.2, SVG Export Plug-In . SVG Version: 6.00 Build 0)  -->
<svg version="1.1" id="Layer_1" xmlns="http://www.w3.org/2000/svg" xmlns:xlink="http://www.w3.org/1999/xlink" x="0px" y="0px"
	 viewBox="0 0 102.7 21" style="enable-background:new 0 0 102.7 21;" xml:space="preserve">
<style type="text/css">
	.st0{fill:#14191E;}
	.st1{fill:#E4E428;}
</style>
<path class="st0" d="M39.4,12c-1.5-0.9-2.2-1.5-2.2-2.4c0-0.8,0.5-1.2,1.3-1.2c1,0,1.5,0.5,1.5,1.4v0.7h2.6V10
	c0.2-2.1-1.4-3.9-3.5-4.1c-0.2,0-0.4,0-0.6,0c-2.1-0.2-4,1.4-4.2,3.6c0,0.2,0,0.3,0,0.5c0,2,1.1,3.2,2.9,4.2
	c1.8,1.1,2.7,1.6,2.7,2.9c0,0.9-0.5,1.4-1.5,1.4s-1.6-0.5-1.6-1.7v-0.8h-2.7v0.7c0,2.5,1.6,4.2,4.4,4.2c2.2,0.2,4.1-1.5,4.3-3.6
	c0-0.2,0-0.3,0-0.5C42.8,14.3,41.3,13.1,39.4,12z"/>
<path class="st0" d="M48.5,2.9l-3,0.8v2.5h-1.8v2.6h1.6v7.3c-0.1,1.5,0.1,3,0.7,4.4h3.2c-0.6-1.4-0.8-2.9-0.8-4.4V8.8h1.9V6.2h-1.9
	L48.5,2.9z"/>
<path class="st0" d="M29.5,5.9C28,5.9,26.7,7,26.4,8.4l-0.2-2.3h-2.7v14.4h3.2V10.4c0-0.8,0.6-2,1.5-2c0.7,0,1.3,0.6,1.2,1.3
	c0,0,0,0.1,0,0.1v10.7h3.2V9.5C32.5,7.3,31.5,5.9,29.5,5.9z"/>
<path class="st0" d="M17.3,5.9c-2.6,0-4.5,1.8-4.5,4.7v5.6c0,2.9,1.8,4.6,4.5,4.6s4.4-1.7,4.4-4.6v-5.6C21.7,7.7,19.9,5.9,17.3,5.9z
	 M18.7,16.8c0.1,0.7-0.5,1.4-1.2,1.5c0,0-0.1,0-0.1,0c-0.7,0-1.3-0.5-1.4-1.3c0-0.1,0-0.1,0-0.2V9.9c-0.1-0.7,0.4-1.4,1.2-1.5
	c0.1,0,0.1,0,0.2,0c0.8,0,1.4,0.6,1.4,1.4c0,0,0,0.1,0,0.1V16.8z"/>
<path class="st0" d="M55,8.6l-0.2-2.5h-2.7v14.4h3.2v-9.5c0-1.3,0.9-2.2,3.4-1.8V6C56.8,5.6,55.5,6.4,55,8.6z"/>
<path class="st0" d="M5.8,0C2.2,0,0,2.5,0,5.6v9.9C0,18.6,2.2,21,5.8,21s5.4-2.2,5.4-5.2v-2.4H7.9v2.4c0.1,1-0.6,1.9-1.7,2
	c-0.1,0-0.2,0-0.4,0c-1,0.1-1.9-0.6-2-1.6c0-0.1,0-0.2,0-0.3V5.3c-0.1-1,0.7-1.9,1.7-1.9c0.1,0,0.2,0,0.3,0c1-0.1,1.9,0.6,2,1.6
	c0,0.1,0,0.2,0,0.4v2.4h3.3V5.3C11.2,2.3,9.3,0,5.8,0z"/>
<path class="st0" d="M85.6,2.9l-3,0.8v2.5h-1.8v2.6h1.6v7.3c-0.1,1.5,0.1,3,0.7,4.4h3.3c-0.6-1.4-0.8-2.9-0.8-4.4V8.8h1.9V6.2h-1.9
	L85.6,2.9z"/>
<path class="st0" d="M66.1,16.2c0,0.8-0.6,2-1.5,2c-0.7,0-1.3-0.6-1.2-1.3c0,0,0-0.1,0-0.1V6.1h-3.2v11.1c0,2.1,1.1,3.6,3.1,3.6
	c1.5,0,2.7-1,3.2-2.4l0.2,2.2h2.7V6.1h-3.2V16.2z"/>
<path class="st0" d="M75.4,5.9c-2.6,0-4.4,1.8-4.4,4.7v5.6c0,2.9,1.8,4.6,4.4,4.6s4.2-1.7,4.2-4.6v-1h-2.7v1.4
	c0,0.9-0.5,1.6-1.4,1.6s-1.4-0.6-1.4-1.6v-6.5c0-1,0.5-1.7,1.4-1.7s1.4,0.6,1.4,1.6v1.4h2.7v-0.9C79.6,7.6,78.1,5.9,75.4,5.9z"/>
<rect x="91" y="0" class="st1" width="2.5" height="11.7"/>
<path class="st1" d="M95.1,0v2.1h2.5v9.5h2.5V2.1h2.5V0H95.1z"/>
</svg>
