<?xml version="1.0" encoding="utf-8"?>
<!-- Generator: Adobe Illustrator 26.0.0, SVG Export Plug-In . SVG Version: 6.00 Build 0)  -->
<svg version="1.1" id="Layer_1" xmlns="http://www.w3.org/2000/svg" xmlns:xlink="http://www.w3.org/1999/xlink" x="0px" y="0px"
	 viewBox="0 0 161.6 96.4" style="enable-background:new 0 0 161.6 96.4;" xml:space="preserve">
<style type="text/css">
	.st0{fill:#FFBB00;}
	.st1{fill:#564637;}
	.st2{font-family:'GothamBlack';}
	.st3{font-size:7px;}
</style>
<g transform="translate(58.268 46.759)">
	<path class="st0" d="M70.9-31.7L70.9-31.7c-1.1,0-2-0.9-2-1.9c0,0,0,0,0,0c0-1.1,0.9-1.9,1.9-1.9l0,0h0c1.1,0,1.9,0.9,1.9,1.9
		S71.9-31.7,70.9-31.7z"/>
	<path class="st0" d="M62.8-31.7L62.8-31.7c-1.1,0-1.9-0.9-2-1.9c0,0,0,0,0,0c0-1.1,0.9-1.9,1.9-1.9l0,0h0c1.1,0,1.9,0.9,1.9,1.9
		C64.8-32.6,63.9-31.7,62.8-31.7L62.8-31.7L62.8-31.7z"/>
	<path class="st0" d="M54.8-31.7L54.8-31.7c-1.1,0-2-0.9-2-1.9s0.9-1.9,1.9-1.9h0c1.1,0,1.9,0.9,1.9,1.9c0,0,0,0,0,0
		C56.8-32.6,55.9-31.7,54.8-31.7L54.8-31.7z"/>
	<path class="st0" d="M46.8-31.7L46.8-31.7c-1.1,0-2-0.9-2-1.9l0,0c0-1.1,0.9-1.9,1.9-1.9l0,0h0c1.1,0,1.9,0.9,1.9,1.9l0,0
		C48.7-32.6,47.8-31.7,46.8-31.7L46.8-31.7L46.8-31.7z"/>
	<path class="st0" d="M77.2-19.5c-1.1,0-1.9-0.9-1.9-1.9c0,0,0,0,0,0l0,0c0-1.1,0.9-1.9,1.9-1.9c0,0,0,0,0,0c1.1,0,1.9,0.9,1.9,1.9
		c0,0,0,0,0,0l0,0C79.1-20.4,78.3-19.5,77.2-19.5C77.2-19.5,77.2-19.5,77.2-19.5z"/>
	<path class="st0" d="M77.2-27c-1.1,0-1.9-0.9-1.9-1.9v0c0-1.1,0.9-1.9,1.9-1.9l0,0c1.1,0,1.9,0.9,1.9,1.9v0v0
		C79.1-27.9,78.3-27,77.2-27C77.2-27,77.2-27,77.2-27L77.2-27z"/>
	<path class="st0" d="M-46.8,13.9c-1.1,0-1.9-0.9-1.9-1.9l0,0v0c0-1.1,0.9-1.9,1.9-1.9c0,0,0,0,0,0c1.1,0,1.9,0.9,1.9,1.9l0,0v0
		C-44.8,13.1-45.7,13.9-46.8,13.9C-46.8,13.9-46.8,13.9-46.8,13.9z"/>
	<path class="st0" d="M-46.8,6.7c-1.1,0-1.9-0.9-1.9-1.9v0c0-1.1,0.9-1.9,1.9-1.9c0,0,0,0,0,0c1.1,0,1.9,0.9,1.9,1.9v0
		C-44.8,5.8-45.7,6.7-46.8,6.7L-46.8,6.7z"/>
	<path class="st0" d="M-46.8-0.6c-1.1,0-1.9-0.9-1.9-1.9v0v0c0-1.1,0.9-1.9,1.9-1.9c1.1,0,1.9,0.9,1.9,1.9v0
		C-44.8-1.5-45.7-0.6-46.8-0.6C-46.8-0.6-46.8-0.6-46.8-0.6z"/>
	<path class="st0" d="M38.8,35.4L38.8,35.4c-1.1,0-1.9-0.9-1.9-1.9l0,0c0-1.1,0.9-1.9,1.9-1.9l0,0h0c1.1,0,1.9,0.9,1.9,1.9
		c0,0,0,0,0,0C40.7,34.6,39.9,35.4,38.8,35.4C38.8,35.4,38.8,35.4,38.8,35.4z"/>
	<path class="st0" d="M-42.2-45.8l15.1,15.1l-5.1,3.3c0,0-6.6,0.4-6.9,0s-4.9-3.9-4.9-3.9l-2-5.2c0,0,0.9-4.8,0.9-5.3
		c0.5-1.4,1-2.8,1.7-4.1L-42.2-45.8z"/>
	<path class="st1" d="M-42.5-44l14.1,13.8c-4,3.2-9.8,2.9-13.4-0.7c-1.9-1.8-2.9-4.3-2.9-6.9C-44.8-40.1-44-42.3-42.5-44
		 M-34.7-25.8c3.2,0,6.4-1.3,8.7-3.5c0.2-0.2,0.3-0.5,0.3-0.8v-0.1c0-0.3-0.1-0.6-0.3-0.8l-7-6.9l7-6.9c0.4-0.4,0.4-1.2,0-1.6
		c-0.4-0.4-1.1-0.4-1.5,0l-7.1,7l-7.1-7c-0.2-0.2-0.5-0.3-0.8-0.3h0c-0.4,0-0.7,0.2-0.9,0.5c-2.2,2.2-3.5,5.3-3.5,8.5
		c0,3.2,1.3,6.2,3.6,8.5C-41.1-27-38-25.8-34.7-25.8"/>
	<path class="st1" d="M-51.4-19.7l5.8-7.9l5.8,7.9H-51.4z M-36.6-18.1c0.2-0.4,0.2-0.8-0.1-1.2l-8.1-10.9c-0.2-0.3-0.5-0.5-0.9-0.5
		l0,0c-0.4,0-0.7,0.2-0.9,0.5l-8,10.9c-0.4,0.5-0.3,1.2,0.2,1.6c0.2,0.1,0.4,0.2,0.7,0.2h16C-37.2-17.5-36.8-17.7-36.6-18.1"/>
	<path class="st0" d="M-11.2-45.8L3.9-30.6l-5.1,3.3c0,0-6.6,0.4-6.9,0c-0.3-0.4-4.9-3.9-4.9-3.9l-2-5.2c0,0,0.9-4.8,0.9-5.3
		c0.5-1.4,1-2.8,1.7-4.1L-11.2-45.8z"/>
	<path class="st1" d="M-11.6-44L2.5-30.2c-4,3.2-9.8,2.9-13.4-0.7c-1.9-1.8-2.9-4.3-2.9-6.9C-13.8-40.1-13-42.3-11.6-44 M-3.8-25.8
		c3.2,0,6.4-1.3,8.7-3.5c0.2-0.2,0.3-0.5,0.3-0.8v-0.1c0-0.3-0.1-0.6-0.3-0.8l-7-6.9l7-6.9c0.4-0.4,0.4-1.1,0-1.6
		c-0.4-0.4-1.1-0.4-1.6,0l-7.1,7l-7.1-7c-0.2-0.2-0.5-0.3-0.8-0.3h0c-0.4,0-0.7,0.2-0.9,0.5c-2.2,2.2-3.5,5.3-3.5,8.5
		c0,3.2,1.3,6.2,3.6,8.5C-10.2-27-7-25.8-3.8-25.8"/>
	<path class="st1" d="M-20.5-19.7l5.8-7.9l5.8,7.9H-20.5z M-5.7-18.1c0.2-0.4,0.2-0.8-0.1-1.2l-8.1-10.9c-0.2-0.3-0.5-0.5-0.9-0.5
		l0,0c-0.4,0-0.7,0.2-0.9,0.5l-8,10.9c-0.4,0.5-0.3,1.2,0.2,1.6c0.2,0.1,0.4,0.2,0.7,0.2h16C-6.3-17.5-5.9-17.7-5.7-18.1"/>
	<path class="st0" d="M19.8-45.8l15.1,15.1l-5.1,3.3c0,0-6.6,0.4-6.9,0s-4.9-3.9-4.9-3.9l-2-5.2c0,0,0.9-4.8,0.9-5.3
		c0.5-1.4,1-2.8,1.7-4.1L19.8-45.8z"/>
	<path class="st1" d="M19.5-44l14.1,13.8c-4,3.2-9.8,2.9-13.4-0.7c-1.9-1.8-2.9-4.3-2.9-6.9C17.2-40.1,18-42.3,19.5-44 M27.3-25.8
		c3.2,0,6.4-1.3,8.7-3.5c0.2-0.2,0.3-0.5,0.3-0.8v-0.1c0-0.3-0.1-0.6-0.3-0.8l-7-6.9l7-6.9c0.5-0.4,0.5-1.1,0.1-1.6
		c-0.4-0.5-1.1-0.5-1.6-0.1c0,0,0,0-0.1,0.1l-7.1,7l-7.1-7c-0.2-0.2-0.5-0.3-0.8-0.3h0c-0.4,0-0.7,0.2-0.9,0.5
		C16.3-44,15-40.9,15-37.8c0,3.2,1.3,6.2,3.6,8.5C20.9-27,24-25.8,27.3-25.8"/>
	<path class="st1" d="M10.6-19.7l5.8-7.9l5.8,7.9H10.6z M25.4-18.1c0.2-0.4,0.1-0.8-0.1-1.2l-8.1-10.9c-0.2-0.3-0.5-0.5-0.9-0.5l0,0
		c-0.4,0-0.7,0.2-0.9,0.5l-8,10.9c-0.4,0.5-0.3,1.2,0.2,1.6c0.2,0.1,0.4,0.2,0.7,0.2h16C24.8-17.5,25.2-17.7,25.4-18.1"/>
	<rect x="3.8" y="23.7" class="st0" width="21.8" height="17.4"/>
	<g transform="translate(2843.47 360.302)">
		<path class="st1" d="M-2819-320.7c0,0.6-0.5,1.2-1.1,1.2c0,0-0.1,0-0.1,0h-17.7c-0.6,0-1.2-0.5-1.2-1.1c0,0,0-0.1,0-0.1v-14.1
			c0-0.6,0.5-1.2,1.1-1.2c0,0,0.1,0,0.1,0h17.7c0.6,0,1.2,0.5,1.2,1.1c0,0,0,0.1,0,0.1V-320.7z M-2820.2-338.4h-17.7
			c-2,0-3.6,1.5-3.6,3.5c0,0,0,0.1,0,0.1v14.1c0,2,1.5,3.6,3.5,3.6c0,0,0.1,0,0.1,0h7.7v2h-6.8c-0.7,0-1.2,0.5-1.2,1.2
			c0,0.7,0.5,1.2,1.2,1.2h16c0.7,0,1.2-0.5,1.2-1.2c0-0.7-0.5-1.2-1.2-1.2c0,0,0,0,0,0h-6.8v-2h7.7c2,0,3.6-1.5,3.6-3.5
			c0,0,0-0.1,0-0.1v-14.1C-2816.6-336.7-2818.2-338.3-2820.2-338.4C-2820.2-338.4-2820.2-338.4-2820.2-338.4"/>
	</g>
	<text transform="matrix(1 0 0 1 10.4691 35.0363)" class="st1 st2 st3">IT</text>
	<rect x="-26.3" y="23.7" class="st0" width="21.8" height="17.4"/>
	<g transform="translate(2813.345 360.302)">
		<g transform="translate(0)">
			<path class="st1" d="M-2819-320.7c0,0.6-0.5,1.2-1.1,1.2c0,0-0.1,0-0.1,0h-17.7c-0.6,0-1.2-0.5-1.2-1.1c0,0,0-0.1,0-0.1v-14.1
				c0-0.6,0.5-1.2,1.1-1.2c0,0,0.1,0,0.1,0h17.7c0.6,0,1.2,0.5,1.2,1.1c0,0,0,0.1,0,0.1V-320.7z M-2820.2-338.4h-17.7
				c-2,0-3.6,1.5-3.6,3.5c0,0,0,0.1,0,0.1v14.1c0,2,1.5,3.6,3.5,3.6c0,0,0.1,0,0.1,0h7.7v2h-6.8c-0.7,0-1.2,0.5-1.2,1.2
				c0,0.7,0.5,1.2,1.2,1.2h16c0.7,0,1.2-0.5,1.2-1.2c0-0.7-0.5-1.2-1.2-1.2h-6.8v-2h7.7c2,0,3.6-1.5,3.6-3.5c0,0,0-0.1,0-0.1v-14.1
				C-2816.6-336.7-2818.2-338.3-2820.2-338.4C-2820.2-338.4-2820.2-338.4-2820.2-338.4"/>
		</g>
	</g>
	<text transform="matrix(1 0 0 1 -19.6569 35.0363)" class="st1 st2 st3">IT</text>
	<rect x="-56.4" y="23.7" class="st0" width="21.8" height="17.4"/>
	<g transform="translate(2783.219 360.302)">
		<path class="st1" d="M-2819-320.7c0,0.6-0.5,1.2-1.1,1.2c0,0-0.1,0-0.1,0h-17.7c-0.6,0-1.2-0.5-1.2-1.1c0,0,0-0.1,0-0.1v-14.1
			c0-0.6,0.5-1.2,1.1-1.2c0,0,0.1,0,0.1,0h17.7c0.6,0,1.2,0.5,1.2,1.1c0,0,0,0.1,0,0.1V-320.7z M-2820.2-338.4h-17.7
			c-2,0-3.6,1.5-3.6,3.5c0,0,0,0.1,0,0.1v14.1c0,2,1.5,3.6,3.5,3.6c0,0,0.1,0,0.1,0h7.7v2h-6.8c-0.7,0-1.2,0.5-1.2,1.2
			c0,0.7,0.5,1.2,1.2,1.2h16c0.7,0,1.2-0.5,1.2-1.2c0-0.7-0.5-1.2-1.2-1.2h-6.8v-2h7.7c2,0,3.6-1.5,3.6-3.5c0,0,0-0.1,0-0.1v-14.1
			C-2816.6-336.7-2818.2-338.3-2820.2-338.4C-2820.2-338.4-2820.2-338.4-2820.2-338.4"/>
	</g>
	<text transform="matrix(1 0 0 1 -49.7819 35.0363)" class="st1 st2 st3">IT</text>
	<g transform="translate(2894.974 331.517)">
		<g transform="translate(0)">
			<path class="st1" d="M-2791.9-291.2c-0.1-0.8-1.6-1.7-1.6-1.7c-1.7-3.5-7.3-4-7.3-4c-2.4-3.4-5.6-6.3-9.2-8.5
				c-5.9-2.1-27.4-0.6-27.4-0.6c-3.4,0.3-2.9,1.2-2.9,1.2c-1.5,3.7-1.2,16.7-1.2,16.7c0,1.4,1,2.6,2.4,2.8h0.7v0
				c0-2.9,2.4-5.3,5.3-5.3s5.3,2.4,5.3,5.3c0,0,0,0.1,0,0.1c6.4,0,15.7,0.1,21.8,0.1c0-0.1,0-0.2,0-0.3c0-2.9,2.4-5.2,5.3-5.2
				c2.9,0,5.2,2.3,5.2,5.2c0,0.1,0,0.2,0,0.3c0.6-0.1,1.1-0.2,1.6-0.3c2.1-0.7,2.3-2,2.3-2L-2791.9-291.2z"/>
			<path class="st0" d="M-2833.1-288.5c-1.8,0-3.3,1.5-3.3,3.3c0,1.8,1.5,3.3,3.3,3.3c1.8,0,3.3-1.5,3.3-3.3
				C-2829.8-287.1-2831.3-288.5-2833.1-288.5C-2833.1-288.5-2833.1-288.5-2833.1-288.5"/>
			<path class="st0" d="M-2800.8-288.5c-1.8,0-3.3,1.5-3.3,3.3c0,1.8,1.5,3.3,3.3,3.3c1.8,0,3.3-1.5,3.3-3.3c0,0,0,0,0,0
				C-2797.4-287.1-2798.9-288.5-2800.8-288.5"/>
			<path class="st1" d="M-2791.9-323c-0.1-0.8-1.6-1.7-1.6-1.7c-1.7-3.5-7.3-4-7.3-4c-2.4-3.4-5.6-6.3-9.2-8.5
				c-5.9-2.1-27.4-0.6-27.4-0.6c-3.4,0.3-2.9,1.2-2.9,1.2c-1.5,3.7-1.2,16.7-1.2,16.7c0,1.4,1,2.6,2.4,2.8l0.7,0v0
				c0-2.9,2.4-5.3,5.3-5.3s5.3,2.4,5.3,5.3c0,0,0,0.1,0,0.1c6.4,0,15.7,0.1,21.8,0.1c0-0.1,0-0.2,0-0.3c0-2.9,2.4-5.2,5.3-5.2
				c2.9,0,5.2,2.3,5.2,5.2c0,0.1,0,0.2,0,0.3c0.6-0.1,1.1-0.2,1.6-0.3c2.1-0.7,2.3-2,2.3-2L-2791.9-323z"/>
			<path class="st0" d="M-2833.1-320.4c-1.8,0-3.3,1.5-3.3,3.3c0,1.8,1.5,3.3,3.3,3.3c1.8,0,3.3-1.5,3.3-3.3
				C-2829.8-318.9-2831.3-320.4-2833.1-320.4C-2833.1-320.4-2833.1-320.4-2833.1-320.4"/>
			<path class="st0" d="M-2800.8-320.4c-1.8,0-3.3,1.5-3.3,3.3c0,1.8,1.5,3.3,3.3,3.3c1.8,0,3.3-1.5,3.3-3.3c0,0,0,0,0,0
				C-2797.4-318.9-2798.9-320.4-2800.8-320.4"/>
		</g>
	</g>
</g>
</svg>
