<svg xmlns="http://www.w3.org/2000/svg" width="160.101" height="58.5" viewBox="0 0 160.101 58.5"><g transform="translate(-1681.369 -327.838)"><text transform="translate(1749.47 364.724)" fill="#fb0" font-size="20" font-family="GothamBlack, Gotham"><tspan x="0" y="0">Next day</tspan></text><path d="M1712.425,385.336a26.443,26.443,0,1,0-26.442-26.442,26.442,26.442,0,0,0,26.442,26.442" transform="translate(-1.806 -1.806)" fill="#fb0"/><path d="M1748.223,373.345l-7.111-7.111a1.61,1.61,0,0,1,2.221-2.221l7.111,7.111Z" transform="translate(-23.264 -14.038)" fill="#fff"/><path d="M1750.415,374.47l-7.153,7.153a1.608,1.608,0,0,1-2.221-2.221l7.153-7.154Z" transform="translate(-23.235 -17.384)" fill="#fff"/><path d="M1740.151,376.459h-12.578a1.57,1.57,0,0,1,0-3.141h12.578Z" transform="translate(-17.472 -17.803)" fill="#fff"/><path d="M1710.619,327.838a29.25,29.25,0,1,0,29.25,29.25,29.25,29.25,0,0,0-29.25-29.25m0,3.9a25.35,25.35,0,1,1-25.35,25.35,25.379,25.379,0,0,1,25.35-25.35" fill="#564637"/><path d="M1693.243,374.858c0-.548.028-1.089.071-1.625h-3.875c-.035.537-.06,1.078-.06,1.625s.025,1.087.06,1.624h3.875c-.043-.536-.071-1.077-.071-1.624" transform="translate(-3.135 -17.77)" fill="#564637"/><path d="M1763.094,374.858c0,.548-.028,1.089-.071,1.624h3.874c.035-.537.06-1.078.06-1.624s-.024-1.087-.06-1.625h-3.874c.043.536.071,1.077.071,1.625" transform="translate(-31.963 -17.77)" fill="#564637"/><path d="M1728.388,339.712c.548,0,1.088.028,1.625.071v-3.875c-.537-.036-1.078-.06-1.625-.06s-1.087.024-1.624.06v3.875c.537-.043,1.077-.071,1.624-.071" transform="translate(-17.77 -3.135)" fill="#564637"/><path d="M1728.388,409.563c-.547,0-1.087-.028-1.624-.071v3.874c.537.036,1.078.061,1.624.061s1.088-.024,1.625-.061v-3.874c-.537.042-1.077.071-1.625.071" transform="translate(-17.77 -31.963)" fill="#564637"/><path d="M1743.919,405.281l1.934,3.352a24.247,24.247,0,0,0,2.814-1.627l-1.938-3.356a20.416,20.416,0,0,1-2.81,1.631" transform="translate(-24.485 -29.676)" fill="#564637"/><path d="M1711.9,343.319l-1.935-3.353a24.367,24.367,0,0,0-2.813,1.627l1.937,3.356a20.616,20.616,0,0,1,2.811-1.631" transform="translate(-10.091 -4.747)" fill="#564637"/><path d="M1757.18,393.2l3.357,1.938a24.555,24.555,0,0,0,1.627-2.813l-3.352-1.936a20.386,20.386,0,0,1-1.631,2.811" transform="translate(-29.676 -24.484)" fill="#564637"/><path d="M1698.481,355.553l-3.356-1.938a24.41,24.41,0,0,0-1.627,2.813l3.353,1.935a20.54,20.54,0,0,1,1.631-2.811" transform="translate(-4.747 -10.09)" fill="#564637"/><path d="M1758.812,358.364l3.352-1.936a24.394,24.394,0,0,0-1.627-2.813l-3.357,1.938a20.5,20.5,0,0,1,1.631,2.811" transform="translate(-29.676 -10.09)" fill="#564637"/><path d="M1696.85,390.387l-3.353,1.936a24.411,24.411,0,0,0,1.627,2.813l3.356-1.938a20.537,20.537,0,0,1-1.631-2.81" transform="translate(-4.747 -24.484)" fill="#564637"/><path d="M1746.728,344.949l1.939-3.356a24.437,24.437,0,0,0-2.814-1.627l-1.935,3.353a20.364,20.364,0,0,1,2.811,1.631" transform="translate(-24.484 -4.747)" fill="#564637"/><path d="M1709.084,403.65l-1.938,3.357a24.41,24.41,0,0,0,2.814,1.627l1.935-3.352a20.423,20.423,0,0,1-2.81-1.632" transform="translate(-10.09 -29.676)" fill="#564637"/></g></svg>