<?xml version="1.0" encoding="utf-8"?>
<!-- Generator: Adobe Illustrator 26.0.0, SVG Export Plug-In . SVG Version: 6.00 Build 0)  -->
<svg version="1.1" id="Layer_1" xmlns="http://www.w3.org/2000/svg" xmlns:xlink="http://www.w3.org/1999/xlink" x="0px" y="0px"
	 viewBox="0 0 177.9 99.6" style="enable-background:new 0 0 177.9 99.6;" xml:space="preserve">
<style type="text/css">
	.st0{fill:#FDBB30;}
	.st1{fill:#695F50;}
</style>
<g transform="translate(-758.195 692.715)">
	<path class="st0" d="M778.6-691.1l24.6,24.6l-8.3,5.3c0,0-10.7,0.7-11.1,0s-7.9-6.3-7.9-6.3l-3.2-8.5c0,0,1.4-7.7,1.4-8.6
		s2.8-6.6,2.8-6.6L778.6-691.1z"/>
	<path class="st1" d="M778.1-688.3l22.9,22.4c-6.5,5.1-15.9,4.6-21.8-1.1c-3-2.9-4.7-7-4.7-11.2
		C774.4-681.9,775.7-685.5,778.1-688.3 M790.7-658.7c5.3,0,10.3-2,14.1-5.7c0.3-0.3,0.5-0.8,0.5-1.3v-0.1c0-0.5-0.2-1-0.5-1.3
		l-11.4-11.2l11.4-11.3c0.7-0.7,0.7-1.8,0-2.6c-0.7-0.7-1.8-0.7-2.6,0l0,0l-11.4,11.3l-11.5-11.3c-0.4-0.3-0.8-0.5-1.3-0.5h0l0,0h0
		c-0.6,0-1.1,0.3-1.5,0.8c-3.6,3.7-5.7,8.6-5.7,13.7c0,5.2,2.1,10.1,5.8,13.7C780.4-660.8,785.4-658.7,790.7-658.7"/>
	<path class="st1" d="M763.6-648.9l9.4-12.8l9.5,12.8H763.6z M787.6-646.3c0.3-0.6,0.2-1.3-0.2-1.9l-13.1-17.7
		c-0.3-0.5-0.9-0.7-1.5-0.7h0c-0.6,0-1.1,0.3-1.5,0.7l-12.9,17.7c-0.6,0.8-0.4,1.9,0.4,2.5c0.3,0.2,0.7,0.3,1.1,0.3h26
		C786.7-645.3,787.3-645.7,787.6-646.3"/>
	<rect x="803.6" y="-629.5" class="st0" width="33.4" height="26.6"/>
	<path class="st1" d="M835.2-605.3c0,1-0.7,1.8-1.7,1.9c0,0-0.1,0-0.1,0h-27.1c-1,0-1.8-0.7-1.9-1.7c0,0,0-0.1,0-0.1v-21.5
		c0-1,0.7-1.8,1.7-1.9c0,0,0.1,0,0.1,0h27.1c1,0,1.8,0.7,1.9,1.7c0,0,0,0.1,0,0.1L835.2-605.3z M833.4-632.3h-27.1
		c-3,0-5.4,2.4-5.5,5.4c0,0,0,0.1,0,0.1v21.5c0,3,2.4,5.4,5.4,5.5c0,0,0.1,0,0.1,0H818v3.1h-10.5c-1,0-1.8,0.8-1.8,1.8
		c0,1,0.8,1.8,1.8,1.8h24.5c1,0,1.8-0.8,1.8-1.8c0-1-0.8-1.8-1.8-1.8h-10.5v-3.1h11.7c3,0,5.4-2.4,5.5-5.4c0,0,0-0.1,0-0.1v-21.5
		c0-3-2.4-5.4-5.4-5.5C833.5-632.3,833.4-632.3,833.4-632.3"/>
	<path class="st1" d="M935.7-605.1c-0.2-1-2-2.2-2-2.2c-2.2-4.5-9.4-5.2-9.4-5.2c-3.1-4.4-7.2-8.1-11.8-10.9
		c-7.6-2.7-35.2-0.7-35.2-0.7c-4.3,0.3-3.8,1.6-3.8,1.6c-1.9,4.7-1.5,21.6-1.5,21.6c0,1.8,1.3,3.4,3.1,3.7l0.9,0v0
		c0-3.7,3-6.8,6.8-6.8s6.8,3,6.8,6.8l0,0c0,0,0,0.1,0,0.1c8.2,0.1,20.2,0.1,28.1,0.2c0-0.1,0-0.2,0-0.3c0-3.7,3-6.8,6.8-6.8
		s6.8,3,6.8,6.8c0,0.2,0,0.3,0,0.4c0.7-0.1,1.4-0.2,2.1-0.4c2.7-0.9,2.9-2.6,2.9-2.6L935.7-605.1z"/>
	<path class="st0" d="M882.7-601.7c-2.4,0-4.3,1.9-4.3,4.3c0,2.4,1.9,4.3,4.3,4.3c2.4,0,4.3-1.9,4.3-4.3
		C887-599.8,885.1-601.7,882.7-601.7C882.7-601.7,882.7-601.7,882.7-601.7"/>
	<path class="st0" d="M924.3-601.7c-2.4,0-4.3,1.9-4.3,4.3c0,2.4,1.9,4.3,4.3,4.3c2.4,0,4.3-1.9,4.3-4.3
		C928.6-599.8,926.7-601.7,924.3-601.7"/>
	<path class="st0" d="M882.4-653.6c0-0.8,0.6-1.4,1.4-1.4l0,0c0.8,0,1.4,0.6,1.4,1.4l0,0c0,0.8-0.6,1.4-1.4,1.4l0,0
		C883-652.2,882.4-652.9,882.4-653.6z M876.9-653.6c0-0.8,0.6-1.4,1.4-1.4c0,0,0,0,0,0l0,0c0.8,0,1.4,0.6,1.4,1.4l0,0
		c0,0.8-0.6,1.4-1.4,1.4l0,0C877.5-652.2,876.9-652.9,876.9-653.6L876.9-653.6z M871.4-653.6c0-0.8,0.6-1.4,1.4-1.4c0,0,0,0,0,0l0,0
		c0.8,0,1.4,0.6,1.4,1.4l0,0c0,0.8-0.6,1.4-1.4,1.4l0,0C872-652.2,871.3-652.9,871.4-653.6L871.4-653.6z M865.8-653.6
		c0-0.8,0.6-1.4,1.4-1.4c0,0,0,0,0,0l0,0c0.8,0,1.4,0.6,1.4,1.4c0,0,0,0,0,0l0,0c0,0.8-0.6,1.4-1.4,1.4l0,0
		C866.4-652.2,865.8-652.9,865.8-653.6L865.8-653.6z M860.3-653.6c0-0.8,0.6-1.4,1.4-1.4c0,0,0,0,0,0l0,0c0.8,0,1.4,0.6,1.4,1.4
		c0,0,0,0,0,0l0,0c0,0.8-0.6,1.4-1.4,1.4l0,0C860.9-652.2,860.3-652.9,860.3-653.6L860.3-653.6z M854.8-653.6c0-0.8,0.6-1.4,1.4-1.4
		c0,0,0,0,0,0l0,0c0.8,0,1.4,0.6,1.4,1.4c0,0,0,0,0,0l0,0c0,0.8-0.6,1.4-1.4,1.4l0,0C855.4-652.2,854.8-652.9,854.8-653.6
		L854.8-653.6z M849.2-653.6c0-0.8,0.6-1.4,1.4-1.4c0,0,0,0,0,0l0,0c0.8,0,1.4,0.6,1.4,1.4c0,0,0,0,0,0l0,0c0,0.8-0.6,1.4-1.4,1.4
		l0,0C849.9-652.2,849.2-652.9,849.2-653.6L849.2-653.6z M843.7-653.6c0-0.8,0.6-1.4,1.4-1.4l0,0c0.8,0,1.4,0.6,1.4,1.4c0,0,0,0,0,0
		l0,0c0,0.8-0.6,1.4-1.4,1.4l0,0C844.3-652.2,843.7-652.9,843.7-653.6L843.7-653.6z M838.2-653.6c0-0.8,0.6-1.4,1.4-1.4l0,0
		c0.8,0,1.4,0.6,1.4,1.4c0,0,0,0,0,0l0,0c0,0.8-0.6,1.4-1.4,1.4l0,0C838.8-652.2,838.2-652.9,838.2-653.6L838.2-653.6z M832.7-653.6
		c0-0.8,0.6-1.4,1.4-1.4l0,0c0.8,0,1.4,0.6,1.4,1.4c0,0,0,0,0,0l0,0c0,0.8-0.6,1.4-1.4,1.4l0,0C833.3-652.2,832.7-652.9,832.7-653.6
		L832.7-653.6z M827.1-653.6c0-0.8,0.6-1.4,1.4-1.4l0,0c0.8,0,1.4,0.6,1.4,1.4l0,0c0,0.8-0.6,1.4-1.4,1.4l0,0
		C827.8-652.2,827.1-652.9,827.1-653.6L827.1-653.6z M821.6-653.6c0-0.8,0.6-1.4,1.4-1.4c0,0,0,0,0,0l0,0c0.8,0,1.4,0.6,1.4,1.4l0,0
		c0,0.8-0.6,1.4-1.4,1.4l0,0C822.2-652.2,821.6-652.9,821.6-653.6L821.6-653.6z M816.1-653.6c0-0.8,0.6-1.4,1.4-1.4c0,0,0,0,0,0l0,0
		c0.8,0,1.4,0.6,1.4,1.4l0,0c0,0.8-0.6,1.4-1.4,1.4l0,0C816.7-652.2,816.1-652.9,816.1-653.6C816.1-653.6,816.1-653.6,816.1-653.6
		L816.1-653.6z"/>
	<path class="st0" d="M786.9-615.4c0-0.8,0.6-1.4,1.4-1.4l0,0c0.8,0,1.4,0.6,1.4,1.4l0,0c0,0.8-0.6,1.4-1.4,1.4c0,0,0,0,0,0l0,0
		C787.5-614,786.9-614.6,786.9-615.4C786.9-615.4,786.9-615.4,786.9-615.4z M781.4-615.4c0-0.8,0.6-1.4,1.4-1.4l0,0
		c0.8,0,1.4,0.6,1.4,1.4l0,0c0,0.8-0.6,1.4-1.4,1.4c0,0,0,0,0,0l0,0C782-614,781.4-614.6,781.4-615.4z"/>
	<path class="st1" d="M820.6-611.3h2.4v-6.4h2.6v-2.1h-7.5v2.1h2.6L820.6-611.3z M814.6-611.3h2.4v-8.5h-2.4V-611.3z"/>
</g>
</svg>
