<svg xmlns="http://www.w3.org/2000/svg" width="174.544" height="139.84" viewBox="0 0 174.544 139.84"><g transform="translate(-3236.284 -692.844)"><path d="M3383.947,817.454V748.382H3249.174v69.072h12.8V760.679h109.166v56.775Z" fill="#564637"/><path d="M3241.341,758.3l-5.057-6.938,80.287-58.519,80.267,58.52-5.058,6.938-75.209-54.832Z" fill="#564637"/><path d="M3243.508,751.409l73.063-53.253,73.04,53.253Z" fill="#564637"/><rect width="33.089" height="24.693" transform="translate(3298.717 807.991)" fill="#fb0"/><rect width="33.089" height="24.693" transform="translate(3338.228 807.991)" fill="#fb0"/><rect width="33.093" height="24.693" transform="translate(3377.735 807.991)" fill="#fb0"/><rect width="33.089" height="24.692" transform="translate(3318.469 778.676)" fill="#fb0"/><rect width="33.093" height="24.692" transform="translate(3357.979 778.676)" fill="#fb0"/><path d="M3352.15,744.3a2.142,2.142,0,0,1-2.227,2.411h-1.554a.245.245,0,0,1-.245-.244v-4.321a.245.245,0,0,1,.245-.244h1.554a2.131,2.131,0,0,1,2.227,2.4m-2.044,4.773c2.987,0,4.517-2.166,4.517-4.773s-1.53-4.773-4.517-4.773h-4.136a.3.3,0,0,0-.294.294v8.959a.3.3,0,0,0,.294.293Zm-12.226-5.079a.08.08,0,0,1,.147-.049l3.929,4.9a.6.6,0,0,0,.477.232h1.481a.3.3,0,0,0,.294-.293v-8.959a.3.3,0,0,0-.294-.294h-1.848a.3.3,0,0,0-.294.294v4.8a.079.079,0,0,1-.147.049l-3.928-4.908a.605.605,0,0,0-.478-.233h-1.493a.3.3,0,0,0-.294.294v8.959a.3.3,0,0,0,.294.293h1.86a.3.3,0,0,0,.294-.293Zm-9.056,1.469a.172.172,0,0,1-.159-.232l.881-2.338a.089.089,0,0,1,.171,0l.869,2.338a.173.173,0,0,1-.159.232Zm-4.162,3.341a.2.2,0,0,0,.184.269h2.081a.425.425,0,0,0,.391-.269l.343-.893a.359.359,0,0,1,.33-.233h3.268a.359.359,0,0,1,.331.233l.342.893a.426.426,0,0,0,.392.269h2.081a.2.2,0,0,0,.183-.269l-3.635-9.007a.44.44,0,0,0-.4-.27h-1.836a.44.44,0,0,0-.4.27Zm-.991.269a.3.3,0,0,0,.294-.293v-1.775a.3.3,0,0,0-.294-.294h-4.039a.245.245,0,0,1-.244-.244v-6.646a.3.3,0,0,0-.294-.294h-1.848a.3.3,0,0,0-.294.294v8.959a.3.3,0,0,0,.294.293ZM3310.1,741.9a.245.245,0,0,1,.244.244v6.634a.3.3,0,0,0,.294.293h1.86a.3.3,0,0,0,.294-.293v-6.634a.245.245,0,0,1,.245-.244h2.435a.3.3,0,0,0,.294-.294v-1.787a.3.3,0,0,0-.294-.294h-7.808a.3.3,0,0,0-.294.294v1.787a.3.3,0,0,0,.294.294Zm-8.029-.2a2.595,2.595,0,1,1-2.595,2.594,2.565,2.565,0,0,1,2.595-2.594m0,7.551A4.958,4.958,0,1,0,3297,744.3a5.023,5.023,0,0,0,5.067,4.957m-10-2.362a2.595,2.595,0,1,1,2.142-4.088.31.31,0,0,0,.428.123l1.689-.747a.279.279,0,0,0,.11-.379,4.958,4.958,0,1,0,.013,4.969.256.256,0,0,0-.11-.368l-1.7-.746a.324.324,0,0,0-.428.134,2.6,2.6,0,0,1-2.142,1.1m-9.5,2.362c2.178,0,3.794-.979,3.794-2.839,0-2.093-2.252-2.876-3.574-3.342-1.138-.391-1.578-.587-1.578-.966,0-.319.33-.649,1.162-.649a1.39,1.39,0,0,1,1.42.771.4.4,0,0,0,.416.33h1.7a.336.336,0,0,0,.318-.342c-.122-1.714-1.676-2.876-3.9-2.876-2.178,0-3.733,1.138-3.733,2.961,0,1.971,2,2.7,3.513,3.207,1.15.392,1.628.636,1.628,1.04,0,.282-.294.588-1.212.588a1.669,1.669,0,0,1-1.53-.612c-.147-.257-.208-.318-.489-.318h-1.652a.337.337,0,0,0-.319.342c.172,1.75,1.873,2.705,4.039,2.705" fill="#fb0"/></g></svg>