<?xml version="1.0" encoding="utf-8"?>
<!-- Generator: Adobe Illustrator 26.0.0, SVG Export Plug-In . SVG Version: 6.00 Build 0)  -->
<svg version="1.1" id="Layer_1" xmlns="http://www.w3.org/2000/svg" xmlns:xlink="http://www.w3.org/1999/xlink" x="0px" y="0px"
	 viewBox="0 0 235.8 171" style="enable-background:new 0 0 235.8 171;" xml:space="preserve">
<style type="text/css">
	.st0{fill:#FFBB00;}
	.st1{fill:#564637;}
</style>
<g>
	<g transform="translate(-100 -305)">
		<g transform="translate(-1664.188 -449.158)">
			<path class="st0" d="M1997.6,795.1l-14.8-25.7h-18.6l0,0l17.2,29.7l-17.1,29.6h18.7l14.8-25.5l2.3-4L1997.6,795.1z"/>
			<path class="st0" d="M1972.3,799.1l-2.3-4l-14.8-25.7h-18.6l0,0l17.2,29.7l-17.1,29.6h18.7l14.8-25.5L1972.3,799.1z"/>
			<path class="st0" d="M1944.7,799.1l-2.3-4l-14.8-25.7h-18.6l0,0l17.2,29.7l-17.1,29.6h18.7l14.8-25.5L1944.7,799.1z"/>
			<path class="st0" d="M1852.9,795.1l-14.8-25.7h-18.6l0,0l17.2,29.7l-17.1,29.6h18.7l14.8-25.5l2.3-4L1852.9,795.1z"/>
			<path class="st0" d="M1827.6,799.1l-2.3-4l-14.8-25.7h-18.6l0,0l17.2,29.7l-17.1,29.6h18.7l14.8-25.5L1827.6,799.1z"/>
			<path class="st0" d="M1800,799.1l-2.3-4l-14.8-25.7h-18.6l0,0l17.2,29.7l-17.1,29.6h18.7l14.8-25.5L1800,799.1z"/>
			<rect x="1876.1" y="835.3" class="st0" width="12.1" height="89.8"/>
			<path class="st1" d="M1882.2,844c24.8,0,44.9-20.1,44.9-44.9s-20.1-44.9-44.9-44.9s-44.9,20.1-44.9,44.9S1857.4,844,1882.2,844
				L1882.2,844"/>
			<path class="st0" d="M1872,800h-9.5v-8.2l-12.4,12.4l12.4,12.4v-8.3h9.5c3.3,0,5.9,2.7,5.9,5.9v19.3h8.4v-19.3
				C1886.3,806.4,1879.9,800.1,1872,800L1872,800z"/>
			<path class="st0" d="M1878.1,794.2c1.9-3.1,4.8-5.6,8.2-6.9v-10.8h8l-12.1-12.1l-12.1,12.1h8L1878.1,794.2z"/>
			<path class="st0" d="M1914.3,792.9l-12.4-12.4v8.2h-9.5c-6.4,0-12,4.2-13.7,10.3c3.3,1.4,6.1,3.8,7.8,6.9v-3
				c0-3.3,2.7-5.9,5.9-5.9h9.5v8.3L1914.3,792.9z"/>
		</g>
	</g>
</g>
</svg>
