<svg xmlns="http://www.w3.org/2000/svg" width="220.556" height="33.427" viewBox="0 0 220.556 33.427"><g transform="translate(-174.878 -741.848)"><path d="M175.954,745.112v-1.458q3.465.122,5.58.122,3.068,0,6.2-.122v1.458q-.555,0-2,.156a1.7,1.7,0,0,0-.789.225.771.771,0,0,0-.27.434,24.114,24.114,0,0,0-.173,3.818l-.034,7.047-.052,5.311q-.036,4.3-.139,5.154a9.012,9.012,0,0,1-1.5,3.94,11.775,11.775,0,0,1-3.422,3.229,6.012,6.012,0,0,1-3.222,1.059,4.5,4.5,0,0,1-1.265-.225q.088-1.19.087-1.606,0-.432-.087-1.555l.417-.19a3.29,3.29,0,0,0,2.482,1.2,1.378,1.378,0,0,0,1.059-.391,4.264,4.264,0,0,0,.468-2.2q.174-2.794.173-6.993l-.034-13.4a28.4,28.4,0,0,0-.156-4.1.855.855,0,0,0-.407-.581,14.264,14.264,0,0,0-2.924-.339" transform="translate(0 -0.21)" fill="#161615"/><path d="M191.473,754.893v-1.336a26.361,26.361,0,0,0,5.188-.989l1.719-.607c.208,0,.312.133.312.4l-.069,1.025q-.3,4-.3,7.715a13.138,13.138,0,0,0,.244,3.19,2.224,2.224,0,0,0,.875,1.225,2.942,2.942,0,0,0,1.692.434,3.564,3.564,0,0,0,2.161-.678,2.786,2.786,0,0,0,1.145-1.5,27.381,27.381,0,0,0,.217-4.658,32.1,32.1,0,0,0-.1-3.6.584.584,0,0,0-.244-.383,10.919,10.919,0,0,0-2.36-.243v-1.336a28.923,28.923,0,0,0,5.212-.938l1.836-.658c.2,0,.293.122.293.366l-.033.469q-.277,3.025-.279,10.975a19.553,19.553,0,0,0,.139,3.061.7.7,0,0,0,.276.418,8.808,8.808,0,0,0,2.171.3v1.423q-1.986-.1-3.937-.1-1.588,0-2.954.1l-.155-.311q.077-.868.138-2.727a34.146,34.146,0,0,0-3.122,2.865,6.047,6.047,0,0,1-2.43.538,5.722,5.722,0,0,1-2.778-.644,4.218,4.218,0,0,1-1.744-1.676,6.167,6.167,0,0,1-.564-2.912l.034-1.893q.052-1.754.052-2.849a29.925,29.925,0,0,0-.122-3.7.823.823,0,0,0-.363-.566,7.333,7.333,0,0,0-2.152-.2" transform="translate(-1.928 -1.175)" fill="#161615"/><path d="M216.393,744.52v-1.006a39.1,39.1,0,0,0,3.887-.677,24.5,24.5,0,0,0,3.072-.989l.452.383q-.26,6.2-.261,17.327,0,2.243.07,4.537a6.031,6.031,0,0,0,.163,1.7.905.905,0,0,0,.415.373,8.507,8.507,0,0,0,2.06.209v1.423l-1.819-.052q-1.7-.052-2.859-.052l-5.18.1v-1.423l1.284-.071a1.621,1.621,0,0,0,1.119-.32,5.118,5.118,0,0,0,.3-2.182q.088-2.626.087-7.458l-.017-7.422a20.728,20.728,0,0,0-.191-3.824.539.539,0,0,0-.261-.313,7.752,7.752,0,0,0-2.325-.262" transform="translate(-4.824)" fill="#161615"/><path d="M234.729,742.712a2.7,2.7,0,1,1-1.918.789,2.59,2.59,0,0,1,1.918-.789M229.9,767.895v-1.423a8.1,8.1,0,0,0,2.265-.243q.3-.175.391-.974.138-1.095.139-4.832,0-1.616-.052-2.989l-.052-2.034a2.155,2.155,0,0,0-.217-1.243,1.9,1.9,0,0,0-1.171-.27l-1.3-.052V752.5a21.52,21.52,0,0,0,6.89-1.494l.434.348q-.26,3.322-.26,9.671a44.143,44.143,0,0,0,.12,4.436,1.007,1.007,0,0,0,.319.7,9.12,9.12,0,0,0,2.268.313v1.423q-3.13-.1-4.842-.1-.917,0-4.929.1" transform="translate(-6.394 -0.1)" fill="#161615"/><path d="M252.654,760.43a10.2,10.2,0,0,0-3.96,1.436,2.586,2.586,0,0,0-.917,2.08,2.307,2.307,0,0,0,.589,1.671,1.98,1.98,0,0,0,1.487.608,3.987,3.987,0,0,0,2.8-1.548Zm6.56,7.133v1.423l-1.341-.052c-.708-.034-1.414-.052-2.123-.052q-1.635,0-3.1.1l-.173-.19.173-2.38-3.621,2.711a7.728,7.728,0,0,1-1.715.224,3.667,3.667,0,0,1-2.841-1.093,4.565,4.565,0,0,1-1-3.193,4.339,4.339,0,0,1,1.368-3.645q1.767-1.388,7.813-2.482a5.288,5.288,0,0,0-.711-2.98A3.434,3.434,0,0,0,249,754.685a4.32,4.32,0,0,0-.962.112,4.761,4.761,0,0,0-.994.356l-.779,1.857-1.2-.3.034-.781-.017-.763-.018-.695a24.06,24.06,0,0,1,3.819-2.065,7.071,7.071,0,0,1,2.361-.312,7.716,7.716,0,0,1,3.331.617,4.087,4.087,0,0,1,1.875,1.678,6.5,6.5,0,0,1,.589,3.1q0,.852-.069,3.044-.069,2.262-.07,3.636a15.728,15.728,0,0,0,.122,2.644.686.686,0,0,0,.339.435,7.088,7.088,0,0,0,1.848.313" transform="translate(-7.971 -1.191)" fill="#161615"/><path d="M263.287,768.986v-1.423a6.184,6.184,0,0,0,2.134-.3,1.308,1.308,0,0,0,.3-.9q.1-1.757.1-6.187,0-2.19-.07-3.771a3.672,3.672,0,0,0-.137-1.147.521.521,0,0,0-.276-.208,15.35,15.35,0,0,0-2.051-.122v-1.335a16.511,16.511,0,0,0,2.932-.4,20.79,20.79,0,0,0,3.349-.93l.47-.159q.244,0,.244.4l-.018.156q-.052.487-.052,2.5L272.9,752.9a2.792,2.792,0,0,1,1.04-.59,7.121,7.121,0,0,1,1.853-.209,6.269,6.269,0,0,1,3.007.635,3.934,3.934,0,0,1,1.715,1.757,8.382,8.382,0,0,1,.546,3.487q0,1.043-.052,2.418-.088,2.818-.087,4.87a4.658,4.658,0,0,0,.191,1.618.748.748,0,0,0,.39.417,11.613,11.613,0,0,0,1.9.262v1.423l-2.135-.07-1.371-.034-3.575.1-.192-.226a49.9,49.9,0,0,0,.452-6.777q0-4.413-.538-5.439a2.6,2.6,0,0,0-2.534-1.321,3.513,3.513,0,0,0-2.048.6,2.9,2.9,0,0,0-1.128,1.28,6.748,6.748,0,0,0-.122,1.758q0,6.3.052,7.214a1.77,1.77,0,0,0,.3,1.122,5.863,5.863,0,0,0,2.326.366v1.423q-3.02-.1-5.1-.1-1.233,0-4.495.1" transform="translate(-10.274 -1.191)" fill="#161615"/><path d="M307.3,766.025a7.513,7.513,0,0,0,1.887.261,4.9,4.9,0,0,0,3.774-1.415,5.893,5.893,0,0,0,1.316-4.156,6.279,6.279,0,0,0-.6-2.924,3.927,3.927,0,0,0-1.646-1.692,6.5,6.5,0,0,0-2.986-.555l-1.749.018v.451l-.035,4.5.035,4.546Zm-.052-12.34h.9q2.932,0,4.122-1.059a4.221,4.221,0,0,0,1.19-3.315,3.909,3.909,0,0,0-.964-2.916,4.436,4.436,0,0,0-3.167-.937,17.51,17.51,0,0,0-2,.139q-.1,5.328-.1,6.526ZM300.585,768v-.816a9.074,9.074,0,0,0,1.51-1.076q.208-2.394.208-10.587,0-5.935-.173-8.4-.086-1.336-.364-1.562a5.81,5.81,0,0,0-2.639-.452v-1.458l3.333.07,2.552.052q1.163,0,3.436-.061,2.2-.06,3.16-.061,3.852,0,5.518,1.288a4.2,4.2,0,0,1,1.666,3.514,4.768,4.768,0,0,1-1.646,3.748,9.982,9.982,0,0,1-4.645,2.072v.139a13.685,13.685,0,0,1,4.333.938,4.774,4.774,0,0,1,2.011,1.947,5.9,5.9,0,0,1,.763,3.006,6.814,6.814,0,0,1-1.259,3.91,8.132,8.132,0,0,1-3.332,2.815,14.07,14.07,0,0,1-5.84.974q-.746,0-2.239-.061-1.389-.061-2.273-.061-.99,0-4.08.122" transform="translate(-14.438 -0.21)" fill="#161615"/><path d="M331,759.54q0,4.629,1.181,6.595a3.018,3.018,0,0,0,2.759,1.514,2.835,2.835,0,0,0,2.491-1.289q.876-1.286.876-4.68,0-4.662-1.076-6.455a3.015,3.015,0,0,0-2.76-1.426,2.954,2.954,0,0,0-2.543,1.305A7.928,7.928,0,0,0,331,759.54m-4.808,1.192q0-4.116,1.927-6.185,2.308-2.45,6.664-2.45,4.34,0,6.336,1.964t2,6.2a9.244,9.244,0,0,1-2.3,6.724,8.514,8.514,0,0,1-6.4,2.362,8.058,8.058,0,0,1-6.126-2.207q-2.1-2.206-2.1-6.41" transform="translate(-17.583 -1.191)" fill="#161615"/><path d="M347.1,753.892v-1.424q2.152.122,5.449.122,2.4,0,4.287-.122v1.424l-1.128.052a2.587,2.587,0,0,0-1.137.173.541.541,0,0,0-.235.486q0,.191.607,2.6l1.7,6.264,3.471-7.664q1.2-2.642,1.631-3.807h1.84q1.179,3.251,4.911,11.472l1.545-4.634a23.987,23.987,0,0,0,1.163-4.148.6.6,0,0,0-.33-.573,10.663,10.663,0,0,0-2.17-.225v-1.424q2.463.088,3.835.088,1.494,0,3.385-.088v1.424a4.967,4.967,0,0,0-1.666.225,1.266,1.266,0,0,0-.416.486,61.2,61.2,0,0,0-2.343,6.161q-1.319,3.819-2.639,8.21H366.02q-1.945-4.954-4.738-10.934-3.02,6.172-4.878,10.934h-2.863q-.748-3.159-2.291-8.513t-1.806-5.858a1.01,1.01,0,0,0-.364-.416,6.422,6.422,0,0,0-1.979-.3" transform="translate(-20.013 -1.18)" fill="#161615"/><path d="M386.456,758.9q1.56.138,3.123.139,1.371,0,2.881-.139l.018-.819a5.03,5.03,0,0,0-.781-3.126,2.561,2.561,0,0,0-2.118-.985,2.8,2.8,0,0,0-1.614.462,2.74,2.74,0,0,0-1.007,1.3,12.566,12.566,0,0,0-.5,3.17m9.669,6.73.5.5-.778,1.661a9.987,9.987,0,0,1-2.682,1.164,11.6,11.6,0,0,1-3.046.388,8.016,8.016,0,0,1-5.963-2.2,8.392,8.392,0,0,1-2.179-6.176,11.624,11.624,0,0,1,.642-4.17,4.989,4.989,0,0,1,1.71-2.223,19.516,19.516,0,0,1,2.742-1.685,7.347,7.347,0,0,1,3.411-.8,6.969,6.969,0,0,1,4.7,1.593q1.857,1.591,1.857,5.122,0,.435-.069,1.321l-2.841.521q-1.318.086-3.812.087H386.56a6.981,6.981,0,0,0,1.788,4.508,5.294,5.294,0,0,0,3.889,1.515,6.917,6.917,0,0,0,1.962-.287,8.778,8.778,0,0,0,1.927-.845" transform="translate(-24.066 -1.191)" fill="#161615"/><path d="M401.674,768.986v-1.423a6.191,6.191,0,0,0,2.135-.3,1.308,1.308,0,0,0,.294-.9q.1-1.757.105-6.187,0-2.19-.07-3.771a3.63,3.63,0,0,0-.138-1.147.518.518,0,0,0-.276-.208,15.334,15.334,0,0,0-2.051-.122v-1.335a16.519,16.519,0,0,0,2.932-.4,20.844,20.844,0,0,0,3.349-.93l.469-.159q.244,0,.244.4l-.017.156q-.053.487-.052,2.5l2.685-2.256a2.792,2.792,0,0,1,1.04-.59,7.124,7.124,0,0,1,1.854-.209,6.274,6.274,0,0,1,3.007.635,3.928,3.928,0,0,1,1.715,1.757,8.382,8.382,0,0,1,.546,3.487q0,1.043-.052,2.418-.088,2.818-.087,4.87a4.679,4.679,0,0,0,.191,1.618.75.75,0,0,0,.391.417,11.576,11.576,0,0,0,1.9.262v1.423l-2.134-.07-1.371-.034-3.576.1-.191-.226a50.042,50.042,0,0,0,.452-6.777q0-4.413-.538-5.439a2.605,2.605,0,0,0-2.535-1.321,3.515,3.515,0,0,0-2.048.6,2.909,2.909,0,0,0-1.128,1.28,6.812,6.812,0,0,0-.121,1.758q0,6.3.052,7.214a1.759,1.759,0,0,0,.3,1.122,5.857,5.857,0,0,0,2.325.366v1.423q-3.02-.1-5.1-.1-1.233,0-4.495.1" transform="translate(-26.355 -1.191)" fill="#161615"/></g></svg>