<svg xmlns="http://www.w3.org/2000/svg" width="1004" height="78" viewBox="0 0 1004 78"><g transform="translate(-290 -366)"><rect width="1004" height="42" transform="translate(290 402)" fill="#fff"/><path d="M6,0H998a6,6,0,0,1,6,6V36a0,0,0,0,1,0,0H0a0,0,0,0,1,0,0V6A6,6,0,0,1,6,0Z" transform="translate(290 366)" fill="#615e59"/><path d="M3.192.112A2.95,2.95,0,0,1,2.064-.1a2.755,2.755,0,0,1-.916-.6,2.9,2.9,0,0,1-.616-.92A2.9,2.9,0,0,1,.3-2.784V-2.8A2.907,2.907,0,0,1,.528-3.94a2.909,2.909,0,0,1,.616-.928,2.81,2.81,0,0,1,.932-.62,3.05,3.05,0,0,1,1.18-.224,3.382,3.382,0,0,1,.784.084,2.681,2.681,0,0,1,.644.24,2.576,2.576,0,0,1,.528.372,3.058,3.058,0,0,1,.42.472l-1.168.9a2.018,2.018,0,0,0-.528-.48,1.31,1.31,0,0,0-.7-.176,1.242,1.242,0,0,0-.54.116,1.292,1.292,0,0,0-.42.316A1.478,1.478,0,0,0,2-3.392a1.656,1.656,0,0,0-.1.576V-2.8a1.713,1.713,0,0,0,.1.588,1.469,1.469,0,0,0,.276.476,1.292,1.292,0,0,0,.42.316,1.242,1.242,0,0,0,.54.116,1.535,1.535,0,0,0,.4-.048,1.205,1.205,0,0,0,.328-.14,1.785,1.785,0,0,0,.28-.216,3.252,3.252,0,0,0,.26-.276l1.168.832a4.165,4.165,0,0,1-.436.5,2.508,2.508,0,0,1-.536.4,2.8,2.8,0,0,1-.672.264A3.35,3.35,0,0,1,3.192.112Zm5.72-3.024a.937.937,0,0,0,.616-.18.6.6,0,0,0,.216-.484v-.016a.579.579,0,0,0-.224-.5A1.024,1.024,0,0,0,8.9-4.256H7.888v1.344ZM6.336-5.6H8.984a3.28,3.28,0,0,1,1.1.16,1.875,1.875,0,0,1,.728.448,1.73,1.73,0,0,1,.5,1.3v.016A1.761,1.761,0,0,1,10.992-2.6a1.974,1.974,0,0,1-.84.648L11.488,0H9.7L8.568-1.7h-.68V0H6.336Zm5.752,0h4.5v1.32H13.616v.848H16.3v1.224H13.616v.888h3.008V0H12.088ZM20.72-2.2,20.1-3.792,19.464-2.2ZM19.36-5.64h1.5L23.24,0H21.576l-.408-1h-2.16l-.4,1H16.976Zm5.792,1.4h-1.68V-5.6h4.912v1.36H26.7V0H25.152ZM29.064-5.6h4.5v1.32H30.592v.848H33.28v1.224H30.592v.888H33.6V0H29.064Zm7.522,4.224a1.658,1.658,0,0,0,1.124-.368,1.311,1.311,0,0,0,.426-1.048v-.016a1.313,1.313,0,0,0-.426-1.044,1.646,1.646,0,0,0-1.124-.372h-.634v2.848ZM34.4-5.6h2.16a4.077,4.077,0,0,1,1.34.2,2.828,2.828,0,0,1,.992.572,2.443,2.443,0,0,1,.616.876,2.87,2.87,0,0,1,.212,1.116v.016A2.882,2.882,0,0,1,39.5-1.692,2.524,2.524,0,0,1,38.88-.8a2.888,2.888,0,0,1-1,.588A4.006,4.006,0,0,1,36.528,0H34.4Z" transform="translate(415 388)" fill="#fff"/><rect width="16" height="16" rx="4" transform="translate(303 376)" fill="#fff"/><path d="M3.192.112A2.95,2.95,0,0,1,2.064-.1a2.755,2.755,0,0,1-.916-.6,2.9,2.9,0,0,1-.616-.92A2.9,2.9,0,0,1,.3-2.784V-2.8A2.907,2.907,0,0,1,.528-3.94a2.909,2.909,0,0,1,.616-.928,2.81,2.81,0,0,1,.932-.62,3.05,3.05,0,0,1,1.18-.224,3.382,3.382,0,0,1,.784.084,2.681,2.681,0,0,1,.644.24,2.576,2.576,0,0,1,.528.372,3.058,3.058,0,0,1,.42.472l-1.168.9a2.018,2.018,0,0,0-.528-.48,1.31,1.31,0,0,0-.7-.176,1.242,1.242,0,0,0-.54.116,1.292,1.292,0,0,0-.42.316A1.478,1.478,0,0,0,2-3.392a1.656,1.656,0,0,0-.1.576V-2.8a1.713,1.713,0,0,0,.1.588,1.469,1.469,0,0,0,.276.476,1.292,1.292,0,0,0,.42.316,1.242,1.242,0,0,0,.54.116,1.535,1.535,0,0,0,.4-.048,1.205,1.205,0,0,0,.328-.14,1.785,1.785,0,0,0,.28-.216,3.252,3.252,0,0,0,.26-.276l1.168.832a4.165,4.165,0,0,1-.436.5,2.508,2.508,0,0,1-.536.4,2.8,2.8,0,0,1-.672.264A3.35,3.35,0,0,1,3.192.112ZM8.856.1a3.57,3.57,0,0,1-1.08-.152A2.094,2.094,0,0,1,6.96-.516a2.066,2.066,0,0,1-.516-.8,3.268,3.268,0,0,1-.18-1.14V-5.6H7.848v3.112a1.266,1.266,0,0,0,.278.9.981.981,0,0,0,.746.292,1,1,0,0,0,.746-.28A1.2,1.2,0,0,0,9.9-2.448V-5.6H11.48v3.1a3.283,3.283,0,0,1-.188,1.172,2.11,2.11,0,0,1-.528.808,2.126,2.126,0,0,1-.824.468A3.609,3.609,0,0,1,8.856.1ZM14.6.1a4.344,4.344,0,0,1-1.428-.233,3.462,3.462,0,0,1-1.2-.7l.864-1.034a2.85,2.85,0,0,0,1.816.672.925.925,0,0,0,.476-.1.315.315,0,0,0,.164-.284V-1.6a.3.3,0,0,0-.04-.156.407.407,0,0,0-.148-.132,1.521,1.521,0,0,0-.288-.124q-.18-.06-.468-.124-.448-.1-.832-.228a2.549,2.549,0,0,1-.668-.319,1.448,1.448,0,0,1-.448-.487,1.456,1.456,0,0,1-.164-.723v-.016a1.725,1.725,0,0,1,.148-.719,1.594,1.594,0,0,1,.432-.567,2.035,2.035,0,0,1,.684-.371,2.883,2.883,0,0,1,.9-.132,4.029,4.029,0,0,1,1.284.189,3.238,3.238,0,0,1,1.02.559l-.776,1.1a3.146,3.146,0,0,0-.788-.412,2.378,2.378,0,0,0-.78-.14.7.7,0,0,0-.42.1.309.309,0,0,0-.14.256v.016a.315.315,0,0,0,.044.168A.4.4,0,0,0,14-3.725a1.676,1.676,0,0,0,.3.12q.188.06.476.124a6.823,6.823,0,0,1,.868.243,2.6,2.6,0,0,1,.66.339,1.359,1.359,0,0,1,.416.483,1.474,1.474,0,0,1,.144.675v.016a1.723,1.723,0,0,1-.164.767,1.646,1.646,0,0,1-.46.571,2.083,2.083,0,0,1-.712.359A3.249,3.249,0,0,1,14.6.1ZM18.984-4.24H17.3V-5.6h4.912v1.36h-1.68V0H18.984Zm6.74,2.952a1.4,1.4,0,0,0,.586-.12,1.347,1.347,0,0,0,.449-.324,1.505,1.505,0,0,0,.289-.476,1.6,1.6,0,0,0,.1-.576V-2.8a1.6,1.6,0,0,0-.1-.576,1.479,1.479,0,0,0-.3-.48,1.46,1.46,0,0,0-.457-.332,1.364,1.364,0,0,0-.586-.124,1.375,1.375,0,0,0-.582.12,1.4,1.4,0,0,0-.449.324,1.413,1.413,0,0,0-.289.476,1.652,1.652,0,0,0-.1.576V-2.8a1.6,1.6,0,0,0,.1.576,1.516,1.516,0,0,0,.293.48,1.413,1.413,0,0,0,.453.332A1.364,1.364,0,0,0,25.724-1.288Zm-.012,1.4a3.113,3.113,0,0,1-1.2-.228,2.955,2.955,0,0,1-.952-.62,2.864,2.864,0,0,1-.628-.92A2.815,2.815,0,0,1,22.7-2.784V-2.8a2.843,2.843,0,0,1,.228-1.132,2.836,2.836,0,0,1,.636-.928,3.015,3.015,0,0,1,.96-.624,3.113,3.113,0,0,1,1.2-.228,3.113,3.113,0,0,1,1.2.228,2.955,2.955,0,0,1,.952.62,2.863,2.863,0,0,1,.628.92,2.815,2.815,0,0,1,.228,1.128V-2.8a2.843,2.843,0,0,1-.228,1.132,2.836,2.836,0,0,1-.636.928,3.015,3.015,0,0,1-.96.624A3.113,3.113,0,0,1,25.712.112ZM29.544-5.6h1.64L32.52-3.432,33.856-5.6H35.5V0H33.952V-3.216L32.524-1.024h-.032L31.072-3.2V0H29.544Zm6.944,0h4.5v1.32H38.016v.848H40.7v1.224H38.016v.888h3.008V0H36.488ZM44.4-2.912a.937.937,0,0,0,.616-.18.6.6,0,0,0,.216-.484v-.016a.579.579,0,0,0-.224-.5,1.024,1.024,0,0,0-.616-.164H43.376v1.344ZM41.824-5.6h2.648a3.28,3.28,0,0,1,1.1.16,1.875,1.875,0,0,1,.728.448,1.73,1.73,0,0,1,.5,1.3v.016A1.761,1.761,0,0,1,46.48-2.6a1.974,1.974,0,0,1-.84.648L46.976,0H45.184L44.056-1.7h-.68V0H41.824Zm7.968,0h1.451l2.309,2.96V-5.6H55.08V0H53.717l-2.4-3.072V0H49.792Zm9.576,3.4-.624-1.592L58.112-2.2Zm-1.36-3.44h1.5L61.888,0H60.224l-.408-1h-2.16l-.4,1H55.624Zm4.424.04h1.64l1.336,2.168L66.744-5.6h1.64V0H66.84V-3.216L65.412-1.024H65.38L63.96-3.2V0H62.432Zm6.944,0h4.5v1.32H70.9v.848h2.688v1.224H70.9v.888h3.008V0H69.376Z" transform="translate(620 388)" fill="#fff"/><path d="M3.792-2.2,3.168-3.792,2.536-2.2ZM2.432-5.64h1.5L6.312,0H4.648L4.24-1H2.08l-.4,1H.048Zm6.61,4.264a1.658,1.658,0,0,0,1.124-.368,1.31,1.31,0,0,0,.426-1.048v-.016a1.313,1.313,0,0,0-.426-1.044,1.646,1.646,0,0,0-1.124-.372H8.408v2.848ZM6.856-5.6h2.16a4.077,4.077,0,0,1,1.34.2,2.828,2.828,0,0,1,.992.572,2.443,2.443,0,0,1,.616.876,2.87,2.87,0,0,1,.212,1.116v.016a2.882,2.882,0,0,1-.216,1.124,2.524,2.524,0,0,1-.624.892,2.888,2.888,0,0,1-1,.588A4.006,4.006,0,0,1,8.984,0H6.856Zm8.306,4.224a1.658,1.658,0,0,0,1.124-.368,1.31,1.31,0,0,0,.426-1.048v-.016a1.313,1.313,0,0,0-.426-1.044,1.646,1.646,0,0,0-1.124-.372h-.634v2.848ZM12.976-5.6h2.16a4.077,4.077,0,0,1,1.34.2,2.828,2.828,0,0,1,.992.572,2.443,2.443,0,0,1,.616.876A2.87,2.87,0,0,1,18.3-2.832v.016a2.882,2.882,0,0,1-.216,1.124,2.524,2.524,0,0,1-.624.892,2.888,2.888,0,0,1-1,.588A4.006,4.006,0,0,1,15.1,0H12.976Zm8.7,2.688a.937.937,0,0,0,.616-.18.6.6,0,0,0,.216-.484v-.016a.579.579,0,0,0-.224-.5,1.024,1.024,0,0,0-.616-.164H20.648v1.344ZM19.1-5.6h2.648a3.28,3.28,0,0,1,1.1.16,1.875,1.875,0,0,1,.728.448,1.73,1.73,0,0,1,.5,1.3v.016A1.761,1.761,0,0,1,23.752-2.6a1.974,1.974,0,0,1-.84.648L24.248,0H22.456L21.328-1.7h-.68V0H19.1Zm5.752,0h4.5v1.32H26.376v.848h2.688v1.224H26.376v.888h3.008V0H24.848ZM32.384.1a4.344,4.344,0,0,1-1.428-.233,3.462,3.462,0,0,1-1.2-.7l.864-1.034A2.85,2.85,0,0,0,32.44-1.2a.925.925,0,0,0,.476-.1.315.315,0,0,0,.164-.284V-1.6a.3.3,0,0,0-.04-.156.407.407,0,0,0-.148-.132,1.521,1.521,0,0,0-.288-.124q-.18-.06-.468-.124-.448-.1-.832-.228a2.549,2.549,0,0,1-.668-.319,1.448,1.448,0,0,1-.448-.487,1.456,1.456,0,0,1-.164-.723v-.016a1.725,1.725,0,0,1,.148-.719,1.594,1.594,0,0,1,.432-.567,2.035,2.035,0,0,1,.684-.371,2.883,2.883,0,0,1,.9-.132,4.029,4.029,0,0,1,1.284.189,3.238,3.238,0,0,1,1.02.559l-.776,1.1a3.146,3.146,0,0,0-.788-.412,2.378,2.378,0,0,0-.78-.14.7.7,0,0,0-.42.1.309.309,0,0,0-.14.256v.016a.315.315,0,0,0,.044.168.4.4,0,0,0,.152.132,1.676,1.676,0,0,0,.3.12q.188.06.476.124a6.823,6.823,0,0,1,.868.243,2.6,2.6,0,0,1,.66.339,1.359,1.359,0,0,1,.416.483,1.474,1.474,0,0,1,.144.675v.016a1.723,1.723,0,0,1-.164.767,1.646,1.646,0,0,1-.46.571,2.083,2.083,0,0,1-.712.359A3.249,3.249,0,0,1,32.384.1ZM37.6.1a4.344,4.344,0,0,1-1.428-.233,3.462,3.462,0,0,1-1.2-.7l.864-1.034a2.85,2.85,0,0,0,1.816.672.925.925,0,0,0,.476-.1.315.315,0,0,0,.164-.284V-1.6a.3.3,0,0,0-.04-.156.407.407,0,0,0-.148-.132,1.521,1.521,0,0,0-.288-.124q-.18-.06-.468-.124-.448-.1-.832-.228a2.549,2.549,0,0,1-.668-.319,1.448,1.448,0,0,1-.448-.487,1.456,1.456,0,0,1-.164-.723v-.016a1.725,1.725,0,0,1,.148-.719,1.594,1.594,0,0,1,.432-.567,2.035,2.035,0,0,1,.684-.371,2.883,2.883,0,0,1,.9-.132,4.029,4.029,0,0,1,1.284.189,3.238,3.238,0,0,1,1.02.559l-.776,1.1a3.146,3.146,0,0,0-.788-.412,2.378,2.378,0,0,0-.78-.14.7.7,0,0,0-.42.1.309.309,0,0,0-.14.256v.016a.315.315,0,0,0,.044.168A.4.4,0,0,0,37-3.725a1.676,1.676,0,0,0,.3.12q.188.06.476.124a6.823,6.823,0,0,1,.868.243,2.6,2.6,0,0,1,.66.339,1.359,1.359,0,0,1,.416.483,1.474,1.474,0,0,1,.144.675v.016a1.723,1.723,0,0,1-.164.767,1.646,1.646,0,0,1-.46.571,2.083,2.083,0,0,1-.712.359A3.249,3.249,0,0,1,37.6.1Z" transform="translate(762 388)" fill="#fff"/><path d="M2.7.1A4.344,4.344,0,0,1,1.268-.137a3.462,3.462,0,0,1-1.2-.7L.936-1.872A2.85,2.85,0,0,0,2.752-1.2a.925.925,0,0,0,.476-.1.315.315,0,0,0,.164-.284V-1.6a.3.3,0,0,0-.04-.156A.407.407,0,0,0,3.2-1.887a1.521,1.521,0,0,0-.288-.124q-.18-.06-.468-.124-.448-.1-.832-.228a2.549,2.549,0,0,1-.668-.319A1.448,1.448,0,0,1,.5-3.169a1.456,1.456,0,0,1-.164-.723v-.016a1.725,1.725,0,0,1,.148-.719,1.594,1.594,0,0,1,.432-.567A2.035,2.035,0,0,1,1.6-5.564,2.883,2.883,0,0,1,2.5-5.7a4.029,4.029,0,0,1,1.284.189,3.238,3.238,0,0,1,1.02.559l-.776,1.1a3.146,3.146,0,0,0-.788-.412,2.378,2.378,0,0,0-.78-.14.7.7,0,0,0-.42.1.309.309,0,0,0-.14.256v.016a.315.315,0,0,0,.044.168.4.4,0,0,0,.152.132,1.676,1.676,0,0,0,.3.12q.188.06.476.124a6.823,6.823,0,0,1,.868.243A2.6,2.6,0,0,1,4.4-2.9a1.359,1.359,0,0,1,.416.483,1.474,1.474,0,0,1,.144.675v.016A1.723,1.723,0,0,1,4.8-.958a1.646,1.646,0,0,1-.46.571,2.083,2.083,0,0,1-.712.359A3.249,3.249,0,0,1,2.7.1ZM7.08-4.24H5.4V-5.6h4.912v1.36H8.632V0H7.08ZM14.288-2.2l-.624-1.592L13.032-2.2Zm-1.36-3.44h1.5L16.808,0H15.144l-.408-1h-2.16l-.4,1H10.544Zm5.792,1.4H17.04V-5.6h4.912v1.36h-1.68V0H18.72ZM25.152.1a3.57,3.57,0,0,1-1.08-.152,2.094,2.094,0,0,1-.816-.468,2.066,2.066,0,0,1-.516-.8,3.268,3.268,0,0,1-.18-1.14V-5.6h1.584v3.112a1.266,1.266,0,0,0,.278.9.981.981,0,0,0,.746.292,1,1,0,0,0,.746-.28,1.2,1.2,0,0,0,.278-.872V-5.6h1.584v3.1a3.283,3.283,0,0,1-.188,1.172,2.11,2.11,0,0,1-.528.808,2.126,2.126,0,0,1-.824.468A3.609,3.609,0,0,1,25.152.1ZM30.9.1a4.344,4.344,0,0,1-1.428-.233,3.462,3.462,0,0,1-1.2-.7l.864-1.034a2.85,2.85,0,0,0,1.816.672.925.925,0,0,0,.476-.1.315.315,0,0,0,.164-.284V-1.6a.3.3,0,0,0-.04-.156.407.407,0,0,0-.148-.132,1.521,1.521,0,0,0-.288-.124q-.18-.06-.468-.124-.448-.1-.832-.228a2.549,2.549,0,0,1-.668-.319,1.448,1.448,0,0,1-.448-.487,1.456,1.456,0,0,1-.164-.723v-.016a1.725,1.725,0,0,1,.148-.719,1.594,1.594,0,0,1,.432-.567,2.035,2.035,0,0,1,.684-.371,2.883,2.883,0,0,1,.9-.132,4.029,4.029,0,0,1,1.284.189,3.238,3.238,0,0,1,1.02.559l-.776,1.1a3.146,3.146,0,0,0-.788-.412,2.378,2.378,0,0,0-.78-.14.7.7,0,0,0-.42.1.309.309,0,0,0-.14.256v.016a.315.315,0,0,0,.044.168.4.4,0,0,0,.152.132,1.676,1.676,0,0,0,.3.12q.188.06.476.124a6.823,6.823,0,0,1,.868.243,2.6,2.6,0,0,1,.66.339,1.359,1.359,0,0,1,.416.483,1.474,1.474,0,0,1,.144.675v.016A1.723,1.723,0,0,1,33-.958a1.646,1.646,0,0,1-.46.571,2.083,2.083,0,0,1-.712.359A3.249,3.249,0,0,1,30.9.1Z" transform="translate(1033 388)" fill="#fff"/><path d="M3.192.112A2.95,2.95,0,0,1,2.064-.1a2.755,2.755,0,0,1-.916-.6,2.9,2.9,0,0,1-.616-.92A2.9,2.9,0,0,1,.3-2.784V-2.8A2.907,2.907,0,0,1,.528-3.94a2.909,2.909,0,0,1,.616-.928,2.81,2.81,0,0,1,.932-.62,3.05,3.05,0,0,1,1.18-.224,3.382,3.382,0,0,1,.784.084,2.681,2.681,0,0,1,.644.24,2.576,2.576,0,0,1,.528.372,3.058,3.058,0,0,1,.42.472l-1.168.9a2.018,2.018,0,0,0-.528-.48,1.31,1.31,0,0,0-.7-.176,1.242,1.242,0,0,0-.54.116,1.292,1.292,0,0,0-.42.316A1.478,1.478,0,0,0,2-3.392a1.656,1.656,0,0,0-.1.576V-2.8a1.713,1.713,0,0,0,.1.588,1.469,1.469,0,0,0,.276.476,1.292,1.292,0,0,0,.42.316,1.242,1.242,0,0,0,.54.116,1.535,1.535,0,0,0,.4-.048,1.205,1.205,0,0,0,.328-.14,1.785,1.785,0,0,0,.28-.216,3.252,3.252,0,0,0,.26-.276l1.168.832a4.165,4.165,0,0,1-.436.5,2.508,2.508,0,0,1-.536.4,2.8,2.8,0,0,1-.672.264A3.35,3.35,0,0,1,3.192.112Zm5.72-3.024a.937.937,0,0,0,.616-.18.6.6,0,0,0,.216-.484v-.016a.579.579,0,0,0-.224-.5A1.024,1.024,0,0,0,8.9-4.256H7.888v1.344ZM6.336-5.6H8.984a3.28,3.28,0,0,1,1.1.16,1.875,1.875,0,0,1,.728.448,1.73,1.73,0,0,1,.5,1.3v.016A1.761,1.761,0,0,1,10.992-2.6a1.974,1.974,0,0,1-.84.648L11.488,0H9.7L8.568-1.7h-.68V0H6.336Zm5.752,0h4.5v1.32H13.616v.848H16.3v1.224H13.616v.888h3.008V0H12.088ZM20.72-2.2,20.1-3.792,19.464-2.2ZM19.36-5.64h1.5L23.24,0H21.576l-.408-1h-2.16l-.4,1H16.976Zm5.792,1.4h-1.68V-5.6h4.912v1.36H26.7V0H25.152ZM29.064-5.6h4.5v1.32H30.592v.848H33.28v1.224H30.592v.888H33.6V0H29.064Zm7.522,4.224a1.658,1.658,0,0,0,1.124-.368,1.311,1.311,0,0,0,.426-1.048v-.016a1.313,1.313,0,0,0-.426-1.044,1.646,1.646,0,0,0-1.124-.372h-.634v2.848ZM34.4-5.6h2.16a4.077,4.077,0,0,1,1.34.2,2.828,2.828,0,0,1,.992.572,2.443,2.443,0,0,1,.616.876,2.87,2.87,0,0,1,.212,1.116v.016A2.882,2.882,0,0,1,39.5-1.692,2.524,2.524,0,0,1,38.88-.8a2.888,2.888,0,0,1-1,.588A4.006,4.006,0,0,1,36.528,0H34.4Z" transform="translate(518 388)" fill="#fff"/><path d="M2.784-2.816a.987.987,0,0,0,.652-.2.66.66,0,0,0,.236-.535v-.016a.664.664,0,0,0-.236-.551,1.03,1.03,0,0,0-.66-.189H2.048v1.488ZM.5-5.6H2.9a3.277,3.277,0,0,1,.96.132,2.1,2.1,0,0,1,.736.384,1.684,1.684,0,0,1,.468.62,2.023,2.023,0,0,1,.164.832v.016a2,2,0,0,1-.18.872,1.785,1.785,0,0,1-.5.632,2.169,2.169,0,0,1-.764.384,3.468,3.468,0,0,1-.964.128H2.048V0H.5ZM8.708-1.288a1.4,1.4,0,0,0,.586-.12,1.347,1.347,0,0,0,.449-.324,1.505,1.505,0,0,0,.289-.476,1.6,1.6,0,0,0,.1-.576V-2.8a1.6,1.6,0,0,0-.1-.576,1.479,1.479,0,0,0-.3-.48,1.46,1.46,0,0,0-.457-.332,1.364,1.364,0,0,0-.586-.124,1.375,1.375,0,0,0-.582.12,1.4,1.4,0,0,0-.449.324,1.413,1.413,0,0,0-.289.476,1.652,1.652,0,0,0-.1.576V-2.8a1.6,1.6,0,0,0,.1.576,1.516,1.516,0,0,0,.293.48,1.413,1.413,0,0,0,.453.332A1.364,1.364,0,0,0,8.708-1.288ZM8.7.112A3.113,3.113,0,0,1,7.5-.116a2.955,2.955,0,0,1-.952-.62,2.864,2.864,0,0,1-.628-.92,2.815,2.815,0,0,1-.228-1.128V-2.8a2.843,2.843,0,0,1,.228-1.132,2.836,2.836,0,0,1,.636-.928,3.015,3.015,0,0,1,.96-.624,3.113,3.113,0,0,1,1.2-.228,3.113,3.113,0,0,1,1.2.228,2.955,2.955,0,0,1,.952.62,2.864,2.864,0,0,1,.628.92,2.815,2.815,0,0,1,.228,1.128V-2.8a2.843,2.843,0,0,1-.228,1.132,2.836,2.836,0,0,1-.636.928,3.015,3.015,0,0,1-.96.624A3.113,3.113,0,0,1,8.7.112ZM14.728.1A4.344,4.344,0,0,1,13.3-.137a3.462,3.462,0,0,1-1.2-.7l.864-1.034a2.85,2.85,0,0,0,1.816.672.925.925,0,0,0,.476-.1.315.315,0,0,0,.164-.284V-1.6a.3.3,0,0,0-.04-.156.407.407,0,0,0-.148-.132,1.521,1.521,0,0,0-.288-.124q-.18-.06-.468-.124-.448-.1-.832-.228a2.549,2.549,0,0,1-.668-.319,1.448,1.448,0,0,1-.448-.487,1.456,1.456,0,0,1-.164-.723v-.016a1.725,1.725,0,0,1,.148-.719,1.594,1.594,0,0,1,.432-.567,2.035,2.035,0,0,1,.684-.371,2.883,2.883,0,0,1,.9-.132,4.029,4.029,0,0,1,1.284.189,3.238,3.238,0,0,1,1.02.559l-.776,1.1a3.146,3.146,0,0,0-.788-.412,2.378,2.378,0,0,0-.78-.14.7.7,0,0,0-.42.1.309.309,0,0,0-.14.256v.016a.315.315,0,0,0,.044.168.4.4,0,0,0,.152.132,1.676,1.676,0,0,0,.3.12q.188.06.476.124a6.823,6.823,0,0,1,.868.243,2.6,2.6,0,0,1,.66.339,1.359,1.359,0,0,1,.416.483,1.474,1.474,0,0,1,.144.675v.016a1.723,1.723,0,0,1-.164.767,1.646,1.646,0,0,1-.46.571,2.083,2.083,0,0,1-.712.359A3.249,3.249,0,0,1,14.728.1ZM19.112-4.24h-1.68V-5.6h4.912v1.36h-1.68V0H19.112ZM27.936.112A2.95,2.95,0,0,1,26.808-.1a2.755,2.755,0,0,1-.916-.6,2.9,2.9,0,0,1-.616-.92,2.9,2.9,0,0,1-.228-1.156V-2.8a2.907,2.907,0,0,1,.224-1.14,2.909,2.909,0,0,1,.616-.928,2.81,2.81,0,0,1,.932-.62A3.05,3.05,0,0,1,28-5.712a3.382,3.382,0,0,1,.784.084,2.681,2.681,0,0,1,.644.24,2.576,2.576,0,0,1,.528.372,3.058,3.058,0,0,1,.42.472l-1.168.9a2.018,2.018,0,0,0-.528-.48,1.31,1.31,0,0,0-.7-.176,1.242,1.242,0,0,0-.54.116,1.292,1.292,0,0,0-.42.316,1.478,1.478,0,0,0-.276.472,1.656,1.656,0,0,0-.1.576V-2.8a1.713,1.713,0,0,0,.1.588,1.469,1.469,0,0,0,.276.476,1.292,1.292,0,0,0,.42.316,1.242,1.242,0,0,0,.54.116,1.535,1.535,0,0,0,.4-.048,1.205,1.205,0,0,0,.328-.14,1.785,1.785,0,0,0,.28-.216,3.252,3.252,0,0,0,.26-.276l1.168.832a4.165,4.165,0,0,1-.436.5,2.508,2.508,0,0,1-.536.4,2.8,2.8,0,0,1-.672.264A3.35,3.35,0,0,1,27.936.112Zm5.972-1.4a1.4,1.4,0,0,0,.586-.12,1.347,1.347,0,0,0,.449-.324,1.505,1.505,0,0,0,.289-.476,1.6,1.6,0,0,0,.1-.576V-2.8a1.6,1.6,0,0,0-.1-.576,1.479,1.479,0,0,0-.3-.48,1.459,1.459,0,0,0-.457-.332,1.364,1.364,0,0,0-.586-.124,1.375,1.375,0,0,0-.582.12,1.4,1.4,0,0,0-.449.324,1.413,1.413,0,0,0-.289.476,1.652,1.652,0,0,0-.1.576V-2.8a1.6,1.6,0,0,0,.1.576,1.516,1.516,0,0,0,.293.48,1.413,1.413,0,0,0,.453.332A1.364,1.364,0,0,0,33.908-1.288ZM33.9.112a3.113,3.113,0,0,1-1.2-.228,2.955,2.955,0,0,1-.952-.62,2.864,2.864,0,0,1-.628-.92,2.815,2.815,0,0,1-.228-1.128V-2.8a2.843,2.843,0,0,1,.228-1.132,2.836,2.836,0,0,1,.636-.928,3.015,3.015,0,0,1,.96-.624,3.113,3.113,0,0,1,1.2-.228,3.113,3.113,0,0,1,1.2.228,2.955,2.955,0,0,1,.952.62,2.864,2.864,0,0,1,.628.92,2.815,2.815,0,0,1,.228,1.128V-2.8a2.843,2.843,0,0,1-.228,1.132,2.836,2.836,0,0,1-.636.928,3.015,3.015,0,0,1-.96.624A3.113,3.113,0,0,1,33.9.112Zm6.018-1.488a1.658,1.658,0,0,0,1.124-.368,1.31,1.31,0,0,0,.426-1.048v-.016a1.313,1.313,0,0,0-.426-1.044,1.646,1.646,0,0,0-1.124-.372H39.28v2.848ZM37.728-5.6h2.16a4.077,4.077,0,0,1,1.34.2,2.828,2.828,0,0,1,.992.572,2.443,2.443,0,0,1,.616.876,2.87,2.87,0,0,1,.212,1.116v.016a2.882,2.882,0,0,1-.216,1.124,2.524,2.524,0,0,1-.624.892,2.888,2.888,0,0,1-1,.588A4.006,4.006,0,0,1,39.856,0H37.728Zm6.12,0h4.5v1.32H45.376v.848h2.688v1.224H45.376v.888h3.008V0H43.848Z" transform="translate(965 388)" fill="#fff"/><g transform="translate(290 401.803)"><rect width="1" height="42" transform="translate(41 0.197)" fill="#d7d6d5"/><rect width="40" height="42" transform="translate(1 0.197)" fill="#fff"/><rect width="16" height="16" rx="4" transform="translate(13 13.197)" fill="#fff"/><path d="M4,1A3,3,0,0,0,1,4v8a3,3,0,0,0,3,3h8a3,3,0,0,0,3-3V4a3,3,0,0,0-3-3H4M4,0h8a4,4,0,0,1,4,4v8a4,4,0,0,1-4,4H4a4,4,0,0,1-4-4V4A4,4,0,0,1,4,0Z" transform="translate(13 13.197)" fill="#cecbc7"/><path d="M.432-.549,2.718-2.565q.36-.324.612-.585a3.585,3.585,0,0,0,.405-.49,1.855,1.855,0,0,0,.225-.45,1.455,1.455,0,0,0,.072-.454,1.162,1.162,0,0,0-.1-.5,1.2,1.2,0,0,0-.274-.378,1.2,1.2,0,0,0-.4-.243,1.405,1.405,0,0,0-.486-.086,1.561,1.561,0,0,0-.927.275,3.37,3.37,0,0,0-.765.805L.549-5.049A5.635,5.635,0,0,1,.99-5.616a2.4,2.4,0,0,1,.491-.423A2.127,2.127,0,0,1,2.075-6.3a2.813,2.813,0,0,1,.743-.09,2.21,2.21,0,0,1,.783.135,1.9,1.9,0,0,1,.621.374,1.678,1.678,0,0,1,.4.563,1.736,1.736,0,0,1,.144.712v.018a2.059,2.059,0,0,1-.095.635,2.256,2.256,0,0,1-.288.577,3.963,3.963,0,0,1-.495.581q-.3.3-.716.658L1.494-.639H4.833V0H.432ZM7-5.607l-1.188.369-.171-.576,1.541-.531h.529V0H7Zm5.6-1.575h.639L9.063,1.152H8.424Zm2.2,1.575-1.188.369-.171-.576,1.541-.531h.529V0H14.8ZM19.638-.531a1.524,1.524,0,0,0,.8-.212,1.939,1.939,0,0,0,.6-.569,2.7,2.7,0,0,0,.378-.831,3.71,3.71,0,0,0,.13-.989V-3.15a3.594,3.594,0,0,0-.135-.989,2.775,2.775,0,0,0-.387-.835,2.019,2.019,0,0,0-.608-.578,1.5,1.5,0,0,0-.8-.217,1.524,1.524,0,0,0-.8.212,1.939,1.939,0,0,0-.6.569,2.79,2.79,0,0,0-.382.826,3.579,3.579,0,0,0-.135.993v.018a3.594,3.594,0,0,0,.135.989,2.775,2.775,0,0,0,.387.835,2,2,0,0,0,.612.578A1.523,1.523,0,0,0,19.638-.531ZM19.62.108a2.343,2.343,0,0,1-1.1-.256,2.544,2.544,0,0,1-.837-.7,3.256,3.256,0,0,1-.531-1.03,4.136,4.136,0,0,1-.184-1.251V-3.15A4.1,4.1,0,0,1,17.154-4.4a3.258,3.258,0,0,1,.54-1.04,2.642,2.642,0,0,1,.841-.707,2.31,2.31,0,0,1,1.1-.261,2.324,2.324,0,0,1,1.093.256,2.544,2.544,0,0,1,.837.7A3.248,3.248,0,0,1,22.1-4.415a4.149,4.149,0,0,1,.184,1.247v.018a4.088,4.088,0,0,1-.189,1.255A3.319,3.319,0,0,1,21.559-.86a2.579,2.579,0,0,1-.841.707A2.317,2.317,0,0,1,19.62.108Zm7.209-7.29h.639L23.292,1.152h-.639ZM27.846-.549l2.286-2.016q.36-.324.612-.585a3.584,3.584,0,0,0,.405-.49,1.855,1.855,0,0,0,.225-.45,1.455,1.455,0,0,0,.072-.454,1.162,1.162,0,0,0-.1-.5,1.2,1.2,0,0,0-.274-.378,1.2,1.2,0,0,0-.405-.243,1.405,1.405,0,0,0-.486-.086,1.561,1.561,0,0,0-.927.275,3.37,3.37,0,0,0-.765.805l-.522-.378a5.635,5.635,0,0,1,.441-.567,2.4,2.4,0,0,1,.49-.423,2.127,2.127,0,0,1,.594-.261,2.813,2.813,0,0,1,.743-.09,2.21,2.21,0,0,1,.783.135,1.9,1.9,0,0,1,.621.374,1.678,1.678,0,0,1,.405.563,1.736,1.736,0,0,1,.144.712v.018a2.059,2.059,0,0,1-.094.635,2.256,2.256,0,0,1-.288.577,3.963,3.963,0,0,1-.5.581q-.3.3-.715.658l-1.683,1.5h3.339V0h-4.4Zm8.19.018a1.524,1.524,0,0,0,.8-.212,1.939,1.939,0,0,0,.6-.569,2.7,2.7,0,0,0,.378-.831,3.71,3.71,0,0,0,.131-.989V-3.15a3.594,3.594,0,0,0-.135-.989,2.775,2.775,0,0,0-.387-.835,2.019,2.019,0,0,0-.608-.578,1.5,1.5,0,0,0-.8-.217,1.524,1.524,0,0,0-.8.212,1.939,1.939,0,0,0-.6.569,2.79,2.79,0,0,0-.382.826,3.579,3.579,0,0,0-.135.993v.018a3.594,3.594,0,0,0,.135.989,2.775,2.775,0,0,0,.387.835,2,2,0,0,0,.612.578A1.523,1.523,0,0,0,36.036-.531Zm-.018.639a2.343,2.343,0,0,1-1.1-.256,2.544,2.544,0,0,1-.837-.7,3.257,3.257,0,0,1-.531-1.03,4.136,4.136,0,0,1-.185-1.251V-3.15A4.1,4.1,0,0,1,33.552-4.4a3.258,3.258,0,0,1,.54-1.04,2.642,2.642,0,0,1,.842-.707,2.31,2.31,0,0,1,1.1-.261,2.324,2.324,0,0,1,1.094.256,2.544,2.544,0,0,1,.837.7A3.248,3.248,0,0,1,38.5-4.415a4.15,4.15,0,0,1,.184,1.247v.018a4.088,4.088,0,0,1-.189,1.255A3.319,3.319,0,0,1,37.958-.86a2.579,2.579,0,0,1-.841.707A2.317,2.317,0,0,1,36.018.108Zm3.654-.657,2.286-2.016q.36-.324.612-.585a3.584,3.584,0,0,0,.405-.49,1.855,1.855,0,0,0,.225-.45,1.455,1.455,0,0,0,.072-.454,1.162,1.162,0,0,0-.1-.5,1.2,1.2,0,0,0-.275-.378,1.2,1.2,0,0,0-.4-.243A1.405,1.405,0,0,0,42-5.751a1.561,1.561,0,0,0-.927.275,3.37,3.37,0,0,0-.765.805l-.522-.378a5.635,5.635,0,0,1,.441-.567,2.4,2.4,0,0,1,.49-.423,2.127,2.127,0,0,1,.594-.261,2.813,2.813,0,0,1,.743-.09,2.21,2.21,0,0,1,.783.135,1.9,1.9,0,0,1,.621.374,1.678,1.678,0,0,1,.4.563,1.736,1.736,0,0,1,.144.712v.018a2.059,2.059,0,0,1-.095.635,2.256,2.256,0,0,1-.288.577,3.963,3.963,0,0,1-.495.581q-.3.3-.716.658l-1.683,1.5h3.339V0h-4.4Zm6.57-5.058-1.188.369-.171-.576,1.541-.531h.529V0h-.711Zm4.9,2.538h2.5v.729h-2.5Zm7.4-2.538-1.188.369-.171-.576,1.541-.531h.529V0h-.711ZM62.946.108A2.93,2.93,0,0,1,61.569-.2a2.909,2.909,0,0,1-.972-.81l.513-.459a2.782,2.782,0,0,0,.814.693,2.118,2.118,0,0,0,1.03.243,1.667,1.667,0,0,0,.54-.086,1.272,1.272,0,0,0,.437-.248,1.2,1.2,0,0,0,.293-.388,1.154,1.154,0,0,0,.108-.5v-.018A1.025,1.025,0,0,0,64.2-2.3a1.124,1.124,0,0,0-.364-.379,1.816,1.816,0,0,0-.558-.234,2.925,2.925,0,0,0-.711-.081h-.405l-.144-.424,1.989-2.245H60.93V-6.3h4.015v.522l-1.972,2.2a3.7,3.7,0,0,1,.787.153,2.145,2.145,0,0,1,.659.333,1.6,1.6,0,0,1,.454.536,1.586,1.586,0,0,1,.169.752v.018a1.8,1.8,0,0,1-.164.774,1.81,1.81,0,0,1-.446.6,2.061,2.061,0,0,1-.664.387A2.385,2.385,0,0,1,62.946.108ZM66.4-.945h.828V0H66.4Zm0-3.708h.828v.945H66.4Zm5.445,2.565V-5.337L69.2-2.088Zm0,.594H68.526l-.18-.513L71.91-6.345h.621v4.257h.981v.594h-.981V0h-.684Zm3.762-4.113-1.188.369-.171-.576,1.541-.531h.529V0h-.711Z" transform="translate(125 25.197)" fill="#3a3630"/><path d="M2.556-5.643H.441V-6.3H5.382v.657H3.267V0H2.556Zm4.05-.927H7.3v2.727a2.191,2.191,0,0,1,.612-.644,1.67,1.67,0,0,1,.981-.265,1.963,1.963,0,0,1,.752.135,1.557,1.557,0,0,1,.558.382,1.685,1.685,0,0,1,.351.59,2.245,2.245,0,0,1,.122.756V0H9.981V-2.712a1.492,1.492,0,0,0-.333-1.024,1.205,1.205,0,0,0-.954-.377,1.468,1.468,0,0,0-.554.1,1.29,1.29,0,0,0-.446.3,1.338,1.338,0,0,0-.293.462,1.64,1.64,0,0,0-.1.593V0H6.606Zm8.955,3.96a2.177,2.177,0,0,0-.135-.6,1.673,1.673,0,0,0-.293-.5,1.338,1.338,0,0,0-.45-.34,1.407,1.407,0,0,0-.608-.125,1.355,1.355,0,0,0-.558.116,1.417,1.417,0,0,0-.459.327,1.816,1.816,0,0,0-.329.5,2,2,0,0,0-.167.617Zm-3,.567a1.861,1.861,0,0,0,.18.657,1.58,1.58,0,0,0,.369.486,1.6,1.6,0,0,0,.5.3,1.668,1.668,0,0,0,.585.1,1.786,1.786,0,0,0,.833-.18,2.464,2.464,0,0,0,.634-.477l.432.387a2.846,2.846,0,0,1-.8.634,2.363,2.363,0,0,1-1.116.239,2.325,2.325,0,0,1-.9-.176,2.219,2.219,0,0,1-.738-.495,2.353,2.353,0,0,1-.5-.77,2.586,2.586,0,0,1-.184-.99,2.69,2.69,0,0,1,.167-.95,2.386,2.386,0,0,1,.464-.774,2.164,2.164,0,0,1,.707-.517,2.111,2.111,0,0,1,.9-.189,2.1,2.1,0,0,1,.918.193,2.011,2.011,0,0,1,.684.527,2.292,2.292,0,0,1,.423.783,3.142,3.142,0,0,1,.144.963v.1a1.289,1.289,0,0,1-.009.139ZM19.62-.513a1.647,1.647,0,0,0,.693-.144,1.677,1.677,0,0,0,.54-.387,1.769,1.769,0,0,0,.351-.567A1.9,1.9,0,0,0,21.33-2.3v-.018a1.9,1.9,0,0,0-.13-.707,1.793,1.793,0,0,0-.365-.576A1.748,1.748,0,0,0,20.286-4,1.625,1.625,0,0,0,19.6-4.14,1.647,1.647,0,0,0,18.909-4a1.626,1.626,0,0,0-.535.387,1.8,1.8,0,0,0-.347.572,1.931,1.931,0,0,0-.126.7v.018a1.9,1.9,0,0,0,.13.706,1.779,1.779,0,0,0,.36.572,1.729,1.729,0,0,0,.545.387A1.625,1.625,0,0,0,19.62-.513ZM19.6.108a2.37,2.37,0,0,1-.963-.194,2.439,2.439,0,0,1-.765-.522,2.358,2.358,0,0,1-.5-.765,2.419,2.419,0,0,1-.18-.932v-.018a2.453,2.453,0,0,1,.18-.936,2.4,2.4,0,0,1,.5-.774,2.388,2.388,0,0,1,.77-.527,2.425,2.425,0,0,1,.976-.193,2.4,2.4,0,0,1,.967.193,2.425,2.425,0,0,1,.77.522,2.358,2.358,0,0,1,.5.765,2.419,2.419,0,0,1,.18.932v.018a2.4,2.4,0,0,1-.184.936,2.46,2.46,0,0,1-.508.774,2.376,2.376,0,0,1-.774.527A2.434,2.434,0,0,1,19.6.108Zm6.039-.63a1.682,1.682,0,0,0,.634-.122A1.484,1.484,0,0,0,26.8-.995a1.691,1.691,0,0,0,.351-.563,2.059,2.059,0,0,0,.131-.756v-.018a2.033,2.033,0,0,0-.131-.747,1.7,1.7,0,0,0-.356-.567,1.565,1.565,0,0,0-.522-.36,1.6,1.6,0,0,0-.63-.126,1.559,1.559,0,0,0-.626.13,1.73,1.73,0,0,0-.54.369,1.771,1.771,0,0,0-.378.567,1.835,1.835,0,0,0-.139.725v.018a1.892,1.892,0,0,0,.139.738,1.708,1.708,0,0,0,.378.567,1.769,1.769,0,0,0,.54.365A1.559,1.559,0,0,0,25.641-.522ZM23.292-4.653h.693v.936a3.618,3.618,0,0,1,.32-.4,2.05,2.05,0,0,1,.391-.329,2.029,2.029,0,0,1,.482-.225,1.916,1.916,0,0,1,.59-.085,2.155,2.155,0,0,1,.814.162,2.171,2.171,0,0,1,.715.473,2.318,2.318,0,0,1,.5.756A2.6,2.6,0,0,1,27.99-2.34v.018A2.6,2.6,0,0,1,27.8-1.305a2.344,2.344,0,0,1-.5.761,2.181,2.181,0,0,1-.711.477A2.126,2.126,0,0,1,25.767.1a2.061,2.061,0,0,1-.594-.081A1.992,1.992,0,0,1,24.687-.2,2.1,2.1,0,0,1,24.3-.513a2.806,2.806,0,0,1-.311-.378V1.44h-.693ZM29.268-6.57h.693v2.727a2.191,2.191,0,0,1,.612-.644,1.67,1.67,0,0,1,.981-.265,1.963,1.963,0,0,1,.751.135,1.557,1.557,0,0,1,.558.382,1.685,1.685,0,0,1,.351.59,2.245,2.245,0,0,1,.122.756V0h-.693V-2.712a1.492,1.492,0,0,0-.333-1.024,1.205,1.205,0,0,0-.954-.377,1.468,1.468,0,0,0-.553.1,1.29,1.29,0,0,0-.445.3,1.338,1.338,0,0,0-.293.462,1.64,1.64,0,0,0-.1.593V0h-.693Zm7.07,6.1a1.95,1.95,0,0,0,.6-.09,1.553,1.553,0,0,0,.489-.255,1.231,1.231,0,0,0,.332-.394,1.063,1.063,0,0,0,.121-.506v-.43q-.26-.072-.592-.134a4.139,4.139,0,0,0-.762-.063,1.69,1.69,0,0,0-1,.255.8.8,0,0,0-.354.676v.018a.807.807,0,0,0,.094.39.855.855,0,0,0,.256.291,1.23,1.23,0,0,0,.372.179A1.549,1.549,0,0,0,36.338-.468ZM36.2.1a2.315,2.315,0,0,1-.639-.09A1.673,1.673,0,0,1,35-.266a1.428,1.428,0,0,1-.392-.455,1.287,1.287,0,0,1-.148-.63v-.018A1.442,1.442,0,0,1,34.6-2.03a1.291,1.291,0,0,1,.41-.473,1.963,1.963,0,0,1,.63-.288,3.07,3.07,0,0,1,.806-.1,4.869,4.869,0,0,1,.779.054,5.714,5.714,0,0,1,.643.144v-.143a1.18,1.18,0,0,0-.36-.935,1.488,1.488,0,0,0-1.017-.317,2.916,2.916,0,0,0-.751.09,3.9,3.9,0,0,0-.662.243l-.207-.57a4.891,4.891,0,0,1,.783-.292,3.419,3.419,0,0,1,.909-.11,2.037,2.037,0,0,1,1.5.513,1.85,1.85,0,0,1,.486,1.368V0h-.684V-.693a2.221,2.221,0,0,1-.653.554A2,2,0,0,1,36.2.1Zm3.825-4.752h.693v.81a2.191,2.191,0,0,1,.612-.644,1.67,1.67,0,0,1,.981-.265,1.963,1.963,0,0,1,.751.135,1.557,1.557,0,0,1,.558.382,1.685,1.685,0,0,1,.351.59,2.245,2.245,0,0,1,.121.756V0H43.4V-2.712a1.492,1.492,0,0,0-.333-1.024,1.205,1.205,0,0,0-.954-.377,1.468,1.468,0,0,0-.554.1,1.29,1.29,0,0,0-.445.3,1.338,1.338,0,0,0-.292.462,1.64,1.64,0,0,0-.1.593V0h-.693Zm5.607,0h.693V0H45.63Zm-.045-1.782h.792v.765h-.792ZM49.473.09a2.99,2.99,0,0,1-1.017-.185,3.171,3.171,0,0,1-.909-.5l.351-.5a3.074,3.074,0,0,0,.788.441,2.338,2.338,0,0,0,.823.153,1.142,1.142,0,0,0,.693-.2.634.634,0,0,0,.27-.54v-.018a.481.481,0,0,0-.095-.3.849.849,0,0,0-.257-.22,2.055,2.055,0,0,0-.373-.166q-.212-.072-.437-.135-.27-.081-.545-.176a2.226,2.226,0,0,1-.495-.239,1.211,1.211,0,0,1-.36-.36.976.976,0,0,1-.139-.54V-3.4a1.258,1.258,0,0,1,.117-.544,1.222,1.222,0,0,1,.328-.423,1.5,1.5,0,0,1,.5-.27,2.053,2.053,0,0,1,.634-.095,2.883,2.883,0,0,1,.873.14,3.272,3.272,0,0,1,.8.373l-.315.522a3.152,3.152,0,0,0-.68-.329,2.149,2.149,0,0,0-.7-.122,1.026,1.026,0,0,0-.657.193.593.593,0,0,0-.243.482v.018a.435.435,0,0,0,.1.283.87.87,0,0,0,.266.211,2.4,2.4,0,0,0,.382.162q.216.072.45.144.27.081.536.18a2.094,2.094,0,0,1,.481.252A1.228,1.228,0,0,1,51-1.854a1.01,1.01,0,0,1,.131.531v.018A1.282,1.282,0,0,1,51-.716a1.343,1.343,0,0,1-.351.437A1.547,1.547,0,0,1,50.125,0,2.171,2.171,0,0,1,49.473.09Zm8.032-2.952a2.384,2.384,0,0,0,.708-.1,1.646,1.646,0,0,0,.55-.284,1.26,1.26,0,0,0,.352-.438,1.294,1.294,0,0,0,.122-.569v-.018A1.2,1.2,0,0,0,58.773-5.3a2.007,2.007,0,0,0-1.232-.348h-1.6v2.781ZM55.233-6.3h2.358a3.167,3.167,0,0,1,.967.139,2.219,2.219,0,0,1,.747.4,1.716,1.716,0,0,1,.477.625,2.014,2.014,0,0,1,.167.837v.018a1.922,1.922,0,0,1-.2.9,1.918,1.918,0,0,1-.535.644,2.336,2.336,0,0,1-.788.392,3.409,3.409,0,0,1-.954.13h-1.53V0h-.711ZM63.27-.513a1.647,1.647,0,0,0,.693-.144,1.677,1.677,0,0,0,.54-.387,1.769,1.769,0,0,0,.351-.567A1.9,1.9,0,0,0,64.98-2.3v-.018a1.9,1.9,0,0,0-.131-.707,1.793,1.793,0,0,0-.365-.576A1.748,1.748,0,0,0,63.936-4a1.625,1.625,0,0,0-.684-.144A1.647,1.647,0,0,0,62.559-4a1.626,1.626,0,0,0-.536.387,1.8,1.8,0,0,0-.347.572,1.931,1.931,0,0,0-.126.7v.018a1.9,1.9,0,0,0,.131.706,1.78,1.78,0,0,0,.36.572,1.729,1.729,0,0,0,.544.387A1.625,1.625,0,0,0,63.27-.513Zm-.018.621a2.37,2.37,0,0,1-.963-.194,2.439,2.439,0,0,1-.765-.522,2.358,2.358,0,0,1-.5-.765,2.419,2.419,0,0,1-.18-.932v-.018a2.453,2.453,0,0,1,.18-.936,2.4,2.4,0,0,1,.5-.774,2.388,2.388,0,0,1,.77-.527,2.425,2.425,0,0,1,.977-.193,2.4,2.4,0,0,1,.967.193,2.425,2.425,0,0,1,.77.522,2.358,2.358,0,0,1,.5.765,2.419,2.419,0,0,1,.18.932v.018a2.4,2.4,0,0,1-.184.936A2.46,2.46,0,0,1,65-.612a2.376,2.376,0,0,1-.774.527A2.434,2.434,0,0,1,63.252.108Zm6.039-.63a1.682,1.682,0,0,0,.634-.122,1.484,1.484,0,0,0,.522-.351,1.691,1.691,0,0,0,.351-.563,2.059,2.059,0,0,0,.131-.756v-.018a2.033,2.033,0,0,0-.131-.747,1.7,1.7,0,0,0-.355-.567,1.565,1.565,0,0,0-.522-.36,1.6,1.6,0,0,0-.63-.126,1.559,1.559,0,0,0-.626.13,1.731,1.731,0,0,0-.54.369,1.771,1.771,0,0,0-.378.567,1.835,1.835,0,0,0-.139.725v.018a1.892,1.892,0,0,0,.139.738,1.708,1.708,0,0,0,.378.567,1.769,1.769,0,0,0,.54.365A1.559,1.559,0,0,0,69.291-.522ZM66.942-4.653h.693v.936a3.619,3.619,0,0,1,.319-.4,2.05,2.05,0,0,1,.392-.329,2.029,2.029,0,0,1,.481-.225,1.916,1.916,0,0,1,.59-.085,2.155,2.155,0,0,1,.814.162,2.171,2.171,0,0,1,.715.473,2.318,2.318,0,0,1,.5.756A2.6,2.6,0,0,1,71.64-2.34v.018a2.6,2.6,0,0,1-.189,1.017,2.344,2.344,0,0,1-.5.761,2.181,2.181,0,0,1-.711.477A2.126,2.126,0,0,1,69.417.1a2.061,2.061,0,0,1-.594-.081A1.992,1.992,0,0,1,68.337-.2a2.1,2.1,0,0,1-.392-.315,2.806,2.806,0,0,1-.31-.378V1.44h-.693ZM75.267-.522A1.682,1.682,0,0,0,75.9-.644a1.484,1.484,0,0,0,.522-.351,1.691,1.691,0,0,0,.351-.563,2.059,2.059,0,0,0,.131-.756v-.018a2.033,2.033,0,0,0-.131-.747,1.7,1.7,0,0,0-.355-.567,1.565,1.565,0,0,0-.522-.36,1.6,1.6,0,0,0-.63-.126,1.559,1.559,0,0,0-.626.13,1.731,1.731,0,0,0-.54.369,1.771,1.771,0,0,0-.378.567,1.835,1.835,0,0,0-.139.725v.018a1.892,1.892,0,0,0,.139.738,1.708,1.708,0,0,0,.378.567,1.769,1.769,0,0,0,.54.365A1.559,1.559,0,0,0,75.267-.522ZM72.918-4.653h.693v.936a3.619,3.619,0,0,1,.319-.4,2.05,2.05,0,0,1,.392-.329,2.029,2.029,0,0,1,.481-.225,1.916,1.916,0,0,1,.59-.085,2.155,2.155,0,0,1,.814.162,2.171,2.171,0,0,1,.715.473,2.318,2.318,0,0,1,.5.756,2.6,2.6,0,0,1,.189,1.022v.018a2.6,2.6,0,0,1-.189,1.017,2.344,2.344,0,0,1-.5.761,2.181,2.181,0,0,1-.711.477A2.126,2.126,0,0,1,75.393.1,2.061,2.061,0,0,1,74.8.018,1.992,1.992,0,0,1,74.313-.2a2.1,2.1,0,0,1-.392-.315,2.806,2.806,0,0,1-.31-.378V1.44h-.693Zm8.118,4.14a1.647,1.647,0,0,0,.693-.144,1.677,1.677,0,0,0,.54-.387,1.769,1.769,0,0,0,.351-.567,1.9,1.9,0,0,0,.126-.693v-.018a1.9,1.9,0,0,0-.131-.707,1.793,1.793,0,0,0-.365-.576A1.748,1.748,0,0,0,81.7-4a1.625,1.625,0,0,0-.684-.144A1.647,1.647,0,0,0,80.325-4a1.626,1.626,0,0,0-.535.387,1.8,1.8,0,0,0-.347.572,1.931,1.931,0,0,0-.126.7v.018a1.9,1.9,0,0,0,.131.706,1.779,1.779,0,0,0,.36.572,1.73,1.73,0,0,0,.545.387A1.625,1.625,0,0,0,81.036-.513Zm-.018.621a2.37,2.37,0,0,1-.963-.194,2.439,2.439,0,0,1-.765-.522,2.358,2.358,0,0,1-.5-.765,2.419,2.419,0,0,1-.18-.932v-.018a2.453,2.453,0,0,1,.18-.936,2.4,2.4,0,0,1,.5-.774,2.388,2.388,0,0,1,.77-.527,2.425,2.425,0,0,1,.977-.193A2.4,2.4,0,0,1,82-4.559a2.425,2.425,0,0,1,.77.522,2.358,2.358,0,0,1,.5.765,2.419,2.419,0,0,1,.18.932v.018a2.4,2.4,0,0,1-.184.936,2.46,2.46,0,0,1-.509.774,2.376,2.376,0,0,1-.774.527A2.434,2.434,0,0,1,81.018.108Zm5.769-.63a1.559,1.559,0,0,0,.626-.131,1.731,1.731,0,0,0,.54-.369,1.771,1.771,0,0,0,.378-.567,1.859,1.859,0,0,0,.14-.734V-2.34a1.859,1.859,0,0,0-.14-.734,1.719,1.719,0,0,0-.378-.562A1.769,1.769,0,0,0,87.412-4a1.559,1.559,0,0,0-.626-.13,1.671,1.671,0,0,0-.639.122,1.494,1.494,0,0,0-.517.351,1.691,1.691,0,0,0-.351.563,2.059,2.059,0,0,0-.131.756v.018a2.033,2.033,0,0,0,.131.747,1.7,1.7,0,0,0,.355.567,1.565,1.565,0,0,0,.522.36A1.6,1.6,0,0,0,86.787-.522ZM86.661.1a2.143,2.143,0,0,1-.819-.162,2.183,2.183,0,0,1-.711-.472,2.318,2.318,0,0,1-.5-.756,2.6,2.6,0,0,1-.189-1.021v-.018a2.6,2.6,0,0,1,.189-1.017,2.307,2.307,0,0,1,.5-.76,2.246,2.246,0,0,1,.711-.477,2.093,2.093,0,0,1,.819-.166,2.061,2.061,0,0,1,.594.081,1.992,1.992,0,0,1,.486.216,2.1,2.1,0,0,1,.392.315,2.806,2.806,0,0,1,.311.378V-6.57h.693V0h-.693V-.936a3.619,3.619,0,0,1-.32.4,2.19,2.19,0,0,1-.392.333,1.819,1.819,0,0,1-.481.225A2.015,2.015,0,0,1,86.661.1Zm6.165-.612a1.647,1.647,0,0,0,.693-.144,1.677,1.677,0,0,0,.54-.387,1.769,1.769,0,0,0,.351-.567,1.9,1.9,0,0,0,.126-.693v-.018a1.9,1.9,0,0,0-.131-.707,1.793,1.793,0,0,0-.365-.576A1.748,1.748,0,0,0,93.492-4a1.625,1.625,0,0,0-.684-.144A1.647,1.647,0,0,0,92.115-4a1.626,1.626,0,0,0-.535.387,1.8,1.8,0,0,0-.347.572,1.931,1.931,0,0,0-.126.7v.018a1.9,1.9,0,0,0,.131.706,1.779,1.779,0,0,0,.36.572,1.73,1.73,0,0,0,.545.387A1.625,1.625,0,0,0,92.826-.513Zm-.018.621a2.37,2.37,0,0,1-.963-.194,2.439,2.439,0,0,1-.765-.522,2.358,2.358,0,0,1-.5-.765A2.419,2.419,0,0,1,90.4-2.3v-.018a2.453,2.453,0,0,1,.18-.936,2.4,2.4,0,0,1,.5-.774,2.388,2.388,0,0,1,.77-.527,2.425,2.425,0,0,1,.977-.193,2.4,2.4,0,0,1,.967.193,2.425,2.425,0,0,1,.77.522,2.358,2.358,0,0,1,.5.765,2.419,2.419,0,0,1,.18.932v.018a2.4,2.4,0,0,1-.184.936,2.46,2.46,0,0,1-.509.774,2.376,2.376,0,0,1-.774.527A2.434,2.434,0,0,1,92.808.108Zm6.039-.63a1.682,1.682,0,0,0,.634-.122A1.484,1.484,0,0,0,100-.995a1.691,1.691,0,0,0,.351-.563,2.059,2.059,0,0,0,.131-.756v-.018a2.033,2.033,0,0,0-.131-.747A1.7,1.7,0,0,0,100-3.645a1.565,1.565,0,0,0-.522-.36,1.6,1.6,0,0,0-.63-.126,1.559,1.559,0,0,0-.626.13,1.731,1.731,0,0,0-.54.369,1.771,1.771,0,0,0-.378.567,1.835,1.835,0,0,0-.139.725v.018a1.892,1.892,0,0,0,.139.738,1.708,1.708,0,0,0,.378.567,1.769,1.769,0,0,0,.54.365A1.559,1.559,0,0,0,98.847-.522ZM96.5-4.653h.693v.936a3.619,3.619,0,0,1,.319-.4,2.05,2.05,0,0,1,.392-.329,2.029,2.029,0,0,1,.481-.225,1.916,1.916,0,0,1,.59-.085,2.155,2.155,0,0,1,.814.162,2.171,2.171,0,0,1,.715.473,2.318,2.318,0,0,1,.5.756A2.6,2.6,0,0,1,101.2-2.34v.018a2.6,2.6,0,0,1-.189,1.017,2.344,2.344,0,0,1-.5.761,2.181,2.181,0,0,1-.711.477A2.126,2.126,0,0,1,98.973.1a2.061,2.061,0,0,1-.594-.081A1.992,1.992,0,0,1,97.893-.2,2.1,2.1,0,0,1,97.5-.513a2.806,2.806,0,0,1-.31-.378V1.44H96.5Zm8.118,4.14a1.647,1.647,0,0,0,.693-.144,1.677,1.677,0,0,0,.54-.387,1.769,1.769,0,0,0,.351-.567,1.9,1.9,0,0,0,.126-.693v-.018a1.9,1.9,0,0,0-.131-.707,1.793,1.793,0,0,0-.365-.576A1.748,1.748,0,0,0,105.282-4a1.625,1.625,0,0,0-.684-.144A1.647,1.647,0,0,0,103.9-4a1.626,1.626,0,0,0-.535.387,1.8,1.8,0,0,0-.347.572,1.931,1.931,0,0,0-.126.7v.018a1.9,1.9,0,0,0,.131.706,1.779,1.779,0,0,0,.36.572,1.73,1.73,0,0,0,.545.387A1.625,1.625,0,0,0,104.616-.513ZM104.6.108a2.37,2.37,0,0,1-.963-.194,2.439,2.439,0,0,1-.765-.522,2.358,2.358,0,0,1-.5-.765,2.419,2.419,0,0,1-.18-.932v-.018a2.453,2.453,0,0,1,.18-.936,2.4,2.4,0,0,1,.5-.774,2.388,2.388,0,0,1,.77-.527,2.425,2.425,0,0,1,.977-.193,2.4,2.4,0,0,1,.967.193,2.425,2.425,0,0,1,.77.522,2.358,2.358,0,0,1,.5.765,2.419,2.419,0,0,1,.18.932v.018a2.4,2.4,0,0,1-.184.936,2.46,2.46,0,0,1-.509.774,2.376,2.376,0,0,1-.774.527A2.434,2.434,0,0,1,104.6.108Zm3.753-6.678h.693V0h-.693Zm2.367,1.917h.693V0h-.693Zm-.045-1.782h.792v.765h-.792ZM114.561.09a2.99,2.99,0,0,1-1.017-.185,3.171,3.171,0,0,1-.909-.5l.351-.5a3.074,3.074,0,0,0,.787.441A2.338,2.338,0,0,0,114.6-.5a1.142,1.142,0,0,0,.693-.2.634.634,0,0,0,.27-.54v-.018a.481.481,0,0,0-.095-.3.849.849,0,0,0-.257-.22,2.055,2.055,0,0,0-.373-.166q-.211-.072-.437-.135-.27-.081-.545-.176a2.226,2.226,0,0,1-.495-.239,1.211,1.211,0,0,1-.36-.36.976.976,0,0,1-.14-.54V-3.4a1.258,1.258,0,0,1,.117-.544,1.222,1.222,0,0,1,.329-.423,1.5,1.5,0,0,1,.5-.27,2.053,2.053,0,0,1,.634-.095,2.883,2.883,0,0,1,.873.14,3.272,3.272,0,0,1,.8.373L115.8-3.7a3.152,3.152,0,0,0-.679-.329,2.149,2.149,0,0,0-.7-.122,1.026,1.026,0,0,0-.657.193.593.593,0,0,0-.243.482v.018a.435.435,0,0,0,.1.283.87.87,0,0,0,.266.211,2.4,2.4,0,0,0,.382.162q.216.072.45.144.27.081.535.18a2.094,2.094,0,0,1,.481.252,1.228,1.228,0,0,1,.347.369,1.01,1.01,0,0,1,.131.531v.018a1.282,1.282,0,0,1-.131.59,1.343,1.343,0,0,1-.351.437,1.547,1.547,0,0,1-.522.275A2.171,2.171,0,0,1,114.561.09Z" transform="translate(330 25.197)" fill="#3a3630"/><path d="M4.977-2.3,3.546-5.517,2.106-2.3ZM3.222-6.345h.666L6.759,0H5.994L5.256-1.665H1.827L1.08,0H.351ZM10.233-.522a1.682,1.682,0,0,0,.635-.122,1.484,1.484,0,0,0,.522-.351,1.691,1.691,0,0,0,.351-.563,2.059,2.059,0,0,0,.131-.756v-.018a2.033,2.033,0,0,0-.131-.747,1.7,1.7,0,0,0-.355-.567,1.565,1.565,0,0,0-.522-.36,1.6,1.6,0,0,0-.63-.126A1.559,1.559,0,0,0,9.608-4a1.73,1.73,0,0,0-.54.369,1.771,1.771,0,0,0-.378.567,1.835,1.835,0,0,0-.14.725v.018a1.892,1.892,0,0,0,.14.738,1.708,1.708,0,0,0,.378.567,1.769,1.769,0,0,0,.54.365A1.559,1.559,0,0,0,10.233-.522ZM7.884-4.653h.693v.936a3.618,3.618,0,0,1,.319-.4,2.05,2.05,0,0,1,.392-.329,2.029,2.029,0,0,1,.481-.225,1.916,1.916,0,0,1,.59-.085,2.155,2.155,0,0,1,.814.162,2.171,2.171,0,0,1,.715.473,2.318,2.318,0,0,1,.5.756,2.6,2.6,0,0,1,.189,1.022v.018a2.6,2.6,0,0,1-.189,1.017,2.344,2.344,0,0,1-.5.761,2.181,2.181,0,0,1-.711.477A2.126,2.126,0,0,1,10.359.1,2.061,2.061,0,0,1,9.765.018,1.992,1.992,0,0,1,9.279-.2a2.1,2.1,0,0,1-.391-.315,2.806,2.806,0,0,1-.311-.378V1.44H7.884Zm7.5,4.185a1.95,1.95,0,0,0,.6-.09,1.553,1.553,0,0,0,.489-.255,1.231,1.231,0,0,0,.332-.394,1.063,1.063,0,0,0,.121-.506v-.43q-.26-.072-.592-.134a4.139,4.139,0,0,0-.762-.063,1.69,1.69,0,0,0-1,.255.8.8,0,0,0-.354.676v.018a.807.807,0,0,0,.094.39.855.855,0,0,0,.256.291,1.23,1.23,0,0,0,.372.179A1.549,1.549,0,0,0,15.386-.468ZM15.246.1a2.315,2.315,0,0,1-.639-.09,1.673,1.673,0,0,1-.558-.275,1.428,1.428,0,0,1-.392-.455,1.287,1.287,0,0,1-.148-.63v-.018a1.442,1.442,0,0,1,.144-.662,1.291,1.291,0,0,1,.41-.473,1.963,1.963,0,0,1,.63-.288,3.07,3.07,0,0,1,.806-.1,4.869,4.869,0,0,1,.779.054,5.714,5.714,0,0,1,.643.144v-.143a1.18,1.18,0,0,0-.36-.935,1.488,1.488,0,0,0-1.017-.317,2.916,2.916,0,0,0-.752.09,3.9,3.9,0,0,0-.661.243l-.207-.57a4.891,4.891,0,0,1,.783-.292,3.419,3.419,0,0,1,.909-.11,2.037,2.037,0,0,1,1.5.513A1.85,1.85,0,0,1,17.6-2.844V0H16.92V-.693a2.221,2.221,0,0,1-.653.554A2,2,0,0,1,15.246.1Zm3.825-4.752h.693v1.215a2.48,2.48,0,0,1,.315-.531,2.113,2.113,0,0,1,.432-.419,1.836,1.836,0,0,1,.531-.266,1.9,1.9,0,0,1,.621-.081v.747h-.054a1.909,1.909,0,0,0-.715.135,1.622,1.622,0,0,0-.59.405,1.92,1.92,0,0,0-.4.67,2.72,2.72,0,0,0-.144.923V0h-.693Zm5.2,4.734a1.829,1.829,0,0,1-.522-.072,1.073,1.073,0,0,1-.418-.23,1.059,1.059,0,0,1-.275-.409,1.649,1.649,0,0,1-.1-.6V-4.041h-.648v-.612h.648v-1.4h.693v1.4h1.476v.612H23.652V-1.33a.726.726,0,0,0,.216.6.888.888,0,0,0,.567.171,1.6,1.6,0,0,0,.337-.034,1.58,1.58,0,0,0,.338-.119v.594a1.557,1.557,0,0,1-.383.148A1.918,1.918,0,0,1,24.273.081Zm2.079-4.734h.693v.783A3.792,3.792,0,0,1,27.3-4.2a1.6,1.6,0,0,1,.319-.284,1.58,1.58,0,0,1,.405-.194,1.715,1.715,0,0,1,.522-.072,1.563,1.563,0,0,1,.936.265,1.716,1.716,0,0,1,.558.662,2.93,2.93,0,0,1,.284-.36,1.781,1.781,0,0,1,.355-.3,1.719,1.719,0,0,1,.445-.2,1.979,1.979,0,0,1,.554-.072,1.637,1.637,0,0,1,1.269.5,1.951,1.951,0,0,1,.459,1.372V0h-.693V-2.712A1.523,1.523,0,0,0,32.4-3.749a1.118,1.118,0,0,0-.887-.364,1.312,1.312,0,0,0-.495.094,1.158,1.158,0,0,0-.41.278,1.349,1.349,0,0,0-.279.454,1.693,1.693,0,0,0-.1.611V0h-.684V-2.73a1.494,1.494,0,0,0-.32-1.019,1.107,1.107,0,0,0-.877-.364,1.211,1.211,0,0,0-.513.108,1.234,1.234,0,0,0-.41.305,1.455,1.455,0,0,0-.274.462,1.669,1.669,0,0,0-.1.588V0h-.693ZM38.322-2.61a2.177,2.177,0,0,0-.135-.6,1.673,1.673,0,0,0-.292-.5,1.338,1.338,0,0,0-.45-.34,1.407,1.407,0,0,0-.607-.125,1.355,1.355,0,0,0-.558.116,1.417,1.417,0,0,0-.459.327,1.816,1.816,0,0,0-.328.5,2,2,0,0,0-.167.617Zm-3,.567a1.861,1.861,0,0,0,.18.657,1.58,1.58,0,0,0,.369.486,1.6,1.6,0,0,0,.5.3,1.668,1.668,0,0,0,.585.1,1.786,1.786,0,0,0,.833-.18,2.464,2.464,0,0,0,.634-.477l.432.387a2.846,2.846,0,0,1-.8.634,2.363,2.363,0,0,1-1.116.239,2.325,2.325,0,0,1-.9-.176,2.219,2.219,0,0,1-.738-.495,2.353,2.353,0,0,1-.5-.77,2.586,2.586,0,0,1-.185-.99,2.69,2.69,0,0,1,.167-.95,2.386,2.386,0,0,1,.464-.774,2.164,2.164,0,0,1,.706-.517,2.111,2.111,0,0,1,.9-.189,2.1,2.1,0,0,1,.918.193,2.011,2.011,0,0,1,.684.527,2.292,2.292,0,0,1,.423.783,3.142,3.142,0,0,1,.144.963v.1a1.289,1.289,0,0,1-.009.139Zm4.914-2.61h.693v.81a2.191,2.191,0,0,1,.612-.644,1.67,1.67,0,0,1,.981-.265,1.963,1.963,0,0,1,.751.135,1.557,1.557,0,0,1,.558.382,1.685,1.685,0,0,1,.351.59,2.245,2.245,0,0,1,.121.756V0h-.693V-2.712a1.492,1.492,0,0,0-.333-1.024,1.205,1.205,0,0,0-.954-.377,1.468,1.468,0,0,0-.554.1,1.29,1.29,0,0,0-.445.3,1.338,1.338,0,0,0-.292.462,1.64,1.64,0,0,0-.1.593V0h-.693ZM47.34.081a1.829,1.829,0,0,1-.522-.072,1.073,1.073,0,0,1-.419-.23,1.059,1.059,0,0,1-.274-.409,1.649,1.649,0,0,1-.1-.6V-4.041h-.648v-.612h.648v-1.4h.693v1.4h1.476v.612H46.719V-1.33a.726.726,0,0,0,.216.6.888.888,0,0,0,.567.171,1.6,1.6,0,0,0,.338-.034,1.58,1.58,0,0,0,.337-.119v.594a1.557,1.557,0,0,1-.382.148A1.918,1.918,0,0,1,47.34.081Zm7.893-2.169V-5.337L52.587-2.088Zm0,.594H51.912l-.18-.513L55.3-6.345h.621v4.257H56.9v.594h-.981V0h-.684ZM59-5.607l-1.188.369-.171-.576,1.541-.531h.529V0H59ZM63.612-.531a1.677,1.677,0,0,0,.63-.112,1.449,1.449,0,0,0,.477-.305,1.335,1.335,0,0,0,.306-.458,1.47,1.47,0,0,0,.108-.561v-.018a1.271,1.271,0,0,0-.113-.534,1.264,1.264,0,0,0-.315-.426,1.494,1.494,0,0,0-.486-.283,1.818,1.818,0,0,0-.626-.1,1.722,1.722,0,0,0-.643.117,1.585,1.585,0,0,0-.5.31,1.379,1.379,0,0,0-.319.44,1.21,1.21,0,0,0-.112.507v.018a1.341,1.341,0,0,0,.117.556,1.317,1.317,0,0,0,.329.449,1.557,1.557,0,0,0,.5.3A1.85,1.85,0,0,0,63.612-.531ZM63.6.108a2.466,2.466,0,0,1-.941-.171,2.146,2.146,0,0,1-.715-.468,2.642,2.642,0,0,1-.337-.414,2.261,2.261,0,0,1-.248-.513,3.657,3.657,0,0,1-.153-.657,5.971,5.971,0,0,1-.054-.855v-.018a4.963,4.963,0,0,1,.175-1.346,3.33,3.33,0,0,1,.513-1.085,2.5,2.5,0,0,1,.824-.724,2.271,2.271,0,0,1,1.107-.266,2.569,2.569,0,0,1,1.008.186,3.521,3.521,0,0,1,.855.525l-.414.549a3.121,3.121,0,0,0-.7-.459,1.847,1.847,0,0,0-.783-.162,1.461,1.461,0,0,0-.774.208,1.805,1.805,0,0,0-.581.578,2.9,2.9,0,0,0-.364.88,4.687,4.687,0,0,0-.126,1.124,2.733,2.733,0,0,1,.292-.364,1.777,1.777,0,0,1,.387-.306,2.178,2.178,0,0,1,.5-.211,2.176,2.176,0,0,1,.616-.081,2.576,2.576,0,0,1,.837.135,2.112,2.112,0,0,1,.693.387,1.863,1.863,0,0,1,.472.612,1.8,1.8,0,0,1,.175.8v.018a1.994,1.994,0,0,1-.175.841,2.064,2.064,0,0,1-.477.662,2.183,2.183,0,0,1-.715.436A2.485,2.485,0,0,1,63.6.108Zm3.24.675a1.072,1.072,0,0,0,.486-.311A.642.642,0,0,0,67.446,0h-.324V-.945h.828v.81A1.247,1.247,0,0,1,67.707.7a1.361,1.361,0,0,1-.756.4ZM75.15.108a3.37,3.37,0,0,1-1.337-.252,2.993,2.993,0,0,1-1.008-.693,3.012,3.012,0,0,1-.639-1.031,3.58,3.58,0,0,1-.22-1.265V-3.15a3.381,3.381,0,0,1,.229-1.238,3.274,3.274,0,0,1,.644-1.04,3.069,3.069,0,0,1,.994-.715,3.069,3.069,0,0,1,1.292-.266,4.482,4.482,0,0,1,.724.054,3.151,3.151,0,0,1,.612.162,2.926,2.926,0,0,1,.531.266,4.416,4.416,0,0,1,.481.356L77-5.031a3.184,3.184,0,0,0-.378-.293,2.513,2.513,0,0,0-.427-.225,2.681,2.681,0,0,0-.5-.148,3.155,3.155,0,0,0-.607-.054,2.238,2.238,0,0,0-.963.207,2.339,2.339,0,0,0-.756.558,2.61,2.61,0,0,0-.5.823,2.77,2.77,0,0,0-.18.995v.018a3,3,0,0,0,.175,1.044,2.455,2.455,0,0,0,.5.828,2.28,2.28,0,0,0,.783.549,2.589,2.589,0,0,0,1.035.2,2.794,2.794,0,0,0,1.017-.185,2.984,2.984,0,0,0,.8-.445V-2.727H75.078v-.639h2.6V-.855a4.055,4.055,0,0,1-1.085.68A3.546,3.546,0,0,1,75.15.108Zm4.014-4.761h.693v1.215a2.48,2.48,0,0,1,.315-.531,2.113,2.113,0,0,1,.432-.419,1.836,1.836,0,0,1,.531-.266,1.9,1.9,0,0,1,.621-.081v.747H81.7a1.909,1.909,0,0,0-.715.135,1.622,1.622,0,0,0-.589.405,1.92,1.92,0,0,0-.4.67,2.72,2.72,0,0,0-.144.923V0h-.693ZM84.335-.468a1.95,1.95,0,0,0,.6-.09,1.553,1.553,0,0,0,.489-.255,1.231,1.231,0,0,0,.332-.394,1.063,1.063,0,0,0,.121-.506v-.43q-.26-.072-.592-.134a4.139,4.139,0,0,0-.762-.063,1.69,1.69,0,0,0-1,.255.8.8,0,0,0-.354.676v.018a.807.807,0,0,0,.094.39.855.855,0,0,0,.256.291,1.23,1.23,0,0,0,.372.179A1.549,1.549,0,0,0,84.335-.468ZM84.195.1a2.315,2.315,0,0,1-.639-.09A1.673,1.673,0,0,1,83-.266a1.428,1.428,0,0,1-.391-.455,1.287,1.287,0,0,1-.149-.63v-.018A1.442,1.442,0,0,1,82.6-2.03a1.291,1.291,0,0,1,.41-.473,1.963,1.963,0,0,1,.63-.288,3.07,3.07,0,0,1,.806-.1,4.869,4.869,0,0,1,.778.054,5.714,5.714,0,0,1,.644.144v-.143a1.18,1.18,0,0,0-.36-.935,1.488,1.488,0,0,0-1.017-.317A2.916,2.916,0,0,0,83.74-4a3.9,3.9,0,0,0-.661.243l-.207-.57a4.891,4.891,0,0,1,.783-.292,3.419,3.419,0,0,1,.909-.11,2.037,2.037,0,0,1,1.5.513,1.85,1.85,0,0,1,.486,1.368V0h-.684V-.693a2.221,2.221,0,0,1-.652.554A2,2,0,0,1,84.195.1ZM88.02-4.653h.693v.81a2.191,2.191,0,0,1,.612-.644,1.67,1.67,0,0,1,.981-.265,1.963,1.963,0,0,1,.752.135,1.557,1.557,0,0,1,.558.382,1.685,1.685,0,0,1,.351.59,2.245,2.245,0,0,1,.122.756V0h-.693V-2.712a1.492,1.492,0,0,0-.333-1.024,1.205,1.205,0,0,0-.954-.377,1.468,1.468,0,0,0-.553.1,1.291,1.291,0,0,0-.446.3,1.338,1.338,0,0,0-.292.462,1.64,1.64,0,0,0-.1.593V0H88.02ZM95.913-.522a1.682,1.682,0,0,0,.634-.122,1.484,1.484,0,0,0,.522-.351,1.691,1.691,0,0,0,.351-.563,2.059,2.059,0,0,0,.131-.756v-.018a2.033,2.033,0,0,0-.131-.747,1.7,1.7,0,0,0-.355-.567,1.565,1.565,0,0,0-.522-.36,1.6,1.6,0,0,0-.63-.126,1.559,1.559,0,0,0-.626.13,1.731,1.731,0,0,0-.54.369,1.771,1.771,0,0,0-.378.567,1.835,1.835,0,0,0-.139.725v.018a1.892,1.892,0,0,0,.139.738,1.708,1.708,0,0,0,.378.567,1.769,1.769,0,0,0,.54.365A1.559,1.559,0,0,0,95.913-.522ZM96.039.1a2.061,2.061,0,0,1-.594-.081A1.992,1.992,0,0,1,94.959-.2a2.1,2.1,0,0,1-.392-.315,2.806,2.806,0,0,1-.31-.378V0h-.693V-6.57h.693v2.853a3.619,3.619,0,0,1,.319-.4,2.05,2.05,0,0,1,.392-.329,2.029,2.029,0,0,1,.481-.225,1.916,1.916,0,0,1,.59-.085,2.155,2.155,0,0,1,.814.162,2.171,2.171,0,0,1,.715.473,2.318,2.318,0,0,1,.5.756,2.6,2.6,0,0,1,.189,1.022v.018a2.6,2.6,0,0,1-.189,1.017,2.344,2.344,0,0,1-.5.761,2.181,2.181,0,0,1-.711.477A2.126,2.126,0,0,1,96.039.1Zm5.211,0a1.963,1.963,0,0,1-.752-.135,1.557,1.557,0,0,1-.558-.383,1.685,1.685,0,0,1-.351-.59,2.245,2.245,0,0,1-.121-.756V-4.653h.693v2.712a1.492,1.492,0,0,0,.333,1.024,1.205,1.205,0,0,0,.954.377,1.468,1.468,0,0,0,.553-.1,1.245,1.245,0,0,0,.441-.3,1.432,1.432,0,0,0,.293-.462,1.579,1.579,0,0,0,.108-.593V-4.653h.684V0h-.684V-.81a2.191,2.191,0,0,1-.612.644A1.67,1.67,0,0,1,101.25.1Zm3.834-4.752h.693v1.215a2.48,2.48,0,0,1,.315-.531,2.113,2.113,0,0,1,.432-.419,1.836,1.836,0,0,1,.531-.266,1.9,1.9,0,0,1,.621-.081v.747h-.054a1.909,1.909,0,0,0-.716.135,1.622,1.622,0,0,0-.59.405,1.92,1.92,0,0,0-.4.67,2.72,2.72,0,0,0-.144.923V0h-.693Zm4.365,6.12a2.154,2.154,0,0,1-.522-.058,2.286,2.286,0,0,1-.468-.176l.234-.549a1.474,1.474,0,0,0,.338.131,1.671,1.671,0,0,0,.392.041.778.778,0,0,0,.531-.189,1.892,1.892,0,0,0,.423-.684l-2.115-4.635h.765l1.692,3.879,1.494-3.879h.738L111,.153a2.555,2.555,0,0,1-.661,1.017A1.358,1.358,0,0,1,109.449,1.467Zm11.5-3.771L119.52-5.517,118.08-2.3ZM119.2-6.345h.666L122.733,0h-.765l-.738-1.665H117.8L117.054,0h-.729Zm4.2,1.692h.765L125.73-.792,127.3-4.653h.747L126.027.036h-.612Zm9.153,2.043a2.177,2.177,0,0,0-.135-.6,1.673,1.673,0,0,0-.292-.5,1.338,1.338,0,0,0-.45-.34,1.407,1.407,0,0,0-.607-.125,1.355,1.355,0,0,0-.558.116,1.417,1.417,0,0,0-.459.327,1.815,1.815,0,0,0-.328.5,2,2,0,0,0-.167.617Zm-3,.567a1.861,1.861,0,0,0,.18.657A1.579,1.579,0,0,0,130.1-.9a1.6,1.6,0,0,0,.5.3,1.668,1.668,0,0,0,.585.1,1.786,1.786,0,0,0,.832-.18,2.464,2.464,0,0,0,.635-.477l.432.387a2.846,2.846,0,0,1-.8.634,2.363,2.363,0,0,1-1.116.239,2.325,2.325,0,0,1-.9-.176,2.219,2.219,0,0,1-.738-.495,2.353,2.353,0,0,1-.5-.77,2.586,2.586,0,0,1-.185-.99,2.69,2.69,0,0,1,.167-.95,2.386,2.386,0,0,1,.464-.774,2.164,2.164,0,0,1,.706-.517,2.111,2.111,0,0,1,.9-.189,2.1,2.1,0,0,1,.918.193,2.011,2.011,0,0,1,.684.527,2.292,2.292,0,0,1,.423.783,3.142,3.142,0,0,1,.144.963v.1a1.29,1.29,0,0,1-.009.139Zm4.914-2.61h.693v.81a2.191,2.191,0,0,1,.612-.644,1.67,1.67,0,0,1,.981-.265,1.963,1.963,0,0,1,.751.135,1.557,1.557,0,0,1,.558.382,1.685,1.685,0,0,1,.351.59,2.245,2.245,0,0,1,.121.756V0h-.693V-2.712a1.492,1.492,0,0,0-.333-1.024,1.205,1.205,0,0,0-.954-.377,1.468,1.468,0,0,0-.553.1,1.29,1.29,0,0,0-.445.3,1.338,1.338,0,0,0-.293.462,1.64,1.64,0,0,0-.1.593V0h-.693ZM141.723.1a1.963,1.963,0,0,1-.751-.135,1.557,1.557,0,0,1-.558-.383,1.685,1.685,0,0,1-.351-.59,2.245,2.245,0,0,1-.122-.756V-4.653h.693v2.712a1.492,1.492,0,0,0,.333,1.024,1.205,1.205,0,0,0,.954.377,1.468,1.468,0,0,0,.553-.1,1.245,1.245,0,0,0,.441-.3,1.433,1.433,0,0,0,.292-.462,1.579,1.579,0,0,0,.108-.593V-4.653H144V0h-.684V-.81a2.19,2.19,0,0,1-.612.644A1.67,1.67,0,0,1,141.723.1Zm7.245-2.709a2.177,2.177,0,0,0-.135-.6,1.673,1.673,0,0,0-.292-.5,1.338,1.338,0,0,0-.45-.34,1.407,1.407,0,0,0-.607-.125,1.355,1.355,0,0,0-.558.116,1.417,1.417,0,0,0-.459.327,1.815,1.815,0,0,0-.328.5,2,2,0,0,0-.167.617Zm-3,.567a1.861,1.861,0,0,0,.18.657,1.579,1.579,0,0,0,.369.486,1.6,1.6,0,0,0,.5.3,1.668,1.668,0,0,0,.585.1,1.786,1.786,0,0,0,.832-.18,2.464,2.464,0,0,0,.635-.477l.432.387a2.846,2.846,0,0,1-.8.634,2.363,2.363,0,0,1-1.116.239,2.325,2.325,0,0,1-.9-.176,2.219,2.219,0,0,1-.738-.495,2.353,2.353,0,0,1-.5-.77,2.586,2.586,0,0,1-.185-.99,2.69,2.69,0,0,1,.167-.95,2.386,2.386,0,0,1,.464-.774,2.164,2.164,0,0,1,.706-.517,2.111,2.111,0,0,1,.9-.189,2.1,2.1,0,0,1,.918.193,2.011,2.011,0,0,1,.684.527,2.292,2.292,0,0,1,.423.783,3.142,3.142,0,0,1,.144.963v.1a1.29,1.29,0,0,1-.009.139ZM150.525.783a1.072,1.072,0,0,0,.486-.311A.642.642,0,0,0,151.128,0H150.8V-.945h.828v.81a1.247,1.247,0,0,1-.243.832,1.361,1.361,0,0,1-.756.4ZM155.907-6.3h.711V-.657h3.546V0h-4.257Zm8.865,3.69a2.177,2.177,0,0,0-.135-.6,1.673,1.673,0,0,0-.292-.5,1.338,1.338,0,0,0-.45-.34,1.407,1.407,0,0,0-.607-.125,1.355,1.355,0,0,0-.558.116,1.417,1.417,0,0,0-.459.327,1.815,1.815,0,0,0-.328.5,2,2,0,0,0-.167.617Zm-3,.567a1.861,1.861,0,0,0,.18.657,1.579,1.579,0,0,0,.369.486,1.6,1.6,0,0,0,.5.3,1.668,1.668,0,0,0,.585.1,1.786,1.786,0,0,0,.832-.18,2.464,2.464,0,0,0,.635-.477l.432.387a2.846,2.846,0,0,1-.8.634A2.363,2.363,0,0,1,163.4.108a2.325,2.325,0,0,1-.9-.176,2.219,2.219,0,0,1-.738-.495,2.353,2.353,0,0,1-.5-.77,2.586,2.586,0,0,1-.185-.99,2.69,2.69,0,0,1,.167-.95,2.386,2.386,0,0,1,.464-.774,2.164,2.164,0,0,1,.706-.517,2.111,2.111,0,0,1,.9-.189,2.1,2.1,0,0,1,.918.193,2.011,2.011,0,0,1,.684.527,2.292,2.292,0,0,1,.423.783,3.142,3.142,0,0,1,.144.963v.1a1.29,1.29,0,0,1-.009.139ZM170.1-2.61a2.177,2.177,0,0,0-.135-.6,1.673,1.673,0,0,0-.292-.5,1.338,1.338,0,0,0-.45-.34,1.407,1.407,0,0,0-.607-.125,1.355,1.355,0,0,0-.558.116,1.417,1.417,0,0,0-.459.327,1.815,1.815,0,0,0-.328.5,2,2,0,0,0-.167.617Zm-3,.567a1.861,1.861,0,0,0,.18.657,1.579,1.579,0,0,0,.369.486,1.6,1.6,0,0,0,.5.3,1.668,1.668,0,0,0,.585.1,1.786,1.786,0,0,0,.832-.18,2.464,2.464,0,0,0,.635-.477l.432.387a2.846,2.846,0,0,1-.8.634,2.363,2.363,0,0,1-1.116.239,2.325,2.325,0,0,1-.9-.176,2.219,2.219,0,0,1-.738-.495,2.353,2.353,0,0,1-.5-.77,2.586,2.586,0,0,1-.185-.99,2.69,2.69,0,0,1,.167-.95,2.386,2.386,0,0,1,.464-.774,2.164,2.164,0,0,1,.706-.517,2.111,2.111,0,0,1,.9-.189,2.1,2.1,0,0,1,.918.193,2.011,2.011,0,0,1,.684.527,2.292,2.292,0,0,1,.423.783,3.142,3.142,0,0,1,.144.963v.1a1.29,1.29,0,0,1-.009.139Zm4.833,1.1h.828V0h-.828Zm2.205,0h.828V0h-.828Zm2.205,0h.828V0h-.828Z" transform="translate(472 25.197)" fill="#3a3630"/><rect width="1" height="42" transform="translate(0 0.197)" fill="#d7d6d5"/><rect width="1" height="42" transform="translate(1003 0.197)" fill="#d7d6d5"/><rect width="1003" height="1" transform="translate(0 41.197)" fill="#d7d6d5"/><path d="M.432-.549,2.718-2.565q.36-.324.612-.585a3.585,3.585,0,0,0,.405-.49,1.855,1.855,0,0,0,.225-.45,1.455,1.455,0,0,0,.072-.454,1.162,1.162,0,0,0-.1-.5,1.2,1.2,0,0,0-.274-.378,1.2,1.2,0,0,0-.4-.243,1.405,1.405,0,0,0-.486-.086,1.561,1.561,0,0,0-.927.275,3.37,3.37,0,0,0-.765.805L.549-5.049A5.635,5.635,0,0,1,.99-5.616a2.4,2.4,0,0,1,.491-.423A2.127,2.127,0,0,1,2.075-6.3a2.813,2.813,0,0,1,.743-.09,2.21,2.21,0,0,1,.783.135,1.9,1.9,0,0,1,.621.374,1.678,1.678,0,0,1,.4.563,1.736,1.736,0,0,1,.144.712v.018a2.059,2.059,0,0,1-.095.635,2.256,2.256,0,0,1-.288.577,3.963,3.963,0,0,1-.495.581q-.3.3-.716.658L1.494-.639H4.833V0H.432ZM7-5.607l-1.188.369-.171-.576,1.541-.531h.529V0H7Zm5.6-1.575h.639L9.063,1.152H8.424Zm2.2,1.575-1.188.369-.171-.576,1.541-.531h.529V0H14.8ZM19.638-.531a1.524,1.524,0,0,0,.8-.212,1.939,1.939,0,0,0,.6-.569,2.7,2.7,0,0,0,.378-.831,3.71,3.71,0,0,0,.13-.989V-3.15a3.594,3.594,0,0,0-.135-.989,2.775,2.775,0,0,0-.387-.835,2.019,2.019,0,0,0-.608-.578,1.5,1.5,0,0,0-.8-.217,1.524,1.524,0,0,0-.8.212,1.939,1.939,0,0,0-.6.569,2.79,2.79,0,0,0-.382.826,3.579,3.579,0,0,0-.135.993v.018a3.594,3.594,0,0,0,.135.989,2.775,2.775,0,0,0,.387.835,2,2,0,0,0,.612.578A1.523,1.523,0,0,0,19.638-.531ZM19.62.108a2.343,2.343,0,0,1-1.1-.256,2.544,2.544,0,0,1-.837-.7,3.256,3.256,0,0,1-.531-1.03,4.136,4.136,0,0,1-.184-1.251V-3.15A4.1,4.1,0,0,1,17.154-4.4a3.258,3.258,0,0,1,.54-1.04,2.642,2.642,0,0,1,.841-.707,2.31,2.31,0,0,1,1.1-.261,2.324,2.324,0,0,1,1.093.256,2.544,2.544,0,0,1,.837.7A3.248,3.248,0,0,1,22.1-4.415a4.149,4.149,0,0,1,.184,1.247v.018a4.088,4.088,0,0,1-.189,1.255A3.319,3.319,0,0,1,21.559-.86a2.579,2.579,0,0,1-.841.707A2.317,2.317,0,0,1,19.62.108Zm7.209-7.29h.639L23.292,1.152h-.639ZM27.846-.549l2.286-2.016q.36-.324.612-.585a3.584,3.584,0,0,0,.405-.49,1.855,1.855,0,0,0,.225-.45,1.455,1.455,0,0,0,.072-.454,1.162,1.162,0,0,0-.1-.5,1.2,1.2,0,0,0-.274-.378,1.2,1.2,0,0,0-.405-.243,1.405,1.405,0,0,0-.486-.086,1.561,1.561,0,0,0-.927.275,3.37,3.37,0,0,0-.765.805l-.522-.378a5.635,5.635,0,0,1,.441-.567,2.4,2.4,0,0,1,.49-.423,2.127,2.127,0,0,1,.594-.261,2.813,2.813,0,0,1,.743-.09,2.21,2.21,0,0,1,.783.135,1.9,1.9,0,0,1,.621.374,1.678,1.678,0,0,1,.405.563,1.736,1.736,0,0,1,.144.712v.018a2.059,2.059,0,0,1-.094.635,2.256,2.256,0,0,1-.288.577,3.963,3.963,0,0,1-.5.581q-.3.3-.715.658l-1.683,1.5h3.339V0h-4.4Zm8.19.018a1.524,1.524,0,0,0,.8-.212,1.939,1.939,0,0,0,.6-.569,2.7,2.7,0,0,0,.378-.831,3.71,3.71,0,0,0,.131-.989V-3.15a3.594,3.594,0,0,0-.135-.989,2.775,2.775,0,0,0-.387-.835,2.019,2.019,0,0,0-.608-.578,1.5,1.5,0,0,0-.8-.217,1.524,1.524,0,0,0-.8.212,1.939,1.939,0,0,0-.6.569,2.79,2.79,0,0,0-.382.826,3.579,3.579,0,0,0-.135.993v.018a3.594,3.594,0,0,0,.135.989,2.775,2.775,0,0,0,.387.835,2,2,0,0,0,.612.578A1.523,1.523,0,0,0,36.036-.531Zm-.018.639a2.343,2.343,0,0,1-1.1-.256,2.544,2.544,0,0,1-.837-.7,3.257,3.257,0,0,1-.531-1.03,4.136,4.136,0,0,1-.185-1.251V-3.15A4.1,4.1,0,0,1,33.552-4.4a3.258,3.258,0,0,1,.54-1.04,2.642,2.642,0,0,1,.842-.707,2.31,2.31,0,0,1,1.1-.261,2.324,2.324,0,0,1,1.094.256,2.544,2.544,0,0,1,.837.7A3.248,3.248,0,0,1,38.5-4.415a4.15,4.15,0,0,1,.184,1.247v.018a4.088,4.088,0,0,1-.189,1.255A3.319,3.319,0,0,1,37.958-.86a2.579,2.579,0,0,1-.841.707A2.317,2.317,0,0,1,36.018.108Zm3.654-.657,2.286-2.016q.36-.324.612-.585a3.584,3.584,0,0,0,.405-.49,1.855,1.855,0,0,0,.225-.45,1.455,1.455,0,0,0,.072-.454,1.162,1.162,0,0,0-.1-.5,1.2,1.2,0,0,0-.275-.378,1.2,1.2,0,0,0-.4-.243A1.405,1.405,0,0,0,42-5.751a1.561,1.561,0,0,0-.927.275,3.37,3.37,0,0,0-.765.805l-.522-.378a5.635,5.635,0,0,1,.441-.567,2.4,2.4,0,0,1,.49-.423,2.127,2.127,0,0,1,.594-.261,2.813,2.813,0,0,1,.743-.09,2.21,2.21,0,0,1,.783.135,1.9,1.9,0,0,1,.621.374,1.678,1.678,0,0,1,.4.563,1.736,1.736,0,0,1,.144.712v.018a2.059,2.059,0,0,1-.095.635,2.256,2.256,0,0,1-.288.577,3.963,3.963,0,0,1-.495.581q-.3.3-.716.658l-1.683,1.5h3.339V0h-4.4Zm6.57-5.058-1.188.369-.171-.576,1.541-.531h.529V0h-.711Zm4.9,2.538h2.5v.729h-2.5Zm7.4-2.538-1.188.369-.171-.576,1.541-.531h.529V0h-.711Zm5.5,3.519V-5.337L61.389-2.088Zm0,.594H60.714l-.18-.513L64.1-6.345h.621v4.257H65.7v.594h-.981V0h-.684Zm2.889.549h.828V0h-.828Zm0-3.708h.828v.945h-.828Zm3.168-.954L68.9-5.238l-.171-.576,1.541-.531H70.8V0h-.711ZM72.135-.549l2.286-2.016q.36-.324.612-.585a3.584,3.584,0,0,0,.4-.49,1.855,1.855,0,0,0,.225-.45,1.455,1.455,0,0,0,.072-.454,1.162,1.162,0,0,0-.1-.5,1.2,1.2,0,0,0-.274-.378,1.2,1.2,0,0,0-.4-.243,1.405,1.405,0,0,0-.486-.086,1.561,1.561,0,0,0-.927.275,3.37,3.37,0,0,0-.765.805l-.522-.378a5.635,5.635,0,0,1,.441-.567,2.4,2.4,0,0,1,.491-.423,2.127,2.127,0,0,1,.594-.261,2.813,2.813,0,0,1,.743-.09,2.21,2.21,0,0,1,.783.135,1.9,1.9,0,0,1,.621.374,1.678,1.678,0,0,1,.4.563,1.736,1.736,0,0,1,.144.712v.018a2.059,2.059,0,0,1-.095.635,2.255,2.255,0,0,1-.288.577,3.963,3.963,0,0,1-.495.581q-.3.3-.715.658L73.2-.639h3.339V0h-4.4Z" transform="translate(228 25.197)" fill="#3a3630"/><rect width="80" height="29" rx="14.5" transform="translate(882 6.197)" fill="#f7f7f7"/><path d="M14.5,1A13.5,13.5,0,0,0,4.954,24.046,13.412,13.412,0,0,0,14.5,28h51A13.5,13.5,0,0,0,75.046,4.954,13.412,13.412,0,0,0,65.5,1h-51m0-1h51a14.5,14.5,0,0,1,0,29h-51a14.5,14.5,0,0,1,0-29Z" transform="translate(882 6.197)" fill="#ebebeb"/><g transform="translate(901.426 16.428)"><path d="M1.813-2.66a.033.033,0,0,1,.063-.014l.994,2a.3.3,0,0,0,.245.147H3.7a.3.3,0,0,0,.245-.147l.994-2A.033.033,0,0,1,5-2.66V-.168A.17.17,0,0,0,5.166,0H6.223a.17.17,0,0,0,.168-.168V-5.292a.17.17,0,0,0-.168-.168H5.152a.3.3,0,0,0-.245.147L3.465-2.457a.068.068,0,0,1-.126,0L1.9-5.313a.3.3,0,0,0-.245-.147H.588a.17.17,0,0,0-.168.168V-.168A.17.17,0,0,0,.588,0H1.645a.17.17,0,0,0,.168-.168ZM9.87.105a2.873,2.873,0,0,0,2.9-2.835,2.873,2.873,0,0,0-2.9-2.835,2.887,2.887,0,0,0-2.9,2.835A2.887,2.887,0,0,0,9.87.105Zm0-4.319A1.467,1.467,0,0,1,11.354-2.73,1.467,1.467,0,0,1,9.87-1.246,1.48,1.48,0,0,1,8.386-2.73,1.48,1.48,0,0,1,9.87-4.214ZM13.349-.168A.17.17,0,0,0,13.517,0h1.057a.17.17,0,0,0,.168-.168V-1.323a.14.14,0,0,1,.14-.14h.434a.282.282,0,0,1,.224.112L16.394-.14A.338.338,0,0,0,16.66,0H18a.088.088,0,0,0,.07-.14l-1-1.393a.122.122,0,0,1,.042-.182,1.914,1.914,0,0,0,.952-1.75A1.875,1.875,0,0,0,16.016-5.46h-2.5a.17.17,0,0,0-.168.168Zm3.36-3.283a.683.683,0,0,1-.77.721H14.882a.14.14,0,0,1-.14-.14V-4.046a.14.14,0,0,1,.14-.14h1.057A.674.674,0,0,1,16.709-3.451ZM22.736,0A.17.17,0,0,0,22.9-.168V-1.183a.17.17,0,0,0-.168-.168H20.251a.14.14,0,0,1-.14-.14v-.42a.14.14,0,0,1,.14-.14h1.988a.17.17,0,0,0,.168-.168V-3.15a.17.17,0,0,0-.168-.168H20.251a.14.14,0,0,1-.14-.14v-.5a.14.14,0,0,1,.14-.14h2.485A.17.17,0,0,0,22.9-4.27V-5.292a.17.17,0,0,0-.168-.168H18.879a.17.17,0,0,0-.168.168V-.168A.17.17,0,0,0,18.879,0ZM25.55-.168A.17.17,0,0,0,25.718,0h1.064a.17.17,0,0,0,.168-.168V-5.292a.17.17,0,0,0-.168-.168H25.718a.17.17,0,0,0-.168.168Zm3.633-2.737a.045.045,0,0,1,.084-.028l2.247,2.8A.345.345,0,0,0,31.787,0h.847A.17.17,0,0,0,32.8-.168V-5.292a.17.17,0,0,0-.168-.168H31.577a.17.17,0,0,0-.168.168v2.744a.045.045,0,0,1-.084.028L29.078-5.327a.345.345,0,0,0-.273-.133h-.847a.17.17,0,0,0-.168.168V-.168A.17.17,0,0,0,27.958,0h1.057a.17.17,0,0,0,.168-.168ZM34.867,0a.17.17,0,0,0,.168-.168V-1.729a.14.14,0,0,1,.14-.14H37.1a.17.17,0,0,0,.168-.168v-.931a.17.17,0,0,0-.168-.168H35.175a.14.14,0,0,1-.14-.14v-.686a.14.14,0,0,1,.14-.14h2.352a.17.17,0,0,0,.168-.168V-5.292a.17.17,0,0,0-.168-.168H33.81a.17.17,0,0,0-.168.168V-.168A.17.17,0,0,0,33.81,0Zm6.006.105a2.873,2.873,0,0,0,2.9-2.835,2.873,2.873,0,0,0-2.9-2.835,2.887,2.887,0,0,0-2.9,2.835A2.887,2.887,0,0,0,40.873.105Zm0-4.319A1.467,1.467,0,0,1,42.357-2.73a1.467,1.467,0,0,1-1.484,1.484A1.48,1.48,0,0,1,39.389-2.73,1.48,1.48,0,0,1,40.873-4.214Z" transform="translate(-1.426 6.77)" fill="#888075"/></g><path d="M1.611-5.607.423-5.238.252-5.814l1.541-.531h.529V0H1.611ZM6.453-.531a1.524,1.524,0,0,0,.8-.212,1.939,1.939,0,0,0,.6-.569,2.7,2.7,0,0,0,.378-.831,3.71,3.71,0,0,0,.13-.989V-3.15a3.594,3.594,0,0,0-.135-.989,2.775,2.775,0,0,0-.387-.835,2.019,2.019,0,0,0-.608-.578,1.5,1.5,0,0,0-.8-.217,1.524,1.524,0,0,0-.8.212,1.939,1.939,0,0,0-.6.569,2.79,2.79,0,0,0-.383.826,3.579,3.579,0,0,0-.135.993v.018a3.594,3.594,0,0,0,.135.989,2.775,2.775,0,0,0,.387.835,2,2,0,0,0,.612.578A1.523,1.523,0,0,0,6.453-.531ZM6.435.108a2.343,2.343,0,0,1-1.1-.256,2.544,2.544,0,0,1-.837-.7,3.257,3.257,0,0,1-.531-1.03A4.136,4.136,0,0,1,3.78-3.132V-3.15A4.1,4.1,0,0,1,3.969-4.4a3.258,3.258,0,0,1,.54-1.04,2.642,2.642,0,0,1,.842-.707,2.31,2.31,0,0,1,1.1-.261,2.324,2.324,0,0,1,1.094.256,2.544,2.544,0,0,1,.837.7,3.248,3.248,0,0,1,.531,1.035A4.149,4.149,0,0,1,9.1-3.168v.018A4.088,4.088,0,0,1,8.91-1.895,3.319,3.319,0,0,1,8.375-.86a2.579,2.579,0,0,1-.842.707A2.317,2.317,0,0,1,6.435.108Zm6.453-.639a1.524,1.524,0,0,0,.8-.212,1.939,1.939,0,0,0,.6-.569,2.7,2.7,0,0,0,.378-.831,3.71,3.71,0,0,0,.13-.989V-3.15a3.594,3.594,0,0,0-.135-.989,2.775,2.775,0,0,0-.387-.835,2.019,2.019,0,0,0-.608-.578,1.5,1.5,0,0,0-.8-.217,1.524,1.524,0,0,0-.8.212,1.939,1.939,0,0,0-.6.569,2.79,2.79,0,0,0-.383.826,3.579,3.579,0,0,0-.135.993v.018a3.594,3.594,0,0,0,.135.989,2.775,2.775,0,0,0,.387.835,2,2,0,0,0,.612.578A1.523,1.523,0,0,0,12.888-.531ZM12.87.108a2.343,2.343,0,0,1-1.1-.256,2.544,2.544,0,0,1-.837-.7,3.257,3.257,0,0,1-.531-1.03,4.136,4.136,0,0,1-.185-1.251V-3.15A4.1,4.1,0,0,1,10.4-4.4a3.258,3.258,0,0,1,.54-1.04,2.642,2.642,0,0,1,.842-.707,2.31,2.31,0,0,1,1.1-.261,2.324,2.324,0,0,1,1.094.256,2.544,2.544,0,0,1,.837.7,3.248,3.248,0,0,1,.531,1.035,4.15,4.15,0,0,1,.184,1.247v.018a4.088,4.088,0,0,1-.189,1.255A3.319,3.319,0,0,1,14.809-.86a2.579,2.579,0,0,1-.841.707A2.317,2.317,0,0,1,12.87.108Zm6.066-3.015a1.69,1.69,0,0,0,.653-.121,1.549,1.549,0,0,0,.5-.319,1.374,1.374,0,0,0,.31-.453,1.336,1.336,0,0,0,.108-.525v-.018a1.341,1.341,0,0,0-.117-.556,1.364,1.364,0,0,0-.328-.453,1.566,1.566,0,0,0-.509-.305,1.82,1.82,0,0,0-.648-.112,1.6,1.6,0,0,0-.635.121,1.428,1.428,0,0,0-.477.323,1.408,1.408,0,0,0-.3.467,1.526,1.526,0,0,0-.1.561v.018a1.355,1.355,0,0,0,.113.552,1.241,1.241,0,0,0,.315.435,1.485,1.485,0,0,0,.491.283A1.856,1.856,0,0,0,18.936-2.907ZM18.747.108a2.5,2.5,0,0,1-1.08-.217A4.229,4.229,0,0,1,16.8-.657l.414-.549a3.067,3.067,0,0,0,.756.509,1.9,1.9,0,0,0,.792.166,1.492,1.492,0,0,0,.774-.208,1.873,1.873,0,0,0,.6-.573,2.777,2.777,0,0,0,.378-.876A4.238,4.238,0,0,0,20.637-3.3a2.439,2.439,0,0,1-.693.711,1.879,1.879,0,0,1-1.089.3,2.643,2.643,0,0,1-.891-.144,2.031,2.031,0,0,1-.693-.4,1.857,1.857,0,0,1-.45-.621,1.886,1.886,0,0,1-.162-.783v-.018a2.128,2.128,0,0,1,.167-.842,2.057,2.057,0,0,1,.464-.679A2.162,2.162,0,0,1,18-6.242a2.474,2.474,0,0,1,.923-.166,2.415,2.415,0,0,1,.945.171,2.212,2.212,0,0,1,.711.477,2.547,2.547,0,0,1,.571.927,4.428,4.428,0,0,1,.212,1.512V-3.3a4.775,4.775,0,0,1-.189,1.377,3.31,3.31,0,0,1-.535,1.08,2.5,2.5,0,0,1-.828.7A2.265,2.265,0,0,1,18.747.108Z" transform="translate(54 25.197)" fill="#3a3630"/><path d="M3.078-.657a2.957,2.957,0,0,0,1.08-.189,2.387,2.387,0,0,0,.824-.522A2.317,2.317,0,0,0,5.5-2.156a2.571,2.571,0,0,0,.185-.977V-3.15A2.571,2.571,0,0,0,5.5-4.127a2.365,2.365,0,0,0-.522-.792,2.406,2.406,0,0,0-.824-.531,2.9,2.9,0,0,0-1.08-.193H1.6V-.657ZM.891-6.3H3.078a3.724,3.724,0,0,1,1.355.238A3.2,3.2,0,0,1,5.495-5.4a2.946,2.946,0,0,1,.689.995,3.13,3.13,0,0,1,.243,1.237v.018a3.162,3.162,0,0,1-.243,1.242,2.934,2.934,0,0,1-.689,1,3.258,3.258,0,0,1-1.062.666A3.663,3.663,0,0,1,3.078,0H.891ZM7.875-4.653h.693V0H7.875ZM7.83-6.435h.792v.765H7.83ZM11.718.09A2.99,2.99,0,0,1,10.7-.095a3.171,3.171,0,0,1-.909-.5l.351-.5a3.074,3.074,0,0,0,.788.441,2.338,2.338,0,0,0,.823.153,1.142,1.142,0,0,0,.693-.2.634.634,0,0,0,.27-.54v-.018a.481.481,0,0,0-.095-.3.849.849,0,0,0-.256-.22,2.055,2.055,0,0,0-.373-.166q-.211-.072-.437-.135-.27-.081-.545-.176a2.226,2.226,0,0,1-.495-.239,1.211,1.211,0,0,1-.36-.36.976.976,0,0,1-.139-.54V-3.4a1.258,1.258,0,0,1,.117-.544,1.222,1.222,0,0,1,.328-.423,1.5,1.5,0,0,1,.5-.27,2.053,2.053,0,0,1,.635-.095,2.883,2.883,0,0,1,.873.14,3.272,3.272,0,0,1,.8.373L12.96-3.7a3.152,3.152,0,0,0-.679-.329,2.149,2.149,0,0,0-.7-.122,1.026,1.026,0,0,0-.657.193.593.593,0,0,0-.243.482v.018a.435.435,0,0,0,.1.283.87.87,0,0,0,.266.211,2.4,2.4,0,0,0,.383.162q.216.072.45.144.27.081.535.18a2.094,2.094,0,0,1,.481.252,1.228,1.228,0,0,1,.347.369,1.01,1.01,0,0,1,.13.531v.018a1.282,1.282,0,0,1-.13.59,1.343,1.343,0,0,1-.351.437A1.547,1.547,0,0,1,12.37,0,2.171,2.171,0,0,1,11.718.09ZM17.01-.522a1.682,1.682,0,0,0,.635-.122,1.484,1.484,0,0,0,.522-.351,1.691,1.691,0,0,0,.351-.563,2.059,2.059,0,0,0,.13-.756v-.018a2.033,2.033,0,0,0-.13-.747,1.7,1.7,0,0,0-.356-.567,1.565,1.565,0,0,0-.522-.36,1.6,1.6,0,0,0-.63-.126,1.559,1.559,0,0,0-.625.13,1.73,1.73,0,0,0-.54.369,1.771,1.771,0,0,0-.378.567,1.835,1.835,0,0,0-.139.725v.018a1.892,1.892,0,0,0,.139.738,1.708,1.708,0,0,0,.378.567,1.769,1.769,0,0,0,.54.365A1.559,1.559,0,0,0,17.01-.522ZM14.661-4.653h.693v.936a3.618,3.618,0,0,1,.319-.4,2.05,2.05,0,0,1,.391-.329,2.029,2.029,0,0,1,.482-.225,1.916,1.916,0,0,1,.59-.085,2.155,2.155,0,0,1,.815.162,2.171,2.171,0,0,1,.715.473,2.318,2.318,0,0,1,.5.756,2.6,2.6,0,0,1,.189,1.022v.018a2.6,2.6,0,0,1-.189,1.017,2.344,2.344,0,0,1-.5.761,2.181,2.181,0,0,1-.711.477A2.126,2.126,0,0,1,17.136.1a2.061,2.061,0,0,1-.594-.081A1.992,1.992,0,0,1,16.056-.2a2.1,2.1,0,0,1-.392-.315,2.806,2.806,0,0,1-.311-.378V1.44h-.693Zm7.5,4.185a1.95,1.95,0,0,0,.6-.09,1.553,1.553,0,0,0,.489-.255,1.231,1.231,0,0,0,.332-.394,1.063,1.063,0,0,0,.121-.506v-.43q-.26-.072-.592-.134a4.139,4.139,0,0,0-.762-.063,1.69,1.69,0,0,0-1,.255A.8.8,0,0,0,21-1.409v.018a.807.807,0,0,0,.094.39.855.855,0,0,0,.256.291,1.23,1.23,0,0,0,.372.179A1.549,1.549,0,0,0,22.163-.468ZM22.023.1a2.315,2.315,0,0,1-.639-.09,1.673,1.673,0,0,1-.558-.275,1.428,1.428,0,0,1-.391-.455,1.287,1.287,0,0,1-.149-.63v-.018a1.442,1.442,0,0,1,.144-.662,1.291,1.291,0,0,1,.41-.473,1.963,1.963,0,0,1,.63-.288,3.07,3.07,0,0,1,.806-.1,4.869,4.869,0,0,1,.778.054,5.714,5.714,0,0,1,.643.144v-.143a1.18,1.18,0,0,0-.36-.935,1.488,1.488,0,0,0-1.017-.317,2.916,2.916,0,0,0-.752.09,3.9,3.9,0,0,0-.661.243l-.207-.57a4.891,4.891,0,0,1,.783-.292,3.419,3.419,0,0,1,.909-.11,2.037,2.037,0,0,1,1.5.513,1.85,1.85,0,0,1,.486,1.368V0H23.7V-.693a2.221,2.221,0,0,1-.653.554A2,2,0,0,1,22.023.1ZM27.4.081a1.829,1.829,0,0,1-.522-.072,1.073,1.073,0,0,1-.418-.23A1.059,1.059,0,0,1,26.19-.63a1.649,1.649,0,0,1-.1-.6V-4.041h-.648v-.612h.648v-1.4h.693v1.4H28.26v.612H26.784V-1.33a.726.726,0,0,0,.216.6.888.888,0,0,0,.567.171A1.6,1.6,0,0,0,27.9-.592a1.58,1.58,0,0,0,.338-.119v.594a1.557,1.557,0,0,1-.383.148A1.918,1.918,0,0,1,27.4.081Zm4.176.027a2.316,2.316,0,0,1-.95-.194,2.4,2.4,0,0,1-.756-.522,2.383,2.383,0,0,1-.5-.77A2.43,2.43,0,0,1,29.2-2.3v-.018a2.453,2.453,0,0,1,.18-.936,2.436,2.436,0,0,1,.5-.774,2.363,2.363,0,0,1,.756-.527,2.316,2.316,0,0,1,.95-.193,2.659,2.659,0,0,1,.6.063,2.242,2.242,0,0,1,.5.175,2.266,2.266,0,0,1,.414.266,3.621,3.621,0,0,1,.351.324l-.459.486a3.276,3.276,0,0,0-.608-.495,1.482,1.482,0,0,0-.806-.207A1.565,1.565,0,0,0,30.915-4a1.647,1.647,0,0,0-.531.383,1.758,1.758,0,0,0-.351.571,1.956,1.956,0,0,0-.126.707v.018a1.9,1.9,0,0,0,.13.706,1.834,1.834,0,0,0,.36.576,1.652,1.652,0,0,0,.54.387,1.639,1.639,0,0,0,.679.14,1.577,1.577,0,0,0,.8-.2,2.677,2.677,0,0,0,.626-.5l.441.414a3.1,3.1,0,0,1-.8.648A2.211,2.211,0,0,1,31.581.108ZM34.623-6.57h.693v2.727a2.191,2.191,0,0,1,.612-.644,1.67,1.67,0,0,1,.981-.265,1.963,1.963,0,0,1,.751.135,1.557,1.557,0,0,1,.558.382,1.685,1.685,0,0,1,.351.59,2.245,2.245,0,0,1,.121.756V0H38V-2.712a1.492,1.492,0,0,0-.333-1.024,1.205,1.205,0,0,0-.954-.377,1.468,1.468,0,0,0-.554.1,1.29,1.29,0,0,0-.445.3,1.338,1.338,0,0,0-.292.462,1.64,1.64,0,0,0-.1.593V0h-.693Zm8.955,3.96a2.177,2.177,0,0,0-.135-.6,1.673,1.673,0,0,0-.292-.5,1.338,1.338,0,0,0-.45-.34,1.407,1.407,0,0,0-.607-.125,1.355,1.355,0,0,0-.558.116,1.417,1.417,0,0,0-.459.327,1.816,1.816,0,0,0-.328.5,2,2,0,0,0-.167.617Zm-3,.567a1.861,1.861,0,0,0,.18.657A1.58,1.58,0,0,0,41.13-.9a1.6,1.6,0,0,0,.5.3,1.668,1.668,0,0,0,.585.1,1.786,1.786,0,0,0,.833-.18,2.464,2.464,0,0,0,.634-.477l.432.387a2.846,2.846,0,0,1-.8.634A2.363,2.363,0,0,1,42.2.108a2.325,2.325,0,0,1-.9-.176,2.219,2.219,0,0,1-.738-.495,2.353,2.353,0,0,1-.5-.77,2.586,2.586,0,0,1-.185-.99,2.69,2.69,0,0,1,.167-.95,2.386,2.386,0,0,1,.464-.774,2.164,2.164,0,0,1,.706-.517,2.111,2.111,0,0,1,.9-.189,2.1,2.1,0,0,1,.918.193,2.011,2.011,0,0,1,.684.527,2.292,2.292,0,0,1,.423.783,3.142,3.142,0,0,1,.144.963v.1a1.289,1.289,0,0,1-.009.139ZM47.574-.522A1.559,1.559,0,0,0,48.2-.653a1.73,1.73,0,0,0,.54-.369,1.771,1.771,0,0,0,.378-.567,1.859,1.859,0,0,0,.139-.734V-2.34a1.859,1.859,0,0,0-.139-.734,1.719,1.719,0,0,0-.378-.562A1.769,1.769,0,0,0,48.2-4a1.559,1.559,0,0,0-.625-.13,1.671,1.671,0,0,0-.639.122,1.494,1.494,0,0,0-.518.351,1.691,1.691,0,0,0-.351.563,2.059,2.059,0,0,0-.131.756v.018a2.033,2.033,0,0,0,.131.747,1.7,1.7,0,0,0,.355.567,1.565,1.565,0,0,0,.522.36A1.6,1.6,0,0,0,47.574-.522ZM47.448.1a2.143,2.143,0,0,1-.819-.162,2.183,2.183,0,0,1-.711-.472,2.318,2.318,0,0,1-.5-.756,2.6,2.6,0,0,1-.189-1.021v-.018a2.6,2.6,0,0,1,.189-1.017,2.307,2.307,0,0,1,.5-.76,2.246,2.246,0,0,1,.711-.477,2.093,2.093,0,0,1,.819-.166,2.061,2.061,0,0,1,.594.081,1.992,1.992,0,0,1,.486.216,2.1,2.1,0,0,1,.392.315,2.806,2.806,0,0,1,.31.378V-6.57h.693V0H49.23V-.936a3.618,3.618,0,0,1-.319.4,2.19,2.19,0,0,1-.391.333,1.819,1.819,0,0,1-.481.225A2.015,2.015,0,0,1,47.448.1Z" transform="translate(743 25.197)" fill="#3a3630"/><path d="M2.835-3.213.5-6.3h.837L3.276-3.726,5.193-6.3h.828L3.69-3.222,6.111,0H5.265L3.249-2.709,1.233,0H.414Zm6.525,0L7.029-6.3h.837L9.8-3.726,11.718-6.3h.828L10.215-3.222,12.636,0H11.79L9.774-2.709,7.758,0H6.939Zm6.525,0L13.554-6.3h.837l1.935,2.574L18.243-6.3h.828L16.74-3.222,19.161,0h-.846L16.3-2.709,14.283,0h-.819Zm9.225,0L22.779-6.3h.837l1.935,2.574L27.468-6.3H28.3L25.965-3.222,28.386,0H27.54L25.524-2.709,23.508,0h-.819Zm6.525,0L29.3-6.3h.837l1.935,2.574L33.993-6.3h.828L32.49-3.222,34.911,0h-.846L32.049-2.709,30.033,0h-.819Zm6.525,0L35.829-6.3h.837L38.6-3.726,40.518-6.3h.828L39.015-3.222,41.436,0H40.59L38.574-2.709,36.558,0h-.819Z" transform="translate(675 25.197)" fill="#3a3630"/></g><g transform="translate(561.803 381.94)"><path d="M13.237,6.393c1.405,0,2.447-.632,2.447-1.831,0-1.35-1.452-1.855-2.3-2.155-.734-.253-1.018-.379-1.018-.624,0-.205.213-.418.75-.418a.9.9,0,0,1,.916.5.256.256,0,0,0,.268.213h1.1a.217.217,0,0,0,.205-.221C15.518.75,14.515,0,13.079,0c-1.405,0-2.407.734-2.407,1.91,0,1.271,1.286,1.744,2.265,2.068.742.253,1.05.41,1.05.671,0,.182-.189.379-.782.379a1.076,1.076,0,0,1-.987-.395c-.095-.166-.134-.205-.316-.205H10.837a.217.217,0,0,0-.205.221c.111,1.129,1.208,1.744,2.6,1.744M8.722,3.97c0,.734-.316.9-.774.9-.41,0-.782-.166-.782-.9V3.647a.192.192,0,0,0-.189-.189h-1.2a.192.192,0,0,0-.189.189v.347a2.231,2.231,0,0,0,2.36,2.4,2.2,2.2,0,0,0,2.344-2.4V.308A.192.192,0,0,0,10.1.118H8.911a.192.192,0,0,0-.189.189V3.97ZM3.465,2.044c0,.292-.158.489-.584.489H1.737a.158.158,0,0,1-.158-.158V1.713a.158.158,0,0,1,.158-.158H2.968a.45.45,0,0,1,.5.489m.276,2.25c0,.324-.158.553-.584.553H1.737a.158.158,0,0,1-.158-.158V3.923a.158.158,0,0,1,.158-.158H3.157c.426,0,.584.213.584.529m-.41,1.981a1.77,1.77,0,0,0,2-1.737,1.424,1.424,0,0,0-.884-1.366.079.079,0,0,1-.008-.142,1.393,1.393,0,0,0,.616-1.216c0-.979-.671-1.7-2-1.7H.189A.192.192,0,0,0,0,.308V6.086a.192.192,0,0,0,.189.189Z" transform="translate(0)" fill="#feba30"/></g><g transform="translate(458.869 379.148)"><path d="M8.49,2.087A.1.1,0,0,0,8.394,2L7.58,1.982s-.648-.631-.709-.692a.26.26,0,0,0-.236-.026s-.123.035-.324.1A2.563,2.563,0,0,0,6.152.975,1.1,1.1,0,0,0,5.18.3h0a.329.329,0,0,0-.088.009C5.083.292,5.066.283,5.057.265a.832.832,0,0,0-.674-.272A1.944,1.944,0,0,0,2.911,1.062a4.343,4.343,0,0,0-.6,1.533c-.6.184-1.025.315-1.033.324-.307.1-.315.105-.35.394C.906,3.532.1,9.707.1,9.707l6.691,1.156,2.9-.718C9.681,10.136,8.5,2.14,8.49,2.087ZM5.977,1.465c-.158.044-.333.105-.517.158A2.789,2.789,0,0,0,5.3.668C5.7.747,5.889,1.194,5.977,1.465ZM5.1,1.737c-.35.105-.736.228-1.121.342A2.705,2.705,0,0,1,4.54.983,1.408,1.408,0,0,1,4.917.7,2.292,2.292,0,0,1,5.1,1.737ZM4.392.344a.6.6,0,0,1,.315.079A1.714,1.714,0,0,0,4.3.747,3.127,3.127,0,0,0,3.6,2.2l-.92.28C2.868,1.64,3.577.37,4.392.344Z" transform="translate(-0.1 0.007)" fill="#95bf47"/><g transform="translate(1.769 1.253)"><path d="M78.012,15.053l-.815-.018s-.648-.631-.709-.692A.167.167,0,0,0,76.4,14.3v9.608l2.9-.718s-1.182-8-1.191-8.058A.1.1,0,0,0,78.012,15.053Z" transform="translate(-71.487 -14.3)" fill="#5e8e3e"/><path d="M23.6,38.721l-.333,1.261a1.828,1.828,0,0,0-.823-.14c-.657.044-.657.455-.657.561.035.561,1.515.683,1.6,2.006a1.558,1.558,0,0,1-1.436,1.8,2.149,2.149,0,0,1-1.655-.561l.228-.963a1.989,1.989,0,0,0,1.06.412A.423.423,0,0,0,22,42.654c-.044-.736-1.252-.692-1.331-1.9a2.01,2.01,0,0,1,2.076-2.137A1.725,1.725,0,0,1,23.6,38.721Z" transform="translate(-20.3 -36.479)" fill="#fff"/></g></g><path d="M3.324-1.288a1.4,1.4,0,0,0,.586-.12,1.347,1.347,0,0,0,.449-.324,1.505,1.505,0,0,0,.289-.476,1.6,1.6,0,0,0,.1-.576V-2.8a1.6,1.6,0,0,0-.1-.576,1.479,1.479,0,0,0-.3-.48,1.46,1.46,0,0,0-.457-.332,1.364,1.364,0,0,0-.586-.124,1.375,1.375,0,0,0-.582.12,1.4,1.4,0,0,0-.449.324,1.413,1.413,0,0,0-.289.476,1.652,1.652,0,0,0-.1.576V-2.8a1.6,1.6,0,0,0,.1.576,1.516,1.516,0,0,0,.293.48,1.413,1.413,0,0,0,.453.332A1.364,1.364,0,0,0,3.324-1.288ZM3.312.112a3.113,3.113,0,0,1-1.2-.228,2.955,2.955,0,0,1-.952-.62,2.864,2.864,0,0,1-.628-.92A2.815,2.815,0,0,1,.3-2.784V-2.8A2.843,2.843,0,0,1,.532-3.932a2.836,2.836,0,0,1,.636-.928,3.015,3.015,0,0,1,.96-.624,3.113,3.113,0,0,1,1.2-.228,3.113,3.113,0,0,1,1.2.228,2.955,2.955,0,0,1,.952.62,2.864,2.864,0,0,1,.628.92,2.815,2.815,0,0,1,.228,1.128V-2.8a2.843,2.843,0,0,1-.228,1.132,2.836,2.836,0,0,1-.636.928,3.015,3.015,0,0,1-.96.624A3.113,3.113,0,0,1,3.312.112ZM9.72-2.912a.937.937,0,0,0,.616-.18.6.6,0,0,0,.216-.484v-.016a.579.579,0,0,0-.224-.5,1.024,1.024,0,0,0-.616-.164H8.7v1.344ZM7.144-5.6H9.792a3.28,3.28,0,0,1,1.1.16,1.875,1.875,0,0,1,.728.448,1.73,1.73,0,0,1,.5,1.3v.016A1.761,1.761,0,0,1,11.8-2.6a1.974,1.974,0,0,1-.84.648L12.3,0H10.5L9.376-1.7H8.7V0H7.144Zm7.938,4.224a1.658,1.658,0,0,0,1.124-.368,1.31,1.31,0,0,0,.426-1.048v-.016a1.313,1.313,0,0,0-.426-1.044,1.646,1.646,0,0,0-1.124-.372h-.634v2.848ZM12.9-5.6h2.16a4.077,4.077,0,0,1,1.34.2,2.828,2.828,0,0,1,.992.572A2.443,2.443,0,0,1,18-3.948a2.87,2.87,0,0,1,.212,1.116v.016A2.882,2.882,0,0,1,18-1.692a2.524,2.524,0,0,1-.624.892,2.888,2.888,0,0,1-1,.588A4.006,4.006,0,0,1,15.024,0H12.9Zm6.12,0h4.5v1.32H20.544v.848h2.688v1.224H20.544v.888h3.008V0H19.016Zm7.912,2.688a.937.937,0,0,0,.616-.18.6.6,0,0,0,.216-.484v-.016a.579.579,0,0,0-.224-.5,1.024,1.024,0,0,0-.616-.164H25.9v1.344ZM24.352-5.6H27a3.28,3.28,0,0,1,1.1.16,1.875,1.875,0,0,1,.728.448,1.73,1.73,0,0,1,.5,1.3v.016A1.761,1.761,0,0,1,29.008-2.6a1.974,1.974,0,0,1-.84.648L29.5,0H27.712L26.584-1.7H25.9V0H24.352Zm7.968,0h1.451L36.08-2.64V-5.6h1.528V0H36.245l-2.4-3.072V0H32.32ZM41.12.1a3.57,3.57,0,0,1-1.08-.152,2.094,2.094,0,0,1-.816-.468,2.066,2.066,0,0,1-.516-.8,3.268,3.268,0,0,1-.18-1.14V-5.6h1.584v3.112a1.266,1.266,0,0,0,.278.9.981.981,0,0,0,.746.292,1,1,0,0,0,.746-.28,1.2,1.2,0,0,0,.278-.872V-5.6h1.584v3.1a3.284,3.284,0,0,1-.188,1.172,2.11,2.11,0,0,1-.528.808,2.126,2.126,0,0,1-.824.468A3.609,3.609,0,0,1,41.12.1Zm3.544-5.7H46.3L47.64-3.432,48.976-5.6h1.64V0H49.072V-3.216L47.644-1.024h-.032L46.192-3.2V0H44.664Z" transform="translate(344 388)" fill="#fff"/><path d="M0,0H66a6,6,0,0,1,6,6V36a0,0,0,0,1,0,0H0a0,0,0,0,1,0,0V0A0,0,0,0,1,0,0Z" transform="translate(1222 366)" fill="#615e59"/><path d="M3.542-3.087a2.237,2.237,0,0,0,.65-.09,1.589,1.589,0,0,0,.514-.257,1.186,1.186,0,0,0,.338-.405,1.181,1.181,0,0,0,.122-.545V-4.4a1.09,1.09,0,0,0-.424-.914,1.905,1.905,0,0,0-1.191-.328H1.6v2.556ZM.891-6.3H3.6a3.011,3.011,0,0,1,1.039.167,2.033,2.033,0,0,1,.752.463,1.616,1.616,0,0,1,.36.549,1.85,1.85,0,0,1,.126.693v.018a1.866,1.866,0,0,1-.126.706,1.612,1.612,0,0,1-.356.54,1.919,1.919,0,0,1-.544.378,2.636,2.636,0,0,1-.684.211L6.1,0H5.229L3.4-2.448H1.6V0H.891Zm9.8,3.69a2.177,2.177,0,0,0-.135-.6,1.673,1.673,0,0,0-.292-.5,1.338,1.338,0,0,0-.45-.34,1.407,1.407,0,0,0-.608-.125,1.355,1.355,0,0,0-.558.116,1.417,1.417,0,0,0-.459.327,1.816,1.816,0,0,0-.328.5,2,2,0,0,0-.167.617Zm-3,.567a1.861,1.861,0,0,0,.18.657A1.58,1.58,0,0,0,8.244-.9a1.6,1.6,0,0,0,.5.3,1.668,1.668,0,0,0,.585.1,1.786,1.786,0,0,0,.832-.18,2.464,2.464,0,0,0,.634-.477l.432.387a2.846,2.846,0,0,1-.8.634A2.363,2.363,0,0,1,9.315.108a2.325,2.325,0,0,1-.9-.176,2.219,2.219,0,0,1-.738-.495,2.353,2.353,0,0,1-.5-.77,2.586,2.586,0,0,1-.185-.99,2.69,2.69,0,0,1,.167-.95,2.386,2.386,0,0,1,.464-.774,2.164,2.164,0,0,1,.706-.517,2.111,2.111,0,0,1,.9-.189,2.1,2.1,0,0,1,.918.193,2.011,2.011,0,0,1,.684.527,2.292,2.292,0,0,1,.423.783,3.142,3.142,0,0,1,.144.963v.1a1.289,1.289,0,0,1-.009.139Zm5.175-2h-.639v-.6h.639v-.405a1.623,1.623,0,0,1,.405-1.2,1.35,1.35,0,0,1,1-.36,2.8,2.8,0,0,1,.418.027,1.786,1.786,0,0,1,.347.09v.6q-.189-.054-.342-.085A1.652,1.652,0,0,0,14.364-6q-.81,0-.81.99v.378H15.03v.594H13.563V0H12.87Zm3.042-.612H16.6v1.215a2.48,2.48,0,0,1,.315-.531,2.113,2.113,0,0,1,.432-.419,1.836,1.836,0,0,1,.531-.266,1.9,1.9,0,0,1,.621-.081v.747H18.45a1.909,1.909,0,0,0-.715.135,1.622,1.622,0,0,0-.59.405,1.92,1.92,0,0,0-.4.67,2.72,2.72,0,0,0-.144.923V0h-.693ZM22.968-2.61a2.177,2.177,0,0,0-.135-.6,1.673,1.673,0,0,0-.293-.5,1.338,1.338,0,0,0-.45-.34,1.407,1.407,0,0,0-.608-.125,1.355,1.355,0,0,0-.558.116,1.417,1.417,0,0,0-.459.327,1.816,1.816,0,0,0-.329.5,2,2,0,0,0-.167.617Zm-3,.567a1.861,1.861,0,0,0,.18.657A1.58,1.58,0,0,0,20.52-.9a1.6,1.6,0,0,0,.5.3,1.668,1.668,0,0,0,.585.1,1.786,1.786,0,0,0,.833-.18,2.464,2.464,0,0,0,.635-.477l.432.387a2.846,2.846,0,0,1-.8.634,2.363,2.363,0,0,1-1.116.239,2.325,2.325,0,0,1-.9-.176,2.219,2.219,0,0,1-.738-.495,2.353,2.353,0,0,1-.5-.77,2.586,2.586,0,0,1-.184-.99,2.69,2.69,0,0,1,.167-.95,2.386,2.386,0,0,1,.463-.774,2.164,2.164,0,0,1,.707-.517,2.111,2.111,0,0,1,.9-.189,2.1,2.1,0,0,1,.918.193,2.011,2.011,0,0,1,.684.527,2.292,2.292,0,0,1,.423.783,3.142,3.142,0,0,1,.144.963v.1a1.289,1.289,0,0,1-.009.139ZM26.424.09a2.99,2.99,0,0,1-1.017-.185,3.171,3.171,0,0,1-.909-.5l.351-.5a3.074,3.074,0,0,0,.787.441A2.338,2.338,0,0,0,26.46-.5a1.142,1.142,0,0,0,.693-.2.634.634,0,0,0,.27-.54v-.018a.481.481,0,0,0-.094-.3.849.849,0,0,0-.257-.22,2.055,2.055,0,0,0-.374-.166q-.212-.072-.437-.135-.27-.081-.544-.176a2.226,2.226,0,0,1-.5-.239,1.211,1.211,0,0,1-.36-.36.976.976,0,0,1-.139-.54V-3.4a1.258,1.258,0,0,1,.117-.544,1.222,1.222,0,0,1,.329-.423,1.5,1.5,0,0,1,.5-.27,2.053,2.053,0,0,1,.635-.095,2.883,2.883,0,0,1,.873.14,3.272,3.272,0,0,1,.8.373l-.315.522a3.152,3.152,0,0,0-.68-.329,2.149,2.149,0,0,0-.7-.122,1.026,1.026,0,0,0-.657.193.593.593,0,0,0-.243.482v.018a.435.435,0,0,0,.1.283.87.87,0,0,0,.265.211,2.4,2.4,0,0,0,.382.162q.216.072.45.144.27.081.535.18a2.094,2.094,0,0,1,.482.252,1.228,1.228,0,0,1,.347.369,1.01,1.01,0,0,1,.13.531v.018a1.282,1.282,0,0,1-.13.59,1.343,1.343,0,0,1-.351.437A1.547,1.547,0,0,1,27.076,0,2.171,2.171,0,0,1,26.424.09Zm2.943-6.66h.693v2.727a2.191,2.191,0,0,1,.612-.644,1.67,1.67,0,0,1,.981-.265,1.963,1.963,0,0,1,.752.135,1.557,1.557,0,0,1,.558.382,1.685,1.685,0,0,1,.351.59,2.245,2.245,0,0,1,.121.756V0h-.693V-2.712a1.492,1.492,0,0,0-.333-1.024,1.205,1.205,0,0,0-.954-.377,1.468,1.468,0,0,0-.553.1,1.29,1.29,0,0,0-.445.3,1.338,1.338,0,0,0-.293.462,1.64,1.64,0,0,0-.1.593V0h-.693ZM0,1H34.137V2H0Z" transform="translate(1247 387)" fill="#fff" opacity="0.5"/><path d="M8.532-11.673l-.912.912a4.321,4.321,0,0,0-3.065-1.27A4.336,4.336,0,0,0,.224-7.914a.209.209,0,0,0,.21.219h.49a.21.21,0,0,0,.209-.2,3.425,3.425,0,0,1,3.421-3.229,3.415,3.415,0,0,1,2.423,1l-.946.946a.21.21,0,0,0,.148.358h2.5a.21.21,0,0,0,.21-.21v-2.5A.21.21,0,0,0,8.532-11.673ZM8.675-7.7h-.49a.21.21,0,0,0-.209.2A3.425,3.425,0,0,1,4.554-4.269a3.415,3.415,0,0,1-2.423-1l.946-.946a.21.21,0,0,0-.148-.358H.429a.21.21,0,0,0-.21.21v2.5a.21.21,0,0,0,.358.148l.912-.912A4.321,4.321,0,0,0,4.554-3.36a4.336,4.336,0,0,0,4.33-4.117A.209.209,0,0,0,8.675-7.7Z" transform="translate(1234.708 392.076)" fill="#e6faeb"/><g transform="translate(1252.213 408.197)"><path d="M-14.213-9.811a1.439,1.439,0,0,0-1.439-1.439A1.439,1.439,0,0,0-17.09-9.811a1.439,1.439,0,0,0,1.439,1.439A1.439,1.439,0,0,0-14.213-9.811Zm3.6-1.439a1.439,1.439,0,0,0-1.439,1.439,1.439,1.439,0,0,0,1.439,1.439A1.439,1.439,0,0,0-9.178-9.811,1.439,1.439,0,0,0-10.617-11.25Zm-10.07,0a1.439,1.439,0,0,0-1.439,1.439,1.439,1.439,0,0,0,1.439,1.439,1.439,1.439,0,0,0,1.439-1.439A1.439,1.439,0,0,0-20.686-11.25Z" transform="translate(35.897 24.318)" fill="#3a3630"/></g></g></svg>