<svg xmlns="http://www.w3.org/2000/svg" xmlns:xlink="http://www.w3.org/1999/xlink" width="498.387" height="350.238" viewBox="0 0 498.387 350.238"><defs><clipPath id="a"><rect width="351.12" height="350.238" transform="translate(209.551)" fill="none"/></clipPath><clipPath id="b"><rect width="34.386" height="10.814" fill="none"/></clipPath><clipPath id="c"><rect width="29.997" height="9.352" fill="none"/></clipPath><clipPath id="d"><rect width="34.667" height="4.195" fill="none"/></clipPath><clipPath id="e"><rect width="7.46" height="1.365" fill="none"/></clipPath></defs><g transform="translate(-203.759)"><rect width="6.094" height="180.978" transform="matrix(0.883, -0.47, 0.47, 0.883, 203.759, 65.752)" fill="#404859"/><rect width="6.094" height="292.835" transform="translate(282.001 0)" fill="#404859"/><rect width="113.377" height="74.412" transform="translate(213.447 0.183)" fill="#f2a25c"/><path d="M1326.566,69.537l.168,74.412,113.376-.3-.168-74.412Zm107.441,68.023-101.2.263-.14-62.192,101.2-.263Z" transform="translate(-1112.994 -68.802)" fill="#ffbb71"/><rect width="101.197" height="1.589" transform="translate(219.524 27.049)" fill="#e89658"/><rect width="101.197" height="1.589" transform="translate(219.528 39.237)" fill="#e89658"/><rect width="101.197" height="1.589" transform="translate(219.531 51.427)" fill="#e89658"/><rect width="101.197" height="1.589" transform="translate(219.535 63.616)" fill="#e89658"/><rect width="101.197" height="1.589" transform="translate(219.538 73.261)" fill="#e89658"/><g transform="translate(0 0)"><g clip-path="url(#a)"><path d="M1412.6,75.288a28.426,28.426,0,0,1,5.785-6.045,26.672,26.672,0,0,1-5.785,6.045m-86.037-5.806s3.829,2.927,5.376,5.465a21.924,21.924,0,0,1-5.376-5.465m5.734,54.639a26.743,26.743,0,0,0-5.6,5.627,33.927,33.927,0,0,0,5.6-5.627" transform="translate(-1102.684 -57.558)" fill="#f2a25c"/><rect width="16.522" height="8.289" transform="translate(288.103 19.725)" fill="#fff"/><path d="M1906.6,129.278l-36.089.031-.19-60.265,36.089-.031Z" transform="translate(-1554.667 -57.366)" fill="#ce7b48"/><path d="M1870.317,69.044l.19,60.265,36.089-.031-.19-60.265Zm34.325,55.287-32.212.028-.159-50.368,32.212-.028Z" transform="translate(-1554.667 -57.366)" fill="#d89159"/><path d="M1914.2,127.154l-32.212-.03,0-1.287,32.212.03Z" transform="translate(-1564.362 -104.6)" fill="#c57145"/><path d="M1914.382,185.646l-32.213-.03,0-1.287,32.212.03Z" transform="translate(-1564.516 -153.221)" fill="#c57145"/><path d="M1914.566,244.138l-32.212-.03,0-1.287,32.212.03Z" transform="translate(-1564.669 -201.841)" fill="#c57145"/><path d="M1914.75,302.631l-32.212-.03,0-1.287,32.212.03Z" transform="translate(-1564.822 -250.462)" fill="#c57145"/><path d="M1914.934,361.123l-32.212-.03,0-1.287,32.212.03Z" transform="translate(-1564.974 -299.083)" fill="#c57145"/><path d="M1904.146,75.045a33.877,33.877,0,0,1,2.26-6.032,32.013,32.013,0,0,1-2.26,6.032m-33.829-6a29.6,29.6,0,0,1,2.125,5.477,23.513,23.513,0,0,1-2.125-5.477m2.377,54.651a28.186,28.186,0,0,0-2.187,5.614,36.379,36.379,0,0,0,2.187-5.614" transform="translate(-1554.667 -57.366)" fill="#ce7b48"/><rect width="23.699" height="35.371" transform="translate(326.866 36.572)" fill="#ffe164"/><rect width="34.878" height="35.371" transform="translate(350.565 36.572)" fill="#f2a25c"/><rect width="4.87" height="8.961" transform="translate(365.569 36.572)" fill="#dbc6c1"/><rect width="6.077" height="8.961" transform="translate(335.677 36.572)" fill="#fff"/><rect width="23.699" height="35.371" transform="translate(356.155 36.572)" fill="#ffe164"/><rect width="34.878" height="35.371" transform="translate(379.853 36.572)" fill="#f2a25c"/><rect width="4.87" height="8.961" transform="translate(394.857 36.572)" fill="#dbc6c1"/><rect width="6.077" height="8.961" transform="translate(364.965 36.572)" fill="#fff"/><rect width="23.699" height="35.371" transform="translate(385.443 36.572)" fill="#ffe164"/><rect width="34.878" height="35.371" transform="translate(409.141 36.572)" fill="#f2a25c"/><rect width="4.87" height="8.961" transform="translate(424.145 36.572)" fill="#dbc6c1"/><rect width="6.077" height="8.961" transform="translate(394.254 36.572)" fill="#fff"/><rect width="23.699" height="35.371" transform="translate(414.731 36.572)" fill="#ffe164"/><rect width="34.878" height="35.371" transform="translate(438.43 36.572)" fill="#f2a25c"/><rect width="4.87" height="8.961" transform="translate(453.434 36.572)" fill="#dbc6c1"/><rect width="6.077" height="8.961" transform="translate(423.542 36.572)" fill="#fff"/><rect width="23.699" height="35.371" transform="translate(444.019 36.572)" fill="#ffe164"/><rect width="34.878" height="35.371" transform="translate(467.718 36.572)" fill="#f2a25c"/><rect width="4.87" height="8.961" transform="translate(482.722 36.572)" fill="#dbc6c1"/><rect width="6.077" height="8.961" transform="translate(452.83 36.572)" fill="#fff"/><rect width="23.699" height="35.371" transform="translate(473.307 36.572)" fill="#ffe164"/><rect width="34.878" height="35.371" transform="translate(497.006 36.572)" fill="#f2a25c"/><rect width="4.87" height="8.961" transform="translate(512.01 36.572)" fill="#dbc6c1"/><rect width="6.077" height="8.961" transform="translate(482.118 36.572)" fill="#fff"/><rect width="23.699" height="35.371" transform="translate(329.087 1.462)" fill="#ffe164"/><rect width="34.878" height="35.371" transform="translate(352.786 1.462)" fill="#f2a25c"/><rect width="4.87" height="8.961" transform="translate(367.79 1.462)" fill="#dbc6c1"/><rect width="6.077" height="8.961" transform="translate(337.898 1.462)" fill="#fff"/><rect width="23.699" height="35.371" transform="translate(357.142 1.462)" fill="#ffe164"/><rect width="34.878" height="35.371" transform="translate(380.84 1.462)" fill="#f2a25c"/><rect width="4.87" height="8.961" transform="translate(395.844 1.462)" fill="#dbc6c1"/><rect width="6.077" height="8.961" transform="translate(365.953 1.462)" fill="#fff"/><rect width="23.699" height="35.371" transform="translate(383.962 1.462)" fill="#ffe164"/><rect width="34.878" height="35.371" transform="translate(407.661 1.462)" fill="#f2a25c"/><rect width="4.87" height="8.961" transform="translate(422.665 1.462)" fill="#dbc6c1"/><rect width="6.077" height="8.961" transform="translate(392.773 1.462)" fill="#fff"/><rect width="23.699" height="35.371" transform="translate(444.019 1.462)" fill="#ffe164"/><rect width="34.878" height="35.371" transform="translate(467.718 1.462)" fill="#f2a25c"/><rect width="4.87" height="8.961" transform="translate(482.722 1.462)" fill="#dbc6c1"/><rect width="6.077" height="8.961" transform="translate(452.83 1.462)" fill="#fff"/><path d="M1248.989,1200.868l4.028-2.851L1324.9,1299.59h-6.046Z" transform="translate(-1038.199 -995.83)" fill="#404859"/><rect width="4.935" height="303.748" transform="translate(209.551)" fill="#404859"/><rect width="325.176" height="4.935" transform="translate(209.551 71.969)" fill="#404859"/><rect width="325.176" height="4.935" transform="translate(209.551 201.09)" fill="#404859"/><rect width="35.637" height="33.749" transform="translate(328.674 113.749)" fill="#5cbec6"/><rect width="60.07" height="33.749" transform="translate(364.311 113.749)" fill="#529ae3"/><rect width="9.109" height="6.48" transform="translate(389.792 113.749)" fill="#5cbec6"/><rect width="5.711" height="6.48" transform="translate(343.638 113.749)" fill="#b1d5de"/><rect width="35.637" height="33.749" transform="translate(315.41 147.174)" fill="#ff5f4a"/><rect width="60.07" height="33.749" transform="translate(351.047 147.174)" fill="#ce4949"/><rect width="9.109" height="6.48" transform="translate(376.528 147.174)" fill="#ff5f4a"/><rect width="5.711" height="6.48" transform="translate(330.373 147.174)" fill="#ff867a"/><path d="M2288.366,943.315c.606-2.853,4.853-4.369,9.485-3.385s7.9,4.094,7.291,6.948-4.853,4.369-9.486,3.385-7.9-4.094-7.291-6.948" transform="translate(-1902.102 -781.05)" fill="#5cbec6"/><rect width="35.637" height="20.354" transform="translate(307.408 180.884)" fill="#ffe164"/><rect width="60.07" height="20.354" transform="translate(343.045 180.884)" fill="#f2a25c"/><rect width="9.109" height="8.32" transform="translate(368.526 180.884)" fill="#dbc6c1"/><rect width="5.711" height="8.32" transform="translate(322.372 180.884)" fill="#fff"/><rect width="13.174" height="4.16" transform="translate(350.09 192.594)" fill="#ff5f4a"/><rect width="7.858" height="7.858" transform="translate(388.379 186.739)" fill="#dbc6c1"/><rect width="29.182" height="49.19" transform="translate(392.688 152.049)" fill="#ffe164"/><rect width="49.19" height="49.19" transform="translate(421.871 152.049)" fill="#f2a25c"/><rect width="7.459" height="12.462" transform="translate(442.736 152.049)" fill="#dbc6c1"/><rect width="4.676" height="12.462" transform="translate(404.941 152.049)" fill="#fff"/><rect width="29.182" height="49.19" transform="translate(441.225 152.049)" fill="#ffe164"/><rect width="49.19" height="49.19" transform="translate(470.407 152.049)" fill="#f2a25c"/><rect width="7.459" height="12.462" transform="translate(491.272 152.049)" fill="#dbc6c1"/><rect width="4.676" height="12.462" transform="translate(453.478 152.049)" fill="#fff"/><path d="M2116.46,216.314H1947.5a.493.493,0,0,1,0-.987H2116.46a.493.493,0,0,1,0,.987" transform="translate(-1618.417 -178.987)" fill="#f2a25c"/><rect width="29.182" height="49.19" transform="translate(398.974 102.859)" fill="#ffe164"/><rect width="49.19" height="49.19" transform="translate(428.156 102.859)" fill="#f2a25c"/><rect width="7.459" height="12.462" transform="translate(449.022 102.859)" fill="#dbc6c1"/><rect width="4.676" height="12.462" transform="translate(411.227 102.859)" fill="#fff"/><rect width="4.935" height="303.748" transform="translate(456.753)" fill="#404859"/><rect width="4.935" height="303.748" transform="translate(529.792)" fill="#404859"/><rect width="4.935" height="146.572" transform="matrix(0.883, -0.47, 0.47, 0.883, 458.942, 75.581)" fill="#404859"/><path d="M2715.444,1200.868l4.028-2.851,71.884,101.573h-6.046Z" transform="translate(-2257.163 -995.83)" fill="#404859"/><path d="M1652.688,1740.738v9.979h17.948v-4.99h19.579v4.99h7.563v-4.99h19.579v4.99h4.608v-9.979Z" transform="translate(-1373.767 -1446.957)" fill="#d57a59"/><path d="M1617.832,1740.738v9.979h17.948v-4.99h19.579v4.99h7.563v-4.99H1682.5v4.99h17.948v-9.979Z" transform="translate(-1344.793 -1446.957)" fill="#f7a66f"/><path d="M2188.817,1740.738v9.979h-17.948v-4.99H2151.29v4.99h-7.563v-4.99h-19.579v4.99h-11.106v-9.979Z" transform="translate(-1756.427 -1446.957)" fill="#f7a66f"/><path d="M2189.975,1740.738v9.979h-17.948v-4.99h-19.579v4.99h-7.562v-4.99h-19.579v4.99h-17.948v-9.979Z" transform="translate(-1751.703 -1446.957)" fill="#d57a59"/><path d="M1652.688,1681.61v9.979h17.948v-4.99h19.579v4.99h7.563v-4.99h19.579v4.99h4.608v-9.979Z" transform="translate(-1373.767 -1397.808)" fill="#d57a59"/><path d="M1617.832,1681.61v9.979h17.948v-4.99h19.579v4.99h7.563v-4.99H1682.5v4.99h17.948v-9.979Z" transform="translate(-1344.793 -1397.808)" fill="#f7a66f"/><path d="M2188.817,1681.61v9.979h-17.948v-4.99H2151.29v4.99h-7.563v-4.99h-19.579v4.99h-11.106v-9.979Z" transform="translate(-1756.427 -1397.808)" fill="#f7a66f"/><path d="M2189.975,1681.61v9.979h-17.948v-4.99h-19.579v4.99h-7.562v-4.99h-19.579v4.99h-17.948v-9.979Z" transform="translate(-1751.703 -1397.808)" fill="#d57a59"/><path d="M1652.688,1622.482v9.979h17.948v-4.989h19.579v4.989h7.563v-4.989h19.579v4.989h4.608v-9.979Z" transform="translate(-1373.767 -1348.659)" fill="#d57a59"/><path d="M1617.832,1622.482v9.979h17.948v-4.989h19.579v4.989h7.563v-4.989H1682.5v4.989h17.948v-9.979Z" transform="translate(-1344.793 -1348.659)" fill="#f7a66f"/><path d="M2188.817,1622.482v9.979h-17.948v-4.989H2151.29v4.989h-7.563v-4.989h-19.579v4.989h-11.106v-9.979Z" transform="translate(-1756.427 -1348.659)" fill="#f7a66f"/><path d="M2189.975,1622.482v9.979h-17.948v-4.989h-19.579v4.989h-7.562v-4.989h-19.579v4.989h-17.948v-9.979Z" transform="translate(-1751.703 -1348.659)" fill="#d57a59"/><path d="M1652.688,1563.354v9.979h17.948v-4.99h19.579v4.99h7.563v-4.99h19.579v4.99h4.608v-9.979Z" transform="translate(-1373.767 -1299.51)" fill="#d57a59"/><path d="M1617.832,1563.354v9.979h17.948v-4.99h19.579v4.99h7.563v-4.99H1682.5v4.99h17.948v-9.979Z" transform="translate(-1344.793 -1299.51)" fill="#f7a66f"/><path d="M2188.817,1563.354v9.979h-17.948v-4.99H2151.29v4.99h-7.563v-4.99h-19.579v4.99h-11.106v-9.979Z" transform="translate(-1756.427 -1299.51)" fill="#f7a66f"/><path d="M2189.975,1563.354v9.979h-17.948v-4.99h-19.579v4.99h-7.562v-4.99h-19.579v4.99h-17.948v-9.979Z" transform="translate(-1751.703 -1299.51)" fill="#d57a59"/><path d="M1652.688,1504.227v9.978h17.948v-4.989h19.579v4.989h7.563v-4.989h19.579v4.989h4.608v-9.978Z" transform="translate(-1373.767 -1250.362)" fill="#d57a59"/><path d="M1617.832,1504.227v9.978h17.948v-4.989h19.579v4.989h7.563v-4.989H1682.5v4.989h17.948v-9.978Z" transform="translate(-1344.793 -1250.362)" fill="#f7a66f"/><path d="M2188.817,1504.227v9.978h-17.948v-4.989H2151.29v4.989h-7.563v-4.989h-19.579v4.989h-11.106v-9.978Z" transform="translate(-1756.427 -1250.362)" fill="#f7a66f"/><path d="M2189.975,1504.227v9.978h-17.948v-4.989h-19.579v4.989h-7.562v-4.989h-19.579v4.989h-17.948v-9.978Z" transform="translate(-1751.703 -1250.362)" fill="#d57a59"/><path d="M1652.688,1445.1v9.979h17.948v-4.989h19.579v4.989h7.563v-4.989h19.579v4.989h4.608V1445.1Z" transform="translate(-1373.767 -1201.212)" fill="#d57a59"/><path d="M1617.832,1445.1v9.979h17.948v-4.989h19.579v4.989h7.563v-4.989H1682.5v4.989h17.948V1445.1Z" transform="translate(-1344.793 -1201.212)" fill="#f7a66f"/><path d="M2188.817,1445.1v9.979h-17.948v-4.989H2151.29v4.989h-7.563v-4.989h-19.579v4.989h-11.106V1445.1Z" transform="translate(-1756.427 -1201.212)" fill="#f7a66f"/><path d="M2189.975,1445.1v9.979h-17.948v-4.989h-19.579v4.989h-7.562v-4.989h-19.579v4.989h-17.948V1445.1Z" transform="translate(-1751.703 -1201.212)" fill="#d57a59"/><path d="M666.821,1218.674a5.568,5.568,0,0,1-1.746-.44,1.574,1.574,0,0,0,.35.919c.329.337.913.221,1.4-.479" transform="translate(-552.831 -1012.635)" fill="#fff"/></g></g><g transform="translate(461.141 230.171)"><rect width="50.051" height="48.819" transform="translate(0 33.987)" fill="#f2b549"/><rect width="8.662" height="11.314" transform="translate(20.694 33.987)" fill="#e8a328"/><rect width="10.785" height="48.819" transform="translate(50.051 33.987)" fill="#e8a328"/><g transform="translate(26.448 33.987)" opacity="0.4" style="mix-blend-mode:multiply;isolation:isolate"><g clip-path="url(#b)"><path d="M578.11,114.417l23.6,3.045L612.5,125.2V114.391Z" transform="translate(-578.11 -114.391)" fill="#f2b549"/></g></g><rect width="34.871" height="34.014" transform="translate(26.448)" fill="#f2b549"/><rect width="6.035" height="7.883" transform="translate(40.867)" fill="#e8a328"/><rect width="7.514" height="34.014" transform="translate(61.319)" fill="#e8a328"/></g><g transform="translate(625.642 165.518)"><path d="M369.765,48.67a25.639,25.639,0,0,1,.9-7.183,8.65,8.65,0,0,1,4.5-5.425,11.961,11.961,0,0,1,4.674-.695q4.322-.026,8.632.365c2.817.253,5.747.681,8.064,2.3,3.238,2.265,4.614,6.4,5.012,10.334a30.6,30.6,0,0,1-4.427,19.092,18.268,18.268,0,0,1-6.85,6.792,19.893,19.893,0,0,1-5.294,1.7c-3.737.737-7.7.95-11.274-.375-2.082-.772-1.951-3-2.459-4.9a45.561,45.561,0,0,1-1.279-7.3,115.044,115.044,0,0,1-.2-14.711" transform="translate(-367.274 -5.776)" fill="#fc6703"/><path d="M379.661,68.087a10.512,10.512,0,0,1-2.268,0c-.8-.153.994-1.594.994-1.594Z" transform="translate(-368.712 -11.695)" fill="#d19916"/><path d="M366.792,65.193s2.761,2.131,5.128,2.233,2.647-2.545,2.647-2.545-4.783-1.511-7.775.313" transform="translate(-366.736 -11.277)" fill="#d19916"/><path d="M393.448,26.5a18.031,18.031,0,0,1-.442,5.359,1.319,1.319,0,0,0,.206,1.222,1.559,1.559,0,0,0,.5.253,3.866,3.866,0,0,1,2.093,2,1.7,1.7,0,0,1,.176.964,1.429,1.429,0,0,1-.807.989,3.426,3.426,0,0,1-1.284.292c-3.83.294-7.553-1.23-10.993-2.938a5.2,5.2,0,0,1-2.434-1.931c.292-.185.51-.534.786-.743a7.6,7.6,0,0,0,2.722-4.555,12.988,12.988,0,0,0-.168-5.381c3.233,1.425,6.415,3.046,9.648,4.471" transform="translate(-369.335 -3.24)" fill="#e6b68e"/><path d="M370.587,189.116l-1.018,7.053,19.09,4.708V198s-9.012-3.281-9.779-7.633-3.69-4.134-3.69-4.134Z" transform="translate(-367.263 -34.465)" fill="#373a47"/><path d="M392.67,198.184l3.179,7.034,19.142-8.725-2.1-2.367s-8.212,1.981-10.532.348l-5.228.4Z" transform="translate(-371.656 -35.967)" fill="#373a47"/><path d="M378.012,138.873l-7.192,41.27,8.3,1.217,8.52-27.44Z" transform="translate(-367.502 -25.46)" fill="#3a3630"/><path d="M372.331,74.224c-1.336,4.916-.41,10.118.517,15.124q2.3,12.344,4.578,24.671c2.957,15.942,4.595,32.615,11.133,47.436a29.039,29.039,0,0,1,9.779-4.614c-3.456-11.382-4.274-23.157-5.361-35a21.228,21.228,0,0,1-.2-3.687,5.082,5.082,0,0,1,.267-1.336c4.239-11.934,5.879-25.1,7.107-37.6.232-2.351.178-4.738.249-7.125,0-.267.018-.535.036-.8.036-.837.071-1.657.125-2.494.107-1.6.267-3.206.428-4.792.41-4.026-23.549.837-25.651,1.016a12.185,12.185,0,0,1-3.758-.3c-.463,1.62,1.211,3.42,1.479,5.094.249,1.479-.339,2.957-.73,4.418" transform="translate(-367.63 1.665)" fill="#3a3630"/><path d="M395.907,9.717l.559,3.158c.422,2.383.84,4.865.169,7.19a15.974,15.974,0,0,1-1.524,3.3,10.128,10.128,0,0,1-1.289,1.94,3.4,3.4,0,0,1-1.984,1.139,5.094,5.094,0,0,1-3.045-.922,18.189,18.189,0,0,1-3.53-2.341,6.113,6.113,0,0,1-2.058-3.614c-.569.018-1.092-.641-1.38-1.131L380.693,16.5a3.343,3.343,0,0,1-.547-1.356,1.147,1.147,0,0,1,.656-1.2c.325-.111.692-.015,1.017-.126.5-.169.714-.736.9-1.229a13.816,13.816,0,0,1,1-2.123A6.674,6.674,0,0,1,386.4,7.711a7.19,7.19,0,0,1,2.888-.594,8.537,8.537,0,0,1,2.878.282,12.643,12.643,0,0,1,3.742,2.318" transform="translate(-369.274 -0.401)" fill="#f1caab"/><path d="M381.416,7.322a9.929,9.929,0,0,1,3.549-4.486,8.857,8.857,0,0,1,1.821-1.024,7.394,7.394,0,0,1,1.128-.342c-.008.14-.032.277-.038.417a23.147,23.147,0,0,0,.527,5.938A4.784,4.784,0,0,0,385.322,9.8a6.164,6.164,0,0,0-.813,3.207c-.027,1.118.091,2.236.028,3.351-.245,0-.492.059-.736.059a2.518,2.518,0,0,0-.687-2.467,4.818,4.818,0,0,0-1.641-.934,7.866,7.866,0,0,1-.057-5.7" transform="translate(-369.42 0.67)" fill="#373a47"/><path d="M397.2,103.3l.463,32.473a5.07,5.07,0,0,1,.267-1.335c4.24-11.934,5.878-25.1,7.107-37.6.232-2.352.178-4.739.249-7.127,0-.266.018-.535.036-.8-7.018.338-8.123,14.391-8.123,14.391" transform="translate(-372.519 -15.958)" fill="#3a3630"/><g transform="translate(3.365 61.106)" opacity="0.5" style="mix-blend-mode:multiply;isolation:isolate"><g clip-path="url(#c)"><path d="M370.876,74.282c.249.837.517,1.693.765,2.53A4.249,4.249,0,0,0,372.6,78.7a3.711,3.711,0,0,0,1.212.695,12.994,12.994,0,0,0,1.408.463,31.587,31.587,0,0,0,7.677.819c1.906.018,3.812,0,5.718-.018a30.788,30.788,0,0,1,6.662.339,9.782,9.782,0,0,1,5.166,2.636c.107-1.6.267-3.206.428-4.792a22.541,22.541,0,0,0-2.191-.713c-3.777-.944-7.749-.249-11.632-.588a30.3,30.3,0,0,1-4.649-.82c-3.848-.908-7.677-2.244-11.525-2.44" transform="translate(-370.876 -74.282)" fill="#d74f4f"/></g></g><rect width="34.624" height="33.771" transform="translate(34.42 53.279)" fill="#f2b549"/><rect width="5.992" height="7.826" transform="translate(48.737 53.279)" fill="#e8a328"/><rect width="7.46" height="33.771" transform="translate(69.044 53.279)" fill="#e8a328"/><rect width="34.624" height="33.771" transform="translate(31.417 19.508)" fill="#f2b549"/><rect width="5.992" height="7.826" transform="translate(45.733 19.508)" fill="#e8a328"/><rect width="7.46" height="33.771" transform="translate(66.041 19.508)" fill="#e8a328"/><path d="M377.882,66.742c-1.729-2.013-5.329-2.509-7.9-1.851a29.125,29.125,0,0,0,1.653,10.988,9.1,9.1,0,0,0,2.931.877c6.7,1.044,13.527.765,20.309.689a7.941,7.941,0,0,1,3.2.408,7.016,7.016,0,0,1,2.366,1.884c.973,1.077,1.858,2.229,2.741,3.379a10.891,10.891,0,0,0,3.256,2.753c.353.2.845.364,1.126.07a.656.656,0,0,0,.066-.718,1.926,1.926,0,0,0-.494-.578l-1.146-1.029a4.2,4.2,0,0,1-1.663-2.451.44.44,0,0,1,.373.132,31.189,31.189,0,0,0,5.563,3.945,1.6,1.6,0,0,0,.974.209.614.614,0,0,0,.509-.734l-3.334-2.578a7.382,7.382,0,0,1-2-2.016,1.271,1.271,0,0,1,.776.4,48.381,48.381,0,0,0,4.078,3.126,2.167,2.167,0,0,0,.743.377.676.676,0,0,0,.8-.994,2.245,2.245,0,0,0-.5-.628l-2.079-2.045a10.891,10.891,0,0,0-1.481-1.292c-.523-.354-1.187-.751-1.162-1.382a9.123,9.123,0,0,1,1.736.659,15.992,15.992,0,0,0,3.692,1.805.978.978,0,0,0,.932-.166.738.738,0,0,0,.037-.837,2.122,2.122,0,0,0-.629-.624,77.5,77.5,0,0,0-7.024-4.645c-.374-.219-.79-.492-.849-.922a10.066,10.066,0,0,0,3.655-1.289,1.993,1.993,0,0,0,.811-.65.786.786,0,0,0-.059-.969,1.185,1.185,0,0,0-.893-.186l-4.019.248a8.946,8.946,0,0,0-1.6.2,25.634,25.634,0,0,0-2.745,1.134c-2.161.809-4.559.488-6.843.156l-4-.582a93.35,93.35,0,0,1-11.458-2.349,1.511,1.511,0,0,1-.577-.253c-.305-.254.182-1.268.143-1.663" transform="translate(-367.34 -11.338)" fill="#f1caab"/><path d="M368.706,45.323c-1.012,4.776-2.266,10-1.927,14.868a14.592,14.592,0,0,1,10.891,2.476c.632-1.974,1.5-3.71,2.131-5.683a25.979,25.979,0,0,0,1.492-6.587c.109-2.256-.872-7.87-2.542-9.744-5.514-6.188-8.99-.309-10.045,4.671" transform="translate(-366.722 -6.275)" fill="#cc3e00"/><path d="M422.715,105.171l.97,1.407a2.725,2.725,0,0,0,.584.676,2.772,2.772,0,0,0,1.923.294c.6.068,1.274.173,1.871.241a1.7,1.7,0,0,0,1.5-.31c.36.062.82.018,1.178.081a7.722,7.722,0,0,0,1.816.17,2.6,2.6,0,0,0,1.661-.667.917.917,0,0,0,.093-1.095,3.277,3.277,0,0,0-.832-.824,7.684,7.684,0,0,0-1.927-1.209,2.593,2.593,0,0,0-2.206.079c-.613-.1-1.258-.292-1.874-.373a1.742,1.742,0,0,0-1.678.569,4.062,4.062,0,0,0-1.744-.3,1.675,1.675,0,0,0-1.332,1.264" transform="translate(-377.37 -18.755)" fill="#f1caab"/><g transform="translate(34.376 53.279)" opacity="0.4" style="mix-blend-mode:multiply;isolation:isolate"><g clip-path="url(#d)"><path d="M443.838,64.617l-34.624,4.194-.045-3.956Z" transform="translate(-409.171 -64.617)" fill="#e8a328"/></g></g><g transform="translate(66.041 51.914)" opacity="0.4" style="mix-blend-mode:multiply;isolation:isolate"><g clip-path="url(#e)"><path d="M448.271,64.3l7.46-1.365V64.3Z" transform="translate(-448.271 -62.932)" fill="#e8a328"/></g></g><g transform="matrix(-0.985, -0.174, 0.174, -0.985, 25.676, 23.331)"><path d="M2.266,7.591c1.443-.212.952-.666.557-2.4a5.32,5.32,0,0,0-.883-2.244,7.565,7.565,0,0,0-.7-.681c-.183-.513,0-.881.79-1.283L3.83,0,1.693.806A1.215,1.215,0,0,0,.8,2.3a4.167,4.167,0,0,0,.425.638S2.2,6.375,0,7.552c.246.91,1.45.159,2.266.039" transform="translate(0.442 3.172)" fill="#ceab8f"/><path d="M.035,3.547C-.071,3.178-.042.551,1.69.028L2.038,0,5.091,2.174C4.126,3.349,1.379,3.274.035,3.547" transform="translate(5.367 6.621)" fill="#ceab8f"/><path d="M.236,1.374A19.174,19.174,0,0,0,3.248.825.246.246,0,0,0,3.377.506L3.3.185a.262.262,0,0,0-.343-.17C2.039.3,1.125.582.2.844a.263.263,0,0,0-.19.334.248.248,0,0,0,.224.2" transform="translate(0.451 10.26)" fill="#987b64"/><path d="M4.72.5C3.284.954,1.832,1.247.41,1.578a.286.286,0,0,1-.347-.22L0,.934C-.021.771.153.641.364.615,1.612.46,3.01.279,4.473.009c.21-.038.413.042.436.2A.266.266,0,0,1,4.72.5" transform="translate(5.192 9.177)" fill="#987b64"/><path d="M.008,1.125C-.081.934.564.679.875.661c.642-.077.7.184,1.042.039C2.8.293,2.76-.065,2.994.01c.272.087-.266.928-1.523,1.4A1.353,1.353,0,0,1,.008,1.125" transform="translate(5.921 6.977)" fill="#4a3f37"/><path d="M.008.7C-.073.526.493.366.769.38c.567-.007.616.224.921.132.777-.27.736-.584.944-.5.241.1-.269.8-1.374,1.093A1.23,1.23,0,0,1,.008.7" transform="translate(0.525 8.456)" fill="#4a3f37"/><path d="M0,.823C-.017.351.238-.017.57,0s.616.415.634.887a.56.56,0,0,1-.646.621C.226,1.49.019,1.295,0,.823" transform="translate(1.314 7.641)"/><path d="M0,.823C-.019.351.259-.017.622,0a.866.866,0,0,1,.693.887.574.574,0,0,1-.647.657A.677.677,0,0,1,0,.823" transform="translate(6.655 6.509)"/><path d="M.164,1.82C-.695,1.3,1.961-1.062,4.719.56c.277.163-.3.08-.047.362a7.5,7.5,0,0,0-4.508.9" transform="translate(0.691 0.265)" fill="#49071d"/><path d="M0,1.39.012.978a9.6,9.6,0,0,1,4.7-.945L4.609.567C4.388.17-.121,1.308,0,1.39" transform="translate(0.696 0.793)" fill="#fff"/><path d="M5.893,0a.176.176,0,0,1,.033,0,.23.23,0,0,1,.223.217,1.007,1.007,0,0,1-.191.765.769.769,0,0,1-.619.242c.013,0-1.091.143-2.551.444l-.317.067a10.1,10.1,0,0,0-1.022.295C.856,2.224.464,2.352.2,2.191a.45.45,0,0,1-.2-.28A.208.208,0,0,1,.15,1.649.212.212,0,0,1,.4,1.821l-.2.045.2-.041a2.975,2.975,0,0,0,.9-.221,10.371,10.371,0,0,1,1.06-.3C4,.946,5.281.783,5.294.782A.448.448,0,0,0,5.65.667.6.6,0,0,0,5.74.227.2.2,0,0,1,5.893,0" transform="translate(0 0.277)" fill="#ce9494"/><path d="M2.1.1a3.249,3.249,0,0,1,3.065.7.237.237,0,0,1,.029.314A.192.192,0,0,1,4.9,1.13a3.116,3.116,0,0,0-3.3-.435,1.809,1.809,0,0,0-1.152.989.471.471,0,0,0-.024.335.22.22,0,0,1-.085.294A.209.209,0,0,1,.07,2.2a.9.9,0,0,1,0-.705A2.192,2.192,0,0,1,1.472.267Q1.794.167,2.1.1" transform="translate(0.429 0)" fill="#ce9494"/></g><g transform="translate(27.694 17.42) rotate(-166)"><path d="M17.966,0a2.33,2.33,0,0,1-1.023,1.52c-.868.714-.3,1.525-1.813,2.361s-2.327-.006-3.265.581a23.7,23.7,0,0,1-2.182.947C4.723,7.46.387,8.362,0,7.425c.249.665,1.076.98,3.014.98,0,0,3.22,7.269,10.931,4.151.133-.054.2-.364.324-.421,6.215-2.814,3.686-9.376,3.686-9.376a1.488,1.488,0,0,0,.475-1.713A10.4,10.4,0,0,0,17.966,0" transform="translate(0 0)" fill="#feba30"/><path d="M14.94,0l-.683.8A2.237,2.237,0,0,1,12.9,2.588,3.932,3.932,0,0,1,10.22,2.9,33.6,33.6,0,0,1,0,5.646c2.105.261,6.413-.635,10.2-2.341A5.455,5.455,0,0,0,13.123,3a2.183,2.183,0,0,0,1.44-2l.492-.652Z" transform="translate(3.015 2.759)" fill="#c89020"/><path d="M5.167,0,0,2.074C1.322,4.923,4.658,5.429,6.8,4.812,4.906,5.11,1.932,4.873.7,2.329Z" transform="translate(7.474 7.323)" fill="#c89020"/></g></g><g transform="translate(496.83 166.79)"><path d="M507.21,37.9a3.186,3.186,0,0,1,.463,1.137,10.571,10.571,0,0,1,.315,3.7c-.185,2.021,1.48,4.17,3.234,5.189a2.061,2.061,0,0,0,1.036.323,2.183,2.183,0,0,0,1.341-.606,10.206,10.206,0,0,0,2.126-2.932,37.773,37.773,0,0,0,3.213-6.808,3.052,3.052,0,0,1-2.032-1.829,21.982,21.982,0,0,1-.873-2.628c-.237-.695-.684-1.457-1.416-1.52a2.131,2.131,0,0,0-.985.235l-1.908.8a3.352,3.352,0,0,0-1.683,1.222A22.246,22.246,0,0,0,507.21,37.9" transform="translate(-475.722 -16.566)" fill="#e6b68e"/><path d="M493.674,74.386a11.8,11.8,0,0,1-1.314,2.1,14.015,14.015,0,0,1-4.134,2.835,23.492,23.492,0,0,0-6.118,4.716,7.735,7.735,0,0,1-1.4,1.358,5.985,5.985,0,0,1-3.041.746q-2.027.1-4.058.011c-1.952-.088-4.147-.45-5.26-2.056a.892.892,0,0,1,.2-.778,32.17,32.17,0,0,0,7.325-1.2,9.215,9.215,0,0,0,3.284-1.5,11.29,11.29,0,0,0,2.013-2.347q1.193-1.663,2.447-3.281a47.844,47.844,0,0,1,3.165-3.747c.8-.837,1.646-1.629,2.357-2.541,2.005-2.568,2.788-5.88,4.5-8.655a3.834,3.834,0,0,1,2.041-1.862,4.416,4.416,0,0,1,3.269.884c.837.49,2.451,1.4,2.239,2.516a9,9,0,0,1-1.324,2.085q-.638,1.028-1.261,2.063-2.572,4.264-4.925,8.655" transform="translate(-468.329 -21.544)" fill="#e6b68e"/><path d="M500.207,55.738a8.928,8.928,0,0,0,1.029.591,11.71,11.71,0,0,0,2.434,1,7.491,7.491,0,0,1,1.571.642c.593,1.994,1.267,3.734,1.978,5.677,1.487,4.038,3.446,7.907,4.528,12.063.185.71.338,1.42.489,2.129.2.981.406,1.977.677,2.94.1.372.2.743.321,1.1a6.505,6.505,0,0,0,.557,1.267,3.6,3.6,0,0,0,.862,1.082,2.255,2.255,0,0,0,1.555.389,13.437,13.437,0,0,0,1.6-.3c2.519-.507,5.155.084,7.671-.423.66-.135,1.3-.355,1.96-.523,2.6-.693,5.356-.845,7.874-1.791a3.83,3.83,0,0,0,1.1-.591c.321-.27.27-.794.59-1.065a1.417,1.417,0,0,0,.237-1.6,6.914,6.914,0,0,0-.945-1.42,12.164,12.164,0,0,1-1.539-3.818c-.185-.693-.389-1.4-.574-2.1-1.234-4.529-2.467-9.124-2.449-13.8a45.083,45.083,0,0,0-.845-7.823,25.308,25.308,0,0,0-1.031-4.342,9.094,9.094,0,0,0-2.331-3.767,9.361,9.361,0,0,0-4.85-2.23,29.527,29.527,0,0,0-5.608-.27l-1.927,2.484c-.658.828-3.514,4.916-6.369,6.758-.135-.372-.27-.726-.4-1.1-.491-1.335-.964-2.67-1.556-3.954l-.118-.253-.421.219a6.943,6.943,0,0,0-2.213,1.673,6.717,6.717,0,0,0-.862,1.52,33.01,33.01,0,0,0-2.332,7.468,4.3,4.3,0,0,1-.658,2.179" transform="translate(-474.391 -17.859)" fill="#fc6703"/><path d="M515.061,79.444c.2.98.406,1.977.676,2.94,1.3-.692,2.6-1.386,3.9-2.1,2.94-1.571,8.5-5.353,9.967-10.478.928-3.238,2.907-13.312,3.144-14.021a10.156,10.156,0,0,0,.338-3.041c.017-1.943-.033-4.038-1.216-5.576a40.57,40.57,0,0,0-5.069,10.34c-1.47,4.393-2.179,9.107-4.427,13.162a38.648,38.648,0,0,1-6.792,8.245l-.524.524" transform="translate(-477.215 -19.466)" fill="#cc3e00"/><path d="M502.153,31.38A10.88,10.88,0,0,0,503.322,35a4.648,4.648,0,0,0,2.919,2.293c1.625.343,3.259-.472,4.648-1.381a8.619,8.619,0,0,0,1.928-1.593,7.206,7.206,0,0,0,1.134-1.987,23.473,23.473,0,0,0,1.3-6.522A6.014,6.014,0,0,0,514.774,22a3.989,3.989,0,0,0-2.17-1.575,10.321,10.321,0,0,0-2.7-.407,13.55,13.55,0,0,0-4.51.334c-1.572.46-3.634,1.762-3.74,3.553a32.113,32.113,0,0,0,.5,7.474" transform="translate(-474.657 -14.294)" fill="#f1caab"/><path d="M558.235,190.467l2.679,6.815-18.594,7.241-.222-2.991s6.779-4.272,7.2-6.929l3.728-3.293Z" transform="translate(-482.357 -46.716)" fill="#373a47"/><path d="M512.286,190.313l-1.116,7.237-19.711-3.107,1.314-2.7s8.008-.277,9.712-2.36l4.879-.967Z" transform="translate(-472.727 -46.327)" fill="#373a47"/><path d="M503.914,22.454c1.549,1.061,3.592,1.175,5.163,2.2a5.206,5.206,0,0,1,2.3,3.882c.023.28.2.662.477.706s.492-.226.578-.486a2.346,2.346,0,0,1,.279-.769.891.891,0,0,1,1.189-.062,2.018,2.018,0,0,1,.651,1.117c.3,1.061.293,2.183.551,3.253a3.37,3.37,0,0,0,1.91,2.523,7.353,7.353,0,0,1,.154-3.456,29.307,29.307,0,0,0,1.041-5.6,5.759,5.759,0,0,0-2.216-4.992,6.582,6.582,0,0,0-2.113-.815,12.339,12.339,0,0,0-5.34-.185,7.891,7.891,0,0,0-4.627,2.676" transform="translate(-475.096 -14.216)" fill="#373a47"/><g transform="translate(23.201 4.483) rotate(-14)"><path d="M17.965,13.333a2.33,2.33,0,0,0-1.023-1.52c-.868-.714-.3-1.525-1.812-2.361s-2.327.006-3.265-.581a23.7,23.7,0,0,0-2.182-.947C4.723,5.873.387,4.971,0,5.908c.249-.665,1.076-.98,3.014-.98,0,0,3.22-7.269,10.93-4.151.133.054.2.364.324.421,6.215,2.813,3.685,9.376,3.685,9.376a1.488,1.488,0,0,1,.475,1.713,10.389,10.389,0,0,1-.463,1.046" transform="translate(0 0)" fill="#feba30"/><path d="M14.939,5.69l-.683-.8A2.237,2.237,0,0,0,12.9,3.1,3.932,3.932,0,0,0,10.219,2.8,33.6,33.6,0,0,0,0,.045C2.105-.216,6.413.679,10.2,2.386a5.454,5.454,0,0,1,2.92.308,2.183,2.183,0,0,1,1.44,2l.492.652Z" transform="translate(3.015 4.884)" fill="#c89020"/><path d="M5.167,5.045,0,2.971C1.322.122,4.658-.384,6.795.234,4.906-.064,1.932.172.7,2.717Z" transform="translate(7.474 0.964)" fill="#c89020"/></g><path d="M498.414,84.858a3.57,3.57,0,0,0,1.941-.71,18.763,18.763,0,0,0,2.991-2.591,81.007,81.007,0,0,0,6.184-7.05c.594-.761,1.174-1.534,1.774-2.289,1.106-1.39,2.488-2.387,3.334-3.949a9.416,9.416,0,0,0,.8-3.434c.4-3.366.505-6.74,1.729-9.9a15.963,15.963,0,0,1,7.726,1.335,4.656,4.656,0,0,1,1.295.838c-.82,3.518-1.786,7-2.751,10.48q-.432,1.557-.865,3.115a9.546,9.546,0,0,1-.766,2.1,8.376,8.376,0,0,1-1.013,1.375,35.5,35.5,0,0,1-10.546,8.333,67.774,67.774,0,0,0-8.23,4.991,8.531,8.531,0,0,1-1.446.9,8.168,8.168,0,0,1-4.434.547,24.55,24.55,0,0,1-4.521-1.131l-3.765-1.2c-.244-.343-.813-.639-.816-1.06a.614.614,0,0,1,.372-.522,1.777,1.777,0,0,1,.659-.13,16.686,16.686,0,0,1,2.062-.035,9.7,9.7,0,0,1,1.867.3c2.085.539,4.265-.337,6.418-.314" transform="translate(-471.886 -20.932)" fill="#f1caab"/><path d="M523.184,46.545h.025c-.011-.152-.044-.3-.044-.454a5.526,5.526,0,1,1,11.048,0,19.57,19.57,0,0,1,0,4.028,38.368,38.368,0,0,1-.917,4.774,9.188,9.188,0,0,0-10.131-.258l.174-7.2c-.044-.181-.07-.367-.1-.555Z" transform="translate(-478.757 -18.183)" fill="#cc3e00"/><path d="M501.437,58.257a1.2,1.2,0,0,0,.034.338,11.653,11.653,0,0,0,2.434,1,7.516,7.516,0,0,1,1.571.642s-2.129-7.08-2.028-9.6a9.8,9.8,0,0,0-.338,4.7,3.378,3.378,0,0,1-.152,2.348,1.442,1.442,0,0,1-1.521.575" transform="translate(-474.624 -20.125)" fill="#cc3e00"/><path d="M504.608,170.332l10.273,2.281s2.855-20.191,3.532-31.594a33.486,33.486,0,0,1,.388-3.414v-.034c1.4-8.887,5.745-17.69,6.944-20.021l.322-.59s2.618,2.061,4.443,16.76c1.825,14.715,11.287,41.631,11.287,41.631l10.493-3.042a209.033,209.033,0,0,1-6.691-23.484c-1.013-4.106-1.943-8.3-3.176-12.335a23.79,23.79,0,0,1-.642-7.5c.068-3.734.135-7.45.22-11.168.2-10.053.287-20.578-4.258-29.566l-22.252,5.389s-.152,7.585-2.416,13.4-3.9,19.278-5.154,25.766c-1.25,6.5-3.311,37.525-3.311,37.525" transform="translate(-475.228 -27.278)" fill="#3a3630"/><path d="M522.134,142.23c1.4-8.887,5.744-17.69,6.944-20.021l.321-.591-3.978-8.868s-3.253,19.681-3.287,29.481" transform="translate(-478.56 -31.937)" fill="#3a3630"/><g transform="translate(26.429 11.503) rotate(-13)"><path d="M1.79.32c1.14.167.752.526.44,1.892a4.2,4.2,0,0,1-.7,1.773,5.978,5.978,0,0,1-.552.538c-.145.405,0,.7.624,1.013l1.42.78L1.337,5.68A.96.96,0,0,1,.634,4.5a3.29,3.29,0,0,1,.336-.5S1.741,1.28,0,.351C.195-.368,1.145.225,1.79.32" transform="translate(0.349 0.368)" fill="#ceab8f"/><path d="M.028,0C-.056.291-.033,2.366,1.335,2.779L1.61,2.8,4.022,1.084C3.259.156,1.089.216.028,0" transform="translate(4.24 1.158)" fill="#ceab8f"/><path d="M.187,0A15.142,15.142,0,0,1,2.565.434a.194.194,0,0,1,.1.252L2.6.939a.207.207,0,0,1-.271.135C1.61.847.889.626.16.419A.208.208,0,0,1,.01.154.2.2,0,0,1,.187,0" transform="translate(0.357 0)" fill="#987b64"/><path d="M3.728.861C2.594.5,1.447.268.324.006A.226.226,0,0,0,.05.18L0,.515C-.017.644.121.746.288.767c.986.123,2.09.265,3.246.478.166.03.326-.033.345-.161a.21.21,0,0,0-.15-.223" transform="translate(4.101 0.688)" fill="#987b64"/><path d="M.007.3c-.07.151.439.352.685.366.507.061.549-.145.823-.031.7.322.666.605.851.546.215-.069-.21-.733-1.2-1.1A1.069,1.069,0,0,0,.007.3" transform="translate(4.677 2.493)" fill="#4a3f37"/><path d="M.006.353C-.058.49.39.616.607.605c.448.005.487-.177.727-.1.614.213.581.461.746.392C2.27.814,1.867.258.995.03A.971.971,0,0,0,.006.353" transform="translate(0.415 1.605)" fill="#4a3f37"/><path d="M0,.542c-.014.373.187.664.449.65s.487-.328.5-.7A.442.442,0,0,0,.44,0C.178.015.015.17,0,.542" transform="translate(1.038 1.961)"/><path d="M0,.571c-.016.373.2.664.491.65a.684.684,0,0,0,.548-.7A.454.454,0,0,0,.528,0,.535.535,0,0,0,0,.571" transform="translate(5.256 2.828)"/><path d="M.13,0c-.679.408,1.419,2.277,3.6.995C3.946.866,3.493.932,3.691.709A5.924,5.924,0,0,1,.13,0" transform="translate(0.546 7.543)" fill="#49071d"/><path d="M0,0,.01.326a7.578,7.578,0,0,0,3.715.747L3.641.651C3.466.964-.1.065,0,0" transform="translate(0.55 7.466)" fill="#fff"/><path d="M4.655,1.786l.026,0a.181.181,0,0,0,.176-.171.8.8,0,0,0-.151-.6A.607.607,0,0,0,4.217.822c.01,0-.862-.113-2.015-.351L1.951.418A7.975,7.975,0,0,1,1.144.185C.676.032.367-.07.162.058A.356.356,0,0,0,.006.278.165.165,0,0,0,.119.486.168.168,0,0,0,.319.35L.162.314.32.347a2.35,2.35,0,0,1,.712.175,8.2,8.2,0,0,0,.837.241c1.289.279,2.3.408,2.313.409a.354.354,0,0,1,.281.09.472.472,0,0,1,.071.348.161.161,0,0,0,.121.176" transform="translate(0 7.182)" fill="#ce9494"/><path d="M1.658,1.761a2.566,2.566,0,0,0,2.421-.554A.187.187,0,0,0,4.1.958.152.152,0,0,0,3.874.95a2.461,2.461,0,0,1-2.6.344A1.429,1.429,0,0,1,.361.513.372.372,0,0,1,.342.248.174.174,0,0,0,.275.016.165.165,0,0,0,.055.1a.709.709,0,0,0,0,.557,1.731,1.731,0,0,0,1.1.971q.255.08.5.129" transform="translate(0.339 7.348)" fill="#ce9494"/></g></g></g></svg>