<svg xmlns="http://www.w3.org/2000/svg" width="108.604" height="62.833" viewBox="0 0 108.604 62.833"><g transform="translate(22.995 0)"><path d="M617.834,521.218s8.311.43,6.376,3.046-7.023-1.535-7.023-1.535Z" transform="translate(-564.325 -476.576)" fill="#ffb8b8"/><path d="M417.32,230.251l1.692.423s.987,2.961,1.692,5.639,2.115,10.714,2.115,10.714l10.93,7.66-1.3,2.916-14.56-5.739-3.243-12.732Z" transform="translate(-379.127 -210.53)" fill="#1faabb"/><path d="M430.669,291.607l-.631,13.2,1.316,3.926-3.854-2.826Z" transform="translate(-390.885 -266.631)" opacity="0.2" style="isolation:isolate"/><path d="M282.15,545.649a40.182,40.182,0,0,1,2.115,8.318c.282,3.384.564,6.062.564,6.062h-8.6l-1.692-2.538v2.538h-10.01s-2.82-9.164-1.692-10.292,11.842-5.921,11.842-5.921Z" transform="translate(-240.08 -497.238)" fill="#333"/><rect width="108.604" height="0.171" transform="translate(-22.995 62.662)" fill="#333"/><circle cx="5.357" cy="5.357" r="5.357" transform="translate(25.927 3.649)" fill="#ffb8b8"/><path d="M313.012,131.491l-.423,6.2,5.357,7.19,2.679-6.767s-2.4-1.551-.987-4.793Z" transform="translate(-285.816 -120.229)" fill="#ffb8b8"/><path d="M238.36,209.257c0,1.269-3.525,3.243-3.525,3.243v.7l-1.41.7-3.1-6.2-.845,6.766s-6.2.988-8.177,0-2.961-.564-5.781-1.55,1.128-14.239,1.128-14.239l-2.82-20.442,6.16-3.08.325-.163.847-.156,1.3-.24,4.34,2.934.349,1.833.215,1.128,1.127-1.269.851-2.8,6.057,3.364-1.692,13.534S238.36,207.988,238.36,209.257Z" transform="translate(-195.516 -159.648)" fill="#1faabb"/><path d="M243.221,630.231s6.485,5.216,3.383,6.2-4.793-5.357-4.793-5.357Z" transform="translate(-221.1 -576.252)" fill="#ffb8b8"/><path d="M170.087,217.365l-1.41-.282a4.5,4.5,0,0,0-2.256,3.384c-.141,2.256-1.974,18.045-1.974,18.045l5.921,15.931,4.793-1.833-4.652-14.944,3.524-12.97Z" transform="translate(-150.363 -198.49)" fill="#1faabb"/><circle cx="0.514" cy="0.514" r="0.514" transform="translate(31.391 22.149)" fill="#695f50"/><circle cx="0.514" cy="0.514" r="0.514" transform="translate(31.391 25.49)" fill="#695f50"/><path d="M297.484,3.518l-.99-.4a6.756,6.756,0,0,1,4.952-2.081l-.81-.892a3.444,3.444,0,0,1,3.781,1.289,17.574,17.574,0,0,1,2.724,3.829H308.2l-.443.975,1.549.975-1.59-.175a5.446,5.446,0,0,1,.043,1.617A2.092,2.092,0,0,1,307,10.025h0a21.982,21.982,0,0,1-1.228-2.939v.991s-.99-.892-.99-1.487l-.54.694h-3.6l.54-.892-2.071.3.81-1.09-3.206,4.5S294.874,5,297.484,3.518Z" transform="translate(-270.723 0)" fill="#2f2e41"/><path d="M250.005,500.237l3.426,10.7L250.69,499.8Z" transform="translate(-228.592 -456.995)" opacity="0.2" style="isolation:isolate"/><path d="M22.988,225.756H17.445a.912.912,0,0,1-.912-.911v-7.97a.913.913,0,0,1,.912-.912h5.544a.913.913,0,0,1,.912.912v7.97A.912.912,0,0,1,22.988,225.756ZM17.445,216.4a.476.476,0,0,0-.475.475v7.97a.475.475,0,0,0,.475.475h5.544a.475.475,0,0,0,.475-.475v-7.97a.476.476,0,0,0-.475-.475Z" transform="translate(-34.16 -184.171)" fill="#333"/><path d="M70.32,194.752H65.313a1.181,1.181,0,0,1-1.18-1.18v-16.1a1.181,1.181,0,0,1,1.18-1.18H70.32a1.181,1.181,0,0,1,1.18,1.18v16.1A1.181,1.181,0,0,1,70.32,194.752Zm-5.007-18.019a.744.744,0,0,0-.743.743v16.1a.744.744,0,0,0,.743.743H70.32a.744.744,0,0,0,.743-.743v-16.1a.744.744,0,0,0-.743-.743Z" transform="translate(-71.365 -153.168)" fill="#333"/><path d="M117.727,166.228h-4.62a1.375,1.375,0,0,1-1.373-1.373V141.176a1.375,1.375,0,0,1,1.373-1.373h4.62a1.375,1.375,0,0,1,1.373,1.373v23.678A1.375,1.375,0,0,1,117.727,166.228Zm-4.62-25.988a.938.938,0,0,0-.937.937v23.678a.938.938,0,0,0,.937.937h4.62a.938.938,0,0,0,.937-.937V141.176a.938.938,0,0,0-.937-.937Z" transform="translate(-108.57 -124.643)" fill="#333"/><rect width="4.158" height="6.757" transform="translate(-16.023 33.31)" fill="#333"/><rect width="4.158" height="15.333" transform="translate(-5.628 24.734)" fill="#333"/><rect width="4.158" height="23.303" transform="translate(4.768 16.764)" fill="#333"/><path d="M610.932,31.226H589.164a.164.164,0,0,1-.164-.164h0V8.967a.164.164,0,1,1,.327,0V30.9h21.6a.164.164,0,0,1,0,.327Z" transform="translate(-542.73 -8.049)" fill="#333"/><path d="M34.723,150.527H.218A.218.218,0,0,1,0,150.309H0V116.021a.218.218,0,0,1,.437,0V150.09H34.723a.218.218,0,0,1,0,.437Z" transform="translate(-21.238 -105.885)" fill="#333"/><path d="M611.176,95.77h-4.155a.684.684,0,0,1-.683-.683V89.114a.684.684,0,0,1,.683-.683h4.155a.684.684,0,0,1,.683.683v5.973A.684.684,0,0,1,611.176,95.77Zm-4.155-7.012a.356.356,0,0,0-.356.356v5.973a.356.356,0,0,0,.356.356h4.155a.356.356,0,0,0,.356-.356V89.114a.356.356,0,0,0-.356-.356Z" transform="translate(-557.23 -74.644)" fill="#333"/><path d="M664.011,69.319h-3.824a.85.85,0,0,1-.849-.849V57.651a.85.85,0,0,1,.849-.848h3.824a.849.849,0,0,1,.848.848V68.47A.849.849,0,0,1,664.011,69.319ZM660.187,57.13a.522.522,0,0,0-.521.521V68.47a.522.522,0,0,0,.521.521h3.824a.521.521,0,0,0,.521-.521V57.651a.521.521,0,0,0-.521-.521Z" transform="translate(-601.556 -48.193)" fill="#333"/><rect width="3.116" height="5.064" transform="translate(50.365 14.981)" fill="#333"/><rect width="3.116" height="9.798" transform="translate(58.985 9.969)" fill="#333"/><circle cx="0.771" cy="0.771" r="0.771" transform="translate(52.589 5.122)" fill="#333"/><circle cx="0.771" cy="0.771" r="0.771" transform="translate(57.128 2.21)" fill="#333"/><g transform="matrix(0.996, -0.087, 0.087, 0.996, 23.166, 25.414)"><path d="M0,458.316a.032.032,0,0,0,.031.031H6.1a.032.032,0,0,0,.031-.031v-.084A.032.032,0,0,0,6.1,458.2H.031a.032.032,0,0,0-.031.031Z" transform="translate(0 -453.548)" fill="#fff"/><path d="M0,.116A.032.032,0,0,0,.031.147H6.1A.032.032,0,0,0,6.127.116V.031A.032.032,0,0,0,6.1,0H.031A.032.032,0,0,0,0,.031Z" fill="#ffc805"/><path d="M5.17,39.2c.549,0,.956-.247.956-.716,0-.527-.567-.725-.9-.842-.286-.1-.4-.148-.4-.244,0-.08.083-.163.293-.163a.35.35,0,0,1,.357.194.1.1,0,0,0,.1.083h.428a.085.085,0,0,0,.08-.086c-.03-.431-.422-.725-.984-.725s-.94.286-.94.746c0,.5.5.681.885.808.29.1.41.16.41.262,0,.071-.074.148-.306.148a.421.421,0,0,1-.386-.154c-.037-.065-.053-.08-.123-.08H4.233a.085.085,0,0,0-.08.086c.044.442.472.682,1.017.682m-1.763-.947c0,.286-.123.351-.3.351-.16,0-.306-.065-.306-.351v-.127a.075.075,0,0,0-.074-.074H2.256a.075.075,0,0,0-.074.074v.136A.871.871,0,0,0,3.1,39.2a.858.858,0,0,0,.916-.937v-1.44a.075.075,0,0,0-.074-.074H3.479a.075.075,0,0,0-.074.074v1.43ZM1.353,37.5c0,.114-.062.191-.228.191H.678a.062.062,0,0,1-.062-.062v-.259a.062.062,0,0,1,.062-.062h.481a.177.177,0,0,1,.194.192m.109.879c0,.127-.062.216-.228.216H.678a.062.062,0,0,1-.062-.062v-.3a.062.062,0,0,1,.062-.062h.555c.166,0,.228.083.228.207m-.16.774a.691.691,0,0,0,.783-.678.556.556,0,0,0-.345-.533.031.031,0,0,1,0-.056.543.543,0,0,0,.241-.475c0-.383-.262-.663-.78-.663H.074A.075.075,0,0,0,0,36.821v2.257a.075.075,0,0,0,.074.074Z" transform="translate(0 -36.327)" fill="#ffc805"/><path d="M1.076,304.809H.694v.28h.382a.04.04,0,0,0,.04-.04v-.2a.041.041,0,0,0-.04-.041M.34,305.6H.632v-.353h0v-.1h0v-.366h0v-.12h0V304.3H.34a.04.04,0,0,0-.04.04v1.216a.04.04,0,0,0,.04.039m.955-1.013v-.243a.04.04,0,0,0-.04-.04H.694v.322h.561a.04.04,0,0,0,.04-.04m0,.974v-.241a.04.04,0,0,0-.04-.04H.694v.32h.561a.04.04,0,0,0,.04-.04M1.754,305l-.385.561a.021.021,0,0,0,.016.033h.324a.076.076,0,0,0,.062-.033l.182-.267Zm.848-.668a.022.022,0,0,0-.018-.033H2.271a.079.079,0,0,0-.063.033l-.182.266.2.29Zm.012,1.239-.851-1.247a.076.076,0,0,0-.055-.024H1.4a.022.022,0,0,0-.018.034l.764,1.133.066.1a.074.074,0,0,0,.062.033h.324a.022.022,0,0,0,.02-.025m.087-.949H3V304.3H2.7a.04.04,0,0,0-.04.04v.243a.039.039,0,0,0,.04.04m.7.934V304.3H3.064v.355h0v.9a.04.04,0,0,0,.04.04h.253a.04.04,0,0,0,.04-.04m.4-.974v-.243a.04.04,0,0,0-.04-.04h-.3v.322h.3a.04.04,0,0,0,.04-.04m.416.7h0v-.367h0v-.279h0V304.3h-.29a.04.04,0,0,0-.04.04v1.216a.04.04,0,0,0,.04.04h.251a.04.04,0,0,0,.04-.04Zm.79.28-.238-.331a.029.029,0,0,1,.01-.044.455.455,0,0,0,.226-.415.445.445,0,0,0-.485-.473H4.28v.3H4.5a.16.16,0,0,1,.183.175.162.162,0,0,1-.183.172H4.28v.3h.074a.066.066,0,0,1,.053.026l.2.287a.08.08,0,0,0,.063.033H4.99a.021.021,0,0,0,.016-.033m1.413,0-.493-1.222a.06.06,0,0,0-.055-.037H5.623a.06.06,0,0,0-.055.037l-.5,1.222a.027.027,0,0,0,.025.036H5.38a.057.057,0,0,0,.053-.036l.028-.075.153-.409h0l.12-.318a.012.012,0,0,1,.023,0l.118.318a.023.023,0,0,1-.021.031H5.669l-.113.3h.411a.047.047,0,0,1,.045.031l.047.121a.057.057,0,0,0,.053.037h.282a.026.026,0,0,0,.025-.036" transform="translate(-0.297 -301.211)" fill="#fff"/></g></g></svg>