<svg width="57" height="44" viewBox="0 0 57 44" fill="none" xmlns="http://www.w3.org/2000/svg">
<g clip-path="url(#clip0_107_45614)">
<path d="M0.694336 43.7098C0.694336 43.7862 0.724673 43.8594 0.778674 43.9134C0.832674 43.9674 0.905914 43.9977 0.982283 43.9977H56.5808C56.6571 43.9977 56.7304 43.9674 56.7844 43.9134C56.8384 43.8594 56.8687 43.7862 56.8687 43.7098V42.9364C56.8687 42.86 56.8384 42.7868 56.7844 42.7328C56.7304 42.6788 56.6571 42.6484 56.5808 42.6484H0.982283C0.905914 42.6484 0.832674 42.6788 0.778674 42.7328C0.724673 42.7868 0.694336 42.86 0.694336 42.9364L0.694336 43.7098Z" fill="#00A8BD"/>
<path d="M0.694336 1.06137C0.694336 1.13774 0.724673 1.21098 0.778674 1.26498C0.832674 1.31898 0.905914 1.34932 0.982283 1.34932H56.5808C56.6571 1.34932 56.7304 1.31898 56.7844 1.26498C56.8384 1.21098 56.8687 1.13774 56.8687 1.06137V0.287947C56.8687 0.211579 56.8384 0.138338 56.7844 0.0843377C56.7304 0.0303372 56.6571 0 56.5808 0L0.982283 0C0.905914 0 0.832674 0.0303372 0.778674 0.0843377C0.724673 0.138338 0.694336 0.211579 0.694336 0.287947L0.694336 1.06137Z" fill="#FFC805"/>
<path d="M48.1013 26.3253C53.1369 26.3253 56.8699 24.0632 56.8699 19.763C56.8699 14.9318 51.6667 13.1172 48.6133 12.046C45.9884 11.143 44.9644 10.6869 44.9644 9.81212C44.9644 9.0767 45.7275 8.31479 47.6544 8.31479C49.5163 8.31479 50.5961 9.16193 50.9307 10.0926C50.9683 10.3159 51.0872 10.5174 51.2646 10.6582C51.442 10.799 51.6652 10.8692 51.8913 10.8551H55.8194C56.0205 10.8436 56.2093 10.7549 56.3464 10.6074C56.4834 10.4599 56.5582 10.2651 56.5549 10.0638C56.2738 6.10797 52.6808 3.41797 47.5335 3.41797C42.4979 3.41797 38.9141 6.04289 38.9141 10.2596C38.9141 14.8091 43.5212 16.5052 47.0307 17.669C49.6931 18.572 50.7913 19.1399 50.7913 20.0705C50.7913 20.7218 50.1118 21.4296 47.9896 21.4296C46.0068 21.4296 44.8527 20.7501 44.4525 20.0146C44.1173 19.4192 43.9687 19.2792 43.326 19.2792H39.5096C39.3085 19.2907 39.1197 19.3794 38.9826 19.5269C38.8456 19.6744 38.7709 19.8692 38.7741 20.0705C39.1773 24.1196 43.1026 26.3259 48.1036 26.3259M31.9325 17.6425C31.9325 20.2675 30.8061 20.8629 29.1585 20.8629C27.6876 20.8629 26.3567 20.2675 26.3567 17.6425V16.4792C26.3538 16.2999 26.2812 16.1288 26.1544 16.002C26.0276 15.8752 25.8565 15.8026 25.6772 15.7997H21.377C21.1977 15.8026 21.0265 15.8752 20.8997 16.002C20.7729 16.1288 20.7004 16.2999 20.6974 16.4792V17.7266C20.6974 23.6376 24.7373 26.3184 29.1492 26.3184C33.7287 26.3184 37.5452 23.6284 37.5452 17.7266V4.52541C37.5422 4.34611 37.4697 4.17498 37.3429 4.04817C37.2161 3.92137 37.0449 3.84882 36.8656 3.84586H32.5937C32.4144 3.84882 32.2432 3.92137 32.1164 4.04817C31.9896 4.17498 31.9171 4.34611 31.9141 4.52541V17.6425H31.9325ZM13.102 10.7433C13.102 11.7857 12.5341 12.4935 11.0074 12.4935H6.91399C6.76358 12.4929 6.6195 12.4329 6.51314 12.3265C6.40678 12.2201 6.34676 12.0761 6.34616 11.9256V9.55181C6.34676 9.4014 6.40678 9.25732 6.51314 9.15096C6.6195 9.04461 6.76358 8.98459 6.91399 8.98398H11.3259C11.5638 8.9597 11.804 8.98836 12.0295 9.06792C12.255 9.14748 12.46 9.27595 12.63 9.44413C12.7999 9.61231 12.9305 9.81602 13.0124 10.0406C13.0943 10.2653 13.1255 10.5052 13.1037 10.7433M14.0994 18.8058C14.0994 19.9692 13.5316 20.7886 12.0049 20.7886H6.91399C6.76358 20.788 6.6195 20.728 6.51314 20.6217C6.40678 20.5153 6.34676 20.3712 6.34616 20.2208V17.4732C6.34676 17.3228 6.40678 17.1787 6.51314 17.0724C6.6195 16.966 6.76358 16.906 6.91399 16.9054H12.0055C13.5322 16.9054 14.0994 17.6685 14.0994 18.8058ZM12.6274 25.8974C17.0952 25.8974 19.8042 23.3283 19.8042 19.6777C19.8382 18.6372 19.5529 17.6112 18.9867 16.7376C18.4205 15.864 17.6005 15.1846 16.6368 14.7907C16.5884 14.7691 16.5468 14.7346 16.5167 14.6909C16.4867 14.6473 16.4692 14.5961 16.4664 14.5432C16.4635 14.4902 16.4753 14.4375 16.5005 14.3909C16.5257 14.3442 16.5633 14.3054 16.6092 14.2787C17.3199 13.8036 17.8964 13.1536 18.2832 12.3912C18.67 11.6288 18.8541 10.7797 18.8177 9.92557C18.8177 6.41665 16.4162 3.84701 11.6691 3.84701H1.37389C1.19478 3.84996 1.02382 3.92235 0.897047 4.04891C0.770273 4.17547 0.697596 4.34631 0.694336 4.52541L0.694336 25.2178C0.6973 25.3972 0.769848 25.5683 0.896652 25.6951C1.02346 25.8219 1.19459 25.8944 1.37389 25.8974H12.6274Z" fill="#FFC805"/>
<path d="M7.83339 32.9913H4.33311V35.5603H7.83281C7.92848 35.5586 8.01974 35.5198 8.0874 35.4521C8.15506 35.3844 8.19385 35.2932 8.19563 35.1975V33.3639C8.19595 33.2666 8.15814 33.1731 8.09031 33.1035C8.02247 33.0338 7.93002 32.9935 7.83281 32.9913M1.08449 40.213H3.76528V36.9736V36.0613V32.7033V31.6051V28.3473H1.08449C0.988823 28.349 0.897566 28.3878 0.829906 28.4555C0.762246 28.5231 0.723452 28.6144 0.72168 28.7101V39.8611C0.725359 39.9553 0.765044 40.0445 0.832551 40.1103C0.900057 40.1761 0.990237 40.2134 1.08449 40.2147M9.84383 30.9238V28.6991C9.84206 28.6035 9.80327 28.5122 9.73561 28.4445C9.66795 28.3769 9.57669 28.3381 9.48102 28.3363H4.33311V31.2872H9.48044C9.57611 31.2854 9.66737 31.2466 9.73503 31.179C9.80269 31.1113 9.84149 31.0201 9.84326 30.9244M9.84326 39.8507V37.6445C9.84149 37.5488 9.80269 37.4576 9.73503 37.3899C9.66737 37.3222 9.57611 37.2835 9.48044 37.2817H4.33311V40.2136H9.48044C9.57611 40.2118 9.66737 40.173 9.73503 40.1053C9.80269 40.0377 9.84149 39.9464 9.84326 39.8507ZM14.0507 34.7593L10.5228 39.9066C10.5016 39.9348 10.4886 39.9683 10.4852 40.0034C10.4818 40.0385 10.4882 40.0739 10.5036 40.1056C10.519 40.1374 10.5429 40.1642 10.5726 40.1833C10.6023 40.2023 10.6367 40.2128 10.672 40.2136H13.6413C13.7538 40.2125 13.8643 40.1839 13.9632 40.1304C14.0622 40.077 14.1466 40.0001 14.2091 39.9066L15.8752 37.4585L14.0507 34.7593ZM21.8253 28.6346C21.843 28.6042 21.8525 28.5698 21.853 28.5346C21.8534 28.4995 21.8448 28.4648 21.828 28.434C21.8111 28.4031 21.7866 28.3771 21.7568 28.3585C21.727 28.3399 21.6928 28.3293 21.6577 28.3277H18.7892C18.6759 28.3302 18.5647 28.3593 18.4647 28.4126C18.3647 28.4659 18.2786 28.5419 18.2133 28.6346L16.5472 31.0735L18.3625 33.7359L21.8253 28.6346ZM21.937 39.9907L14.1348 28.5569C14.0705 28.4876 13.9928 28.432 13.9063 28.3936C13.8199 28.3552 13.7266 28.3348 13.6321 28.3334H10.7653C10.7301 28.335 10.696 28.3456 10.6662 28.3642C10.6364 28.3829 10.6119 28.4088 10.595 28.4397C10.5782 28.4706 10.5696 28.5053 10.57 28.5404C10.5705 28.5756 10.58 28.61 10.5977 28.6404L17.6069 39.0312L18.2121 39.9152C18.274 40.0094 18.3583 40.0867 18.4574 40.1402C18.5565 40.1938 18.6673 40.222 18.78 40.2222H21.7493C21.7769 40.2201 21.8039 40.2124 21.8284 40.1995C21.853 40.1866 21.8746 40.1688 21.8921 40.1472C21.9095 40.1256 21.9223 40.1007 21.9297 40.074C21.9372 40.0473 21.9391 40.0193 21.9353 39.9918M22.7358 31.2889H25.5099V28.3381H22.7358C22.6401 28.3398 22.5489 28.3786 22.4812 28.4463C22.4135 28.5139 22.3747 28.6052 22.373 28.7009V30.9255C22.3723 30.9734 22.3812 31.0209 22.3992 31.0652C22.4172 31.1095 22.4439 31.1498 22.4777 31.1836C22.5115 31.2175 22.5518 31.2442 22.5961 31.2622C22.6405 31.2801 22.688 31.289 22.7358 31.2883M29.1132 39.8502V28.3357H26.0679V31.5936V39.8502C26.0697 39.9458 26.1085 40.0371 26.1761 40.1047C26.2438 40.1724 26.3351 40.2112 26.4307 40.213H28.7487C28.8444 40.2112 28.9356 40.1724 29.0033 40.1047C29.0709 40.0371 29.1097 39.9458 29.1115 39.8502M32.8162 30.9238V28.6991C32.8145 28.6035 32.7757 28.5122 32.708 28.4445C32.6403 28.3769 32.5491 28.3381 32.4534 28.3363H29.6793V31.2872H32.4534C32.5491 31.2854 32.6403 31.2466 32.708 31.179C32.7757 31.1113 32.8145 31.0201 32.8162 30.9244M36.6327 37.3375V33.968V31.4076V28.3357H33.9709C33.8752 28.3375 33.784 28.3763 33.7163 28.444C33.6486 28.5116 33.6099 28.6029 33.6081 28.6986V39.8502C33.6099 39.9458 33.6486 40.0371 33.7163 40.1047C33.784 40.1724 33.8752 40.2112 33.9709 40.213H36.2699C36.3655 40.2112 36.4568 40.1724 36.5245 40.1047C36.5921 40.0371 36.6309 39.9458 36.6327 39.8502V37.3375ZM43.8745 39.9066L41.6965 36.8722C41.6723 36.8409 41.6553 36.8046 41.6469 36.7659C41.6384 36.7272 41.6387 36.6871 41.6476 36.6485C41.6565 36.6099 41.6739 36.5738 41.6985 36.5428C41.7231 36.5118 41.7543 36.4866 41.7898 36.4691C42.4511 36.0855 42.9943 35.5275 43.3599 34.856C43.7256 34.1846 43.8996 33.4255 43.863 32.6619C43.863 30.2978 42.4573 28.3242 39.4137 28.3242H37.2097V31.0983H39.249C40.4681 31.0983 40.9242 31.7894 40.9242 32.6993C40.9384 32.9185 40.9039 33.1381 40.8233 33.3424C40.7426 33.5467 40.6177 33.7306 40.4576 33.881C40.2975 34.0314 40.1061 34.1445 39.8971 34.2122C39.6882 34.2799 39.4668 34.3005 39.249 34.2726H37.2103V37.0277H37.8898C37.9837 37.0277 38.0763 37.0495 38.1603 37.0915C38.2443 37.1335 38.3173 37.1945 38.3736 37.2696L40.2355 39.9037C40.3015 39.9956 40.3878 40.0711 40.4876 40.1243C40.5875 40.1776 40.6983 40.2071 40.8114 40.2107H43.7248C43.7597 40.2091 43.7936 40.1982 43.8228 40.179C43.852 40.1598 43.8755 40.133 43.8908 40.1016C43.9061 40.0702 43.9126 40.0352 43.9096 40.0004C43.9066 39.9655 43.8943 39.9321 43.874 39.9037M56.8316 39.8761L52.3079 28.6721C52.2658 28.5733 52.1958 28.4891 52.1065 28.4295C52.0172 28.37 51.9125 28.3378 51.8052 28.3369H49.5246C49.4173 28.3378 49.3126 28.37 49.2233 28.4295C49.134 28.4891 49.064 28.5733 49.0219 28.6721L44.4792 39.8789C44.4644 39.9163 44.4589 39.9567 44.4634 39.9967C44.4679 40.0367 44.4822 40.0749 44.505 40.108C44.5277 40.1412 44.5583 40.1682 44.594 40.1867C44.6297 40.2052 44.6694 40.2146 44.7096 40.2141H47.2999C47.4048 40.2129 47.5069 40.1803 47.5931 40.1206C47.6793 40.0608 47.7457 39.9767 47.7837 39.8789L48.0446 39.1879L49.4503 35.4365V35.4273L50.5486 32.5139C50.5571 32.4924 50.5718 32.4739 50.5909 32.4609C50.61 32.448 50.6326 32.441 50.6557 32.441C50.6788 32.441 50.7014 32.448 50.7205 32.4609C50.7396 32.4739 50.7543 32.4924 50.7628 32.5139L51.8426 35.4273C51.8544 35.4592 51.8585 35.4935 51.8544 35.5273C51.8503 35.5611 51.8382 35.5934 51.8191 35.6216C51.8 35.6497 51.7745 35.6729 51.7446 35.6892C51.7147 35.7055 51.6814 35.7144 51.6474 35.7152H49.9531L48.9199 38.4703H52.6897C52.7794 38.4702 52.8668 38.4978 52.9401 38.5494C53.0134 38.6009 53.069 38.6739 53.0992 38.7583L53.5271 39.8657C53.5651 39.9635 53.6315 40.0476 53.7177 40.1073C53.8039 40.167 53.906 40.1996 54.0108 40.2009H56.5983C56.6382 40.2031 56.6779 40.1951 56.7138 40.1778C56.7497 40.1604 56.7807 40.1342 56.8037 40.1016C56.8267 40.0691 56.8411 40.0312 56.8455 39.9915C56.8498 39.9519 56.8441 39.9117 56.8287 39.8749" fill="#00A8BD"/>
</g>
<defs>
<clipPath id="clip0_107_45614">
<rect width="56.175" height="44" fill="white" transform="translate(0.694336)"/>
</clipPath>
</defs>
</svg>
