<svg version="1.2" xmlns="http://www.w3.org/2000/svg" viewBox="0 0 1554 1065" width="217" height="149">
	<title>BJS Home Delivery 2p-ai</title>
	<style>
		.s0 { fill: #fdbe29 } 
		.s1 { fill: #7c7369 } 
	</style>
	<g id="Layer 1">
		<path id="&lt;Compound Path&gt;" fill-rule="evenodd" class="s0" d="m58.4 617.7c-9.8 0-18-8.3-18-18v-549.8c0-9.7 8.2-18 18-18h273.4c126.1 0 190 68.4 190 161.5 0 53.3-22.6 90.9-58.6 115.6-5.3 3.8-5.3 10.6 0.7 13.6 51.9 24 84.2 66.8 84.2 129.9 0 96.9-72.1 165.2-190.8 165.2zm282.4-238.8h-135.2c-8.3 0-15 6.7-15 15v72.9c0 8.2 6.7 15 15 15h135.2c40.5 0 55.5-21.8 55.5-52.6 0-30-15-50.3-55.5-50.3zm-18.1-210.3h-117.1c-8.3 0-15 6.8-15 15v63.1c0 8.3 6.7 15 15 15h108.9c40.5 0 55.6-18.7 55.6-46.5 0-27.8-15.8-46.6-47.4-46.6zm547.5-118.7c0-9.7 8.3-18 18-18h113.5c9.7 0 18 8.3 18 18v350.8c0 156.9-101.4 228.3-223.1 228.3-117.1 0-224.5-71.4-224.5-228.3v-33.1c0-9.7 8.2-18 18-18h114.2c9.7 0 18 8.3 18 18v30.8c0 69.8 35.3 85.6 74.3 85.6 43.6 0 73.6-15.8 73.6-85.6zm181.8 413.1c-0.8-10.6 9-21.1 19.5-21.1h101.4c17.3 0 21 3.8 30 19.6 10.5 19.5 41.3 37.5 93.9 37.5 56.3 0 74.4-18.8 74.4-36 0-24.8-29.3-39.8-99.9-63.9-93.2-30.8-215.6-75.8-215.6-196.8 0-111.8 95.4-181.7 229.1-181.7 136.7 0 232.1 71.4 239.6 176.5 0.7 10.5-9.1 21-19.6 21h-104.4c-14.2 0-21-6.7-25.5-20.3-9-24.7-37.5-47.3-87.1-47.3-51.1 0-71.4 20.3-71.4 39.8 0 23.3 27.1 35.3 96.9 59.4 81.1 28.5 219.3 76.6 219.3 205 0 114.2-99.1 174.2-232.8 174.2-132.9 0-237.3-58.5-247.8-165.9z"/>
		<path id="&lt;Compound Path&gt;" fill-rule="evenodd" class="s1" d="m1537.8 828.7l-78.3 125.5c-1.9 2.8-3 6.9-3 10.2v66.5c0 3.6-3 6.6-6.6 6.6h-41.5c-3.6 0-6.6-3-6.6-6.6v-66.5c0-3.3-1.1-7.4-3.1-10.2l-78-125.5c-1.6-2.5 0-5.6 3-5.6h51.4c4.1 0 8 2.2 9.9 5.8l41.2 67.3h5.5l41.2-67.5c2.3-3.4 6.1-5.6 10.2-5.6h51.7c3 0 4.7 3.1 3 5.6zm-16.6-50.8h-72.7l-3.2-3.2v-96.6l3.2-3.2h72.7l3.2 3.2v19.3l-3.2 3.1h-46.8l-2.7 2.7v9.5l2.7 2.6h37.5l3.1 3.2v17.5l-3.1 3.2h-37.5l-2.7 2.6v7.9l2.7 2.7h46.8l3.2 3.2v19.1zm-91.2 0h-19.9l-3.2-3.1v-47.1l-1.2-0.2-18.8 37.6-4.6 2.8h-11l-4.6-2.8-18.7-37.6-1.2 0.2v47.1l-3.2 3.1h-19.9l-3.2-3.1v-96.7l3.2-3.1h20.2l4.6 2.7 27.1 53.9h2.3l27.2-53.9 4.7-2.7h20.2l3.2 3.1v96.7zm-174.6 1.9c-29.7 0-54.6-24-54.6-53.4 0-29.5 24.9-53.5 54.6-53.5 30.1 0 54.7 24 54.7 53.5 0 29.4-24.6 53.4-54.7 53.4zm0-81.4c-15.4 0-28 12.4-28 28 0 15.6 12.6 27.9 28 27.9 15.9 0 28-12.3 28-27.9 0-15.6-12.1-28-28-28zm-68.5 79.5h-20l-3.2-3.2v-32.5l-2.7-2.6h-36.7l-2.6 2.6v32.5l-3.2 3.2h-19.9l-3.2-3.2v-96.6l3.2-3.2h19.9l3.2 3.2v34.2l2.6 2.6h36.7l2.7-2.6v-34.2l3.2-3.2h20l3.2 3.2v96.6zm-138.6 0h-16l-5.1-2.5-42.4-52.8-1.6 0.5v51.6l-3.2 3.2h-19.9l-3.2-3.2v-96.6l3.2-3.2h16l5.1 2.5 42.4 53 1.6-0.5v-51.8l3.2-3.2h19.9l3.1 3.2v96.6zm64.9 51.9v40.1c0 3.6-3 6.6-6.6 6.6h-97.6c-3 0-5.5 2.5-5.5 5.6v19.7c0 3.1 2.5 5.5 5.5 5.5h78.1c3.5 0 6.6 3 6.6 6.6v36.6c0 3.5-3.1 6.6-6.6 6.6h-78.1c-3 0-5.5 2.4-5.5 5.5v16.5c0 3 2.5 5.4 5.5 5.4h97.6c3.6 0 6.6 3.1 6.6 6.6v39.9c0 3.6-3 6.6-6.6 6.6h-151.4c-3.6 0-6.7-3-6.7-6.6v-201.2c0-3.6 3.1-6.6 6.7-6.6h151.4c3.6 0 6.6 3 6.6 6.6zm-221-49.9c-29.7 0-54.7-24-54.7-53.4 0-29.5 25-53.5 54.7-53.5 30.1 0 54.6 24 54.6 53.5 0 29.4-24.5 53.4-54.6 53.4zm0-81.4c-15.5 0-28 12.4-28 28 0 15.6 12.5 27.9 28 27.9 15.8 0 28-12.3 28-27.9 0-15.6-12.2-28-28-28zm-99.3 14.8c14.3 5 38.6 13.4 38.6 36 0 20.1-17.5 30.6-41 30.6-23.4 0-41.7-10.3-43.5-29.1l3.4-3.7h17.8c3 0 3.7 0.6 5.3 3.4 1.8 3.4 7.3 6.6 16.5 6.6 9.9 0 13.1-3.3 13.1-6.3 0-4.4-5.2-7.1-17.6-11.3-16.4-5.4-37.9-13.3-37.9-34.6 0-19.6 16.8-31.9 40.3-31.9 24 0 40.8 12.6 42.1 31l-3.5 3.7h-18.3l-4.5-3.6c-1.6-4.3-6.6-8.3-15.3-8.3-9 0-12.6 3.6-12.6 7 0 4.1 4.8 6.3 17.1 10.5zm-80.1 64.6l-5-2.6-16.2-22.8-4.2-2.1h-8.2l-2.6 2.6v21.8l-3.2 3.1h-19.9l-3.2-3.1v-96.7l3.2-3.1h47.1c26.4 0 38.6 17.2 38.6 37.6 0 13.6-5.7 26.3-18 33l-0.8 3.4 18.9 26.3-1.3 2.6zm-13.6-78.9h-20l-2.6 2.7v22.1l2.6 2.7h20c10.5 0 14.5-6.5 14.5-13.6 0-8-4-13.9-14.5-13.9zm-11.5 130.8v201.2c0 3.6-3 6.6-6.5 6.6h-41.8c-3.6 0-6.6-3-6.6-6.6v-201.2c0-3.6 3-6.6 6.6-6.6h41.8c3.5 0 6.5 3 6.5 6.6zm-53.4-51.9h-72.7l-3.2-3.1v-96.7l3.2-3.1h72.7l3.2 3.1v19.3l-3.2 3.2h-46.8l-2.7 2.6v9.5l2.7 2.7h37.5l3.1 3.2v17.5l-3.1 3.2h-37.5l-2.7 2.6v7.9l2.7 2.7h46.8l3.2 3.1v19.2zm-126.5-23.4h-16.4l-2.6 2.7v17.5l-3.2 3.2h-20l-3.2-3.2v-96.6l3.2-3.2h42.2c27.3 0 40.4 18.8 40.4 39.5 0 21.8-13.1 40.1-40.4 40.1zm-1.4-55.6h-15l-2.6 2.7v26.3l2.6 2.6h15c11 0 15.2-6.9 15.2-16 0-8.2-4.2-15.6-15.2-15.6zm3.5 130.9v149.2c0 3 2.5 5.5 5.5 5.5h90.7c3.5 0 6.6 3 6.6 6.6v39.8c0 3.6-3.1 6.6-6.6 6.6h-144.3c-3.6 0-6.6-3-6.6-6.6v-201.1c0-3.6 3-6.6 6.6-6.6h41.5c3.6 0 6.6 3 6.6 6.6zm-63.7-82.5h-33.7l-3.2-3.2v-18.3l3.2-3.2h33.7l3.2 3.2v18.3zm-101 32.6c-29.8 0-54.7-24-54.7-53.5 0-29.4 24.9-53.4 54.7-53.4 30.1 0 54.6 24 54.6 53.4 0 29.5-24.5 53.5-54.6 53.5zm0-81.5c-15.5 0-28 12.4-28 28 0 15.6 12.5 28 28 28 15.8 0 27.9-12.4 27.9-28 0-15.6-12.1-28-27.9-28zm-84.7 79.5h-20.9l-4.1-3-18-54.3h-1.6l-17.8 54.3-4.1 3h-21l-4-3-27.3-96.9 2.4-3h21.8l3.9 3 15.2 55.8h1.5l17.5-55.8 4.1-3h17.2l4.1 3 17.6 55.7h1.4l15.2-55.7 3.9-3h22l2.3 3-27.3 96.9zm-132.1-77.4h-26.3l-2.7 2.7v71.5l-3.2 3.2h-20l-3.2-3.2v-71.5l-2.6-2.7h-26.3l-3.2-3.1v-19.3l3.2-3.2h84.3l3.1 3.2v19.3zm-78.6 122.6h92.9c67.1 0 101.4 48.9 101.4 107.2 0 58.5-34.3 107.2-101.4 107.2h-92.9c-3.6 0-6.6-3-6.6-6.6v-201.2c0-3.6 3-6.6 6.6-6.6zm48.4 155.8c0 3.1 2.5 5.5 5.5 5.5h34.9c32.7 0 50-22 50-54.1 0-32.2-17.3-53.9-50-53.9h-34.9c-3 0-5.5 2.5-5.5 5.5zm175.1-155.8h151.4c3.6 0 6.6 3 6.6 6.6v40.1c0 3.6-3 6.6-6.6 6.6h-97.6c-3 0-5.5 2.5-5.5 5.5v19.8c0 3 2.5 5.5 5.5 5.5h78.1c3.5 0 6.6 3 6.6 6.6v36.6c0 3.5-3.1 6.6-6.6 6.6h-78.1c-3 0-5.5 2.4-5.5 5.4v16.5c0 3.1 2.5 5.5 5.5 5.5h97.6c3.6 0 6.6 3 6.6 6.6v39.9c0 3.5-3 6.6-6.6 6.6h-151.4c-3.6 0-6.7-3.1-6.7-6.6v-201.2c0-3.6 3.1-6.6 6.7-6.6zm437.5 0h46.7c3.8 0 7.4 2.5 8.8 6l49.7 132.8h3.9l50-132.8c1.4-3.5 5-6 8.8-6h46.7c3.3 0 5.2 3.3 4.1 6l-81.9 202.3c-1.3 3.6-5.2 6.1-9 6.1h-41.3c-3.8 0-7.6-2.5-9-6.1l-81.6-202.3c-1.2-2.7 0.8-6 4.1-6zm434.2 0h98.1c55 0 80.3 35.7 80.3 78.3 0 28.3-11.8 54.7-37.4 68.7l-1.6 7.2 39.2 54.7-2.7 5.5h-52.5c-4.1 0-8-2.2-10.4-5.5l-33.6-47.6c-1.9-2.7-5.5-4.4-8.8-4.4h-17c-3 0-5.5 2.5-5.5 5.5v45.4c0 3.5-3 6.6-6.6 6.6h-41.5c-3.6 0-6.6-3.1-6.6-6.6v-201.2c0-3.6 3-6.6 6.6-6.6zm48.1 101.7c0 3 2.5 5.5 5.5 5.5h41.5c22 0 30.2-13.5 30.2-28.3 0-16.5-8.2-28.9-30.2-28.9h-41.5c-3 0-5.5 2.5-5.5 5.5z"/>
	</g>
</svg>