<svg width="98" height="17" viewBox="0 0 98 17" fill="none" xmlns="http://www.w3.org/2000/svg">
<g clip-path="url(#clip0_107_45664)">
<path d="M89.3199 0.0859375H81.5138V15.6981H97.1259V7.892C97.1259 3.57685 93.635 0.0859375 89.3199 0.0859375ZM2.90372 15.6819H0.172412V6.30816L0.15625 3.68998H2.67746V4.93442H2.69362C3.17847 4.1425 4.39059 3.33442 6.10372 3.33442C9.02898 3.33442 11.2593 5.25765 11.2593 9.10412V15.6657H8.51181V9.05563C8.51181 7.08392 7.60675 5.77483 5.69968 5.77483C3.80878 5.77483 2.90372 7.10008 2.90372 9.05563V15.6819Z" fill="#001689"/>
<path d="M25.3688 12.1102C24.6415 14.3566 22.6375 16.0375 19.5021 16.0375C15.9789 16.0375 13.4092 13.5162 13.4092 9.63745C13.4092 5.80715 16.0758 3.33442 19.4536 3.33442C22.8152 3.33442 25.2556 5.77483 25.2556 9.62129V10.3809H16.189C16.3991 12.4981 17.692 13.7587 19.6476 13.7587C21.1991 13.7587 22.0718 13.0637 22.4274 12.1102H25.3688ZM16.189 8.29604H22.395C22.2334 6.76069 21.2476 5.46776 19.3728 5.46776C17.595 5.46776 16.4314 6.79301 16.189 8.29604ZM33.4981 16.0375C30.1688 16.0375 27.292 13.8395 27.292 9.68594C27.292 5.56473 30.2657 3.33442 33.595 3.33442C36.6334 3.33442 38.8152 5.17685 39.3163 7.58493H36.4233C36.0839 6.59907 35.1466 5.80715 33.595 5.80715C31.5102 5.80715 30.0395 7.3425 30.0395 9.68594C30.0395 12.0294 31.5102 13.597 33.5627 13.597C35.195 13.597 36.1971 12.7405 36.5041 11.7546H39.4132C38.9122 14.1465 36.5203 16.0375 33.4981 16.0375ZM47.6072 15.7789C44.8112 15.7789 43.0011 14.3405 43.0011 11.0597V6.09806H40.6092V3.70614H43.0011V0.0859375H44.2455C45.0698 0.0859375 45.7324 0.748564 45.7324 1.57281V3.70614H49.0617V6.09806H45.7324V10.9142C45.7324 12.8375 46.8799 13.3061 48.1243 13.3061C48.4875 13.308 48.8501 13.2755 49.2072 13.2092V15.6011C48.8354 15.7142 48.2051 15.7789 47.6072 15.7789ZM51.1789 9.71826C51.1789 5.9526 53.5546 3.35058 57.2395 3.35058C58.6779 3.35058 60.6173 4.19099 61.1183 5.37079H61.1344V3.7223H63.7688L63.7526 6.34048V15.7142H61.1183V14.0334H61.1021C60.6011 15.2132 58.7102 16.0536 57.2395 16.0536C53.5546 16.0375 51.1789 13.4839 51.1789 9.71826ZM61.1021 9.71826C61.1021 7.27786 59.5183 5.85564 57.5304 5.85564C55.494 5.85564 53.9587 7.27786 53.9587 9.71826C53.9587 12.1587 55.494 13.5324 57.5304 13.5324C59.4375 13.5324 61.1021 12.1587 61.1021 9.71826ZM73.5789 6.09806C71.3001 6.09806 69.9102 7.39099 69.9102 9.83139V15.6819H67.1789V6.30816L67.1466 3.68998H69.7809V5.6617H69.8294C70.2819 4.32028 71.6233 3.33442 73.3364 3.33442C73.8213 3.33442 74.1122 3.38291 74.1122 3.38291V6.09806H73.5789Z" fill="#001689"/>
</g>
<defs>
<clipPath id="clip0_107_45664">
<rect width="96.9697" height="16" fill="white" transform="translate(0.15625 0.0859375)"/>
</clipPath>
</defs>
</svg>
