<svg width="139" height="19" viewBox="0 0 139 19" fill="none" xmlns="http://www.w3.org/2000/svg">
<g clip-path="url(#clip0_107_45728)">
<path d="M0.0410156 5.42887L0.115075 5.41406C0.115075 5.85755 0.121174 6.30191 0.121174 6.74627C0.121174 10.3854 0.123527 14.0248 0.128145 17.6644H0.0410156V5.42887Z" fill="#555555"/>
<path d="M124.003 6.2257V0.730469H127.296V17.6509H124.159V16.3266C123.416 17.1552 122.584 17.6597 121.577 17.847C119.138 18.3009 116.885 17.224 115.849 14.9595C114.705 12.4641 114.746 9.93566 116.154 7.54396C117.919 4.54672 122.127 4.52233 123.841 6.16297C123.87 6.18736 123.916 6.19172 124.003 6.2257ZM121.255 15.0963C122.349 15.0963 123.252 14.5735 123.679 13.6038C124.289 12.2097 124.305 10.7948 123.614 9.4216C123.161 8.51981 122.405 8.01359 121.38 7.98222C120.327 7.94999 119.488 8.38563 118.987 9.30746C118.203 10.7547 118.215 12.255 118.951 13.711C119.411 14.618 120.202 15.1068 121.255 15.0963Z" fill="#FE1004"/>
<path d="M39.2724 17.6671H35.9615V10.2751C35.9615 10.2463 35.9615 10.2176 35.9615 10.1879C35.9423 8.3713 35.0972 7.86944 33.3729 8.2772C31.9501 8.61265 30.9925 9.99277 30.9882 11.5428C30.9829 13.5659 30.9882 15.5899 30.9882 17.6418H27.6572V0.71875H30.9882V6.99814C31.7723 6.05366 32.6759 5.47339 33.7763 5.22855C34.7622 4.9981 35.7928 5.04663 36.7526 5.36883C38.1319 5.83584 38.8498 6.87703 39.1217 8.24845C39.2166 8.73968 39.2647 9.23884 39.2654 9.73923C39.2794 12.2241 39.2724 14.7056 39.2724 17.1931V17.6671Z" fill="#030303"/>
<path d="M87.0435 11.5067C87.0915 14.6111 84.8775 17.2807 81.6119 17.8209C79.3535 18.1956 77.2999 17.7216 75.5608 16.1812C72.3937 13.3765 73.0262 8.00147 76.7501 5.98705C79.4685 4.51718 82.7847 4.85437 85.0344 6.87751C86.3997 8.10516 87.0305 9.68219 87.0435 11.5067ZM80.3137 7.97446C78.7985 7.87426 76.8982 9.01304 76.8826 11.5067C76.8686 13.623 78.3228 15.0554 80.2867 15.0894C82.2192 15.1225 83.6847 13.5629 83.6847 11.5171C83.6847 9.47134 82.2575 7.97533 80.3137 7.97446Z" fill="#FE0F03"/>
<path d="M52.4746 16.1002C51.4764 16.9778 50.2564 17.5643 48.9476 17.7958C46.8103 18.1965 44.822 17.8498 43.1004 16.4653C41.7063 15.3439 40.9971 13.8453 40.8638 12.0722C40.7278 10.2582 41.1391 8.59928 42.3275 7.1843C43.4559 5.84164 44.9493 5.21605 46.6735 5.10889C47.8437 5.0357 48.972 5.22041 49.9949 5.8277C51.6312 6.79919 52.3535 8.32482 52.5295 10.1406C52.5957 10.828 52.5399 11.5277 52.5399 12.2465H44.2775C44.3899 13.7547 45.6106 14.9188 47.1798 15.0582C48.6932 15.1923 49.9679 14.6286 51.1685 13.6989L52.4746 16.1002ZM44.4256 9.85742H49.1567C49.2203 8.7988 48.3961 7.843 47.3549 7.75325C45.8171 7.61995 44.5537 8.51825 44.4256 9.85742Z" fill="#020202"/>
<path d="M113.393 17.6615H110.139V17.1971C110.139 14.9866 110.147 12.7762 110.132 10.5657C110.131 10.1228 110.08 9.68151 109.98 9.25004C109.806 8.51032 109.332 8.21059 108.579 8.15832C106.55 8.01455 105.128 9.63341 105.113 11.7045C105.1 13.542 105.113 15.3787 105.113 17.2163V17.6519H101.835V5.42682H104.966V7.0631C105.26 6.78342 105.502 6.54904 105.751 6.31815C107.279 4.8901 109.791 4.79252 111.37 5.56884C112.649 6.19704 113.142 7.34889 113.341 8.66715C113.382 8.97942 113.399 9.29422 113.394 9.60902C113.398 12.1352 113.398 14.6619 113.394 17.1892L113.393 17.6615Z" fill="#FE0F03"/>
<path d="M88.4952 5.41016H91.7913V5.87107C91.7913 8.18348 91.7983 10.495 91.7913 12.8065C91.7835 14.8288 92.9833 15.2575 94.6213 14.6746C95.74 14.2773 96.268 13.3302 96.5381 12.235C96.6264 11.8589 96.6706 11.4738 96.6697 11.0875C96.6828 9.35013 96.6758 7.61278 96.6758 5.87543V5.41974H99.9449V17.6535H96.8344V15.9667C96.7378 16.0422 96.6458 16.1233 96.559 16.2098C95.1014 17.9524 92.6713 18.3654 90.7109 17.5542C89.2733 16.9591 88.7253 15.7245 88.5327 14.2816C88.5039 14.0399 88.4909 13.7966 88.4935 13.5532C88.4935 11.0119 88.4935 8.47039 88.4935 5.92857L88.4952 5.41016Z" fill="#FE0F03"/>
<path d="M136.888 9.06623C135.919 8.24461 134.848 7.90132 133.647 7.98235C133.403 7.99969 133.166 8.06799 132.95 8.18274C132.427 8.46678 132.381 9.07059 132.863 9.41562C133.186 9.64825 133.56 9.81293 133.923 9.98457C134.794 10.3958 135.698 10.7452 136.537 11.2044C137.495 11.7272 138.159 12.5357 138.329 13.6545C138.561 15.1818 137.83 16.5933 136.386 17.3025C134.435 18.261 132.459 18.1242 130.526 17.2442C129.895 16.9566 129.334 16.5175 128.696 16.1228L130.286 13.6937C131.175 14.5083 132.168 14.9954 133.328 15.0694C133.685 15.0991 134.044 15.0483 134.379 14.9204C134.638 14.7928 134.843 14.5764 134.957 14.3105C135.09 13.9855 134.882 13.6902 134.589 13.5185C134.219 13.3007 133.831 13.1116 133.444 12.9226C132.554 12.4869 131.622 12.121 130.777 11.6156C129.58 10.8942 129.034 9.77546 129.193 8.37356C129.348 7.04135 130.114 6.1082 131.333 5.62376C133.598 4.7272 135.776 4.91017 137.814 6.30163C138.076 6.47588 138.13 6.63707 137.969 6.9307C137.597 7.61379 137.259 8.32912 136.888 9.06623Z" fill="#FE1004"/>
<path d="M24.851 13.467L26.158 15.8534C25.1786 16.899 23.9658 17.5089 22.577 17.7799C20.2933 18.2251 18.1944 17.8261 16.4091 16.2786C15.1213 15.1634 14.4835 13.7109 14.3668 12.0137C14.2422 10.1953 14.7214 8.58165 15.9456 7.21721C17.1697 5.85277 18.7337 5.2237 20.5233 5.1113C22.1439 5.01023 23.673 5.33784 25.0183 6.298C25.3076 6.5045 25.5646 6.7563 25.8513 7.00026C25.3398 7.79314 24.8519 8.54854 24.3701 9.29176C23.9858 9.02253 23.6417 8.74197 23.2618 8.52328C21.8677 7.72169 20.1583 7.78442 19.0273 8.65397C17.7622 9.62633 17.3292 11.5066 18.014 13.0583C18.6457 14.4925 20.2733 15.3193 21.9096 15.0336C23.0387 14.8375 23.9815 14.2869 24.851 13.467Z" fill="#030303"/>
<path d="M62.8467 16.0151L64.3601 13.7009C65.1225 14.3901 65.9755 14.9016 66.9879 15.0157C67.5099 15.0791 68.0394 15.0356 68.544 14.8876C69.2149 14.675 69.2934 13.9527 68.7035 13.5598C68.2182 13.2365 67.6632 13.0161 67.1352 12.7599C66.4625 12.4349 65.7611 12.1622 65.1146 11.7937C63.8007 11.0444 63.1028 9.91604 63.2736 8.37472C63.4278 6.98066 64.259 6.04663 65.5285 5.57004C67.7207 4.74754 69.8431 4.93138 71.821 6.24877C71.9593 6.35368 72.0913 6.4666 72.2165 6.58683L71.0176 8.9794C70.4348 8.69797 69.8972 8.35468 69.309 8.17868C68.7715 8.01837 68.1764 8.01314 67.61 7.99484C67.3983 7.98787 67.1578 8.10027 66.9714 8.22051C66.5087 8.51936 66.4773 9.0857 66.9226 9.40372C67.2689 9.63435 67.6362 9.83178 68.0195 9.99358C68.7636 10.3369 69.5391 10.6183 70.264 10.9964C71.6493 11.7205 72.5694 12.7948 72.4335 14.452C72.2976 16.1092 71.279 17.1295 69.7604 17.6008C67.2702 18.3754 64.9988 17.8744 62.9904 16.2068C62.9584 16.179 62.9292 16.148 62.9033 16.1144C62.8822 16.0826 62.8633 16.0494 62.8467 16.0151Z" fill="#FE1004"/>
<path d="M57.6271 17.6638H54.3223V5.41515H57.4772V7.39734C58.5585 5.89436 59.8968 5.00826 61.8389 5.2618V8.52043C61.3614 8.52043 60.897 8.46467 60.4509 8.53089C59.0926 8.73041 58.0915 9.7507 57.7726 11.2223C57.6835 11.6417 57.6368 12.0691 57.6332 12.4979C57.6184 14.2039 57.6271 15.9107 57.6271 17.6638Z" fill="#040404"/>
<path d="M0.128304 17.6648C0.128304 14.0257 0.125951 10.3863 0.121333 6.74662C0.121333 6.30227 0.121333 5.85791 0.115234 5.41442H3.26495V7.40881C3.95327 6.43906 4.76793 5.68452 5.91281 5.35779C6.46607 5.19921 7.03241 5.11818 7.62315 5.31509V8.49269C7.41404 8.49269 7.20493 8.50489 6.99756 8.49269C5.10163 8.36635 3.79034 9.68113 3.50717 11.4307C3.44165 11.8834 3.41054 12.3403 3.41394 12.7977C3.40087 14.3913 3.4061 15.9849 3.40349 17.5785L3.32856 17.6656L0.128304 17.6648Z" fill="#020202"/>
<path d="M12.6512 17.6613H9.40039V5.41797H12.6512V17.6613Z" fill="#010101"/>
<path d="M11.0094 4.22423C9.93164 4.21465 9.02114 3.29195 9.04641 2.23507C9.07168 1.1782 9.97869 0.260729 11.0225 0.293838C12.265 0.333046 12.9759 1.24267 13.0038 2.26905C13.0326 3.3329 12.0872 4.23294 11.0094 4.22423Z" fill="#FE1004"/>
</g>
<defs>
<clipPath id="clip0_107_45728">
<rect width="138.459" height="18" fill="white" transform="translate(0.0410156 0.171875)"/>
</clipPath>
</defs>
</svg>
