<svg width="111" height="25" viewBox="0 0 111 25" fill="none" xmlns="http://www.w3.org/2000/svg">
<g clip-path="url(#clip0_107_45709)">
<path d="M38.6221 6H33.7779C33.3375 6 32.9818 6.3533 32.9818 6.79071V7.86742C32.9903 8.15342 33.2274 8.38054 33.5154 8.38054H34.3115C34.3369 8.38054 34.3538 8.38895 34.3707 8.41419C34.3877 8.43942 34.3961 8.47307 34.3877 8.49831L32.4906 14.1426C32.4737 14.1763 32.4398 14.2015 32.3975 14.1931C32.3636 14.1931 32.3297 14.1679 32.3213 14.1426L29.4842 6.4963V6.48788C29.408 6.30283 29.2301 6.16824 29.0269 6.15982H27.3161C27.1129 6.17665 26.935 6.30283 26.8503 6.48788V6.4963L24.0133 14.1426C24.0048 14.1763 23.9709 14.2015 23.937 14.2015C23.8947 14.2015 23.8608 14.1847 23.8439 14.151L21.9469 8.49831C21.9384 8.47307 21.9469 8.43942 21.9638 8.41419C21.9807 8.39736 21.9977 8.38054 22.0231 8.38054H22.8191C23.1071 8.38054 23.3442 8.15342 23.3527 7.86742V6.79071C23.3527 6.3533 22.997 6 22.5566 6H17.7124C17.543 6 17.3821 6.08412 17.2805 6.21871C17.1873 6.34488 17.1535 6.51312 17.2043 6.66453C17.272 6.858 17.3567 7.09353 17.4329 7.33748C17.5091 7.58142 17.5938 7.80854 17.6701 8.01883C17.7378 8.22913 17.9326 8.37213 18.1613 8.38054H18.9743C19.0166 8.38054 19.059 8.40578 19.0674 8.44783L22.8361 19.4421C22.9038 19.6524 23.0986 19.8038 23.3273 19.8038H24.496C24.7162 19.8038 24.911 19.6692 24.9872 19.4673C26.0204 16.4895 28.0021 10.82 28.0783 10.6265C28.0868 10.5844 28.1292 10.5508 28.1715 10.5508C28.2138 10.5508 28.2562 10.576 28.2647 10.6181C28.3409 10.82 30.3226 16.4895 31.3558 19.4589C31.432 19.6608 31.6268 19.7954 31.847 19.8038H33.0157C33.2444 19.8038 33.4392 19.6524 33.5069 19.4421L37.2671 8.44783C37.301 8.38054 37.3433 8.38054 37.3603 8.38054H38.1733C38.3935 8.38054 38.5882 8.23754 38.6645 8.02724C38.7407 7.81695 38.8169 7.57301 38.9016 7.34589C38.9863 7.11877 39.071 6.86642 39.1387 6.67294C39.1895 6.52153 39.1557 6.3533 39.0625 6.22712C38.9524 6.08412 38.8 6 38.6221 6ZM95.3299 17.5831H94.4491C94.3136 17.5831 94.2035 17.4737 94.2035 17.3307V6.4963C94.2035 6.30283 94.0426 6.143 93.8394 6.15141H91.2648C91.1547 6.15141 91.0531 6.20188 90.9854 6.286L89.9183 7.60665C89.7912 7.75807 89.8251 7.98519 89.9776 8.11136C90.0368 8.16183 90.1131 8.18707 90.1808 8.18707H90.5111C90.6466 8.19548 90.7567 8.30483 90.7652 8.43942V17.3139C90.7652 17.3812 90.7398 17.4569 90.6974 17.5158C90.4179 17.8775 89.7997 18.6429 89.4948 19.0215C89.3593 19.1729 89.3763 19.4 89.5287 19.5262C89.5965 19.5851 89.6727 19.6103 89.7574 19.6187H94.2459C94.339 19.6271 94.4322 19.5935 94.4999 19.5178L95.5501 18.2139C95.7957 17.9279 95.6263 17.5831 95.3299 17.5831Z" fill="#7F187F"/>
<path d="M92.468 4.68734C93.5344 4.68734 94.3989 3.82868 94.3989 2.76945C94.3989 1.71023 93.5344 0.851562 92.468 0.851562C91.4016 0.851562 90.5371 1.71023 90.5371 2.76945C90.5371 3.82868 91.4016 4.68734 92.468 4.68734Z" fill="#7F187F"/>
<path d="M109.456 7.27186C109.456 7.0868 109.355 6.91016 109.109 6.91016H108.66V8.0794H108.83V7.6504H108.982L109.278 8.0794H109.473L109.16 7.63357C109.38 7.61675 109.456 7.4401 109.456 7.27186ZM108.83 7.48216V7.05316H109.126C109.236 7.06157 109.312 7.14569 109.312 7.25504V7.27186C109.321 7.38122 109.245 7.47375 109.143 7.48216H108.83Z" fill="#7F187F"/>
<path d="M109.025 6.48073C108.466 6.48073 108.008 6.93496 108.008 7.49014C108.008 8.04532 108.466 8.49956 109.025 8.49956C109.584 8.49956 110.041 8.04532 110.041 7.49014C110.041 6.93496 109.592 6.48073 109.025 6.48073ZM109.025 8.34815C108.55 8.34815 108.161 7.96962 108.161 7.49855V7.49014C108.152 7.02749 108.525 6.64055 108.991 6.63214H109.025C109.499 6.63214 109.889 7.01908 109.889 7.49014C109.889 7.9612 109.507 8.34815 109.025 8.34815ZM51.2753 17.6348C50.53 17.6684 50.1574 17.3235 50.1574 16.4739V10.3922C50.1574 7.73409 47.9131 6.04331 45.3809 6.04331C41.4513 6.04331 40.037 7.89391 39.8761 9.96321C39.8676 10.1651 40.0201 10.3333 40.2149 10.3417H42.1712C42.3575 10.3333 42.5099 10.1903 42.5184 10.0137C42.62 8.93697 43.3484 8.14626 44.5679 8.14626C45.9144 8.14626 46.7275 8.82762 46.7275 10.3586V11.6792H46.0245C43.6109 11.6792 41.951 11.9905 40.8331 12.6886C39.7152 13.3868 39.1562 14.6738 39.1562 16.1795C39.1562 17.2899 39.5374 18.1984 40.308 18.9218C41.0787 19.6452 41.9764 19.9648 43.1536 19.9648C43.8565 19.9648 44.5509 19.805 45.1861 19.5022C45.8128 19.2246 46.3887 18.8545 46.8968 18.4087C46.9985 18.3161 47.1594 18.3161 47.2525 18.4171C47.2695 18.4339 47.2864 18.4507 47.2949 18.476C47.8453 19.4349 48.4466 19.7461 49.5899 19.7461C50.6231 19.7461 51.1228 18.7872 51.5717 18.2068C51.741 17.9797 51.5547 17.618 51.2753 17.6348ZM46.7444 16.659H46.7275C46.7275 16.7431 46.5919 16.8609 46.5411 16.9114C46.2278 17.1721 45.8806 17.3992 45.5079 17.5759C45.1692 17.7189 44.805 17.7862 44.4408 17.7778C43.9073 17.7778 43.3738 17.5759 43.0265 17.1974C42.6708 16.8104 42.4845 16.2973 42.493 15.7758C42.493 14.9851 42.7894 14.4551 43.3907 14.0598C43.992 13.6644 44.9744 13.4793 46.1516 13.4793H46.7359L46.7444 16.659ZM88.0896 17.6348C87.3443 17.6684 86.9717 17.3235 86.9717 16.4739V10.3922C86.9717 7.73409 84.7274 6.04331 82.1952 6.04331C78.2656 6.04331 76.8513 7.89391 76.6904 9.96321C76.682 10.1651 76.8344 10.3333 77.0292 10.3417H78.9855C79.1718 10.3333 79.3243 10.1903 79.3327 10.0137C79.4344 8.93697 80.1627 8.14626 81.3822 8.14626C82.7288 8.14626 83.5418 8.82762 83.5418 10.3586V11.6792H82.8473C80.4337 11.6792 78.7653 11.9905 77.6559 12.6886C76.538 13.3868 75.9706 14.6738 75.9706 16.1795C75.9706 17.2899 76.3517 18.1984 77.1223 18.9218C77.893 19.6452 78.7907 19.9648 79.9679 19.9648C80.6708 19.9648 81.3653 19.805 82.0004 19.5022C82.6271 19.2246 83.203 18.8545 83.7112 18.4087C83.8128 18.3161 83.9737 18.3161 84.0668 18.4171C84.0838 18.4339 84.1007 18.4507 84.1092 18.476C84.6597 19.4349 85.261 19.7461 86.4043 19.7461C87.4375 19.7461 87.9371 18.7872 88.386 18.2068C88.5554 17.9797 88.369 17.618 88.0896 17.6348ZM83.5672 16.659H83.5502C83.5502 16.7431 83.4147 16.8609 83.3639 16.9114C83.0506 17.1721 82.7033 17.3992 82.3307 17.5759C81.992 17.7189 81.6278 17.7862 81.2636 17.7778C80.7301 17.7778 80.1966 17.5759 79.8493 17.1974C79.4936 16.8104 79.3073 16.2973 79.3158 15.7758C79.3158 14.9851 79.6122 14.4551 80.2135 14.0598C80.8148 13.6644 81.7972 13.4793 82.9744 13.4793H83.5587V16.659H83.5672ZM106.34 6.1022C106.162 6.00967 105.713 5.96761 105.324 5.96761C104.697 5.96761 104.197 6.05172 103.766 6.23678L103.732 6.25361C103.571 6.32931 103.41 6.41343 103.266 6.52279C102.715 6.85926 102.233 7.27985 101.809 7.76773C101.809 7.76773 101.623 7.91073 101.589 7.6752V6.45549C101.589 6.26202 101.428 6.1022 101.233 6.1022H98.6588C98.5571 6.1022 98.4555 6.14425 98.3962 6.22837C98.3962 6.22837 97.5832 7.22938 97.3207 7.57426C97.1598 7.77614 97.2614 8.15468 97.6002 8.15468H97.922C98.0575 8.15468 98.176 8.27244 98.176 8.40703V17.3235C98.176 17.3908 98.1591 17.4665 98.1168 17.5254C97.8627 17.8367 97.219 18.6442 96.9057 19.0395C96.7871 19.1994 96.8125 19.4181 96.9734 19.5443C97.0327 19.5947 97.109 19.62 97.1852 19.62H102.749C102.944 19.62 103.105 19.4601 103.105 19.2667V17.9292C103.105 17.7357 102.944 17.5759 102.749 17.5759H101.868C101.725 17.5759 101.614 17.4665 101.614 17.3235V12.1335C101.716 9.6688 103.198 8.91174 103.909 8.69303L104.011 8.65938L104.037 8.65097C104.231 8.6005 104.426 8.57527 104.629 8.57527C105.476 8.57527 105.79 8.70144 106.255 8.81921C106.45 8.86968 106.611 8.65938 106.611 8.46591V6.44708C106.594 6.28726 106.467 6.16108 106.34 6.1022ZM76.0807 6.14425H72.0495C71.914 6.14425 71.7954 6.02649 71.7954 5.8919V3.91513C71.7954 2.95618 72.2951 1.99724 73.3283 1.99724C74.497 1.99724 74.6748 2.97301 74.7256 3.71324C74.7341 3.8983 74.8866 4.04972 75.0729 4.05813H76.7412C76.9276 4.04972 77.08 3.8983 77.0715 3.70483C77.0377 1.23176 75.454 0.171875 72.9133 0.171875C71.3635 0.171875 70.3472 0.651348 69.585 1.57665C68.8228 2.50194 68.4332 3.5366 68.4332 5.38719V5.88349C68.4332 6.01808 68.3232 6.12743 68.1876 6.12743L61.3024 6.14425C61.1076 6.13584 60.9383 6.28726 60.9383 6.48914V7.83503C60.9383 8.03691 61.1076 8.19673 61.3024 8.19673H62.0392C62.1832 8.19673 62.2933 8.3145 62.2933 8.44909C62.2933 8.48274 62.2848 8.51638 62.2764 8.54162C62.2764 8.54162 60.3793 12.9242 59.6171 14.6738C59.5578 14.8 59.4139 14.8589 59.2868 14.8084C59.2276 14.7832 59.1852 14.7327 59.1513 14.6738C58.3722 12.9073 56.4582 8.54162 56.4582 8.54162C56.4074 8.41544 56.4667 8.26403 56.5937 8.21356C56.6191 8.20515 56.653 8.19673 56.6869 8.19673H57.2035C57.4067 8.19673 57.5676 8.03691 57.5676 7.83503V6.49755C57.5676 6.30408 57.4067 6.14425 57.2035 6.15267H50.9704C50.7671 6.15267 50.6062 6.3209 50.6147 6.52279C50.6147 6.58167 50.6316 6.63214 50.657 6.68261C50.8433 7.01067 51.2583 7.79297 51.3769 8.02009C51.4362 8.12944 51.5547 8.19673 51.6733 8.20515H52.8759C52.9775 8.20515 53.0707 8.26403 53.113 8.35656C53.113 8.35656 57.5422 18.232 57.7031 18.5769C57.8725 19.0143 57.8725 19.5022 57.6947 19.948C57.4914 20.7556 56.1279 22.2024 55.3742 21.9416C54.8576 21.765 54.7898 20.8313 54.1716 20.7135C54.053 20.6967 53.943 20.7051 53.8329 20.7556C53.7228 20.7976 52.715 22.0846 52.4948 22.3117C52.3847 22.4547 52.3847 22.6482 52.4948 22.7912C53.0453 23.3548 53.9684 24.1119 55.3064 24.1623C56.9494 24.2296 58.567 24.0109 60.066 21.1846C60.066 21.1846 64.834 9.60992 65.4014 8.36497C65.4522 8.28085 65.5369 8.23038 65.6385 8.23038H68.1538C68.2893 8.23038 68.4078 8.33974 68.4078 8.47432V17.3656C68.4078 17.4413 68.3824 17.5086 68.3401 17.5675C68.0437 17.946 67.4424 18.6947 67.1375 19.0732C67.0105 19.2246 67.0359 19.4517 67.1883 19.5695C67.2561 19.62 67.3323 19.6536 67.417 19.6452H73.0403C73.2436 19.6452 73.4045 19.4854 73.4045 19.2835V17.9628C73.4045 17.761 73.2436 17.6011 73.0403 17.6011H72.0749C71.9394 17.6011 71.8293 17.4918 71.8293 17.3488V8.44068C71.8293 8.30609 71.9394 8.19673 72.0749 8.19673H75.0475C75.1576 8.19673 75.2592 8.14626 75.3269 8.06215C75.581 7.73409 76.0891 7.06955 76.3601 6.72467C76.4787 6.56485 76.4533 6.34614 76.2924 6.21996C76.2331 6.1779 76.1569 6.14425 76.0807 6.14425Z" fill="#7F187F"/>
<path d="M15.3834 10.425L14.4095 6.79106C14.3756 6.66488 14.2825 6.57235 14.1555 6.5387L10.4969 5.57135C10.3783 5.5377 10.2428 5.57135 10.1581 5.66388L7.70215 8.1033L12.8428 13.2093L15.2988 10.7698C15.3834 10.6773 15.4173 10.5427 15.3834 10.425Z" fill="#82D170"/>
<path d="M0.0130493 15.9874L0.986973 19.6213C1.02085 19.7475 1.11401 19.84 1.24104 19.8737L4.90807 20.841C5.02664 20.8747 5.16214 20.841 5.24683 20.7485L7.70281 18.3091L2.57066 13.2031L0.114676 15.6425C0.0215182 15.7351 -0.0123575 15.8613 0.0130493 15.9874Z" fill="#F8CF1C"/>
<path d="M4.8994 5.57135L1.24083 6.5387C1.1138 6.57235 1.02064 6.66488 0.986763 6.79106L0.0128389 10.425C-0.0210367 10.5427 0.0128389 10.6773 0.105997 10.7614L2.56198 13.2009L7.69413 8.1033L5.23815 5.66388C5.15346 5.57135 5.02643 5.5377 4.8994 5.57135Z" fill="#C6D636"/>
<path d="M15.2564 15.6089L12.8343 13.2031L7.70215 18.3007L10.1243 20.7065C10.2344 20.8158 10.3953 20.8579 10.5477 20.8242L14.1131 19.8821C14.2655 19.84 14.3841 19.7223 14.4265 19.5709L15.375 16.0295C15.4088 15.8781 15.3665 15.7183 15.2564 15.6089Z" fill="#D57DEA"/>
<path d="M7.70247 8.10547L2.57031 13.203L7.70247 18.3006L12.8431 13.203L7.70247 8.10547Z" fill="#7F187F"/>
<path d="M15.3834 10.425L14.4095 6.79106C14.3756 6.66488 14.2825 6.57235 14.1555 6.5387L10.4969 5.57135C10.3783 5.5377 10.2428 5.57135 10.1581 5.66388L7.70215 8.1033L12.8428 13.2093L15.2988 10.7698C15.3834 10.6773 15.4173 10.5427 15.3834 10.425Z" fill="#82D170"/>
<path d="M0.0130493 15.9874L0.986973 19.6213C1.02085 19.7475 1.11401 19.84 1.24104 19.8737L4.90807 20.841C5.02664 20.8747 5.16214 20.841 5.24683 20.7485L7.70281 18.3091L2.57066 13.2031L0.114676 15.6425C0.0215182 15.7351 -0.0123575 15.8613 0.0130493 15.9874Z" fill="#F8CF1C"/>
<path d="M4.8994 5.57135L1.24083 6.5387C1.1138 6.57235 1.02064 6.66488 0.986763 6.79106L0.0128389 10.425C-0.0210367 10.5427 0.0128389 10.6773 0.105997 10.7614L2.56198 13.2009L7.69413 8.1033L5.23815 5.66388C5.15346 5.57135 5.02643 5.5377 4.8994 5.57135Z" fill="#C6D636"/>
<path d="M15.2564 15.6089L12.8343 13.2031L7.70215 18.3007L10.1243 20.7065C10.2344 20.8158 10.3953 20.8579 10.5477 20.8242L14.1131 19.8821C14.2655 19.84 14.3841 19.7223 14.4265 19.5709L15.375 16.0295C15.4088 15.8781 15.3665 15.7183 15.2564 15.6089Z" fill="#D57DEA"/>
<path d="M7.70247 8.10547L2.57031 13.203L7.70247 18.3006L12.8431 13.203L7.70247 8.10547Z" fill="#7F187F"/>
</g>
<defs>
<clipPath id="clip0_107_45709">
<rect width="110.041" height="24" fill="white" transform="translate(0 0.171875)"/>
</clipPath>
</defs>
</svg>
