<svg width="40" height="41" viewBox="0 0 40 41" fill="none" xmlns="http://www.w3.org/2000/svg">
<path fill-rule="evenodd" clip-rule="evenodd" d="M19.9218 3.84277C18.1998 3.84277 16.5401 4.10452 14.9796 4.58986C14.6705 4.68596 14.3421 4.51336 14.246 4.20436C14.1499 3.89535 14.3225 3.56695 14.6315 3.47085C16.3035 2.95088 18.0805 2.6709 19.9218 2.6709C29.7474 2.6709 37.7127 10.6361 37.7127 20.4618C37.7127 30.2874 29.7474 38.2526 19.9218 38.2526C10.0962 38.2526 2.13086 30.2875 2.13086 20.4618C2.13086 15.3477 4.28945 10.7368 7.7436 7.49226C7.97947 7.27071 8.35029 7.28231 8.57184 7.51818C8.7934 7.75404 8.78179 8.12486 8.54593 8.34641C5.31773 11.3787 3.30273 15.6844 3.30273 20.4618C3.30273 29.6403 10.7434 37.0807 19.9218 37.0807C29.1002 37.0807 36.5408 29.6402 36.5408 20.4618C36.5408 11.2833 29.1002 3.84277 19.9218 3.84277Z" fill="white"/>
<path fill-rule="evenodd" clip-rule="evenodd" d="M19.9219 5.85999C20.2455 5.85999 20.5078 6.12232 20.5078 6.44592V6.97561C20.5078 7.29921 20.2455 7.56155 19.9219 7.56155C19.5983 7.56155 19.3359 7.29921 19.3359 6.97561V6.44592C19.3359 6.12232 19.5983 5.85999 19.9219 5.85999Z" fill="white"/>
<path fill-rule="evenodd" clip-rule="evenodd" d="M19.9219 33.3619C20.2455 33.3619 20.5078 33.6243 20.5078 33.9479V34.4776C20.5078 34.8012 20.2455 35.0636 19.9219 35.0636C19.5983 35.0636 19.3359 34.8012 19.3359 34.4776V33.9479C19.3359 33.6243 19.5983 33.3619 19.9219 33.3619Z" fill="white"/>
<path fill-rule="evenodd" clip-rule="evenodd" d="M5.32031 20.4618C5.32031 20.1382 5.58265 19.8759 5.90625 19.8759H6.43594C6.75954 19.8759 7.02187 20.1382 7.02187 20.4618C7.02187 20.7854 6.75954 21.0477 6.43594 21.0477H5.90625C5.58265 21.0477 5.32031 20.7854 5.32031 20.4618Z" fill="white"/>
<path fill-rule="evenodd" clip-rule="evenodd" d="M32.8223 20.4618C32.8223 20.1382 33.0846 19.8759 33.4082 19.8759H33.9379C34.2615 19.8759 34.5238 20.1382 34.5238 20.4618C34.5238 20.7854 34.2615 21.0477 33.9379 21.0477H33.4082C33.0846 21.0477 32.8223 20.7854 32.8223 20.4618Z" fill="white"/>
<path fill-rule="evenodd" clip-rule="evenodd" d="M3.82568 7.56458C3.82568 7.24097 4.08802 6.97864 4.41162 6.97864H8.46006C8.78366 6.97864 9.046 7.24097 9.046 7.56458V11.613C9.046 11.9366 8.78366 12.1989 8.46006 12.1989C8.13645 12.1989 7.87412 11.9366 7.87412 11.613V8.15051H4.41162C4.08802 8.15051 3.82568 7.88818 3.82568 7.56458Z" fill="white"/>
<path d="M14.5031 24.015C15.7349 22.7072 18.01 20.8939 18.7047 19.3521C19.5346 17.3648 17.8117 15.4872 15.7509 15.5953C14.038 15.5506 12.3721 16.7835 12.4256 18.5746C12.4133 19.4884 13.8435 19.4934 13.8391 18.581C13.7401 16.4619 17.4678 16.1416 17.437 18.3964C17.5546 19.9464 13.7112 22.8564 12.7096 24.0988C12.5745 24.2343 12.4986 24.4178 12.4986 24.6092C12.4986 25.0087 12.8225 25.3325 13.222 25.3325H18.4292C18.7756 25.3325 19.0565 25.0517 19.0565 24.7053C19.0565 24.3589 18.7756 24.078 18.4292 24.078H14.5031L14.5031 24.015ZM26.0923 22.1731V16.9489C26.0923 16.1989 25.4843 15.5909 24.7343 15.5909C24.2335 15.5909 23.7733 15.8664 23.5371 16.3079C23.0619 17.1403 22.0824 18.6719 21.5024 19.5778C21.0028 20.5321 20.1074 21.3661 19.8728 22.4201C19.873 22.9766 20.3241 23.4277 20.8805 23.4277H24.6653C24.7043 24.0294 24.4156 25.3366 25.3789 25.3326C26.3414 25.3379 26.054 24.027 26.0924 23.4277C26.5919 23.4394 27.4188 23.5221 27.4199 22.8004C27.4192 22.0791 26.5908 22.161 26.0923 22.1731ZM24.6785 22.1996H21.2601V22.1598C22.3836 20.4154 23.5121 18.6786 24.6386 16.936H24.6785V22.1996Z" fill="white"/>
</svg>
