<svg width="60" height="36" viewBox="0 0 60 36" fill="none" xmlns="http://www.w3.org/2000/svg">
<g clip-path="url(#clip0_107_45610)">
<path d="M59.0661 35.8255C59.1393 35.8249 59.2093 35.7956 59.261 35.7438C59.3128 35.6921 59.3421 35.6221 59.3428 35.5489V33.9021C59.3421 33.829 59.3128 33.759 59.261 33.7072C59.2093 33.6555 59.1393 33.6261 59.0661 33.6255H55.0314C55.0016 33.6257 54.9721 33.6199 54.9446 33.6086C54.917 33.5973 54.892 33.5806 54.8709 33.5595C54.8499 33.5385 54.8332 33.5135 54.8219 33.4859C54.8105 33.4584 54.8048 33.4288 54.805 33.3991V32.7204C54.8048 32.6906 54.8105 32.6611 54.8219 32.6335C54.8332 32.606 54.8499 32.581 54.8709 32.5599C54.892 32.5389 54.917 32.5222 54.9446 32.5109C54.9721 32.4995 55.0016 32.4938 55.0314 32.494H58.262C58.3352 32.4933 58.4052 32.464 58.4569 32.4122C58.5086 32.3605 58.538 32.2905 58.5386 32.2173V30.7088C58.538 30.6357 58.5086 30.5657 58.4569 30.5139C58.4052 30.4622 58.3352 30.4329 58.262 30.4322H55.0314C55.0016 30.4324 54.9721 30.4266 54.9446 30.4153C54.917 30.404 54.892 30.3873 54.8709 30.3663C54.8499 30.3452 54.8332 30.3202 54.8219 30.2926C54.8105 30.2651 54.8048 30.2356 54.805 30.2058V29.3888C54.8048 29.359 54.8105 29.3295 54.8219 29.302C54.8332 29.2744 54.8499 29.2494 54.8709 29.2283C54.892 29.2073 54.917 29.1906 54.9446 29.1793C54.9721 29.168 55.0016 29.1622 55.0314 29.1624H59.0661C59.1393 29.1617 59.2093 29.1324 59.261 29.0806C59.3128 29.0289 59.3421 28.9589 59.3428 28.8858V27.2267C59.3421 27.1535 59.3128 27.0835 59.261 27.0318C59.2093 26.9801 59.1393 26.9507 59.0661 26.9501H52.8063C52.7331 26.9507 52.6631 26.9801 52.6114 27.0318C52.5596 27.0835 52.5303 27.1535 52.5296 27.2267V35.5391C52.5303 35.6123 52.5596 35.6823 52.6114 35.734C52.6631 35.7858 52.7331 35.8151 52.8063 35.8158H59.0661V35.8255ZM49.3872 32.5448C49.4163 32.5475 49.4435 32.5603 49.4642 32.5809C49.4848 32.6016 49.4977 32.6289 49.5004 32.658V32.6959C49.4954 32.7627 49.4744 32.8274 49.4392 32.8844C49.2273 33.1682 48.9524 33.3988 48.6361 33.5581C48.3198 33.7174 47.9708 33.801 47.6167 33.8024C47.2202 33.8015 46.8299 33.703 46.4805 33.5155C46.1311 33.3279 45.8333 33.0572 45.6133 32.7272C45.3934 32.3972 45.2582 32.0182 45.2196 31.6235C45.1811 31.2288 45.2403 30.8307 45.3922 30.4644C45.5441 30.0981 45.7839 29.7748 46.0904 29.5232C46.3969 29.2716 46.7607 29.0994 47.1495 29.0218C47.5384 28.9442 47.9404 28.9636 48.32 29.0783C48.6996 29.193 49.0451 29.3995 49.326 29.6795C49.377 29.7372 49.4474 29.7742 49.5239 29.7835C49.6004 29.7927 49.6776 29.7736 49.7409 29.7297L51.1362 28.7872C51.1639 28.7667 51.1873 28.7408 51.2049 28.7111C51.2225 28.6814 51.234 28.6484 51.2387 28.6142C51.2433 28.58 51.2411 28.5452 51.2321 28.5118C51.2232 28.4785 51.2076 28.4473 51.1864 28.42C50.7397 27.9087 50.1891 27.4985 49.5713 27.2167C48.9536 26.935 48.2828 26.7882 47.6039 26.7861C46.992 26.7739 46.3838 26.8838 45.8149 27.1095C45.2461 27.3352 44.728 27.6721 44.2909 28.1006C43.8539 28.529 43.5067 29.0403 43.2696 29.6045C43.0326 30.1687 42.9105 30.7746 42.9105 31.3866C42.9105 31.9986 43.0326 32.6044 43.2696 33.1687C43.5067 33.7329 43.8539 34.2442 44.2909 34.6726C44.728 35.101 45.2461 35.438 45.8149 35.6637C46.3838 35.8894 46.992 35.9993 47.6039 35.9871C47.991 36.0012 48.3769 35.936 48.7378 35.7956C49.0988 35.6551 49.4272 35.4422 49.7029 35.1701C49.7127 35.1566 49.7265 35.1467 49.7424 35.1418C49.7583 35.1369 49.7754 35.1373 49.791 35.143C49.8067 35.1487 49.82 35.1593 49.8291 35.1732C49.8381 35.1872 49.8424 35.2037 49.8412 35.2203V35.5471C49.8419 35.6203 49.8712 35.6903 49.923 35.742C49.9747 35.7937 50.0447 35.8231 50.1179 35.8237H51.3498C51.4229 35.8231 51.4929 35.7937 51.5446 35.742C51.5964 35.6903 51.6257 35.6203 51.6264 35.5471V30.9212C51.6257 30.848 51.5964 30.778 51.5446 30.7263C51.4929 30.6746 51.4229 30.6452 51.3498 30.6446H47.629C47.5558 30.6452 47.4858 30.6746 47.4341 30.7263C47.3823 30.778 47.353 30.848 47.3523 30.9212V32.2675C47.353 32.3407 47.3823 32.4107 47.4341 32.4624C47.4858 32.5141 47.5558 32.5435 47.629 32.5441L49.3872 32.5448ZM38.024 32.4836C37.9989 32.4823 37.9743 32.4754 37.9523 32.4632C37.9302 32.4511 37.9112 32.434 37.8967 32.4135C37.8822 32.3929 37.8725 32.3693 37.8685 32.3444C37.8645 32.3195 37.8662 32.2941 37.8735 32.27L38.6905 30.0956C38.6965 30.0788 38.7077 30.0643 38.7223 30.0541C38.7369 30.0438 38.7543 30.0383 38.7722 30.0383C38.79 30.0383 38.8074 30.0438 38.822 30.0541C38.8367 30.0643 38.8478 30.0788 38.8539 30.0956L39.6586 32.27C39.6672 32.2941 39.6699 32.3199 39.6665 32.3453C39.6631 32.3707 39.6535 32.3949 39.6388 32.4159C39.624 32.4368 39.6044 32.4539 39.5817 32.4657C39.5589 32.4774 39.5337 32.4836 39.5081 32.4836H38.024ZM34.1649 35.5881C34.1536 35.6164 34.1496 35.6471 34.1531 35.6773C34.1566 35.7076 34.1676 35.7365 34.1851 35.7615C34.2026 35.7864 34.226 35.8066 34.2532 35.8203C34.2805 35.8339 34.3107 35.8406 34.3412 35.8396H36.2768C36.3562 35.8395 36.4338 35.8154 36.4993 35.7705C36.5648 35.7257 36.6152 35.6621 36.644 35.5881L36.958 34.7583C36.9823 34.6973 37.0237 34.6447 37.0772 34.6068C37.1308 34.5689 37.1941 34.5473 37.2597 34.5447H40.2889C40.3554 34.5437 40.4204 34.5638 40.4746 34.6022C40.5289 34.6406 40.5695 34.6953 40.5906 34.7583L40.9052 35.5881C40.934 35.6621 40.9844 35.7257 41.05 35.7705C41.1155 35.8154 41.193 35.8395 41.2724 35.8396H43.2081C43.238 35.8391 43.2674 35.8316 43.2939 35.8175C43.3204 35.8035 43.3431 35.7833 43.3603 35.7588C43.3775 35.7343 43.3886 35.706 43.3928 35.6763C43.397 35.6467 43.3941 35.6164 43.3843 35.5881L40.0184 27.2163C39.987 27.1421 39.9346 27.0788 39.8676 27.0341C39.8006 26.9894 39.722 26.9653 39.6415 26.9648H37.9206C37.8401 26.9653 37.7615 26.9894 37.6945 27.0341C37.6275 27.0788 37.575 27.1421 37.5436 27.2163L34.1649 35.5881ZM33.247 35.8268C33.3201 35.8261 33.3901 35.7968 33.4418 35.7451C33.4936 35.6933 33.5229 35.6233 33.5236 35.5502V33.9033C33.5229 33.8302 33.4936 33.7602 33.4418 33.7084C33.3901 33.6567 33.3201 33.6274 33.247 33.6267H29.5017C29.4719 33.6269 29.4424 33.6211 29.4148 33.6098C29.3873 33.5985 29.3623 33.5818 29.3412 33.5608C29.3201 33.5397 29.3035 33.5147 29.2921 33.4871C29.2808 33.4596 29.2751 33.4301 29.2752 33.4003V27.2279C29.2746 27.1548 29.2453 27.0848 29.1935 27.033C29.1418 26.9813 29.0718 26.9519 28.9986 26.9513H27.2894C27.2162 26.9519 27.1462 26.9813 27.0945 27.033C27.0428 27.0848 27.0134 27.1548 27.0128 27.2279V35.5391C27.0134 35.6123 27.0428 35.6823 27.0945 35.734C27.1462 35.7858 27.2162 35.8151 27.2894 35.8158H33.2476L33.247 35.8268ZM23.8072 31.8171C23.8072 33.1023 23.1787 33.803 21.9848 33.803C20.7908 33.803 20.1874 33.0992 20.1874 31.8171V27.2414C20.1868 27.1682 20.1574 27.0982 20.1057 27.0465C20.054 26.9948 19.984 26.9654 19.9108 26.9648H18.1887C18.1155 26.9654 18.0456 26.9948 17.9938 27.0465C17.9421 27.0982 17.9127 27.1682 17.9121 27.2414V31.9536C17.9121 34.2411 19.3196 36.0012 21.9719 36.0012C24.6242 36.0012 26.0446 34.2411 26.0446 31.9536V27.2414C26.044 27.1682 26.0146 27.0982 25.9629 27.0465C25.9112 26.9948 25.8412 26.9654 25.768 26.9648H24.0588C23.9856 26.9654 23.9156 26.9948 23.8639 27.0465C23.8121 27.0982 23.7828 27.1682 23.7822 27.2414V31.8171H23.8072ZM12.7685 32.4793C12.7433 32.478 12.7188 32.4711 12.6967 32.4589C12.6746 32.4468 12.6556 32.4298 12.6411 32.4092C12.6266 32.3886 12.617 32.365 12.613 32.3401C12.6089 32.3153 12.6106 32.2898 12.6179 32.2657L13.4349 30.0913C13.441 30.0746 13.4521 30.0601 13.4667 30.0498C13.4813 30.0396 13.4987 30.0341 13.5166 30.0341C13.5344 30.0341 13.5519 30.0396 13.5665 30.0498C13.5811 30.0601 13.5922 30.0746 13.5983 30.0913L14.403 32.2657C14.4117 32.2898 14.4144 32.3157 14.4109 32.341C14.4075 32.3664 14.398 32.3906 14.3832 32.4116C14.3685 32.4325 14.3489 32.4496 14.3261 32.4614C14.3034 32.4732 14.2781 32.4793 14.2525 32.4793H12.7685ZM8.91302 35.5869C8.90173 35.6152 8.89766 35.6459 8.90118 35.6761C8.9047 35.7064 8.9157 35.7353 8.93319 35.7603C8.95068 35.7852 8.9741 35.8054 9.00135 35.8191C9.02859 35.8327 9.05881 35.8394 9.08926 35.8384H11.0249C11.1043 35.8383 11.1819 35.8142 11.2474 35.7693C11.3129 35.7244 11.3633 35.6609 11.3921 35.5869L11.7067 34.757C11.731 34.6961 11.7724 34.6435 11.8259 34.6056C11.8795 34.5677 11.9428 34.5461 12.0084 34.5435H15.0328C15.0992 34.5425 15.1642 34.5626 15.2185 34.601C15.2727 34.6394 15.3133 34.694 15.3345 34.757L15.6484 35.5869C15.6772 35.6609 15.7277 35.7244 15.7932 35.7693C15.8587 35.8142 15.9362 35.8383 16.0156 35.8384H17.9513C17.9812 35.8379 18.0106 35.8303 18.0371 35.8163C18.0636 35.8022 18.0863 35.7821 18.1035 35.7576C18.1207 35.733 18.1319 35.7048 18.136 35.6751C18.1402 35.6454 18.1373 35.6152 18.1275 35.5869L14.7445 27.2163C14.7131 27.1421 14.6607 27.0788 14.5937 27.0341C14.5267 26.9894 14.4481 26.9653 14.3675 26.9648H12.6577C12.5772 26.9653 12.4986 26.9894 12.4316 27.0341C12.3646 27.0788 12.3121 27.1421 12.2807 27.2163L8.91302 35.5869ZM5.97187 30.1819C5.97203 30.2117 5.96628 30.2412 5.95496 30.2688C5.94364 30.2963 5.92697 30.3213 5.90591 30.3424C5.88485 30.3634 5.85982 30.3801 5.83228 30.3914C5.80473 30.4028 5.77522 30.4085 5.74544 30.4084H2.58949C2.5597 30.4085 2.53019 30.4028 2.50264 30.3914C2.4751 30.3801 2.45007 30.3634 2.42901 30.3424C2.40795 30.3213 2.39128 30.2963 2.37996 30.2688C2.36864 30.2412 2.36289 30.2117 2.36305 30.1819V27.2408C2.36242 27.1676 2.33307 27.0976 2.28133 27.0459C2.22959 26.9941 2.15961 26.9648 2.08644 26.9642H0.377198C0.304034 26.9648 0.234047 26.9941 0.18231 27.0459C0.130573 27.0976 0.101225 27.1676 0.100586 27.2408V35.5496C0.101225 35.6227 0.130573 35.6927 0.18231 35.7444C0.234047 35.7962 0.304034 35.8255 0.377198 35.8262H2.08644C2.15961 35.8255 2.22959 35.7962 2.28133 35.7444C2.33307 35.6927 2.36242 35.6227 2.36305 35.5496V32.7589C2.36289 32.7292 2.36864 32.6996 2.37996 32.6721C2.39128 32.6446 2.40795 32.6195 2.42901 32.5985C2.45007 32.5774 2.4751 32.5607 2.50264 32.5494C2.53019 32.5381 2.5597 32.5324 2.58949 32.5325H5.74482C5.77461 32.5324 5.80412 32.5381 5.83167 32.5494C5.85921 32.5607 5.88424 32.5774 5.9053 32.5985C5.92636 32.6195 5.94303 32.6446 5.95435 32.6721C5.96567 32.6996 5.97142 32.7292 5.97125 32.7589V35.5496C5.97189 35.6227 6.00124 35.6927 6.05298 35.7444C6.10472 35.7962 6.1747 35.8255 6.24787 35.8262H7.96996C8.04313 35.8255 8.11311 35.7962 8.16485 35.7444C8.21659 35.6927 8.24594 35.6227 8.24658 35.5496V27.2402C8.24594 27.167 8.21659 27.097 8.16485 27.0453C8.11311 26.9935 8.04313 26.9642 7.96996 26.9635H6.24726C6.17409 26.9642 6.1041 26.9935 6.05237 27.0453C6.00063 27.097 5.97128 27.167 5.97064 27.2402L5.97187 30.1819Z" fill="black"/>
<path d="M50.3802 24.3229C55.7221 24.3229 59.6944 21.9221 59.6944 17.3593C59.6944 12.2187 54.1634 10.2952 50.9205 9.1637C48.1299 8.20841 47.0492 7.71822 47.0492 6.78802C47.0492 6.00898 47.8662 5.19138 49.9028 5.19138C51.8887 5.19138 53.0325 6.09649 53.385 7.0885C53.4243 7.32653 53.55 7.54167 53.7382 7.69266C53.9264 7.84366 54.1636 7.91988 54.4045 7.90671H58.5776C58.7916 7.89561 58.9928 7.80137 59.1383 7.64407C59.2838 7.48677 59.3622 7.27885 59.3566 7.06463C59.0555 2.85364 55.2448 0 49.7768 0C44.4348 0 40.6137 2.7906 40.6137 7.26536C40.6137 12.1049 45.5162 13.9022 49.2364 15.1341C52.0643 16.0894 53.2338 16.6928 53.2338 17.6861C53.2338 18.3776 52.5172 19.1315 50.2547 19.1315C48.1556 19.1315 46.9237 18.4149 46.4966 17.6359C46.1294 17.0074 45.9813 16.8568 45.2898 16.8568H41.2293C41.0156 16.8682 40.8148 16.9625 40.6696 17.1197C40.5243 17.2768 40.4461 17.4844 40.4515 17.6983C40.8915 21.9723 45.0646 24.3229 50.382 24.3229M33.1972 15.0962C33.1972 17.8868 31.9903 18.5153 30.256 18.5153C28.6973 18.5153 27.2769 17.8868 27.2769 15.0962V13.8649C27.275 13.6753 27.1988 13.4941 27.0647 13.3601C26.9306 13.2261 26.7493 13.15 26.5597 13.1483H21.9974C21.8079 13.1502 21.6268 13.2263 21.4928 13.3603C21.3588 13.4943 21.2827 13.6754 21.2808 13.8649V15.1849C21.2808 21.457 25.5799 24.3107 30.2682 24.3107C35.1328 24.3107 39.1927 21.457 39.1927 15.1849V1.15663C39.1908 0.967269 39.1147 0.786193 38.9809 0.65223C38.847 0.518266 38.666 0.442081 38.4767 0.44001H33.9389C33.7494 0.441922 33.5682 0.518037 33.4343 0.652017C33.3003 0.785998 33.2242 0.967164 33.2222 1.15663V15.0962H33.1972ZM13.1856 7.76779C13.1856 8.87424 12.5822 9.62819 10.9605 9.62819H6.59892C6.43958 9.62598 6.28738 9.56169 6.1747 9.44901C6.06201 9.33632 5.99773 9.18413 5.99551 9.02479V6.49856C5.99773 6.33921 6.06201 6.18702 6.1747 6.07433C6.28738 5.96165 6.43958 5.89736 6.59892 5.89515H11.2873C11.5405 5.86981 11.7963 5.90063 12.0363 5.98542C12.2763 6.07021 12.4947 6.20688 12.6758 6.3857C12.857 6.56452 12.9965 6.78109 13.0844 7.01998C13.1723 7.25887 13.2064 7.5142 13.1844 7.76779M14.24 16.3281C14.24 17.56 13.6366 18.4272 12.0149 18.4272H6.60932C6.44998 18.4249 6.29778 18.3607 6.1851 18.248C6.07242 18.1353 6.00813 17.9831 6.00592 17.8238V14.9077C6.00813 14.7484 6.07242 14.5962 6.1851 14.4835C6.29778 14.3708 6.44998 14.3065 6.60932 14.3043H12.0143C13.636 14.3171 14.24 15.1213 14.24 16.3281ZM12.6832 23.8701C17.4345 23.8701 20.3133 21.1425 20.3133 17.2607C20.3512 16.1549 20.0488 15.0641 19.4468 14.1357C18.8449 13.2072 17.9725 12.486 16.9474 12.0694C16.8955 12.0471 16.8509 12.0108 16.8187 11.9644C16.7865 11.918 16.7681 11.8634 16.7654 11.807C16.7628 11.7506 16.7761 11.6946 16.8039 11.6455C16.8316 11.5963 16.8727 11.5559 16.9223 11.529C17.6765 11.0237 18.2878 10.3326 18.6973 9.52232C19.1067 8.71207 19.3006 7.81 19.2601 6.90307C19.257 3.18227 16.7069 0.44001 11.6526 0.44001H0.716622C0.527155 0.441922 0.345988 0.518037 0.212008 0.652017C0.0780274 0.785998 0.00191235 0.967164 0 1.15663L0 23.1412C0.00191235 23.3307 0.0780274 23.5118 0.212008 23.6458C0.345988 23.7798 0.527155 23.8559 0.716622 23.8578H12.6832V23.8701Z" fill="#FEBA30"/>
</g>
<defs>
<clipPath id="clip0_107_45610">
<rect width="59.6944" height="36" fill="white"/>
</clipPath>
</defs>
</svg>
