<svg width="108" height="22" viewBox="0 0 108 22" fill="none" xmlns="http://www.w3.org/2000/svg">
<g clip-path="url(#clip0_107_45523)">
<path d="M41.2698 12.6123C39.6599 11.665 38.9992 11.0668 38.9992 10.0893C38.9992 9.26822 39.4712 8.82775 40.3869 8.82775C41.4282 8.82775 41.9324 9.36159 41.9324 10.2445V11.0011H44.6724V10.4215C44.6724 7.89853 43.127 6.13281 40.3225 6.13281C37.7673 6.13281 35.9224 7.74269 35.9224 10.3571C35.9224 12.4719 37.1195 13.7334 38.9174 14.7103C40.8094 15.8835 41.7862 16.4116 41.7862 17.7697C41.7862 18.7466 41.2202 19.1864 40.2111 19.1864C39.2021 19.1864 38.5716 18.6815 38.5716 17.4529V16.637H35.7344V17.3614C35.7344 19.9778 37.3739 21.7615 40.3399 21.7615C43.3665 21.7615 44.816 19.679 44.816 17.4728C44.8012 14.9324 43.2557 13.6709 41.2698 12.6123Z" fill="#14191E"/>
<path d="M50.8442 3.04297L47.6586 3.89685V6.53706H45.7988V9.24745H47.5001V16.8738C47.5001 19.0181 47.6933 20.3086 48.2246 21.5102H51.6272C51.0162 20.0446 50.7473 18.4589 50.841 16.8738V9.24681H52.8591V6.54221H50.841L50.8442 3.04297Z" fill="#14191E"/>
<path d="M30.8772 6.13672C29.4895 6.13672 28.2608 7.05178 27.6297 8.84712L27.4365 6.38915H24.5703V21.5253H27.8802V10.9297C27.8802 10.1408 28.4669 8.84712 29.4901 8.84712C29.6775 8.8529 29.8616 8.89778 30.0307 8.97887C30.1997 9.05996 30.3499 9.17547 30.4717 9.318C30.5935 9.46054 30.6842 9.62694 30.738 9.80656C30.7917 9.98618 30.8073 10.175 30.7838 10.361V21.5253H34.0957V9.92316C34.095 7.65065 32.9597 6.13672 30.8772 6.13672Z" fill="#14191E"/>
<path d="M18.1189 6.13672C15.3441 6.13672 13.4521 8.02865 13.4521 11.0237V16.9197C13.4521 19.9463 15.3441 21.777 18.1189 21.777C20.8937 21.777 22.7553 19.9469 22.7553 16.9197V11.0237C22.7508 8.02865 20.8621 6.13672 18.1189 6.13672ZM19.5356 17.5501C19.5543 17.7469 19.5316 17.9454 19.4688 18.1328C19.4059 18.3201 19.3045 18.4923 19.1709 18.6379C19.0374 18.7836 18.8747 18.8996 18.6935 18.9785C18.5123 19.0573 18.3165 19.0972 18.1189 19.0956C17.9197 19.1027 17.7214 19.0665 17.5375 18.9895C17.3537 18.9125 17.1888 18.7965 17.0541 18.6496C16.9194 18.5027 16.8182 18.3283 16.7574 18.1385C16.6967 17.9487 16.6778 17.7479 16.7022 17.5501V10.3932C16.6773 10.1939 16.6956 9.99152 16.7558 9.79985C16.816 9.60818 16.9166 9.43168 17.051 9.28231C17.1853 9.13294 17.3502 9.01419 17.5345 8.9341C17.7187 8.85402 17.918 8.81447 18.1189 8.81814C18.3181 8.81998 18.5147 8.86323 18.6964 8.94515C18.878 9.02707 19.0405 9.14587 19.1738 9.294C19.307 9.44212 19.408 9.61634 19.4702 9.80558C19.5325 9.99482 19.5548 10.1949 19.5356 10.3932V17.5501Z" fill="#14191E"/>
<path d="M57.5788 8.97434L57.3585 6.39015H54.5605V21.5263H57.8724V11.5939C57.8724 10.2358 58.7849 9.32336 61.3922 9.702V6.26394C59.5473 5.88723 58.1776 6.7044 57.5788 8.97434Z" fill="#14191E"/>
<path d="M6.05316 0.0507812C2.30277 0.0507812 0 2.57379 0 5.8206V16.2282C0 19.4756 2.30277 22.0012 6.05316 22.0012C9.80354 22.0012 11.7322 19.6546 11.7322 16.5128V13.9576H8.231V16.4806C8.25693 16.763 8.21983 17.0477 8.12238 17.314C8.02492 17.5804 7.86955 17.8217 7.66747 18.0207C7.46539 18.2197 7.22165 18.3714 6.95384 18.4647C6.68603 18.5581 6.40083 18.5908 6.11884 18.5606C5.84021 18.593 5.55786 18.5641 5.29156 18.476C5.02526 18.3879 4.78144 18.2426 4.57717 18.0503C4.3729 17.8581 4.21312 17.6235 4.10901 17.363C4.0049 17.1026 3.95899 16.8225 3.97448 16.5424V5.50699C3.95833 5.22686 4.00376 4.94659 4.10756 4.6859C4.21136 4.42521 4.37101 4.19042 4.57529 3.99805C4.77956 3.80569 5.02351 3.66041 5.28996 3.57243C5.5564 3.48446 5.83889 3.45593 6.11755 3.48884C6.39962 3.45822 6.68497 3.49069 6.95294 3.58392C7.22091 3.67714 7.46481 3.82878 7.66697 4.02786C7.86913 4.22693 8.02449 4.46847 8.12182 4.73498C8.21915 5.00149 8.256 5.28631 8.22972 5.56881V8.09182H11.7322V5.53919C11.7335 2.38833 9.77713 0.0507812 6.05316 0.0507812Z" fill="#14191E"/>
<path d="M89.7016 3.04297L86.5334 3.89685V6.53706H84.6562V9.24745H86.3608V16.8738C86.3608 19.0181 86.5488 20.3086 87.0852 21.5102H90.4911C89.8791 20.0448 89.6093 18.4591 89.7023 16.8738V9.24681H91.7204V6.54221H89.7023L89.7016 3.04297Z" fill="#14191E"/>
<path d="M69.2275 17.0113C69.2275 17.8298 68.6409 19.0913 67.6492 19.0913C67.4618 19.0862 67.2776 19.0417 67.1085 18.9607C66.9394 18.8798 66.7892 18.7641 66.6678 18.6214C66.5463 18.4786 66.4562 18.3118 66.4034 18.132C66.3506 17.9521 66.3363 17.7631 66.3613 17.5773V6.38672H63.0146V18.0236C63.0146 20.262 64.1499 21.7753 66.2621 21.7753C67.0095 21.7569 67.7319 21.5031 68.3266 21.0501C68.9213 20.5971 69.3578 19.9679 69.5739 19.2522L69.7324 21.5228H72.5393V6.38672H69.2275V17.0113Z" fill="#14191E"/>
<path d="M79.0261 6.13672C76.2803 6.13672 74.3896 8.02865 74.3896 11.0237V16.9197C74.3896 19.9463 76.2816 21.777 79.0261 21.777C81.7706 21.777 83.4088 19.9791 83.4088 16.9519V15.9428H80.6019V17.4574C80.6019 18.4343 80.097 19.0969 79.1349 19.0969C78.1729 19.0969 77.621 18.4665 77.621 17.3956V10.56C77.621 9.48656 78.1581 8.82651 79.1349 8.82651C80.1118 8.82651 80.6019 9.48656 80.6019 10.4956V11.9767H83.4088V10.9915C83.4095 7.99645 81.8022 6.13672 79.0261 6.13672Z" fill="#14191E"/>
<path d="M97.9187 0H95.29V12.2441H97.9187V0Z" fill="#E4E428"/>
<path d="M99.6348 0V2.24417H102.283V12.2441H104.911V2.24417H107.54V0H99.6348Z" fill="#E4E428"/>
</g>
<defs>
<clipPath id="clip0_107_45523">
<rect width="107.54" height="22" fill="white"/>
</clipPath>
</defs>
</svg>
