<svg width="160" height="21" viewBox="0 0 160 21" fill="none" xmlns="http://www.w3.org/2000/svg">
<g clip-path="url(#clip0_107_45632)">
<path d="M0 20.1707C0 13.4593 0 6.73135 0 0C53.327 0 106.656 0 160 0C160 6.71569 160 13.435 160 20.1707C106.677 20.1707 53.3397 20.1707 0 20.1707ZM108.086 4.66101C108.092 4.7377 108.087 4.77426 108.097 4.8063C109.087 7.94106 110.081 11.0747 111.065 14.2111C111.218 14.701 111.605 14.4446 111.892 14.5078C112.209 14.5773 112.313 14.385 112.394 14.1222C112.89 12.519 113.394 10.9181 113.9 9.31824C114.193 8.39501 114.495 7.47504 114.834 6.42668C114.932 6.6723 114.982 6.77757 115.017 6.88746C115.767 9.25342 116.52 11.6184 117.258 13.9881C117.367 14.339 117.489 14.5437 117.923 14.5256C118.332 14.5086 118.573 14.4612 118.711 14.0009C119.346 11.892 120.029 9.7975 120.691 7.69681C121.008 6.68869 121.318 5.67816 121.646 4.62382C121.351 4.62382 121.122 4.64326 120.899 4.61899C120.614 4.5881 120.501 4.72068 120.426 4.97439C120.074 6.16467 119.711 7.35181 119.347 8.53831C118.896 10.0061 118.439 11.4722 117.959 13.0235C117.884 12.849 117.837 12.7623 117.809 12.6698C117.024 10.1302 116.235 7.59207 115.467 5.04751C115.369 4.72205 115.235 4.5923 114.891 4.6151C114.587 4.63527 114.35 4.611 114.233 5.01074C113.719 6.77284 113.165 8.52349 112.621 10.2771C112.345 11.1671 112.061 12.0544 111.752 13.0315C111.675 12.8333 111.63 12.7382 111.6 12.6389C110.873 10.2655 110.148 7.89106 109.42 5.51806C109.124 4.55406 109.12 4.55533 108.086 4.66101ZM66.6588 14.4919C66.6588 11.8288 66.6588 9.21665 66.6588 6.47806C66.8503 6.72031 66.9598 6.85226 67.0622 6.98957C68.7665 9.27758 70.5063 11.5406 72.1511 13.8707C72.6395 14.5626 73.1703 14.5597 73.8265 14.4726C73.8265 11.1732 73.8265 7.90808 73.8265 4.66238C73.4593 4.66238 73.1353 4.66238 72.7506 4.66238C72.7506 7.34456 72.7506 9.98829 72.7506 12.7514C72.6132 12.5833 72.5564 12.5201 72.5065 12.452C70.7788 10.094 69.0182 7.7589 67.3456 5.36247C66.8618 4.66931 66.3503 4.49009 65.5936 4.67761C65.5936 7.94422 65.5936 11.21 65.5936 14.4919C65.9373 14.4919 66.2474 14.4919 66.6588 14.4919ZM136.711 6.62892C136.746 6.61431 136.782 6.59961 136.817 6.585C136.903 6.68974 136.993 6.79112 137.074 6.89965C138.8 9.21581 140.559 11.5079 142.227 13.865C142.713 14.5511 143.242 14.5666 143.909 14.4698C143.909 11.178 143.909 7.9127 143.909 4.66038C143.544 4.66038 143.22 4.66038 142.836 4.66038C142.836 7.34246 142.836 9.98808 142.836 12.7603C142.678 12.5583 142.602 12.4659 142.531 12.3696C140.813 10.0256 139.063 7.70427 137.4 5.32223C136.92 4.63569 136.402 4.51467 135.672 4.67372C135.672 7.94085 135.672 11.2067 135.672 14.4759C136.028 14.4759 136.351 14.4759 136.711 14.4759C136.711 11.8386 136.711 9.23378 136.711 6.62892ZM83.9663 14.499C85.6637 14.499 87.3107 14.5683 88.9495 14.4819C91.138 14.3666 92.2818 12.2086 91.0811 10.5077C90.7719 10.0697 90.2407 9.78889 89.8371 9.45691C90.5478 9.0598 90.958 8.53652 91.0901 7.79798C91.4028 6.05079 90.29 4.68559 88.4818 4.63212C87.5199 4.60365 86.5565 4.62466 85.5938 4.62372C85.0573 4.62319 84.5209 4.62361 83.9664 4.62361C83.9663 7.93865 83.9663 11.1908 83.9663 14.499ZM95.0593 9.12714C95.0637 13.825 98.6004 15.2193 101.435 14.3971C103.543 13.7858 104.905 11.6303 104.709 9.24722C104.597 7.87708 104.226 6.61043 103.147 5.69749C101.517 4.31874 99.6503 4.14613 97.7443 4.97471C95.7754 5.83049 95.1001 7.53891 95.0593 9.12714ZM56.4314 4.65922C55.0813 7.91417 53.7254 11.183 52.3461 14.5085C52.542 14.5085 52.6484 14.4939 52.7494 14.5109C53.2747 14.5993 53.5853 14.4256 53.7248 13.8718C53.8391 13.4181 54.0816 12.9983 54.2379 12.5532C54.3339 12.2798 54.4791 12.1847 54.774 12.1877C56.2798 12.2034 57.7858 12.2024 59.2916 12.1885C59.5799 12.1858 59.7384 12.2645 59.8332 12.5464C59.9724 12.96 60.1515 13.3603 60.3147 13.7658C60.6547 14.6102 60.7287 14.6469 61.679 14.4269C61.6163 14.263 61.5586 14.1009 61.4928 13.9421C60.3353 11.1469 59.1764 8.35257 58.0189 5.55745C57.5998 4.54566 57.6012 4.54513 56.4314 4.65922ZM131.623 4.66091C129.477 4.66091 127.371 4.66091 125.279 4.66091C125.279 7.96207 125.279 11.2259 125.279 14.481C127.415 14.481 129.509 14.481 131.613 14.481C131.613 14.1671 131.613 13.8817 131.613 13.5453C129.839 13.5453 128.099 13.5453 126.357 13.5453C126.357 12.3327 126.357 11.1726 126.357 9.96475C127.863 9.96475 129.325 9.96475 130.791 9.96475C130.791 9.64213 130.791 9.36835 130.791 9.0265C129.295 9.0265 127.821 9.0265 126.345 9.0265C126.345 7.84483 126.345 6.73187 126.345 5.5689C128.116 5.5689 129.858 5.5689 131.623 5.5689C131.623 5.24533 131.623 4.97135 131.623 4.66091ZM31.596 4.64263C31.596 4.9393 31.5961 5.1823 31.596 5.42529C31.5954 7.24223 31.5986 9.05907 31.5925 10.876C31.59 11.6231 31.531 12.3876 30.9213 12.9037C29.8402 13.819 28.5919 13.8631 27.3168 13.392C26.1461 12.9595 25.8675 11.9768 25.8685 10.8518C25.8702 8.97796 25.8689 7.10398 25.8689 5.2301C25.8689 5.04341 25.8689 4.85662 25.8689 4.65124C25.4845 4.65124 25.1622 4.65124 24.816 4.65124C24.816 7.03853 24.7612 9.39997 24.838 11.7572C24.8792 13.0208 25.6121 13.9592 26.8549 14.2864C27.683 14.5045 28.5828 14.6333 29.4299 14.5604C31.6934 14.3654 32.6736 13.2035 32.6738 10.9323C32.674 9.02335 32.6738 7.11438 32.6738 5.20552C32.6738 5.02041 32.6738 4.83519 32.6738 4.64252C32.2911 4.64263 31.9811 4.64263 31.596 4.64263ZM38.0317 13.5576C38.0317 10.5384 38.0317 7.59133 38.0317 4.66521C37.6438 4.66521 37.322 4.66521 37.0086 4.66521C37.0086 7.95808 37.0086 11.2092 37.0086 14.4771C39.1419 14.4771 41.2482 14.4771 43.3525 14.4771C43.3525 14.1587 43.3525 13.8734 43.3525 13.5575C41.5864 13.5576 39.858 13.5576 38.0317 13.5576ZM13.7913 13.6724C14.1699 13.8925 14.4948 14.1323 14.8569 14.2817C15.7699 14.6582 16.7223 14.6881 17.6902 14.5223C19.5193 14.209 20.4822 13.0886 20.4854 11.2397C20.4888 9.20867 20.4862 7.17752 20.4862 5.14647C20.4862 4.97954 20.4862 4.81261 20.4862 4.66217C20.0851 4.66217 19.7617 4.66217 19.4111 4.66217C19.4111 5.71483 19.4161 6.72924 19.4098 7.74356C19.4021 8.98605 19.4149 10.2297 19.363 11.4705C19.317 12.5711 18.6721 13.2592 17.6318 13.5019C17.0834 13.6298 16.4786 13.6709 15.9261 13.5828C15.343 13.4898 14.7916 13.1964 14.1983 12.9803C14.0946 13.1565 13.964 13.3785 13.7913 13.6724ZM47.5237 4.6401C47.5237 7.95588 47.5237 11.2175 47.5237 14.4735C47.883 14.4735 48.2057 14.4735 48.5245 14.4735C48.5245 11.1776 48.5245 7.91701 48.5245 4.6401C48.1759 4.6401 47.8662 4.6401 47.5237 4.6401Z" fill="black"/>
<path d="M108.086 4.66183C109.12 4.55615 109.124 4.55489 109.42 5.51877C110.148 7.89188 110.872 10.2662 111.6 12.6397C111.63 12.7389 111.674 12.834 111.752 13.0323C112.06 12.0551 112.345 11.1677 112.621 10.2778C113.165 8.52421 113.718 6.77356 114.233 5.01146C114.35 4.61162 114.587 4.63599 114.891 4.61582C115.235 4.59302 115.369 4.72277 115.467 5.04823C116.235 7.59279 117.024 10.1309 117.808 12.6706C117.837 12.7629 117.884 12.8496 117.959 13.0242C118.439 11.4729 118.896 10.0069 119.346 8.53902C119.711 7.35252 120.074 6.16539 120.426 4.97511C120.501 4.7214 120.614 4.58882 120.899 4.61971C121.122 4.64397 121.351 4.62454 121.646 4.62454C121.318 5.67898 121.008 6.68941 120.691 7.69753C120.028 9.79822 119.346 11.8927 118.711 14.0016C118.572 14.462 118.331 14.5093 117.923 14.5264C117.489 14.5444 117.367 14.3398 117.258 13.9888C116.52 11.6192 115.767 9.25414 115.017 6.88818C114.982 6.77818 114.932 6.67302 114.834 6.4274C114.495 7.47586 114.193 8.39583 113.9 9.31896C113.394 10.9189 112.89 12.5197 112.394 14.1229C112.312 14.3857 112.209 14.5781 111.892 14.5085C111.605 14.4454 111.218 14.7017 111.065 14.2118C110.08 11.0754 109.087 7.94189 108.097 4.80702C108.087 4.77508 108.091 4.73852 108.086 4.66183Z" fill="white"/>
<path d="M66.6589 14.4933C66.2475 14.4933 65.9375 14.4933 65.5938 14.4933C65.5938 11.2114 65.5938 7.94571 65.5938 4.679C66.3506 4.49148 66.862 4.6707 67.3458 5.36386C69.0185 7.76039 70.779 10.0954 72.5066 12.4533C72.5566 12.5215 72.6134 12.5848 72.7508 12.7527C72.7508 9.98968 72.7508 7.34595 72.7508 4.66377C73.1355 4.66377 73.4596 4.66377 73.8267 4.66377C73.8267 7.90947 73.8267 11.1746 73.8267 14.474C73.1705 14.561 72.6396 14.5639 72.1512 13.8721C70.5064 11.542 68.7665 9.27897 67.0623 6.99096C66.96 6.85366 66.8503 6.72171 66.6589 6.47945C66.6589 9.21804 66.6589 11.8303 66.6589 14.4933Z" fill="white"/>
<path d="M136.711 6.63079C136.711 9.23565 136.711 11.8405 136.711 14.4777C136.351 14.4777 136.028 14.4777 135.672 14.4777C135.672 11.2086 135.672 7.94284 135.672 4.6756C136.402 4.51655 136.92 4.63757 137.4 5.32411C139.063 7.70615 140.813 10.0275 142.531 12.3715C142.602 12.4678 142.678 12.5601 142.836 12.7622C142.836 9.98995 142.836 7.34423 142.836 4.66226C143.22 4.66226 143.544 4.66226 143.909 4.66226C143.909 7.91458 143.909 11.1798 143.909 14.4716C143.242 14.5686 142.713 14.5529 142.227 13.8668C140.559 11.5098 138.8 9.21769 137.074 6.90152C136.993 6.793 136.903 6.69162 136.817 6.58688C136.782 6.60148 136.746 6.61619 136.711 6.63079Z" fill="white"/>
<path d="M83.9658 14.499C83.9658 11.1908 83.9658 7.9387 83.9658 4.62367C84.5203 4.62367 85.0567 4.62325 85.5932 4.62377C86.556 4.62472 87.5193 4.60371 88.4812 4.63218C90.2893 4.68575 91.4022 6.05095 91.0895 7.79803C90.9574 8.53658 90.5472 9.05986 89.8365 9.45697C90.2402 9.78895 90.7713 10.0699 91.0805 10.5077C92.2812 12.2087 91.1375 14.3666 88.9489 14.482C87.3103 14.5684 85.6632 14.499 83.9658 14.499ZM85.0508 13.6521C86.3345 13.6521 87.5924 13.7081 88.8426 13.634C89.808 13.5768 90.4761 12.6853 90.4179 11.7348C90.3584 10.7619 89.6352 10.0365 88.6552 9.99433C88.1313 9.97185 87.6057 9.9874 87.0809 9.98687C86.4067 9.98624 85.7324 9.98677 85.0508 9.98677C85.0508 11.2481 85.0508 12.4308 85.0508 13.6521ZM85.048 9.14002C86.1927 9.14002 87.2752 9.17248 88.3548 9.13025C89.2918 9.09358 89.9894 8.36239 90.0563 7.45156C90.1299 6.45048 89.6032 5.54028 88.6909 5.45445C87.4904 5.34151 86.2715 5.42671 85.048 5.42671C85.048 6.65366 85.048 7.86926 85.048 9.14002Z" fill="white"/>
<path d="M95.0596 9.12569C95.1003 7.53745 95.7757 5.82903 97.7445 4.97325C99.6505 4.14467 101.517 4.31739 103.147 5.69603C104.227 6.60897 104.597 7.87563 104.71 9.24576C104.906 11.6289 103.543 13.7844 101.436 14.3956C98.6006 15.2179 95.064 13.8236 95.0596 9.12569ZM103.589 9.60096C103.589 9.4085 103.607 9.21414 103.586 9.02389C103.429 7.53693 102.78 6.35673 101.322 5.83502C99.86 5.31205 98.4392 5.44989 97.2676 6.57146C96.1836 7.60921 96.019 8.96295 96.1992 10.3645C96.5189 12.8514 98.6418 14.2028 101.058 13.4966C102.697 13.0177 103.614 11.6175 103.589 9.60096Z" fill="white"/>
<path d="M56.4309 4.65944C57.6008 4.54535 57.5994 4.54587 58.0185 5.55788C59.176 8.35299 60.335 11.1474 61.4925 13.9425C61.5583 14.1013 61.6159 14.2634 61.6786 14.4273C60.7284 14.6473 60.6544 14.6106 60.3144 13.7662C60.1511 13.3607 59.972 12.9604 59.8328 12.5468C59.738 12.265 59.5794 12.1863 59.2913 12.1889C57.7855 12.2029 56.2794 12.2038 54.7736 12.1882C54.4788 12.1851 54.3336 12.2802 54.2376 12.5536C54.0812 12.9988 53.8388 13.4186 53.7245 13.8722C53.5849 14.426 53.2743 14.5996 52.749 14.5114C52.648 14.4943 52.5416 14.5089 52.3457 14.5089C53.725 11.1833 55.0808 7.91438 56.4309 4.65944ZM59.2886 11.2234C58.5433 9.43192 57.8186 7.69041 57.0405 5.82031C56.2609 7.69356 55.5365 9.43412 54.7917 11.2234C56.3095 11.2234 57.7516 11.2234 59.2886 11.2234Z" fill="white"/>
<path d="M131.622 4.66026C131.622 4.9707 131.622 5.24469 131.622 5.56815C129.858 5.56815 128.116 5.56815 126.344 5.56815C126.344 6.73112 126.344 7.84408 126.344 9.02575C127.821 9.02575 129.294 9.02575 130.791 9.02575C130.791 9.3676 130.791 9.64138 130.791 9.964C129.325 9.964 127.863 9.964 126.357 9.964C126.357 11.1719 126.357 12.3321 126.357 13.5445C128.099 13.5445 129.839 13.5445 131.613 13.5445C131.613 13.8809 131.613 14.1663 131.613 14.4802C129.508 14.4802 127.415 14.4802 125.279 14.4802C125.279 11.2252 125.279 7.96143 125.279 4.66016C127.371 4.66026 129.477 4.66026 131.622 4.66026Z" fill="white"/>
<path d="M31.5956 4.64453C31.9808 4.64453 32.2908 4.64453 32.6736 4.64453C32.6736 4.8372 32.6736 5.02231 32.6736 5.20753C32.6736 7.11649 32.6737 9.02546 32.6736 10.9343C32.6734 13.2055 31.6932 14.3674 29.4297 14.5624C28.5827 14.6354 27.6828 14.5065 26.8547 14.2884C25.6118 13.9611 24.8789 13.0227 24.8378 11.7592C24.7611 9.40198 24.8157 7.04054 24.8157 4.65325C25.162 4.65325 25.4843 4.65325 25.8687 4.65325C25.8687 4.85864 25.8687 5.04532 25.8687 5.23211C25.8687 7.10599 25.87 8.97997 25.8683 10.8539C25.8672 11.9787 26.1458 12.9615 27.3166 13.394C28.5917 13.8651 29.8399 13.8211 30.9211 12.9057C31.5307 12.3896 31.5897 11.6251 31.5923 10.878C31.5983 9.06118 31.5952 7.24424 31.5957 5.4273C31.5956 5.1842 31.5956 4.94121 31.5956 4.64453Z" fill="white"/>
<path d="M38.0317 13.5563C39.858 13.5563 41.5865 13.5563 43.3527 13.5563C43.3527 13.8722 43.3527 14.1575 43.3527 14.476C41.2482 14.476 39.1421 14.476 37.0088 14.476C37.0088 11.208 37.0088 7.95683 37.0088 4.66406C37.3222 4.66406 37.644 4.66406 38.0318 4.66406C38.0317 7.59008 38.0317 10.5371 38.0317 13.5563Z" fill="white"/>
<path d="M13.791 13.6743C13.9637 13.3804 14.0943 13.1583 14.1979 12.9822C14.7913 13.1983 15.3426 13.4917 15.9257 13.5847C16.4782 13.6728 17.083 13.6317 17.6314 13.5038C18.6717 13.2611 19.3165 12.573 19.3627 11.4724C19.4145 10.2316 19.4017 8.98795 19.4094 7.74545C19.4157 6.73114 19.4107 5.71672 19.4107 4.66406C19.7612 4.66406 20.0846 4.66406 20.4858 4.66406C20.4858 4.8145 20.4858 4.98144 20.4858 5.14837C20.4858 7.17941 20.4885 9.21056 20.485 11.2416C20.4817 13.0905 19.5188 14.2108 17.6898 14.5242C16.7219 14.69 15.7695 14.6602 14.8565 14.2836C14.4944 14.1342 14.1695 13.8944 13.791 13.6743Z" fill="white"/>
<path d="M47.5234 4.64062C47.866 4.64062 48.1756 4.64062 48.5243 4.64062C48.5243 7.91742 48.5243 11.1781 48.5243 14.4741C48.2056 14.4741 47.8827 14.4741 47.5234 14.4741C47.5234 11.2182 47.5234 7.9564 47.5234 4.64062Z" fill="white"/>
<path d="M85.0518 13.6504C85.0518 12.4291 85.0518 11.2464 85.0518 9.98511C85.7334 9.98511 86.4076 9.98459 87.0819 9.98522C87.6067 9.98575 88.1322 9.9702 88.6561 9.99268C89.6361 10.0347 90.3593 10.7602 90.4189 11.7331C90.4771 12.6837 89.8089 13.5752 88.8435 13.6323C87.5933 13.7064 86.3354 13.6504 85.0518 13.6504Z" fill="black"/>
<path d="M85.0488 9.13865C85.0488 7.8679 85.0488 6.65229 85.0488 5.42535C86.2723 5.42535 87.4913 5.34015 88.6917 5.45308C89.6041 5.53891 90.1307 6.44912 90.0572 7.45019C89.9902 8.36103 89.2928 9.09222 88.3557 9.12888C87.276 9.17101 86.1935 9.13865 85.0488 9.13865Z" fill="black"/>
<path d="M103.589 9.60175C103.614 11.6183 102.698 13.0185 101.059 13.4974C98.642 14.2036 96.5191 12.8522 96.1994 10.3653C96.0193 8.96385 96.1839 7.61 97.2679 6.57226C98.4395 5.45068 99.8602 5.31285 101.322 5.83581C102.78 6.35752 103.429 7.53772 103.587 9.02468C103.607 9.21494 103.589 9.40929 103.589 9.60175Z" fill="black"/>
<path d="M59.2889 11.2234C57.7518 11.2234 56.3097 11.2234 54.792 11.2234C55.5367 9.43423 56.2612 7.69356 57.0408 5.82031C57.8189 7.69041 58.5435 9.43203 59.2889 11.2234Z" fill="black"/>
</g>
<defs>
<clipPath id="clip0_107_45632">
<rect width="160" height="20.1707" fill="white"/>
</clipPath>
</defs>
</svg>
