<svg width="63" height="17" viewBox="0 0 63 17" fill="none" xmlns="http://www.w3.org/2000/svg">
<g clip-path="url(#clip0_107_45784)">
<path fill-rule="evenodd" clip-rule="evenodd" d="M62.473 0.171875V2.76109H54.3071V6.94366H61.278V9.46648H54.3071V13.6491H62.473V16.1719H51.8506V0.171875H62.473ZM41.4274 0.171875C45.8091 0.171875 49.2614 3.75694 49.2614 8.13868C49.2614 12.5868 45.8091 16.1055 41.4274 16.1055H36.1162V0.171875H41.4274ZM26.888 0.171875L33.4606 16.1719H30.805L29.7427 13.4499H22.4398L21.3776 16.1719H18.5892L25.2282 0.171875H26.888ZM1.9917 0.171875L7.96681 7.07644L14.0083 0.171875H15.9336V16.1719H13.4772V4.6864L7.96681 10.9271L2.45643 4.6864V16.1719H0V0.171875H1.9917ZM41.4938 2.76109H38.5726V13.5827H41.4938C44.4149 13.5827 46.7386 11.1926 46.7386 8.13868C46.7386 5.21752 44.4149 2.76109 41.4938 2.76109ZM26.0913 4.6864L23.5685 10.8607H28.5477L26.0913 4.6864Z" fill="#131413"/>
</g>
<defs>
<clipPath id="clip0_107_45784">
<rect width="62.473" height="16" fill="white" transform="translate(0 0.171875)"/>
</clipPath>
</defs>
</svg>
