<svg width="185" height="41" viewBox="0 0 185 41" fill="none" xmlns="http://www.w3.org/2000/svg">
<path fill-rule="evenodd" clip-rule="evenodd" d="M20.6982 3.51562C18.9762 3.51562 17.3165 3.77737 15.7559 4.26271C15.4469 4.35881 15.1185 4.18622 15.0224 3.87721C14.9263 3.5682 15.0989 3.2398 15.4079 3.1437C17.0798 2.62373 18.8568 2.34375 20.6982 2.34375C30.5238 2.34375 38.489 10.309 38.489 20.1346C38.489 29.9602 30.5238 37.9255 20.6982 37.9255C10.8725 37.9255 2.90723 29.9603 2.90723 20.1347C2.90723 15.0205 5.06582 10.4097 8.51997 7.16511C8.75584 6.94356 9.12665 6.95516 9.34821 7.19103C9.56976 7.42689 9.55816 7.79771 9.32229 8.01926C6.0941 11.0516 4.0791 15.3573 4.0791 20.1347C4.0791 29.3131 11.5197 36.7536 20.6982 36.7536C29.8766 36.7536 37.3172 29.313 37.3172 20.1346C37.3172 10.9562 29.8766 3.51562 20.6982 3.51562Z" fill="#FEBA30"/>
<path fill-rule="evenodd" clip-rule="evenodd" d="M20.6982 5.53125C21.0218 5.53125 21.2842 5.79358 21.2842 6.11719V6.64687C21.2842 6.97048 21.0218 7.23281 20.6982 7.23281C20.3746 7.23281 20.1123 6.97048 20.1123 6.64687V6.11719C20.1123 5.79358 20.3746 5.53125 20.6982 5.53125Z" fill="#877B6F"/>
<path fill-rule="evenodd" clip-rule="evenodd" d="M20.6982 33.0352C21.0218 33.0352 21.2842 33.2975 21.2842 33.6211V34.1509C21.2842 34.4745 21.0218 34.7368 20.6982 34.7368C20.3746 34.7368 20.1123 34.4745 20.1123 34.1509V33.6211C20.1123 33.2975 20.3746 33.0352 20.6982 33.0352Z" fill="#877B6F"/>
<path fill-rule="evenodd" clip-rule="evenodd" d="M6.09668 20.1328C6.09668 19.8092 6.35901 19.5469 6.68262 19.5469H7.2123C7.53591 19.5469 7.79824 19.8092 7.79824 20.1328C7.79824 20.4564 7.53591 20.7188 7.2123 20.7188H6.68262C6.35901 20.7188 6.09668 20.4564 6.09668 20.1328Z" fill="#877B6F"/>
<path fill-rule="evenodd" clip-rule="evenodd" d="M33.5986 20.1328C33.5986 19.8092 33.861 19.5469 34.1846 19.5469H34.7143C35.0379 19.5469 35.3002 19.8092 35.3002 20.1328C35.3002 20.4564 35.0379 20.7188 34.7143 20.7188H34.1846C33.861 20.7188 33.5986 20.4564 33.5986 20.1328Z" fill="#877B6F"/>
<path fill-rule="evenodd" clip-rule="evenodd" d="M4.60254 7.23828C4.60254 6.91468 4.86487 6.65234 5.18848 6.65234H9.23691C9.56052 6.65234 9.82285 6.91468 9.82285 7.23828V11.2867C9.82285 11.6103 9.56052 11.8727 9.23691 11.8727C8.91331 11.8727 8.65098 11.6103 8.65098 11.2867V7.82422H5.18848C4.86487 7.82422 4.60254 7.56189 4.60254 7.23828Z" fill="#FEBA30"/>
<path d="M15.2789 23.6859C16.5107 22.3781 18.7859 20.5648 19.4806 19.023C20.3104 17.0357 18.5875 15.1581 16.5268 15.2662C14.8139 15.2215 13.148 16.4544 13.2014 18.2455C13.1892 19.1593 14.6194 19.1643 14.615 18.2519C14.516 16.1328 18.2437 15.8125 18.2129 18.0673C18.3304 19.6173 14.4871 22.5273 13.4855 23.7697C13.3504 23.9052 13.2745 24.0887 13.2745 24.2801C13.2745 24.6796 13.5984 25.0034 13.9979 25.0034H19.2051C19.5515 25.0034 19.8324 24.7226 19.8324 24.3762C19.8324 24.0298 19.5515 23.7489 19.2051 23.7489H15.279L15.2789 23.6859ZM26.8682 21.844V16.6198C26.8682 15.8698 26.2602 15.2618 25.5102 15.2618C25.0094 15.2618 24.5492 15.5373 24.313 15.9788C23.8378 16.8112 22.8582 18.3428 22.2783 19.2487C21.7786 20.203 20.8833 21.037 20.6487 22.091C20.6489 22.6475 21.1 23.0986 21.6564 23.0986H25.4412C25.4802 23.7003 25.1914 25.0075 26.1548 25.0035C27.1173 25.0088 26.8299 23.6979 26.8683 23.0986C27.3678 23.1103 28.1947 23.193 28.1958 22.4713C28.195 21.75 27.3667 21.8319 26.8682 21.844ZM25.4543 21.8705H22.036V21.8307C23.1595 20.0863 24.2879 18.3495 25.4145 16.6069H25.4543V21.8705Z" fill="#877B6F"/>
<path d="M51.8964 18.6919V23.3839C51.8964 23.5399 51.7644 23.6719 51.6084 23.6719H49.7844C49.6284 23.6719 49.4964 23.5399 49.4964 23.3839V14.5999C49.4964 14.4439 49.6284 14.3119 49.7844 14.3119H51.2484C51.4284 14.3119 51.6084 14.3959 51.7164 14.5399L55.5684 19.3519C55.6164 19.4239 55.7124 19.3879 55.7124 19.3039V14.5999C55.7124 14.4439 55.8444 14.3119 56.0004 14.3119H57.8124C57.9684 14.3119 58.1004 14.4439 58.1004 14.5999V23.3839C58.1004 23.5399 57.9684 23.6719 57.8124 23.6719H56.3604C56.1804 23.6719 56.0004 23.5879 55.8924 23.4439L52.0404 18.6439C51.9924 18.5719 51.8964 18.6079 51.8964 18.6919ZM66.4393 23.6719H59.8273C59.6713 23.6719 59.5393 23.5399 59.5393 23.3839V14.5999C59.5393 14.4439 59.6713 14.3119 59.8273 14.3119H66.4393C66.5953 14.3119 66.7273 14.4439 66.7273 14.5999V16.3519C66.7273 16.5079 66.5953 16.6399 66.4393 16.6399H62.1793C62.0473 16.6399 61.9393 16.7479 61.9393 16.8799V17.7439C61.9393 17.8759 62.0473 17.9839 62.1793 17.9839H65.5873C65.7433 17.9839 65.8753 18.1159 65.8753 18.2719V19.8679C65.8753 20.0239 65.7433 20.1559 65.5873 20.1559H62.1793C62.0473 20.1559 61.9393 20.2639 61.9393 20.3959V21.1159C61.9393 21.2479 62.0473 21.3559 62.1793 21.3559H66.4393C66.5953 21.3559 66.7273 21.4879 66.7273 21.6439V23.3839C66.7273 23.5399 66.5953 23.6719 66.4393 23.6719ZM71.9148 16.6759L73.3668 14.5519C73.4748 14.4079 73.6428 14.3119 73.8228 14.3119H76.0788C76.1988 14.3119 76.2708 14.4439 76.2108 14.5519L73.3548 18.7639C73.2828 18.8839 73.2828 19.0519 73.3548 19.1719L76.2708 23.4319C76.3428 23.5399 76.2708 23.6719 76.1508 23.6719H73.8108C73.6308 23.6719 73.4628 23.5759 73.3668 23.4319L71.9148 21.3079C71.8548 21.2119 71.7108 21.2119 71.6508 21.3079L70.2108 23.4319C70.1148 23.5759 69.9468 23.6719 69.7668 23.6719H67.4268C67.3068 23.6719 67.2348 23.5399 67.3068 23.4319L70.2228 19.1719C70.2948 19.0519 70.2948 18.8839 70.2228 18.7639L67.3668 14.5519C67.3068 14.4439 67.3788 14.3119 67.4988 14.3119H69.7548C69.9348 14.3119 70.1028 14.4079 70.2108 14.5519L71.6508 16.6639C71.7108 16.7719 71.8548 16.7719 71.9148 16.6759ZM79.2057 16.6399H76.8177C76.6617 16.6399 76.5297 16.5079 76.5297 16.3519V14.5999C76.5297 14.4439 76.6617 14.3119 76.8177 14.3119H84.4737C84.6297 14.3119 84.7617 14.4439 84.7617 14.5999V16.3519C84.7617 16.5079 84.6297 16.6399 84.4737 16.6399H82.0857C81.9537 16.6399 81.8457 16.7479 81.8457 16.8799V23.3839C81.8457 23.5399 81.7137 23.6719 81.5577 23.6719H79.7337C79.5777 23.6719 79.4457 23.5399 79.4457 23.3839V16.8799C79.4457 16.7479 79.3377 16.6399 79.2057 16.6399ZM92.9576 23.6719H88.9016C88.7456 23.6719 88.6136 23.5399 88.6136 23.3839V14.5999C88.6136 14.4439 88.7456 14.3119 88.9016 14.3119H92.9576C95.8856 14.3119 97.3856 16.4479 97.3856 18.9919C97.3856 21.5479 95.8856 23.6719 92.9576 23.6719ZM94.9616 18.9919C94.9616 17.5879 94.2056 16.6399 92.7776 16.6399H91.2536C91.1216 16.6399 91.0136 16.7479 91.0136 16.8799V21.1159C91.0136 21.2479 91.1216 21.3559 91.2536 21.3559H92.7776C94.2056 21.3559 94.9616 20.3959 94.9616 18.9919ZM97.2476 23.4079L100.824 14.5759C100.884 14.4199 101.052 14.3119 101.22 14.3119H103.02C103.188 14.3119 103.356 14.4199 103.416 14.5759L106.98 23.4079C107.028 23.5279 106.944 23.6719 106.8 23.6719H104.76C104.592 23.6719 104.436 23.5639 104.376 23.4079L104.04 22.5319C103.992 22.3999 103.86 22.3039 103.716 22.3039H100.512C100.368 22.3039 100.236 22.3999 100.188 22.5319L99.8516 23.4079C99.7916 23.5639 99.6356 23.6719 99.4676 23.6719H97.4276C97.2836 23.6719 97.1996 23.5279 97.2476 23.4079ZM101.328 20.1319H102.9C103.02 20.1319 103.092 20.0119 103.056 19.9039L102.204 17.6119C102.18 17.5279 102.06 17.5279 102.036 17.6119L101.172 19.9039C101.136 20.0119 101.208 20.1319 101.328 20.1319ZM105.267 14.3119H107.511C107.691 14.3119 107.859 14.4079 107.943 14.5639L109.743 17.5039C109.791 17.5999 109.935 17.5999 109.983 17.5039L111.783 14.5519C111.879 14.4079 112.047 14.3119 112.227 14.3119H114.483C114.615 14.3119 114.687 14.4439 114.615 14.5519L111.195 20.0359C111.111 20.1559 111.063 20.3359 111.063 20.4799V23.3839C111.063 23.5399 110.931 23.6719 110.775 23.6719H108.963C108.807 23.6719 108.675 23.5399 108.675 23.3839V20.4799C108.675 20.3359 108.627 20.1559 108.543 20.0359L105.135 14.5519C105.063 14.4439 105.135 14.3119 105.267 14.3119ZM122.501 23.6719H118.445C118.289 23.6719 118.157 23.5399 118.157 23.3839V14.5999C118.157 14.4439 118.289 14.3119 118.445 14.3119H122.501C125.429 14.3119 126.929 16.4479 126.929 18.9919C126.929 21.5479 125.429 23.6719 122.501 23.6719ZM124.505 18.9919C124.505 17.5879 123.749 16.6399 122.321 16.6399H120.797C120.665 16.6399 120.557 16.7479 120.557 16.8799V21.1159C120.557 21.2479 120.665 21.3559 120.797 21.3559H122.321C123.749 21.3559 124.505 20.3959 124.505 18.9919ZM134.877 23.6719H128.265C128.109 23.6719 127.977 23.5399 127.977 23.3839V14.5999C127.977 14.4439 128.109 14.3119 128.265 14.3119H134.877C135.033 14.3119 135.165 14.4439 135.165 14.5999V16.3519C135.165 16.5079 135.033 16.6399 134.877 16.6399H130.617C130.485 16.6399 130.377 16.7479 130.377 16.8799V17.7439C130.377 17.8759 130.485 17.9839 130.617 17.9839H134.025C134.181 17.9839 134.313 18.1159 134.313 18.2719V19.8679C134.313 20.0239 134.181 20.1559 134.025 20.1559H130.617C130.485 20.1559 130.377 20.2639 130.377 20.3959V21.1159C130.377 21.2479 130.485 21.3559 130.617 21.3559H134.877C135.033 21.3559 135.165 21.4879 135.165 21.6439V23.3839C135.165 23.5399 135.033 23.6719 134.877 23.6719ZM142.92 23.6719H136.62C136.464 23.6719 136.332 23.5399 136.332 23.3839V14.5999C136.332 14.4439 136.464 14.3119 136.62 14.3119H138.432C138.588 14.3119 138.72 14.4439 138.72 14.5999V21.1159C138.72 21.2479 138.828 21.3559 138.96 21.3559H142.92C143.076 21.3559 143.208 21.4879 143.208 21.6439V23.3839C143.208 23.5399 143.076 23.6719 142.92 23.6719ZM144.09 23.3839V14.5999C144.09 14.4439 144.222 14.3119 144.378 14.3119H146.202C146.358 14.3119 146.49 14.4439 146.49 14.5999V23.3839C146.49 23.5399 146.358 23.6719 146.202 23.6719H144.378C144.222 23.6719 144.09 23.5399 144.09 23.3839ZM157.054 14.5759L153.478 23.4079C153.418 23.5639 153.25 23.6719 153.082 23.6719H151.282C151.114 23.6719 150.946 23.5639 150.886 23.4079L147.322 14.5759C147.274 14.4559 147.358 14.3119 147.502 14.3119H149.542C149.71 14.3119 149.866 14.4199 149.926 14.5759L152.098 20.3719C152.122 20.4559 152.242 20.4559 152.266 20.3719L154.45 14.5759C154.51 14.4199 154.666 14.3119 154.834 14.3119H156.874C157.018 14.3119 157.102 14.4559 157.054 14.5759ZM164.783 23.6719H158.171C158.015 23.6719 157.883 23.5399 157.883 23.3839V14.5999C157.883 14.4439 158.015 14.3119 158.171 14.3119H164.783C164.939 14.3119 165.071 14.4439 165.071 14.5999V16.3519C165.071 16.5079 164.939 16.6399 164.783 16.6399H160.523C160.391 16.6399 160.283 16.7479 160.283 16.8799V17.7439C160.283 17.8759 160.391 17.9839 160.523 17.9839H163.931C164.087 17.9839 164.219 18.1159 164.219 18.2719V19.8679C164.219 20.0239 164.087 20.1559 163.931 20.1559H160.523C160.391 20.1559 160.283 20.2639 160.283 20.3959V21.1159C160.283 21.2479 160.391 21.3559 160.523 21.3559H164.783C164.939 21.3559 165.071 21.4879 165.071 21.6439V23.3839C165.071 23.5399 164.939 23.6719 164.783 23.6719ZM166.239 23.3839V14.5999C166.239 14.4439 166.371 14.3119 166.527 14.3119H170.811C173.211 14.3119 174.315 15.8719 174.315 17.7319C174.315 18.9679 173.799 20.1199 172.683 20.7319C172.563 20.7919 172.539 20.9359 172.611 21.0439L174.327 23.4319C174.399 23.5399 174.327 23.6719 174.207 23.6719H171.915C171.735 23.6719 171.567 23.5759 171.459 23.4319L169.995 21.3559C169.911 21.2359 169.755 21.1639 169.611 21.1639H168.867C168.735 21.1639 168.627 21.2719 168.627 21.4039V23.3839C168.627 23.5399 168.495 23.6719 168.339 23.6719H166.527C166.371 23.6719 166.239 23.5399 166.239 23.3839ZM171.999 17.7559C171.999 17.0359 171.639 16.4959 170.679 16.4959H168.867C168.735 16.4959 168.627 16.6039 168.627 16.7359V18.7519C168.627 18.8839 168.735 18.9919 168.867 18.9919H170.679C171.639 18.9919 171.999 18.4039 171.999 17.7559ZM174.326 14.3119H176.57C176.75 14.3119 176.918 14.4079 177.002 14.5639L178.802 17.5039C178.85 17.5999 178.994 17.5999 179.042 17.5039L180.842 14.5519C180.938 14.4079 181.106 14.3119 181.286 14.3119H183.542C183.674 14.3119 183.746 14.4439 183.674 14.5519L180.254 20.0359C180.17 20.1559 180.122 20.3359 180.122 20.4799V23.3839C180.122 23.5399 179.99 23.6719 179.834 23.6719H178.022C177.866 23.6719 177.734 23.5399 177.734 23.3839V20.4799C177.734 20.3359 177.686 20.1559 177.602 20.0359L174.194 14.5519C174.122 14.4439 174.194 14.3119 174.326 14.3119Z" fill="#877B6F"/>
</svg>
