<svg width="32" height="33" viewBox="0 0 32 33" fill="none" xmlns="http://www.w3.org/2000/svg">
<path d="M31.355 1.53502L27.4325 3.00002H4.5675L0.645 1.53502C0.583452 1.51177 0.51792 1.50089 0.45216 1.50302C0.386401 1.50514 0.321706 1.52022 0.261786 1.54739C0.201865 1.57456 0.147897 1.6133 0.102974 1.66137C0.0580518 1.70944 0.0230584 1.7659 0 1.82752L0.045 27.015C0.118119 27.1244 0.230161 27.2018 0.358338 27.2316C0.486515 27.2613 0.6212 27.2411 0.735 27.175L4.62 24.75H5.75L5.25 26.0775C5.22239 26.1741 5.21224 26.2749 5.22 26.375V28.125C5.22 28.3902 5.32536 28.6446 5.51289 28.8321C5.70043 29.0197 5.95478 29.125 6.22 29.125H6.47V30C6.47 30.3978 6.62804 30.7794 6.90934 31.0607C7.19064 31.342 7.57218 31.5 7.97 31.5C8.36782 31.5 8.74936 31.342 9.03066 31.0607C9.31196 30.7794 9.47 30.3978 9.47 30V29.125H16.5V30C16.5 30.3978 16.658 30.7794 16.9393 31.0607C17.2206 31.342 17.6022 31.5 18 31.5C18.3978 31.5 18.7794 31.342 19.0607 31.0607C19.342 30.7794 19.5 30.3978 19.5 30V29.125H19.75C20.0152 29.125 20.2696 29.0197 20.4571 28.8321C20.6446 28.6446 20.75 28.3902 20.75 28.125V26.375C20.7579 26.2749 20.7477 26.1741 20.72 26.0775L20.25 24.75H21.25V25.5C21.25 25.7652 21.3554 26.0196 21.5429 26.2071C21.7304 26.3947 21.9848 26.5 22.25 26.5H24.75C25.0152 26.5 25.2696 26.3947 25.4571 26.2071C25.6446 26.0196 25.75 25.7652 25.75 25.5V24.75H27.36L31.245 27.175C31.47 27.315 31.98 27.2775 31.98 27V1.82752C32 1.55002 31.615 1.43752 31.355 1.53502ZM8.485 30C8.485 30.1326 8.43232 30.2598 8.33855 30.3536C8.24479 30.4473 8.11761 30.5 7.985 30.5C7.85239 30.5 7.72521 30.4473 7.63145 30.3536C7.53768 30.2598 7.485 30.1326 7.485 30V29.125H8.485V30ZM18.5 30C18.5 30.1326 18.4473 30.2598 18.3536 30.3536C18.2598 30.4473 18.1326 30.5 18 30.5C17.8674 30.5 17.7402 30.4473 17.6464 30.3536C17.5527 30.2598 17.5 30.1326 17.5 30V29.125H18.5V30ZM6.4475 25.75L7.7325 22.25H8.9825V22.75C8.9825 22.8826 9.03518 23.0098 9.12895 23.1036C9.22271 23.1973 9.34989 23.25 9.4825 23.25H12C12.1326 23.25 12.2598 23.1973 12.3536 23.1036C12.4473 23.0098 12.5 22.8826 12.5 22.75V22.25H13.5V22.75C13.5 22.8826 13.5527 23.0098 13.6464 23.1036C13.7402 23.1973 13.8674 23.25 14 23.25H16.5C16.6326 23.25 16.7598 23.1973 16.8536 23.1036C16.9473 23.0098 17 22.8826 17 22.75V22.25H18.25L19.535 25.75H6.4475ZM16.5 20.25H14C13.8674 20.25 13.7402 20.3027 13.6464 20.3965C13.5527 20.4902 13.5 20.6174 13.5 20.75V21.25H12.5V20.75C12.5 20.6174 12.4473 20.4902 12.3536 20.3965C12.2598 20.3027 12.1326 20.25 12 20.25H9.5C9.36739 20.25 9.24021 20.3027 9.14645 20.3965C9.05268 20.4902 9 20.6174 9 20.75V21.25H8V19.25H18V21.25H17V20.75C17 20.6174 16.9473 20.4902 16.8536 20.3965C16.7598 20.3027 16.6326 20.25 16.5 20.25ZM22.25 22.75V21.75H24.75V22.75H22.25ZM27 23.75H25.75V21.75C25.75 21.4848 25.6446 21.2305 25.4571 21.0429C25.2696 20.8554 25.0152 20.75 24.75 20.75H24V20H25.5C25.5851 20 25.6688 19.9782 25.7431 19.9368C25.8175 19.8954 25.88 19.8357 25.9248 19.7633C25.9696 19.691 25.9952 19.6084 25.9992 19.5234C26.0032 19.4384 25.9854 19.3537 25.9475 19.2775L24.6975 16.7775C24.6575 16.6968 24.5964 16.6284 24.5207 16.5796C24.445 16.5307 24.3575 16.5033 24.2675 16.5H22.75C22.657 16.5001 22.5658 16.5261 22.4868 16.5751C22.4077 16.6241 22.3439 16.6942 22.3025 16.7775L21.0525 19.2775C21.0146 19.3537 20.9968 19.4384 21.0008 19.5234C21.0048 19.6084 21.0304 19.691 21.0752 19.7633C21.12 19.8357 21.1825 19.8954 21.2569 19.9368C21.3312 19.9782 21.4149 20 21.5 20H23V20.75H22.25C21.9848 20.75 21.7304 20.8554 21.5429 21.0429C21.3554 21.2305 21.25 21.4848 21.25 21.75V23.75H19.875L19.0775 21.5775C19.06 21.5308 19.0355 21.487 19.005 21.4475V19.25C19.005 18.9848 18.8996 18.7305 18.7121 18.5429C18.5246 18.3554 18.2702 18.25 18.005 18.25H7.985C7.71978 18.25 7.46543 18.3554 7.27789 18.5429C7.09036 18.7305 6.985 18.9848 6.985 19.25V21.4475C6.95448 21.487 6.93005 21.5308 6.9125 21.5775L6.1125 23.75H4.9775V4.00002H27.02L27 23.75ZM22.32 19L23.07 17.5H23.9575L24.7075 19H22.32Z" fill="white"/>
<path d="M10 9.5H11.6425L11.7125 9.75C11.7679 9.96453 11.893 10.1546 12.0681 10.2903C12.2432 10.4261 12.4584 10.4998 12.68 10.5H19.3325C19.5541 10.4998 19.7693 10.4261 19.9444 10.2903C20.1195 10.1546 20.2446 9.96453 20.3 9.75L20.37 9.5H22C22.1326 9.5 22.2598 9.44732 22.3536 9.35355C22.4473 9.25979 22.5 9.13261 22.5 9V5.5C22.5 5.36739 22.4473 5.24021 22.3536 5.14645C22.2598 5.05268 22.1326 5 22 5H10C9.86739 5 9.74021 5.05268 9.64645 5.14645C9.55268 5.24021 9.5 5.36739 9.5 5.5V9C9.5 9.13261 9.55268 9.25979 9.64645 9.35355C9.74021 9.44732 9.86739 9.5 10 9.5ZM19.615 8.5L19.345 9.5H12.6675L12.395 8.5H19.615Z" fill="white"/>
</svg>
