<svg width="106" height="34" viewBox="0 0 106 34" fill="none" xmlns="http://www.w3.org/2000/svg">
<g clip-path="url(#clip0_107_45579)">
<path d="M54.4658 10.1934L57.5523 7.09766V14.9011L54.4658 17.9969V10.1934Z" fill="#C11D06"/>
<path d="M41.6689 13.2405L44.7553 10.1445V14.9008L41.6689 17.9971V13.2405Z" fill="#C11D06"/>
<path d="M45.4287 8.50467L49.2784 4.6875V14.1797L45.4287 17.9969V8.50467Z" fill="#C11D06"/>
<path d="M49.9434 3.99407L53.7932 0.144531V14.1465L49.9434 17.9959V3.99407Z" fill="#C11D06"/>
<path d="M14.8938 20.1641H11.7452L10.358 26.2739H10.327L8.93962 20.1641H6.30551L4.88741 26.2739H4.85593L3.50007 20.1641H0.367188L3.15726 31.2926H6.27417L7.59928 25.4477H7.63033L8.98648 31.2926H12.0101L14.8938 20.1641Z" fill="black"/>
<path fill-rule="evenodd" clip-rule="evenodd" d="M15.2061 31.2926H18.2921V23.2032H15.2061V31.2926ZM18.2921 20.1641H15.2061V22.3306H18.2921V20.1641Z" fill="black"/>
<path fill-rule="evenodd" clip-rule="evenodd" d="M22.0952 26.3357C22.2356 25.4626 22.7656 24.9797 23.6852 24.9797C24.4802 24.9797 25.0411 25.5874 25.0411 26.3357H22.0952ZM28.0025 27.9409C28.0025 24.7924 26.6156 23 23.4045 23C20.8483 23 19.1338 24.9172 19.1338 27.2707C19.1338 29.9669 21.0821 31.4947 23.6694 31.4947C25.5085 31.4947 27.2076 30.6841 27.831 28.9385H24.9475C24.6981 29.3283 24.1526 29.515 23.654 29.515C22.6877 29.515 22.1576 28.8604 22.0797 27.9409H28.0025Z" fill="black"/>
<path d="M28.8916 31.2919H31.9781V27.0213C31.9781 25.7278 32.6793 25.4625 33.2092 25.4625C34.1133 25.4625 34.2224 26.1172 34.2224 27.0522V31.2919H37.3087V25.7434C37.3087 23.8883 35.9839 23 34.534 23C33.3027 23 32.4767 23.421 31.9002 24.2311H31.869V23.2025H28.8916V31.2919Z" fill="black"/>
<path fill-rule="evenodd" clip-rule="evenodd" d="M41.0581 26.3357C41.1981 25.4626 41.7282 24.9797 42.6478 24.9797C43.4425 24.9797 44.004 25.5874 44.004 26.3357H41.0581ZM46.9654 27.9409C46.9654 24.7924 45.578 23 42.3671 23C39.8112 23 38.0967 24.9172 38.0967 27.2707C38.0967 29.9669 40.045 31.4947 42.6321 31.4947C44.4715 31.4947 46.1703 30.6841 46.7937 28.9385H43.9101C43.661 29.3283 43.1154 29.515 42.6165 29.515C41.6501 29.515 41.1203 28.8604 41.0424 27.9409H46.9654Z" fill="black"/>
<path d="M47.7248 31.2917H50.8108V28.0967C50.8108 26.3664 51.4656 25.6498 52.6812 25.6498C53.3046 25.6498 53.4137 25.7119 53.7255 25.8053V23.0779C53.4604 23 53.3045 23 52.9927 23C51.8705 23 51.216 23.5298 50.7172 24.4964H50.6862V23.2025H47.7246V31.2917H47.7248Z" fill="black"/>
<path fill-rule="evenodd" clip-rule="evenodd" d="M60.1554 27.2404C60.1554 28.2064 59.9058 29.2511 58.7993 29.2511C57.6926 29.2511 57.4433 28.2065 57.4433 27.2404C57.4433 26.2892 57.6926 25.2453 58.7993 25.2453C59.9058 25.2453 60.1554 26.2892 60.1554 27.2404ZM54.466 31.2926H57.4433V30.4044H57.4745C57.8643 30.9187 58.3316 31.4954 59.8434 31.4954C62.1347 31.4954 63.2412 29.2354 63.2412 27.2089C63.2412 25.3074 62.5086 23.0007 59.7967 23.0007C58.8771 23.0007 58.0509 23.406 57.5832 24.0918H57.5523V20.1641H54.4658V31.2926H54.466Z" fill="black"/>
<path fill-rule="evenodd" clip-rule="evenodd" d="M66.8024 26.3357C66.9424 25.4626 67.4725 24.9797 68.3921 24.9797C69.187 24.9797 69.7481 25.5874 69.7481 26.3357H66.8024ZM72.7096 27.9409C72.7096 24.7924 71.322 23 68.1115 23C65.5555 23 63.8408 24.9172 63.8408 27.2707C63.8408 29.9669 65.789 31.4947 68.3763 31.4947C70.2158 31.4947 71.9146 30.6841 72.5379 28.9385H69.6542C69.4051 29.3283 68.8595 29.515 68.3608 29.515C67.3946 29.515 66.8645 28.8604 66.7866 27.9409H72.7096Z" fill="black"/>
<path d="M73.5001 31.2917H76.5863V28.0967C76.5863 26.3664 77.241 25.6498 78.4565 25.6498C79.0801 25.6498 79.1891 25.7119 79.5008 25.8053V23.0779C79.2359 23 79.08 23 78.7682 23C77.6462 23 76.9914 23.5298 76.4927 24.4964H76.4613V23.2025H73.5V31.2917H73.5001Z" fill="black"/>
<path fill-rule="evenodd" clip-rule="evenodd" d="M83.0322 26.8498C83.0322 25.9926 83.4688 25.2446 84.3417 25.2446C85.2454 25.2446 85.6822 25.9459 85.6822 26.8343C85.6822 27.7384 85.5572 28.7046 84.4197 28.7046C83.3129 28.7046 83.0322 27.7695 83.0322 26.8498ZM88.6904 23.2025H85.6043V24.1847H85.5728C85.2145 23.3585 84.3573 23 83.4533 23C81.1465 23 79.9463 24.7612 79.9463 26.8654C79.9463 29.0317 81.0217 30.684 83.4062 30.684C84.3262 30.684 85.0739 30.2787 85.5727 29.562H85.6042V30.3101C85.6042 30.9802 85.3857 32.1649 84.3882 32.1649C83.7645 32.1649 83.406 31.8999 83.3127 31.2919H80.258C80.5385 33.4744 82.5646 33.9885 84.4816 33.9885C88.2693 33.9885 88.6902 31.7285 88.6902 30.1229V23.2025H88.6904Z" fill="black"/>
<path fill-rule="evenodd" clip-rule="evenodd" d="M92.4431 26.3357C92.5834 25.4626 93.1132 24.9797 94.0326 24.9797C94.8277 24.9797 95.3889 25.5874 95.3889 26.3357H92.4431ZM98.3504 27.9409C98.3504 24.7924 96.9631 23 93.7524 23C91.1958 23 89.4814 24.9172 89.4814 27.2707C89.4814 29.9669 91.4296 31.4947 94.0173 31.4947C95.856 31.4947 97.5553 30.6841 98.1788 28.9385H95.2953C95.0458 29.3283 94.5001 29.515 94.0018 29.515C93.0352 29.515 92.5054 28.8604 92.4275 27.9409H98.3504Z" fill="black"/>
<path d="M99.1242 31.2917H102.21V28.0967C102.21 26.3664 102.865 25.6498 104.08 25.6498C104.704 25.6498 104.813 25.7119 105.125 25.8053V23.0779C104.86 23 104.704 23 104.392 23C103.27 23 102.615 23.5298 102.117 24.4964H102.085V23.2025H99.124V31.2917H99.1242Z" fill="black"/>
</g>
<defs>
<clipPath id="clip0_107_45579">
<rect width="104.957" height="34" fill="white" transform="translate(0.300781)"/>
</clipPath>
</defs>
</svg>
