<svg xmlns="http://www.w3.org/2000/svg" width="151" height="118.273" viewBox="0 0 151 118.273"><path d="M0,461.052a.78.78,0,0,0,.776.776H150.224a.78.78,0,0,0,.776-.776v-2.077a.78.78,0,0,0-.776-.776H.776a.78.78,0,0,0-.776.776Z" transform="translate(0 -343.555)" fill="#fff"/><path d="M0,2.852a.78.78,0,0,0,.776.776H150.224A.78.78,0,0,0,151,2.852V.776A.78.78,0,0,0,150.224,0H.776A.78.78,0,0,0,0,.776Z" fill="#ffc805"/><path d="M127.43,98.276c13.536,0,23.57-6.08,23.57-17.64,0-12.986-13.987-17.865-22.193-20.742-7.056-2.427-9.808-3.653-9.808-6,0-1.977,2.052-4.028,7.231-4.028,5,0,7.907,2.277,8.807,4.779a2.462,2.462,0,0,0,2.577,2.052h10.559a2.1,2.1,0,0,0,1.977-2.127C149.4,43.931,139.741,36.7,125.9,36.7c-13.536,0-23.169,7.056-23.169,18.39,0,12.235,12.385,16.789,21.818,19.916,7.156,2.427,10.108,3.953,10.108,6.455,0,1.751-1.827,3.653-7.531,3.653-5.329,0-8.432-1.827-9.508-3.8-.9-1.6-1.3-1.977-3.028-1.977H104.336a2.1,2.1,0,0,0-1.977,2.127c1.076,10.884,11.635,16.814,25.071,16.814M83.97,74.932c0,7.056-3.028,8.657-7.456,8.657-3.953,0-7.531-1.6-7.531-8.657V71.8a1.853,1.853,0,0,0-1.827-1.827H55.6A1.853,1.853,0,0,0,53.77,71.8v3.353c0,15.888,10.859,23.094,22.719,23.094,12.31,0,22.569-7.231,22.569-23.094V39.677a1.853,1.853,0,0,0-1.827-1.827H85.746a1.853,1.853,0,0,0-1.826,1.827V74.932ZM33.353,56.391c0,2.8-1.526,4.7-5.63,4.7H16.714a1.532,1.532,0,0,1-1.526-1.526v-6.38a1.532,1.532,0,0,1,1.526-1.526h11.86c3.2.025,4.779,1.927,4.779,4.729M36.03,78.059c0,3.128-1.526,5.329-5.63,5.329H16.714a1.532,1.532,0,0,1-1.526-1.526V74.481a1.532,1.532,0,0,1,1.526-1.526H30.4c4.1,0,5.63,2.052,5.63,5.1M32.077,97.125c12.01,0,19.291-6.906,19.291-16.714,0-6.38-3.278-10.709-8.507-13.136a.772.772,0,0,1-.075-1.376,13.391,13.391,0,0,0,5.93-11.71c0-9.433-6.455-16.339-19.216-16.339H1.827A1.853,1.853,0,0,0,0,39.677V95.3a1.853,1.853,0,0,0,1.827,1.826h30.25Z" transform="translate(0 -27.517)" fill="#ffc805"/><path d="M19.416,316.835H10.008v6.906h9.408a.994.994,0,0,0,.976-.976v-4.929a1,1,0,0,0-.976-1M1.276,336.251H8.482v-8.707h0v-2.452h0V316.06h0v-2.952h0V304.35H1.276a.994.994,0,0,0-.976.976V335.3a.989.989,0,0,0,.976.951M24.82,311.281V305.3a.994.994,0,0,0-.976-.976H10.008v7.932H23.844a.994.994,0,0,0,.976-.976m0,23.995v-5.93a.994.994,0,0,0-.976-.976H10.008v7.881H23.844a.994.994,0,0,0,.976-.976M36.13,321.589l-9.483,13.836a.515.515,0,0,0,.4.826h7.982a1.865,1.865,0,0,0,1.526-.826l4.479-6.58Zm20.892-16.464a.549.549,0,0,0-.45-.826H48.865a1.945,1.945,0,0,0-1.551.826l-4.479,6.555,4.879,7.156Zm.3,30.525L36.355,304.925a1.88,1.88,0,0,0-1.351-.6H27.3a.549.549,0,0,0-.45.826l18.841,27.923,1.626,2.377a1.831,1.831,0,0,0,1.526.826h7.982a.547.547,0,0,0,.5-.625m2.152-23.394H66.93v-7.932H59.474a.994.994,0,0,0-.976.976v5.98a.961.961,0,0,0,.976.976m17.139,23.019V304.325H68.431v8.757h0v22.193a.994.994,0,0,0,.976.976h6.23a.994.994,0,0,0,.976-.976m9.958-23.995V305.3a.994.994,0,0,0-.976-.976H78.139v7.932H85.6a.994.994,0,0,0,.976-.976M96.83,328.52h0v-9.057h0v-6.881h0v-8.257H89.674a.994.994,0,0,0-.976.976v29.975a.994.994,0,0,0,.976.976h6.18a.994.994,0,0,0,.976-.976Zm19.466,6.906-5.855-8.157a.718.718,0,0,1,.25-1.076c3.8-2.077,5.58-6.03,5.58-10.233,0-6.355-3.778-11.66-11.96-11.66h-5.93v7.456h5.48c3.278,0,4.5,1.852,4.5,4.3,0,2.2-1.226,4.229-4.5,4.229h-5.48v7.406h1.827a1.623,1.623,0,0,1,1.3.651l5,7.081a1.982,1.982,0,0,0,1.551.826H115.9a.522.522,0,0,0,.4-.826m34.829-.075-12.16-30.125a1.483,1.483,0,0,0-1.351-.9h-6.13a1.483,1.483,0,0,0-1.351.9l-12.21,30.125a.658.658,0,0,0,.626.9H125.5a1.414,1.414,0,0,0,1.3-.9l.7-1.852,3.778-10.083v-.025l2.952-7.832a.3.3,0,0,1,.575,0l2.9,7.832a.574.574,0,0,1-.525.776h-4.554l-2.777,7.406h10.133a1.167,1.167,0,0,1,1.1.776l1.151,2.977a1.414,1.414,0,0,0,1.3.9H150.5a.634.634,0,0,0,.626-.876" transform="translate(-0.225 -228.162)" fill="#fff"/></svg>