<svg xmlns="http://www.w3.org/2000/svg" width="152.776" height="92.135" viewBox="0 0 152.776 92.135"><path d="M151.71,236.23a.714.714,0,0,0,.708-.708v-4.214a.714.714,0,0,0-.708-.708H141.383a.576.576,0,0,1-.579-.579v-1.737a.576.576,0,0,1,.579-.579h8.268a.714.714,0,0,0,.708-.708v-3.86a.714.714,0,0,0-.708-.708h-8.268a.576.576,0,0,1-.579-.579v-2.091a.576.576,0,0,1,.579-.579H151.71a.714.714,0,0,0,.708-.708v-4.246a.714.714,0,0,0-.708-.708H135.689a.714.714,0,0,0-.708.708V235.49a.714.714,0,0,0,.708.708H151.71Zm-24.771-8.4a.322.322,0,0,1,.29.29v.1a1.071,1.071,0,0,1-.161.483,5.849,5.849,0,0,1-4.665,2.348,6.177,6.177,0,1,1,4.375-10.552.8.8,0,0,0,1.062.129l3.571-2.413a.663.663,0,0,0,.129-.933,12.225,12.225,0,0,0-9.168-4.182,11.777,11.777,0,1,0,0,23.549,7.27,7.27,0,0,0,5.372-2.091.2.2,0,0,1,.354.129v.836a.714.714,0,0,0,.708.708h3.153a.714.714,0,0,0,.708-.708V223.684a.714.714,0,0,0-.708-.708h-9.522a.714.714,0,0,0-.708.708v3.442a.714.714,0,0,0,.708.708Zm-29.082-.161a.425.425,0,0,1-.386-.547l2.091-5.565a.222.222,0,0,1,.418,0l2.059,5.565a.409.409,0,0,1-.386.547Zm-9.876,7.946a.47.47,0,0,0,.45.643h4.954a1.01,1.01,0,0,0,.933-.643l.8-2.123a.869.869,0,0,1,.772-.547h7.753a.8.8,0,0,1,.772.547l.8,2.123a1.01,1.01,0,0,0,.933.643h4.954a.486.486,0,0,0,.45-.643l-8.622-21.425a1.055,1.055,0,0,0-.965-.643H97.6a1.055,1.055,0,0,0-.965.643Zm-2.348.611a.714.714,0,0,0,.708-.708v-4.214a.714.714,0,0,0-.708-.708H76.046a.576.576,0,0,1-.579-.579v-15.8a.714.714,0,0,0-.708-.708H70.384a.714.714,0,0,0-.708.708V235.49a.714.714,0,0,0,.708.708H85.633Zm-24.16-10.262c0,3.281-1.609,5.083-4.665,5.083s-4.6-1.8-4.6-5.083v-11.71a.714.714,0,0,0-.708-.708H47.093a.714.714,0,0,0-.708.708v12.064c0,5.855,3.6,10.359,10.391,10.359s10.423-4.5,10.423-10.359V214.258a.714.714,0,0,0-.708-.708H62.116a.714.714,0,0,0-.708.708v11.71Zm-28.245,1.705a.425.425,0,0,1-.386-.547l2.091-5.565a.222.222,0,0,1,.418,0l2.059,5.565a.409.409,0,0,1-.386.547Zm-9.876,7.946a.47.47,0,0,0,.45.643h4.954a1.01,1.01,0,0,0,.933-.643l.8-2.123a.869.869,0,0,1,.772-.547h7.753a.8.8,0,0,1,.772.547l.8,2.123a1.01,1.01,0,0,0,.933.643h4.954a.486.486,0,0,0,.45-.643l-8.654-21.425a1.055,1.055,0,0,0-.965-.643H32.938a1.055,1.055,0,0,0-.965.643Zm-7.528-13.833a.576.576,0,0,1-.579.579H7.17a.576.576,0,0,1-.579-.579v-7.528a.714.714,0,0,0-.708-.708H1.508a.714.714,0,0,0-.708.708v21.264a.714.714,0,0,0,.708.708H5.883a.714.714,0,0,0,.708-.708v-7.142a.576.576,0,0,1,.579-.579h8.075a.576.576,0,0,1,.579.579v7.142a.714.714,0,0,0,.708.708h4.407a.714.714,0,0,0,.708-.708V214.258a.714.714,0,0,0-.708-.708H16.531a.714.714,0,0,0-.708.708Z" transform="translate(-0.543 -144.545)" fill="#feba30"/><path d="M128.938,62.249c13.672,0,23.838-6.144,23.838-17.822,0-13.158-14.155-18.08-22.455-20.975-7.142-2.445-9.908-3.7-9.908-6.08,0-1.995,2.091-4.086,7.3-4.086,5.083,0,8.01,2.316,8.911,4.858a2.5,2.5,0,0,0,2.606,2.091h10.68a2.1,2.1,0,0,0,1.995-2.155C151.135,7.3,141.388,0,127.394,0c-13.672,0-23.452,7.142-23.452,18.594,0,12.385,12.546,16.986,22.069,20.138,7.238,2.445,10.23,3.989,10.23,6.531,0,1.769-1.834,3.7-7.624,3.7-5.372,0-8.525-1.834-9.619-3.828-.933-1.609-1.319-1.995-3.088-1.995H105.518a2.1,2.1,0,0,0-1.995,2.155c1.126,10.938,11.806,16.954,25.414,16.954M84.961,38.636c0,7.142-3.088,8.75-7.528,8.75-3.989,0-7.624-1.609-7.624-8.75V35.484a1.853,1.853,0,0,0-1.834-1.834H56.3a1.853,1.853,0,0,0-1.834,1.834v3.378c0,16.053,11,23.355,23,23.355,12.45,0,22.841-7.3,22.841-23.355V2.96a1.853,1.853,0,0,0-1.834-1.834H86.859A1.853,1.853,0,0,0,85.026,2.96V38.636ZM33.746,19.881c0,2.831-1.544,4.761-5.694,4.761H16.889A1.567,1.567,0,0,1,15.345,23.1V16.632a1.567,1.567,0,0,1,1.544-1.544h12c3.249.032,4.858,1.962,4.858,4.793m2.7,21.908c0,3.153-1.544,5.372-5.694,5.372H16.921a1.567,1.567,0,0,1-1.544-1.544V38.154a1.567,1.567,0,0,1,1.544-1.544H30.755c4.15.032,5.694,2.091,5.694,5.179m-3.989,19.3c12.16,0,19.527-6.981,19.527-16.921,0-6.466-3.314-10.841-8.622-13.286A.769.769,0,0,1,43.3,29.5a13.524,13.524,0,0,0,5.984-11.839c0-9.522-6.531-16.535-19.463-16.535H1.834A1.853,1.853,0,0,0,0,2.96V59.225a1.853,1.853,0,0,0,1.834,1.834H32.46Z" transform="translate(0)" fill="#fff"/></svg>