<svg width="146" height="13" viewBox="0 0 146 13" fill="none" xmlns="http://www.w3.org/2000/svg">
<g clip-path="url(#clip0_107_45650)">
<path d="M0 5.9999C0 4.5226 0.541507 3.2529 1.62508 2.19276C2.7041 1.13196 4.00045 0.601562 5.5142 0.601562C7.00972 0.601562 8.29241 1.13652 9.36232 2.20642C10.4368 3.27633 10.9737 4.561 10.9737 6.06108C10.9737 7.57027 10.4343 8.85104 9.35589 9.90272C8.27231 10.959 6.96482 11.4868 5.43285 11.4868C4.07789 11.4868 2.86092 11.0175 1.7819 10.0791C0.593549 9.04107 0 7.68156 0 5.9999ZM1.59775 6.02008C1.59775 7.18045 1.98758 8.13451 2.76723 8.88227C3.54232 9.63004 4.43779 10.0042 5.45303 10.0042C6.55417 10.0042 7.48348 9.62353 8.24035 8.8621C8.99723 8.09156 9.37606 7.15311 9.37606 6.04741C9.37606 4.92805 9.00178 3.9896 8.25402 3.23273C7.51081 2.4713 6.59062 2.09058 5.49338 2.09058C4.40135 2.09058 3.47855 2.4713 2.72623 3.23273C1.97392 3.98504 1.59775 4.91438 1.59775 6.02008Z" fill="black"/>
<path d="M18.8605 0.800781V9.80908H21.9471V11.2981H17.2764V0.800781H18.8605Z" fill="black"/>
<path d="M29.3301 0.800781V11.2981H27.7461V0.800781H29.3301Z" fill="black"/>
<path d="M36.6791 0.800781L39.5822 8.07536L42.5265 0.800781H44.2601L39.5484 12.0869L34.9453 0.800781H36.6791Z" fill="black"/>
<path d="M55.6492 2.28915H51.4405V4.81163H55.5268V6.30065H51.4405V9.80908H55.6492V11.2981H49.8564V0.800781H55.6492V2.28915Z" fill="black"/>
<path d="M65.5953 6.82454L68.8453 11.2981H66.908L63.9097 7.0009H63.624V11.2981H62.04V0.800781H63.8961C65.2829 0.800781 66.2845 1.0611 66.9015 1.58239C67.5815 2.16224 67.9213 2.92888 67.9213 3.88034C67.9213 4.62355 67.7084 5.26263 67.2821 5.79758C66.8552 6.33253 66.293 6.67485 65.5953 6.82454ZM63.6234 5.62122H64.1264C65.6265 5.62122 66.3769 5.04787 66.3769 3.90117C66.3769 2.8267 65.6473 2.2898 64.1876 2.2898H63.6234V5.62122Z" fill="black"/>
<path d="M79.0098 11.2981V0.800781H80.5873C81.2902 0.800781 81.8499 0.855448 82.2664 0.96413C82.6881 1.07281 83.0434 1.25634 83.3337 1.5147C83.6285 1.78218 83.8614 2.11539 84.0339 2.51432C84.2109 2.91782 84.2988 3.32586 84.2988 3.73782C84.2988 4.49013 84.0112 5.12726 83.4352 5.64855C83.9929 5.83923 84.4322 6.17179 84.7543 6.64817C85.0804 7.11934 85.2437 7.66796 85.2437 8.29338C85.2437 9.11403 84.9535 9.80713 84.3737 10.374C84.0248 10.7228 83.6324 10.9655 83.1977 11.1016C82.7219 11.233 82.1258 11.2987 81.4093 11.2987L79.0098 11.2981ZM80.5938 5.30818H81.0904C81.6793 5.30818 82.1102 5.17933 82.3822 4.92096C82.6588 4.65804 82.7967 4.27277 82.7967 3.76515C82.7967 3.2712 82.6562 2.89699 82.375 2.64318C82.0939 2.38481 81.6858 2.25596 81.1515 2.25596H80.5938V5.30818ZM80.5938 9.80908H81.5726C82.2885 9.80908 82.8143 9.66851 83.1502 9.38736C83.5035 9.08344 83.6805 8.69817 83.6805 8.23155C83.6805 7.7786 83.5107 7.39723 83.171 7.08941C82.8404 6.78549 82.2488 6.63385 81.3962 6.63385H80.5938V9.80908Z" fill="black"/>
<path d="M91.0234 5.9999C91.0234 4.5226 91.5649 3.2529 92.6485 2.19276C93.7275 1.13196 95.0239 0.601562 96.5376 0.601562C98.0332 0.601562 99.3159 1.13652 100.386 2.20642C101.46 3.27633 101.997 4.561 101.997 6.06108C101.997 7.57027 101.458 8.85104 100.379 9.90272C99.2958 10.959 97.9883 11.4868 96.4563 11.4868C95.1013 11.4868 93.8844 11.0175 92.8053 10.0791C91.617 9.04107 91.0234 7.68156 91.0234 5.9999ZM92.6212 6.02008C92.6212 7.18045 93.011 8.13451 93.7907 8.88227C94.5658 9.63004 95.4612 10.0042 96.4765 10.0042C97.5776 10.0042 98.507 9.62353 99.2639 8.8621C100.021 8.09156 100.4 7.15311 100.4 6.04741C100.4 4.92805 100.025 3.9896 99.2775 3.23273C98.5343 2.4713 97.6141 2.09058 96.5168 2.09058C95.4248 2.09058 94.502 2.4713 93.7497 3.23273C92.9974 3.98504 92.6212 4.91438 92.6212 6.02008Z" fill="black"/>
<path d="M108.299 11.2972V0.0859375L115.954 8.09527V0.799859H117.538V11.9363L109.883 3.94775V11.2972H108.299Z" fill="black"/>
<path d="M130.511 8.74803H126.016L124.847 11.2978H123.141L128.335 0.140625L133.346 11.2978H131.612L130.511 8.74803ZM129.865 7.25902L128.308 3.68941L126.676 7.25902H129.865Z" fill="black"/>
<path d="M144.884 2.36196L143.599 3.12339C143.359 2.70623 143.13 2.4342 142.913 2.30729C142.686 2.16217 142.394 2.08993 142.035 2.08993C141.595 2.08993 141.231 2.21488 140.941 2.46413C140.651 2.70883 140.505 3.01731 140.505 3.38891C140.505 3.90109 140.886 4.31369 141.648 4.62607L142.695 5.0543C143.547 5.39857 144.17 5.82028 144.564 6.31879C144.959 6.81274 145.156 7.41993 145.156 8.14101C145.156 9.10614 144.834 9.90402 144.19 10.534C143.542 11.1685 142.738 11.4861 141.776 11.4861C140.865 11.4861 140.113 11.2167 139.519 10.6772C138.935 10.1377 138.57 9.37882 138.425 8.39938L140.03 8.046C140.102 8.6623 140.229 9.08857 140.41 9.32416C140.736 9.77711 141.213 10.0042 141.838 10.0042C142.332 10.0042 142.742 9.83894 143.069 9.50768C143.396 9.17643 143.558 8.75732 143.558 8.2497C143.558 8.046 143.529 7.85987 143.47 7.69197C143.416 7.51951 143.327 7.36331 143.205 7.22274C143.087 7.07762 142.933 6.9442 142.743 6.82185C142.553 6.69495 142.326 6.57455 142.063 6.46131L141.049 6.0396C139.612 5.43241 138.894 4.54407 138.894 3.37459C138.894 2.58583 139.195 1.92658 139.799 1.39618C140.401 0.861226 141.152 0.59375 142.049 0.59375C143.259 0.594401 144.204 1.18402 144.884 2.36196Z" fill="black"/>
</g>
<defs>
<clipPath id="clip0_107_45650">
<rect width="145.156" height="12" fill="white" transform="translate(0 0.0859375)"/>
</clipPath>
</defs>
</svg>
