<svg width="204" height="26" viewBox="0 0 204 26" fill="none" xmlns="http://www.w3.org/2000/svg">
<g clip-path="url(#clip0_107_45344)">
<path d="M0.145996 25.8523V0.152344H204V25.8523H0.145996ZM137.858 6.09134C137.857 6.1533 137.862 6.21521 137.872 6.27634C139.133 10.2703 140.393 14.2647 141.653 18.2593C141.853 18.8833 142.341 18.5593 142.707 18.6373C143.107 18.7263 143.242 18.4813 143.346 18.1463C143.978 16.1037 144.618 14.0633 145.266 12.0253C145.638 10.8493 146.024 9.67734 146.456 8.34134C146.581 8.65434 146.645 8.78834 146.689 8.92834C147.644 11.9423 148.604 14.9563 149.544 17.9753C149.683 18.4223 149.838 18.6833 150.391 18.6603C150.911 18.6383 151.218 18.5783 151.391 17.9913C152.2 15.3043 153.07 12.6363 153.913 9.95934C154.313 8.67534 154.713 7.38734 155.13 6.04434C154.754 6.04434 154.463 6.06934 154.178 6.03834C153.816 5.99934 153.671 6.16834 153.578 6.49134C153.13 8.00834 152.667 9.52034 152.203 11.0323C151.628 12.9023 151.047 14.7703 150.435 16.7463C150.335 16.5243 150.28 16.4133 150.243 16.2953C149.243 13.0593 148.243 9.82534 147.26 6.58434C147.135 6.16934 146.96 6.00434 146.526 6.03334C146.139 6.05934 145.836 6.02834 145.688 6.53334C145.032 8.77834 144.327 11.0093 143.634 13.2433C143.282 14.3773 142.92 15.5073 142.526 16.7523C142.426 16.4993 142.371 16.3783 142.332 16.2523C141.405 13.2283 140.48 10.204 139.555 7.17934C139.18 5.95234 139.175 5.95234 137.858 6.09134ZM85.075 18.6163V8.40634C85.319 8.71534 85.459 8.88334 85.589 9.05834C87.76 11.9733 89.977 14.8583 92.073 17.8253C92.2979 18.167 92.6276 18.4265 93.0126 18.5648C93.3976 18.7031 93.8171 18.7128 94.208 18.5923V6.09234H92.837V16.3983C92.662 16.1843 92.59 16.1033 92.526 16.0173C90.326 13.0173 88.082 10.0383 85.951 6.98434C85.7426 6.59806 85.4039 6.29829 84.9951 6.13842C84.5864 5.97855 84.1342 5.96895 83.719 6.11134V18.6113L85.075 18.6163ZM174.328 8.59834L174.463 8.54234C174.572 8.67534 174.687 8.80534 174.791 8.94234C176.991 11.8933 179.231 14.8133 181.357 17.8163C181.581 18.1605 181.912 18.4221 182.299 18.5612C182.685 18.7004 183.107 18.7096 183.499 18.5873V6.09034H182.132V16.4103C181.932 16.1533 181.832 16.0353 181.744 15.9103C179.555 12.9243 177.325 9.96634 175.206 6.93134C174.991 6.56055 174.655 6.2756 174.254 6.125C173.853 5.9744 173.412 5.96745 173.006 6.10534V18.5953H174.33C174.328 15.2353 174.328 11.9173 174.328 8.59834ZM107.128 18.6253C109.291 18.6253 111.389 18.7133 113.477 18.6033C116.265 18.4563 117.723 15.7033 116.193 13.5393C115.725 13.0258 115.192 12.5757 114.608 12.2003C115.023 12 115.385 11.7038 115.663 11.3363C115.941 10.9687 116.128 10.5403 116.208 10.0863C116.325 9.59333 116.326 9.07998 116.211 8.58653C116.096 8.09309 115.868 7.63295 115.546 7.24219C115.223 6.85142 114.815 6.54064 114.352 6.33421C113.889 6.12778 113.385 6.03131 112.879 6.05234C111.653 6.01634 110.426 6.04234 109.199 6.04134H107.126C107.126 10.2673 107.126 14.4103 107.126 18.6253H107.128ZM121.261 11.7813C121.267 17.7673 125.773 19.5433 129.385 18.4953C130.729 18.049 131.878 17.1525 132.638 15.9572C133.398 14.7619 133.722 13.341 133.556 11.9343C133.558 10.8892 133.291 9.86117 132.782 8.94873C132.272 8.03628 131.537 7.27007 130.646 6.72357C129.755 6.17706 128.739 5.8686 127.694 5.82776C126.65 5.78692 125.613 6.01508 124.682 6.49034C123.648 6.92846 122.768 7.66695 122.158 8.61024C121.548 9.55354 121.236 10.6582 121.261 11.7813ZM72.046 6.08834L66.839 18.6373C67.0101 18.6258 67.1819 18.6258 67.353 18.6373C67.4886 18.682 67.6325 18.6955 67.7741 18.6769C67.9156 18.6583 68.0511 18.608 68.1706 18.5298C68.29 18.4515 68.3903 18.3474 68.4639 18.2251C68.5376 18.1028 68.5827 17.9655 68.596 17.8233C68.742 17.2453 69.051 16.7103 69.25 16.1433C69.2837 15.9936 69.3729 15.8623 69.4997 15.7758C69.6264 15.6893 69.7813 15.6541 69.933 15.6773C71.8517 15.6973 73.7703 15.6973 75.689 15.6773C75.8405 15.6503 75.9967 15.6826 76.1251 15.7675C76.2535 15.8523 76.3444 15.9833 76.379 16.1333C76.556 16.6603 76.785 17.1703 76.993 17.6873C77.426 18.7633 77.52 18.8103 78.731 18.5293C78.651 18.3203 78.578 18.1143 78.494 17.9113C77.0193 14.35 75.544 10.789 74.068 7.22834C73.533 5.94434 73.535 5.94334 72.046 6.08834ZM167.846 6.08834H159.764V18.6023H167.834V17.4103H161.134V12.8523H166.784V11.6523H161.119V7.25234H167.846C167.846 6.83534 167.846 6.48634 167.846 6.09034V6.08834ZM40.402 6.06734C40.402 6.44534 40.402 6.75534 40.402 7.06734C40.402 9.38234 40.402 11.6973 40.402 14.0123C40.4617 14.479 40.4158 14.9532 40.2677 15.3998C40.1195 15.8463 39.8729 16.2539 39.546 16.5923C38.9171 17.1184 38.1523 17.456 37.3398 17.5661C36.5273 17.6761 35.7002 17.5542 34.954 17.2143C33.462 16.6633 33.107 15.4143 33.109 13.9783C33.109 11.591 33.109 9.20334 33.109 6.81534V6.07834H31.764C31.764 9.12034 31.694 12.1283 31.792 15.1323C31.7877 15.8822 32.0403 16.611 32.508 17.1972C32.9756 17.7835 33.6299 18.1919 34.362 18.3543C35.4282 18.6544 36.5375 18.7724 37.643 18.7033C40.527 18.4553 41.776 16.9743 41.776 14.0803C41.776 11.6483 41.776 9.21501 41.776 6.78034V6.06734H40.402ZM48.602 17.4253V6.09634H47.302V18.5963H55.385V17.4253H48.602ZM17.718 17.5713C18.1534 17.8592 18.607 18.1184 19.076 18.3473C20.225 18.7935 21.4781 18.9001 22.686 18.6543C23.1946 18.6141 23.6902 18.4739 24.1445 18.2418C24.5988 18.0097 25.0028 17.6903 25.3335 17.3018C25.6642 16.9134 25.915 16.4635 26.0716 15.978C26.2282 15.4925 26.2874 14.9808 26.246 14.4723C26.2507 11.8843 26.2507 9.29668 26.246 6.70934V6.09234H24.876C24.876 7.43334 24.882 8.72634 24.876 10.0183C24.866 11.6013 24.883 13.1863 24.816 14.7663C24.8161 15.3894 24.5941 15.992 24.1897 16.466C23.7854 16.94 23.2253 17.2543 22.61 17.3523C21.8985 17.5228 21.1611 17.5568 20.437 17.4523C19.6815 17.2648 18.9451 17.0077 18.237 16.6843L17.718 17.5713ZM60.695 6.06434V18.5933H61.97V6.06434H60.695Z" fill="black"/>
<path d="M137.858 6.09027C139.175 5.95527 139.18 5.95427 139.558 7.18227C140.486 10.2056 141.412 13.2299 142.335 16.2553C142.374 16.3813 142.435 16.5033 142.529 16.7553C142.922 15.5103 143.285 14.3793 143.637 13.2463C144.33 11.0123 145.037 8.78127 145.691 6.53627C145.84 6.02727 146.142 6.05827 146.529 6.03627C146.967 6.00727 147.138 6.17227 147.263 6.58727C148.241 9.82927 149.247 13.0633 150.246 16.2983C150.282 16.4163 150.346 16.5263 150.438 16.7493C151.05 14.7733 151.631 12.9053 152.206 11.0353C152.67 9.52327 153.133 8.01127 153.581 6.49427C153.681 6.17127 153.821 6.00227 154.181 6.04127C154.466 6.07227 154.757 6.04727 155.133 6.04727C154.716 7.39027 154.321 8.67827 153.916 9.96227C153.072 12.6383 152.203 15.3073 151.394 17.9943C151.217 18.5813 150.91 18.6413 150.394 18.6633C149.841 18.6863 149.686 18.4253 149.547 17.9783C148.607 14.9593 147.647 11.9463 146.692 8.93127C146.648 8.79127 146.584 8.65727 146.459 8.34427C146.027 9.68027 145.642 10.8523 145.269 12.0283C144.624 14.0669 143.984 16.1073 143.349 18.1493C143.249 18.4843 143.113 18.7293 142.71 18.6403C142.344 18.5603 141.851 18.8863 141.656 18.2623C140.402 14.2663 139.142 10.2719 137.875 6.27927C137.863 6.21695 137.858 6.15366 137.858 6.09027Z" fill="white"/>
<path d="M85.0748 18.6159H83.7178V6.11586C84.1329 5.97346 84.5851 5.98305 84.9939 6.14293C85.4026 6.3028 85.7414 6.60257 85.9498 6.98885C88.0808 10.0419 90.3238 13.0169 92.5248 16.0219C92.5888 16.1089 92.6608 16.1889 92.8358 16.4029V6.09285H94.2067V18.5929C93.8158 18.7131 93.3964 18.7034 93.0115 18.5651C92.6265 18.4268 92.2968 18.1674 92.0718 17.8259C89.9718 14.8569 87.7598 11.9739 85.5878 9.05885C85.4578 8.88385 85.3177 8.71585 85.0737 8.40685L85.0748 18.6159Z" fill="white"/>
<path d="M174.328 8.5974V18.5974H173.004V6.1064C173.41 5.96851 173.85 5.97545 174.252 6.12605C174.653 6.27665 174.989 6.5616 175.204 6.9324C177.323 9.9674 179.553 12.9244 181.742 15.9114C181.832 16.0344 181.929 16.1514 182.13 16.4114V6.0894H183.497V18.5894C183.105 18.7116 182.683 18.7025 182.297 18.5633C181.91 18.4241 181.579 18.1626 181.355 17.8184C179.23 14.8184 176.988 11.8954 174.789 8.9444C174.689 8.8064 174.571 8.6774 174.461 8.5444L174.328 8.5974Z" fill="white"/>
<path d="M107.126 18.626V6.04403H109.199C110.426 6.04403 111.653 6.01803 112.879 6.05503C113.384 6.03507 113.887 6.13223 114.349 6.33891C114.811 6.54559 115.218 6.85619 115.54 7.24647C115.862 7.63674 116.089 8.09611 116.204 8.58869C116.319 9.08127 116.318 9.59373 116.202 10.086C116.122 10.54 115.935 10.9684 115.657 11.336C115.379 11.7035 115.017 11.9997 114.602 12.2C115.186 12.5754 115.719 13.0256 116.187 13.539C117.717 15.706 116.26 18.456 113.471 18.603C111.387 18.714 109.289 18.626 107.126 18.626ZM108.508 17.547C110.144 17.547 111.746 17.618 113.339 17.524C113.925 17.468 114.466 17.1819 114.842 16.7284C115.218 16.2749 115.399 15.6908 115.346 15.104C115.325 14.5178 115.081 13.9617 114.663 13.5496C114.246 13.1374 113.686 12.9004 113.1 12.887C112.432 12.858 111.763 12.878 111.094 12.877H108.507L108.508 17.547ZM108.508 11.798C109.966 11.798 111.346 11.839 112.721 11.786C113.284 11.7634 113.818 11.5317 114.219 11.1361C114.62 10.7405 114.859 10.2095 114.889 9.64703C114.995 9.07899 114.872 8.49202 114.545 8.01504C114.219 7.53805 113.717 7.21004 113.149 7.10303C111.62 6.95903 110.066 7.06803 108.508 7.06803V11.798Z" fill="white"/>
<path d="M121.26 11.7786C121.235 10.6556 121.548 9.55104 122.158 8.60778C122.768 7.66452 123.647 6.92594 124.681 6.48755C125.612 6.01229 126.649 5.78413 127.693 5.82497C128.738 5.86581 129.754 6.17427 130.645 6.72078C131.536 7.26728 132.271 8.0335 132.781 8.94594C133.29 9.85838 133.557 10.8865 133.555 11.9316C133.721 13.3382 133.397 14.7591 132.637 15.9544C131.877 17.1498 130.728 18.0463 129.384 18.4926C125.772 19.5406 121.266 17.7626 121.26 11.7786ZM132.127 12.3846C132.14 12.1397 132.14 11.8944 132.127 11.6496C132.113 10.7599 131.83 9.89543 131.315 9.17007C130.8 8.44471 130.077 7.8926 129.241 7.58656C128.384 7.21349 127.436 7.10348 126.516 7.27048C125.596 7.43749 124.747 7.87399 124.076 8.52456C123.469 9.15619 123.028 9.92765 122.791 10.7707C122.553 11.6136 122.527 12.5022 122.715 13.3576C122.771 14.0684 122.99 14.7569 123.355 15.3691C123.72 15.9814 124.222 16.501 124.822 16.8873C125.421 17.2737 126.101 17.5163 126.81 17.5963C127.518 17.6763 128.236 17.5915 128.906 17.3486C130.991 16.7376 132.159 14.9536 132.127 12.3846Z" fill="white"/>
<path d="M72.0449 6.08711C73.5359 5.94211 73.5338 5.94211 74.0678 7.23211C75.5425 10.7934 77.0179 14.3544 78.4939 17.9151C78.5779 18.1151 78.6509 18.3241 78.7309 18.5331C77.5199 18.8131 77.4259 18.7671 76.9929 17.6911C76.7849 17.1741 76.5568 16.6641 76.3788 16.1371C76.3443 15.9871 76.2534 15.8561 76.125 15.7712C75.9965 15.6864 75.8404 15.6541 75.6888 15.6811C73.7702 15.6991 71.8515 15.6991 69.9329 15.6811C69.7812 15.6579 69.6263 15.693 69.4995 15.7795C69.3728 15.866 69.2835 15.9974 69.2498 16.1471C69.0498 16.7141 68.7419 17.2471 68.5959 17.8271C68.5826 17.9693 68.5374 18.1066 68.4638 18.2289C68.3901 18.3512 68.2899 18.4553 68.1704 18.5335C68.051 18.6117 67.9155 18.662 67.7739 18.6806C67.6324 18.6993 67.4884 18.6858 67.3528 18.6411C67.1817 18.6295 67.01 18.6295 66.8389 18.6411L72.0449 6.08711ZM75.6859 14.4501L72.8219 7.56611L69.9558 14.4501H75.6859Z" fill="white"/>
<path d="M167.845 6.08984V7.24684H161.12V11.6518H166.785V12.8518H161.135V17.4138H167.835V18.6058H159.765V6.08984H167.845Z" fill="white"/>
<path d="M40.4009 6.06641H41.7739V6.78341C41.7739 9.21541 41.7739 11.6487 41.7739 14.0834C41.7739 16.9774 40.5249 18.4574 37.6409 18.7064C36.5354 18.7756 35.4261 18.6576 34.3599 18.3574C33.6279 18.1947 32.9737 17.7863 32.5061 17.2001C32.0385 16.6139 31.7857 15.8852 31.7899 15.1354C31.6899 12.1354 31.7619 9.12341 31.7619 6.08141H33.1009V6.8194C33.1009 9.20674 33.1009 11.5944 33.1009 13.9824C33.1009 15.4154 33.4549 16.6674 34.9459 17.2184C35.6921 17.5582 36.5191 17.6802 37.3317 17.5701C38.1442 17.4601 38.909 17.1225 39.5379 16.5964C39.865 16.2575 40.1117 15.8494 40.2597 15.4023C40.4077 14.9552 40.4532 14.4805 40.3929 14.0134C40.4009 11.6984 40.3929 9.38341 40.3929 7.06841C40.4009 6.75441 40.4009 6.44441 40.4009 6.06641Z" fill="white"/>
<path d="M48.6009 17.4257H55.3799V18.5977H47.2969V6.09766H48.5969C48.6009 9.82466 48.6009 13.5797 48.6009 17.4257Z" fill="white"/>
<path d="M17.7168 17.5737L18.2348 16.6917C18.9429 17.015 19.6793 17.2721 20.4348 17.4597C21.1589 17.5641 21.8963 17.5301 22.6078 17.3597C23.2234 17.2616 23.7838 16.947 24.1882 16.4726C24.5926 15.9982 24.8144 15.395 24.8138 14.7717C24.8798 13.1907 24.8638 11.6067 24.8738 10.0237C24.8818 8.73165 24.8738 7.43866 24.8738 6.09766H26.2438V6.71566C26.2438 9.30366 26.2438 11.8913 26.2438 14.4787C26.2852 14.9872 26.2259 15.4989 26.0693 15.9845C25.9127 16.4701 25.6618 16.92 25.331 17.3085C25.0002 17.697 24.596 18.0164 24.1416 18.2484C23.6872 18.4804 23.1914 18.6205 22.6828 18.6607C21.4749 18.9065 20.2218 18.7999 19.0728 18.3537C18.6043 18.1234 18.1514 17.8628 17.7168 17.5737Z" fill="white"/>
<path d="M60.6948 6.0625H61.9698V18.5945H60.6948V6.0625Z" fill="white"/>
<path d="M108.509 17.5474V12.8774H111.096C111.765 12.8774 112.434 12.8584 113.102 12.8864C113.688 12.8998 114.248 13.1368 114.665 13.5489C115.083 13.961 115.327 14.5171 115.348 15.1034C115.401 15.6902 115.22 16.2742 114.844 16.7278C114.468 17.1813 113.927 17.4674 113.341 17.5234C111.747 17.6184 110.145 17.5474 108.509 17.5474Z" fill="black"/>
<path d="M108.505 11.7989V7.06687C110.064 7.06687 111.617 6.95787 113.146 7.10187C113.714 7.20888 114.216 7.53689 114.542 8.01388C114.868 8.49086 114.992 9.07783 114.886 9.64587C114.856 10.2083 114.617 10.7393 114.216 11.1349C113.815 11.5305 113.281 11.7623 112.718 11.7849C111.343 11.8399 109.963 11.7989 108.505 11.7989Z" fill="black"/>
<path d="M132.127 12.3863C132.159 14.9553 130.991 16.7393 128.903 17.3493C128.232 17.5923 127.515 17.677 126.807 17.597C126.098 17.517 125.418 17.2744 124.818 16.8881C124.219 16.5017 123.717 15.9822 123.352 15.3699C122.986 14.7576 122.767 14.0692 122.712 13.3583C122.524 12.5029 122.55 11.6144 122.787 10.7714C123.025 9.92844 123.466 9.15697 124.073 8.52529C124.744 7.87472 125.593 7.43822 126.513 7.27121C127.432 7.1042 128.381 7.21422 129.238 7.58729C130.073 7.89332 130.796 8.44544 131.312 9.1708C131.827 9.89616 132.11 10.7607 132.124 11.6503C132.138 11.8954 132.139 12.1411 132.127 12.3863Z" fill="black"/>
<path d="M75.6851 14.4504H69.9561L72.8211 7.56641L75.6851 14.4504Z" fill="black"/>
</g>
<defs>
<clipPath id="clip0_107_45344">
<rect width="203.854" height="25.699" fill="white" transform="translate(0.145996 0.152344)"/>
</clipPath>
</defs>
</svg>
