<svg width="104" height="30" viewBox="0 0 104 30" fill="none" xmlns="http://www.w3.org/2000/svg">
<g clip-path="url(#clip0_107_45535)">
<path d="M40.8153 24.6583L40.0792 26.3762H41.5575L40.8153 24.6583ZM43.0669 28.082H42.2694L41.8344 27.0448H39.8033L39.3613 28.082H38.5879L40.478 23.756H41.1778L43.0669 28.082Z" fill="#1C428D"/>
<mask id="mask0_107_45535" style="mask-type:luminance" maskUnits="userSpaceOnUse" x="-4" y="-4" width="112" height="36">
<path d="M-3.45703 31.9688H107.866V-3.42564H-3.45703V31.9688Z" fill="white"/>
</mask>
<g mask="url(#mask0_107_45535)">
<path d="M48.2201 26.7354C47.8838 27.0415 47.5998 27.2177 47.1416 27.2177C46.47 27.2177 45.9635 26.6679 45.9635 25.9379V25.9248C45.9635 25.2018 46.47 24.656 47.1416 24.656C47.5122 24.656 47.8354 24.799 48.1899 25.1202L48.2221 25.1494L48.8666 24.4073L48.8374 24.3791C48.3722 23.9219 47.8516 23.7185 47.1477 23.7185C45.8718 23.7185 44.9102 24.6721 44.9102 25.9379V25.9489C44.9102 27.2077 45.8567 28.1562 47.1124 28.1562C47.8516 28.1562 48.3601 27.9347 48.8686 27.3909L48.8968 27.3617L48.2503 26.7082L48.2201 26.7354Z" fill="#1C428D"/>
<path d="M50.7552 24.7086H51.6332C52.0753 24.7086 52.318 24.907 52.318 25.2675V25.2796C52.318 25.621 52.0622 25.8334 51.6514 25.8334H50.7552V24.7086ZM53.3411 25.2323V25.2192C53.3411 24.323 52.7319 23.7883 51.7108 23.7883H49.7441V28.082H50.7552V26.7357H51.4177L52.3079 28.0639L52.32 28.082H53.5052L52.462 26.5575C53.0299 26.3269 53.3411 25.8586 53.3411 25.2323Z" fill="#1C428D"/>
<path d="M56.9341 23.7883V25.4538H55.3108V23.7883H54.2998V28.082H55.3108V26.3923H56.9341V28.082H57.9451V23.7883H56.9341Z" fill="#1C428D"/>
<path d="M62.3941 28.1562C61.1424 28.1562 60.21 27.1805 60.21 25.9409C60.21 24.7144 61.1233 23.7134 62.4243 23.7134C63.2158 23.7134 63.6951 23.9894 64.106 24.3831L63.6216 24.941C63.2772 24.6217 62.9097 24.4073 62.4183 24.4073C61.5966 24.4073 61.0004 25.0819 61.0004 25.9288C61.0004 26.7757 61.5966 27.4634 62.4183 27.4634C62.9459 27.4634 63.2843 27.248 63.6518 26.9046L64.1372 27.396C63.6891 27.8622 63.1977 28.1562 62.3941 28.1562Z" fill="#1C428D"/>
<path d="M66.9798 24.4073C66.1268 24.4073 65.5307 25.088 65.5307 25.9288C65.5307 26.7696 66.1389 27.4634 66.9918 27.4634C67.8448 27.4634 68.4399 26.7817 68.4399 25.9409C68.4399 25.1001 67.8327 24.4073 66.9798 24.4073ZM66.9798 28.1562C65.6606 28.1562 64.7402 27.1563 64.7402 25.9409C64.7402 24.7255 65.6727 23.7134 66.9918 23.7134C68.311 23.7134 69.2324 24.7144 69.2324 25.9288C69.2324 27.1442 68.2989 28.1562 66.9798 28.1562Z" fill="#1C428D"/>
<path d="M72.2581 27.0267H72.2339L70.8896 25.0138V28.082H70.1475V23.7862H70.951L72.2581 25.8183L73.5652 23.7862H74.3697V28.082H73.6145V25.0007L72.2581 27.0267Z" fill="#1C428D"/>
<path d="M77.1079 24.474H76.2308V26.0207H77.1079C77.6789 26.0207 78.0343 25.7076 78.0343 25.2474C78.0343 24.7378 77.6718 24.474 77.1079 24.474ZM77.0837 26.7015H76.2308V28.082H75.4756V23.7873H77.1693C78.1693 23.7873 78.8016 24.3512 78.8016 25.2293C78.8016 26.199 78.0283 26.7015 77.0837 26.7015Z" fill="#1C428D"/>
<path d="M80.9755 24.6583L80.2394 26.3762H81.7176L80.9755 24.6583ZM83.2281 28.082H82.4296L81.9935 27.0448H79.9625L79.5214 28.082H78.748L80.6382 23.756H81.337L83.2281 28.082Z" fill="#1C428D"/>
<path d="M86.9656 23.7862H87.7078V28.082H87.0764L84.708 25.0258V28.082H83.9648V23.7862H84.6647L86.9656 26.7558V23.7862Z" fill="#1C428D"/>
<path d="M90.8402 28.082H90.0789V26.3883L88.373 23.7862H89.2632L90.4656 25.6894L91.68 23.7862H92.546L90.8402 26.3702V28.082Z" fill="#1C428D"/>
<path d="M39.5977 9.87682H36.5576V7.62521H45.0666V9.87682H42.0749V18.8359H39.5977V9.87682Z" fill="#1C428D"/>
<path d="M52.0809 14.9791L50.4567 10.9099L48.8153 14.9791H52.0809ZM49.347 7.62912H51.5502L56.1824 18.8398H53.5441L52.7888 16.9578H48.1084L47.3521 18.8398H44.7148L49.347 7.62912Z" fill="#1C428D"/>
<path d="M61.9422 12.9169C62.9079 12.9169 63.5514 12.3057 63.5514 11.3571C63.5514 10.4881 62.9391 9.87682 62.1516 9.87682H59.9796V12.9169H61.9422ZM57.5195 7.62521H62.2161C64.3066 7.62521 66.0275 9.23336 66.0275 11.3249C66.0275 12.788 65.2239 13.9944 64.0327 14.5089L66.7677 18.8359H63.9682L61.6361 15.1051H61.6049H59.9796V18.8359H57.5195V7.62521Z" fill="#1C428D"/>
<path d="M68.0713 7.62521H70.1467L73.9903 13.368L77.835 7.62521H79.9094V18.8359H77.5772V12.0005L73.9903 17.3083L70.3873 12.0005V18.8359H68.0713V7.62521Z" fill="#1C428D"/>
<path d="M88.6132 14.9791L86.9889 10.9099L85.3475 14.9791H88.6132ZM85.8792 7.62912H88.0825L92.7146 18.8398H90.0763L89.3211 16.9578H84.6406L83.8844 18.8398H81.2461L85.8792 7.62912Z" fill="#1C428D"/>
<path d="M98.7476 7.45044C100.565 7.45044 102.173 8.25502 103.284 9.54194L101.594 10.9729C100.886 10.1844 99.8734 9.70205 98.7476 9.70205C96.7538 9.70205 95.193 11.2145 95.193 13.2406C95.193 15.2676 96.7538 16.763 98.7476 16.763C99.8734 16.763 100.903 16.2807 101.61 15.4761L103.3 16.908C102.19 18.211 100.565 19.0156 98.7476 19.0156C95.4186 19.0156 92.7158 16.5868 92.7158 13.2406C92.7158 9.89539 95.4186 7.45044 98.7476 7.45044Z" fill="#1C428D"/>
<path d="M15.54 23.6198C10.78 23.6198 6.92027 19.761 6.92027 15C6.92027 10.24 10.78 6.38024 15.54 6.38024C20.3 6.38024 24.1598 10.24 24.1598 15C24.1598 19.761 20.3 23.6198 15.54 23.6198ZM15.54 0C7.2556 0 0.540039 6.71657 0.540039 15C0.540039 23.2844 7.2556 30 15.54 30C23.8245 30 30.54 23.2844 30.54 15C30.54 6.71657 23.8245 0 15.54 0Z" fill="#0C84CC"/>
</g>
</g>
<defs>
<clipPath id="clip0_107_45535">
<rect width="102.76" height="30" fill="white" transform="translate(0.540039)"/>
</clipPath>
</defs>
</svg>
