<svg xmlns="http://www.w3.org/2000/svg" width="75" height="75" viewBox="0 0 75 75"><g transform="translate(-621 -1127)"><circle cx="37.5" cy="37.5" r="37.5" transform="translate(621 1127)"/><path d="M3.75-26.25a1.873,1.873,0,0,0-1.875,1.875V-5.414L-18.4.117a.466.466,0,0,0-.328.574l.738,2.713a.466.466,0,0,0,.574.328L5.648-2.561A6.555,6.555,0,0,0,12.188,3.75,6.559,6.559,0,0,0,18.75-2.812V-26.25ZM12.188,0A2.813,2.813,0,0,1,9.375-2.812a2.813,2.813,0,0,1,2.813-2.812A2.813,2.813,0,0,1,15-2.812,2.813,2.813,0,0,1,12.188,0Z" transform="translate(659 1174)" fill="#fcba2f"/></g></svg>