<svg xmlns="http://www.w3.org/2000/svg" width="75" height="75" viewBox="0 0 75 75"><g transform="translate(-621 -1127)"><circle cx="37.5" cy="37.5" r="37.5" transform="translate(621 1127)"/><path d="M6.359-4.125H4.4a.516.516,0,0,0-.516.516v2.185H-1.375v-5.45H2.234a.516.516,0,0,0,.516-.516V-9.109a.516.516,0,0,0-.516-.516H-1.375v-2.731A2.461,2.461,0,0,1,1.28-14.809,4.964,4.964,0,0,1,3.757-14a.515.515,0,0,0,.674-.115L5.656-15.64a.515.515,0,0,0-.091-.734,7.384,7.384,0,0,0-4.365-1.5c-3.519,0-6.013,2.266-6.013,5.412v2.838h-1.2a.516.516,0,0,0-.516.516v1.719a.516.516,0,0,0,.516.516h1.2v5.5H-6.359a.516.516,0,0,0-.516.516V.859a.516.516,0,0,0,.516.516H6.359A.516.516,0,0,0,6.875.859V-3.609A.516.516,0,0,0,6.359-4.125Z" transform="translate(659 1167)" fill="#fff"/><path d="M16.248-7.025a1.94,1.94,0,0,0-2.5,0L8.338-2.7a3.73,3.73,0,0,1-2.344.82H-.937a.94.94,0,0,1-.937-.937A.94.94,0,0,1-.937-3.75H3.65A1.951,1.951,0,0,0,5.6-5.309,1.877,1.877,0,0,0,3.75-7.5H-5.625A6.9,6.9,0,0,0-9.967-5.959L-12.691-3.75h-3.246a.94.94,0,0,0-.937.938V2.813a.94.94,0,0,0,.938.938H4.969a3.755,3.755,0,0,0,2.344-.82l8.859-7.09A1.874,1.874,0,0,0,16.248-7.025Z" transform="translate(659 1170)" fill="#fcba2f"/></g></svg>