<svg xmlns="http://www.w3.org/2000/svg" width="75" height="75" viewBox="0 0 75 75"><g transform="translate(-621 -1127)"><circle cx="37.5" cy="37.5" r="37.5" transform="translate(621 1127)"/><path d="M0-17.5A7.522,7.522,0,0,0-7.5-10c0,3,1,3.875,6.75,12.125a.938.938,0,0,0,1.5,0C6.5-6.125,7.5-7,7.5-10A7.522,7.522,0,0,0,0-17.5Zm4.456,6.4L-.662-6.023a.429.429,0,0,1-.607,0L-4.228-9.007a.43.43,0,0,1,0-.608l1.017-1.009a.43.43,0,0,1,.608,0l1.646,1.66,3.8-3.766a.429.429,0,0,1,.607,0l1.009,1.017A.43.43,0,0,1,4.456-11.1Z" transform="translate(679 1166)" fill="#fcba2f"/><path d="M-.771,2.1a.938.938,0,0,0,1.542,0C6.446-6.132,7.5-6.976,7.5-10A7.5,7.5,0,0,0,0-17.5,7.5,7.5,0,0,0-7.5-10C-7.5-6.976-6.446-6.132-.771,2.1Z" transform="translate(639 1166)" fill="#fcba2f"/><circle cx="2" cy="2" r="2" transform="translate(638 1174)" fill="#fcba2f"/><circle cx="2" cy="2" r="2" transform="translate(648 1174)" fill="#fcba2f"/><circle cx="2" cy="2" r="2" transform="translate(658 1174)" fill="#fcba2f"/><circle cx="2" cy="2" r="2" transform="translate(668 1174)" fill="#fcba2f"/><circle cx="2" cy="2" r="2" transform="translate(678 1174)" fill="#fcba2f"/></g></svg>