<svg xmlns="http://www.w3.org/2000/svg" width="75" height="75" viewBox="0 0 75 75"><g transform="translate(-621 -1127)"><circle cx="37.5" cy="37.5" r="37.5" transform="translate(621 1127)"/><path d="M0-15.469A8.717,8.717,0,0,0-8.719-6.75,8.717,8.717,0,0,0,0,1.969,8.717,8.717,0,0,0,8.719-6.75,8.717,8.717,0,0,0,0-15.469Zm3.252,11-.7.879a.562.562,0,0,1-.439.212A.561.561,0,0,1,1.758-3.5L-.6-5.246a1.4,1.4,0,0,1-.527-1.1v-5.469a.563.563,0,0,1,.563-.562H.563a.563.563,0,0,1,.563.563V-6.75L3.164-5.256a.562.562,0,0,1,.212.439A.561.561,0,0,1,3.252-4.465Z" transform="translate(675 1164)" fill="#fff"/><path d="M17.813-5.625h-.937v-6.334a2.813,2.813,0,0,0-.826-1.986L10.2-19.8a2.813,2.813,0,0,0-1.986-.826H5.625v-2.812A2.813,2.813,0,0,0,2.813-26.25h-15A2.813,2.813,0,0,0-15-23.437v2.813h-3.281a.47.47,0,0,0-.469.469v.938a.47.47,0,0,0,.469.469H-2.344a.47.47,0,0,1,.469.469v.938a.47.47,0,0,1-.469.469H-16.406a.47.47,0,0,0-.469.469v.938a.47.47,0,0,0,.469.469H-4.219a.47.47,0,0,1,.469.469v.938a.47.47,0,0,1-.469.469H-18.281a.47.47,0,0,0-.469.469v.938a.47.47,0,0,0,.469.469H-6.094a.47.47,0,0,1,.469.469v.938a.47.47,0,0,1-.469.469H-15v7.5A5.626,5.626,0,0,0-9.375,3.75,5.626,5.626,0,0,0-3.75-1.875h7.5A5.626,5.626,0,0,0,9.375,3.75,5.626,5.626,0,0,0,15-1.875h2.813a.94.94,0,0,0,.938-.937V-4.687A.94.94,0,0,0,17.813-5.625ZM-9.375.938a2.813,2.813,0,0,1-2.812-2.812A2.813,2.813,0,0,1-9.375-4.687,2.813,2.813,0,0,1-6.562-1.875,2.813,2.813,0,0,1-9.375.938Zm18.75,0A2.813,2.813,0,0,1,6.563-1.875,2.813,2.813,0,0,1,9.375-4.687a2.813,2.813,0,0,1,2.813,2.813A2.813,2.813,0,0,1,9.375.938ZM14.063-11.25H5.625v-6.562H8.209l5.854,5.854Z" transform="translate(655 1176)" fill="#fcba2f"/></g></svg>