<?xml version="1.0" encoding="utf-8"?>
<!-- Generator: Adobe Illustrator 26.0.2, SVG Export Plug-In . SVG Version: 6.00 Build 0)  -->
<svg version="1.1" id="Layer_1" xmlns="http://www.w3.org/2000/svg" xmlns:xlink="http://www.w3.org/1999/xlink" x="0px" y="0px"
	 viewBox="0 0 512 512" style="enable-background:new 0 0 512 512;" xml:space="preserve">
<style type="text/css">
	.st0{fill:#3A3630;}
	.st1{fill:#FEBA30;}
</style>
<path class="st0" d="M362,512H150C67.157,512,0,444.843,0,362V150C0,67.157,67.157,0,150,0h212c82.843,0,150,67.157,150,150v212
	C512,444.843,444.843,512,362,512z"/>
<g>
	<g>
		<g>
			<path class="st1" d="M53.237,335.513c-2.65,0-4.891-2.243-4.891-4.893V181.38c0-2.65,2.242-4.891,4.891-4.891h74.213
				c34.252,0,51.581,18.552,51.581,43.834c0,14.475-6.116,24.67-15.902,31.396c-1.427,1.02-1.427,2.856,0.204,3.67
				c14.067,6.524,22.834,18.145,22.834,35.272c0,26.299-19.572,44.852-51.785,44.852H53.237z M125.002,213.594H93.198
				c-2.243,0-4.078,1.835-4.078,4.077v17.127c0,2.242,1.835,4.077,4.078,4.077h29.563c11.009,0,15.087-5.097,15.087-12.64
				C137.848,218.691,133.565,213.594,125.002,213.594z M129.896,270.68H93.198c-2.243,0-4.078,1.835-4.078,4.077v19.776
				c0,2.243,1.835,4.078,4.078,4.078h36.699c11.009,0,15.086-5.914,15.086-14.273C144.982,276.184,140.906,270.68,129.896,270.68z"
				/>
			<path class="st1" d="M275.674,181.38c0-2.65,2.243-4.891,4.893-4.891h30.787c2.65,0,4.891,2.242,4.891,4.891v95.212
				c0,42.611-27.523,61.979-60.55,61.979c-31.806,0-60.96-19.368-60.96-61.979v-8.97c0-2.651,2.243-4.893,4.893-4.893h30.99
				c2.65,0,4.893,2.242,4.893,4.893v8.358c0,18.962,9.582,23.243,20.185,23.243c11.824,0,19.979-4.281,19.979-23.243V181.38z"/>
			<path class="st1" d="M333.171,293.514c-0.204-2.854,2.447-5.709,5.301-5.709h27.523c4.689,0,5.708,1.02,8.157,5.301
				c2.854,5.301,11.213,10.194,25.483,10.194c15.292,0,20.186-5.097,20.186-9.786c0-6.728-7.954-10.807-27.119-17.331
				c-25.28-8.358-58.511-20.591-58.511-53.416c0-30.377,25.891-49.339,62.181-49.339c37.107,0,62.998,19.37,65.039,47.912
				c0.202,2.854-2.446,5.708-5.303,5.708h-28.336c-3.876,0-5.711-1.833-6.932-5.504c-2.449-6.728-10.194-12.844-23.651-12.844
				c-13.865,0-19.37,5.504-19.37,10.805c0,6.32,7.34,9.582,26.302,16.106c22.018,7.747,59.533,20.795,59.533,55.659
				c0,30.99-26.913,47.3-63.204,47.3C364.366,338.571,336.027,322.669,333.171,293.514z"/>
		</g>
	</g>
</g>
</svg>
