<svg xmlns="http://www.w3.org/2000/svg" width="75" height="75" viewBox="0 0 75 75"><g transform="translate(-621 -1127)"><circle cx="37.5" cy="37.5" r="37.5" transform="translate(621 1127)"/><path d="M-6.875-7.5H6.875A.627.627,0,0,0,7.5-8.125v-8.75a.627.627,0,0,0-.625-.625H2.5v5L0-13.75-2.5-12.5v-5H-6.875a.627.627,0,0,0-.625.625v8.75A.627.627,0,0,0-6.875-7.5Zm18.75,5a.627.627,0,0,0,.625-.625v-1.25A.627.627,0,0,0,11.875-5h-23.75a.627.627,0,0,0-.625.625v1.25a.627.627,0,0,0,.625.625H-10V0h-1.875A.627.627,0,0,0-12.5.625v1.25a.627.627,0,0,0,.625.625h23.75a.627.627,0,0,0,.625-.625V.625A.627.627,0,0,0,11.875,0H10V-2.5ZM-1.25,0H-7.5V-2.5h6.25ZM7.5,0H1.25V-2.5H7.5Z" transform="translate(669 1166)" fill="#fcba2f"/><path d="M-.771,2.1a.938.938,0,0,0,1.542,0C6.446-6.132,7.5-6.976,7.5-10A7.5,7.5,0,0,0,0-17.5,7.5,7.5,0,0,0-7.5-10C-7.5-6.976-6.446-6.132-.771,2.1Z" transform="translate(639 1166)" fill="#fcba2f"/><circle cx="2" cy="2" r="2" transform="translate(638 1174)" fill="#fcba2f"/><circle cx="2" cy="2" r="2" transform="translate(648 1174)" fill="#fcba2f"/><circle cx="2" cy="2" r="2" transform="translate(658 1174)" fill="#fcba2f"/><circle cx="2" cy="2" r="2" transform="translate(668 1174)" fill="#fcba2f"/><circle cx="2" cy="2" r="2" transform="translate(678 1174)" fill="#fcba2f"/></g></svg>