<svg xmlns="http://www.w3.org/2000/svg" xmlns:xlink="http://www.w3.org/1999/xlink" width="562.778" height="332.211" viewBox="0 0 562.778 332.211"><defs><clipPath id="a"><rect width="23.751" height="75.968" fill="none"/></clipPath><clipPath id="c"><rect width="8.208" height="4.041" fill="none"/></clipPath></defs><g transform="translate(0 0)"><g transform="translate(0 0)"><g transform="translate(0 0)"><rect width="134" height="62" transform="translate(8.837 226.698)" fill="#fff"/><rect width="5.663" height="223.705" transform="translate(150.96 79.989)" fill="#3f3d56"/><path d="M330.316,306.507c.311,67.55-47.214,122.531-47.214,122.531s-48.03-54.54-48.341-122.091,47.214-122.531,47.214-122.531S330,238.956,330.316,306.507Z" transform="translate(-136.525 -184.416)" fill="#55be71"/><rect width="438.308" height="92.878" transform="translate(112.383 211.079)" fill="#f2f2f2"/><path d="M203.5,342.376,251.211,242.5H632.266l35.624,99.876Z" transform="translate(-105.113 -123.523)" fill="#3a3630"/><rect width="176.85" height="58.526" transform="translate(217.348 124.911)" fill="#f2f2f2"/><path d="M392.491,177.5,364.5,236.026H574.43L557.89,177.5Z" transform="translate(-163.692 -101.448)" fill="#3a3630"/><rect width="139.635" height="74.43" transform="translate(232.933 229.528)" fill="#ccc"/><rect width="74.43" height="71.885" transform="translate(129.559 232.072)" fill="#ccc"/><rect width="38.487" height="67.432" transform="translate(396.742 236.525)" fill="#867a6f"/><rect width="3.737" height="147.621" transform="translate(83.377 156.09)" fill="#3a3630"/><path d="M229.732,457.685c.238,51.62-36.079,93.634-36.079,93.634s-36.7-41.678-36.941-93.3,36.079-93.634,36.079-93.634S229.495,406.066,229.732,457.685Z" transform="translate(-108.128 -282.783)" fill="#55be71"/><path d="M229.732,457.685c.238,51.62-36.079,93.634-36.079,93.634s-36.7-41.678-36.941-93.3,36.079-93.634,36.079-93.634S229.495,406.066,229.732,457.685Z" transform="translate(-108.128 -282.783)" opacity="0.1"/><rect width="3.737" height="147.621" transform="translate(34.793 156.09)" fill="#3a3630"/><path d="M153.36,457.685c.238,51.62-36.079,93.634-36.079,93.634s-36.7-41.678-36.941-93.3,36.079-93.634,36.079-93.634S153.123,406.066,153.36,457.685Z" transform="translate(-80.34 -282.783)" fill="#55be71"/><rect width="18.766" height="17.494" transform="translate(476.897 239.395)" fill="#3a3630"/><rect width="18.766" height="17.494" transform="translate(502.025 239.395)" fill="#3a3630"/><rect width="18.766" height="18.13" transform="translate(476.897 264.198)" fill="#3a3630"/><rect width="18.766" height="18.13" transform="translate(502.025 264.198)" fill="#3a3630"/><rect width="14.687" height="13.691" transform="translate(233.57 140.788)" fill="#3a3630"/><rect width="14.687" height="13.691" transform="translate(253.235 140.788)" fill="#3a3630"/><rect width="14.687" height="14.189" transform="translate(233.57 159.842)" fill="#3a3630"/><rect width="14.687" height="14.189" transform="translate(253.235 159.842)" fill="#3a3630"/><rect width="14.687" height="13.691" transform="translate(343.624 140.788)" fill="#3a3630"/><rect width="14.687" height="13.691" transform="translate(363.289 140.788)" fill="#3a3630"/><rect width="14.687" height="14.189" transform="translate(343.624 159.842)" fill="#3a3630"/><rect width="14.687" height="14.189" transform="translate(363.289 159.842)" fill="#3a3630"/><rect width="14.687" height="13.691" transform="translate(288.915 140.788)" fill="#3a3630"/><rect width="14.687" height="13.691" transform="translate(308.58 140.788)" fill="#3a3630"/><rect width="14.687" height="14.189" transform="translate(288.915 159.842)" fill="#3a3630"/><rect width="14.687" height="14.189" transform="translate(308.58 159.842)" fill="#3a3630"/><rect width="9.247" height="8.62" transform="translate(405.33 242.322)" fill="#f2f2f2"/><rect width="9.247" height="8.62" transform="translate(417.712 242.322)" fill="#f2f2f2"/><rect width="9.247" height="8.934" transform="translate(405.33 255.112)" fill="#f2f2f2"/><rect width="9.247" height="8.934" transform="translate(417.712 255.112)" fill="#f2f2f2"/><ellipse cx="2.353" cy="2.353" rx="2.353" ry="2.353" transform="translate(428.159 273.024)" fill="#f2f2f2"/><rect width="141.156" height="0.941" transform="translate(232.422 235.988)" fill="#f2f2f2"/><rect width="141.156" height="0.941" transform="translate(232.422 242.703)" fill="#f2f2f2"/><rect width="141.156" height="0.941" transform="translate(232.422 249.498)" fill="#f2f2f2"/><rect width="141.156" height="1.882" transform="translate(232.422 254.203)" fill="#f2f2f2"/><rect width="141.156" height="1.882" transform="translate(232.422 259.849)" fill="#f2f2f2"/><rect width="141.156" height="1.882" transform="translate(232.422 265.495)" fill="#f2f2f2"/><rect width="141.156" height="0.941" transform="translate(232.422 272.083)" fill="#f2f2f2"/><rect width="141.156" height="0.941" transform="translate(232.422 277.729)" fill="#f2f2f2"/><rect width="141.156" height="0.941" transform="translate(232.422 283.375)" fill="#f2f2f2"/><rect width="141.156" height="0.941" transform="translate(232.422 289.022)" fill="#f2f2f2"/><rect width="141.156" height="1.882" transform="translate(232.422 294.668)" fill="#f2f2f2"/><rect width="74.43" height="1.272" transform="translate(129.559 236.213)" fill="#f2f2f2"/><rect width="74.43" height="1.272" transform="translate(129.559 242.05)" fill="#f2f2f2"/><rect width="74.43" height="1.272" transform="translate(129.559 248.93)" fill="#f2f2f2"/><rect width="74.43" height="1.272" transform="translate(129.559 254.656)" fill="#f2f2f2"/><rect width="74.43" height="1.272" transform="translate(129.559 260.381)" fill="#f2f2f2"/><rect width="74.43" height="1.272" transform="translate(129.559 266.107)" fill="#f2f2f2"/><rect width="74.43" height="1.272" transform="translate(129.559 271.832)" fill="#f2f2f2"/><rect width="74.43" height="1.272" transform="translate(129.559 277.557)" fill="#f2f2f2"/><rect width="74.43" height="1.272" transform="translate(129.559 283.283)" fill="#f2f2f2"/><rect width="74.43" height="1.272" transform="translate(129.559 289.008)" fill="#f2f2f2"/><rect width="74.43" height="1.272" transform="translate(129.559 294.733)" fill="#f2f2f2"/><g transform="translate(266.916 233.656)"><g transform="translate(-60 22.587)"><g transform="translate(0 0)" clip-path="url(#a)"><g clip-path="url(#a)"><path d="M17.8,116.18a68.45,68.45,0,0,0,4.195,20.407l2.228-.243c-2.635-9.11-1.95-20.167-1.621-22.692l-2.751.229a2.235,2.235,0,0,0-2.051,2.3" transform="translate(-3.702 -93.011)" fill="#ffaa82"/><path d="M.531,237.918l1.46.727,1.275.6s-.01.737-1.153.345c-.744-.255-1.431-.562-1.382-.212.033.241-1.517-2.017-.2-1.465" transform="translate(20.485 -194.638)" fill="#ffaa82"/><path d="M6.827,244.649l-.046.016a.486.486,0,0,0-.3.615l1.393,3.56c.086.252.219.463.471.377l.046-.016c.252-.087.211-.33.124-.582l-1.073-3.67a.486.486,0,0,0-.615-.3" transform="translate(13.997 -200.197)" fill="#ffaa82"/><path d="M11.252,247.237l-.048.011a.485.485,0,0,0-.363.58l1.016,3.686c.06.26.17.484.429.424l.048-.011c.26-.06.244-.306.184-.565l-.686-3.762a.486.486,0,0,0-.58-.363" transform="translate(9.23 -202.326)" fill="#ffaa82"/><path d="M16.309,243.515l-.048.008a.486.486,0,0,0-.393.56l.817,3.735c.046.262.144.492.406.446l.048-.009c.262-.046.26-.292.214-.555l-.484-3.793a.485.485,0,0,0-.56-.393" transform="translate(3.495 -199.284)" fill="#ffaa82"/><path d="M21.447,239.619l-.048.008a.486.486,0,0,0-.393.56l.817,3.734c.046.262.144.492.406.446l.048-.008c.262-.046.26-.293.214-.555l-.484-3.793a.485.485,0,0,0-.56-.393" transform="translate(-2.577 -196.095)" fill="#ffaa82"/><path d="M11.506,236.182l-.53-2.61.679-.8a10.21,10.21,0,0,1,2.733,1.4c.355.523-.388,1.3.048,2.263s-2.929-.251-2.929-.251" transform="translate(7.271 -190.496)" fill="#ffaa82"/><path d="M24.719,102.347a36.634,36.634,0,0,0,.227,7.4l4.6-.193.289-7.462a2.288,2.288,0,0,0-2.247-2.376,2.827,2.827,0,0,0-2.87,2.634" transform="translate(-10.559 -81.604)" fill="#888075"/><path d="M76.347,250.127l3.29-.077c1.173-6.581,3.319-23.093,3.517-30.263H78.731c-.39,7.515-1.7,24.458-2.384,30.339" transform="translate(-73.268 -179.872)" fill="#3a3630"/><path d="M30.541,79.21a3.979,3.979,0,0,1,1.765-.544,3.589,3.589,0,0,1,1.679.466c2.715,1.819,6.977,2.941,7.036,5.787,0,0-.015,2.041-1.422,2.068l-7.128.139-7.128.139c-1.407.028-1.5-2.011-1.5-2.011-.053-2.847,4.058-4.122,6.7-6.046" transform="translate(-21.6 -64.368)" fill="#8b837e"/><path d="M62.241,74.018h-.394A1.526,1.526,0,0,1,60.325,72.5V70.383a1.526,1.526,0,0,1,1.522-1.522h.394a1.526,1.526,0,0,1,1.522,1.522V72.5a1.526,1.526,0,0,1-1.522,1.522" transform="translate(-50.967 -56.355)" fill="#f49f7d"/><path d="M40.525,247.4l3.283-.078c.582-6.712,1.246-23.555.8-30.867l-4.388,3.2c.284,7.665.463,21.748.305,27.747" transform="translate(-28.307 -177.14)" fill="#3a3630"/><path d="M40.2,208.8c0,2.34,2.48,4.237,5.54,4.237s5.54-1.9,5.54-4.237-2.48-4.237-5.54-4.237-5.54,1.9-5.54,4.237" transform="translate(-34.832 -167.413)" fill="#3a3630"/><path d="M35.7,132.846l.41,5.13s8.408,2.73,11.658-.795c-.121-4.7-.285-13.223-.582-16.694l.362-1.242-11.35.568-.744,1.9Z" transform="translate(-30.456 -97.589)" fill="#888075"/><path d="M46.161,391.217H49l-.1-2.95H46.065Z" transform="translate(-33.615 -317.752)" fill="#9bb5c4"/><path d="M15.65,404.881l8.427.03a2.076,2.076,0,0,0-1.948-2.474H15.606Z" transform="translate(-3.176 -329.35)" fill="#353b44"/><path d="M15.606,404.881l3.92.03a2.052,2.052,0,0,0-1.853-2.474H17.3a1.925,1.925,0,0,0-1.695,2.091Z" transform="translate(1.376 -329.35)" fill="#53536b"/><path d="M24.01,415.911H15.589l-.009-.529H24Z" transform="translate(-3.088 -339.943)" fill="#343447"/><path d="M42.666,400.057l-.984-.977a3.411,3.411,0,0,1-3.086.014.3.3,0,0,0-.3.3v.664Z" transform="translate(-25.87 -326.602)" fill="#353b44"/><path d="M43.154,395.021h.062a.958.958,0,0,0,.962-.949l0-.627a.958.958,0,0,0-.949-.962h-.062a.958.958,0,0,0-.962.949l0,.627a.958.958,0,0,0,.949.962" transform="translate(-28.096 -321.204)" fill="#353b44"/><path d="M33.267,402.327a1.722,1.722,0,0,0-1.292,1.443l-.662.037s.11-1.369,1.15-1.517Z" transform="translate(-15.202 -329.229)" fill="#dcdfe2"/><path d="M40.207,402.241a1.722,1.722,0,0,0-1.292,1.443l-.662.037s.11-1.369,1.15-1.517Z" transform="translate(-23.402 -329.159)" fill="#dcdfe2"/><rect width="3.943" height="1.814" transform="translate(11.722 68.778)" fill="#3a3630"/><path d="M96.484,391.217h2.839l-.1-2.95H96.387Z" transform="translate(-93.077 -317.752)" fill="#9bb5c4"/><path d="M65.973,404.881l8.427.03a2.076,2.076,0,0,0-1.948-2.474H65.928Z" transform="translate(-62.638 -329.35)" fill="#353b44"/><path d="M65.928,404.881l3.92.03A2.052,2.052,0,0,0,68,402.438h-.373a1.925,1.925,0,0,0-1.695,2.091Z" transform="translate(-58.086 -329.35)" fill="#53536b"/><path d="M74.333,415.911H65.912l-.009-.529h8.421Z" transform="translate(-62.55 -339.943)" fill="#343447"/><path d="M92.988,400.057,92,399.08a3.411,3.411,0,0,1-3.086.014.3.3,0,0,0-.3.3v.664Z" transform="translate(-85.331 -326.602)" fill="#353b44"/><path d="M93.477,395.021h.062a.958.958,0,0,0,.962-.949l0-.627a.958.958,0,0,0-.949-.962H93.5a.958.958,0,0,0-.962.949l0,.627a.958.958,0,0,0,.949.962" transform="translate(-87.558 -321.204)" fill="#353b44"/><path d="M83.59,402.327A1.721,1.721,0,0,0,82.3,403.77l-.662.037s.11-1.369,1.15-1.517Z" transform="translate(-74.664 -329.229)" fill="#dcdfe2"/><path d="M90.53,402.241a1.721,1.721,0,0,0-1.292,1.443l-.662.037s.11-1.369,1.15-1.517Z" transform="translate(-82.865 -329.159)" fill="#dcdfe2"/><rect width="3.943" height="1.814" transform="translate(2.583 68.778)" fill="#3a3630"/><path d="M63.823,68.183c-1.486-.031-3.452.659-3.43,1.826a42.631,42.631,0,0,0-.067-4.373s1.874,2.819,3.5,2.547" transform="translate(-51.028 -53.716)" fill="#ea8a6c"/><path d="M41.889,28.672s-.275.293-.449-.728c-.232-1.37-.31-4.484-.968-4.65-.183-.046-1.453-.366-.773-.651,1.135-.475,2.514,1.219,2.531,1.626a13.223,13.223,0,0,1-.342,4.4" transform="translate(-25.712 -18.463)" fill="#744628"/><path d="M59.839,27.023s1.154-3.818.96-5l.126-4.706c-.194-1.181-.963-2.319-2.056-2.324l-2.683-.013a2.1,2.1,0,0,0-1.9,2.38l1.386,6.905c.194,1.181,1.355,2.718,4.165,2.758" transform="translate(-47.029 -12.259)" fill="#ea8a6c"/><path d="M46.307,31.8l.072.007a3.108,3.108,0,0,0,3.129-2.865l.036-7.365a.737.737,0,0,0-.731-.738l-5.355-.026c-.4,0-1.23.328-1.232.732l.354,6.22A3.851,3.851,0,0,0,46.307,31.8" transform="translate(-33.461 -17.028)" fill="#ffaa82"/><path d="M47.934,45.407c.023.41-.167.755-.424.769s-.483-.307-.506-.718.167-.755.424-.769.483.307.506.718" transform="translate(-32.721 -36.573)" fill="#353b44"/><path d="M68.085,46.258c.043.409-.129.762-.385.789s-.5-.282-.542-.691.129-.762.385-.789.5.282.542.691" transform="translate(-56.536 -37.29)" fill="#353b44"/><path d="M50.318,12.168c-1.768-1.661-6.633-.352-7.453.476-.04,2.022.858,3.958-.416,4.614l-1.127-.16-.906-3.612a2.824,2.824,0,0,1,.441-2.328l.5-.7s.016-.081.023-.131c.169-1.243,1.666-2.054,3.174-2.283,6.382-.97,5.767,4.12,5.767,4.12" transform="translate(-33.907 -6.486)" fill="#744628"/><path d="M45.356,38.48a4.111,4.111,0,0,0-1.664.026l-.031-.527a3.318,3.318,0,0,1,1.72-.02Z" transform="translate(-29.559 -30.98)" fill="#744628"/><path d="M66.032,39.63a4.436,4.436,0,0,0-1.783.118l-.062-.561a3.577,3.577,0,0,1,1.843-.115Z" transform="translate(-53.938 -31.918)" fill="#744628"/><path d="M54.08,56.83s-.143.668-.659.662a.98.98,0,0,1-.78-.5,5.018,5.018,0,0,0,.783.009,2.988,2.988,0,0,0,.655-.167" transform="translate(-39.889 -46.509)" fill="#d38462"/><path d="M81.327,49.224c.362.757,1.046,1.184,1.528.954a.627.627,0,0,0,.131-.084,1.475,1.475,0,0,0,.086-1.7c-.362-.757-1.046-1.184-1.528-.954s-.58,1.032-.218,1.789" transform="translate(-74.27 -38.769)" fill="#ea8a6c"/><path d="M85.685,50.337c.066.212-.321.25-.343.422-.034.263.242.618.041.653-.333.058-.738-.331-.9-.867s-.031-1.018.3-1.075.738.331.9.867" transform="translate(-77.27 -40.481)" fill="#e28061"/><path d="M81.53,27.436l-1.5-4.41,1.815-2.481.081,6.822a.206.206,0,0,1-.4.069" transform="translate(-72.715 -16.814)" fill="#744628"/><path d="M49.381,63.5l2.714-.036a.192.192,0,0,1,.19.237,1.616,1.616,0,0,1-1.517,1.384A1.641,1.641,0,0,1,49.2,63.748a.192.192,0,0,1,.183-.244" transform="translate(-37.472 -51.942)" fill="#fff"/><path d="M94.23,115.218a68.454,68.454,0,0,0-1.348,20.79l2.213.354c-.133-9.482,3.45-19.965,4.434-22.313l-2.713-.506a2.235,2.235,0,0,0-2.585,1.675" transform="translate(-92.593 -92.89)" fill="#ffaa82"/><path d="M102.266,238.986l1.216,1.087,1.07.92s-.2.709-1.2.029c-.65-.442-1.231-.92-1.277-.57-.031.241-.93-2.346.194-1.465" transform="translate(-99.271 -195.433)" fill="#ffaa82"/><path d="M114.308,245.755l-.049,0a.486.486,0,0,0-.453.514l.4,3.8c.017.266.089.505.354.488l.049,0c.266-.017.291-.262.274-.528l-.065-3.823a.486.486,0,0,0-.514-.453" transform="translate(-111.807 -201.122)" fill="#ffaa82"/><path d="M117.5,247.686l-.049,0a.486.486,0,0,0-.5.464l.005,3.823c-.011.266.036.512.3.522l.049,0c.266.011.316-.23.327-.5l.333-3.809a.485.485,0,0,0-.464-.5" transform="translate(-115.448 -202.701)" fill="#ffaa82"/><path d="M120.481,243.068l-.049,0a.485.485,0,0,0-.527.436l-.2,3.818c-.025.265.009.513.273.538l.049,0c.265.025.328-.213.353-.479l.536-3.786a.485.485,0,0,0-.436-.528" transform="translate(-118.907 -198.918)" fill="#ffaa82"/><path d="M124.407,237.952l-.049,0a.485.485,0,0,0-.527.436l-.2,3.818c-.025.265.009.513.274.538l.049,0c.265.025.328-.213.353-.479l.536-3.786a.486.486,0,0,0-.436-.528" transform="translate(-123.546 -194.731)" fill="#ffaa82"/><path d="M111.288,234.677l.179-2.657.866-.594s2.062,1.474,2.265,2.073-.717,1.147-.552,2.195-2.758-1.017-2.758-1.017" transform="translate(-111.088 -189.396)" fill="#ffaa82"/><path d="M91.5,101.61a36.622,36.622,0,0,0-1.736,7.193l4.489,1.03,2.25-7.12a2.287,2.287,0,0,0-1.539-2.885A2.828,2.828,0,0,0,91.5,101.61" transform="translate(-89.162 -81.604)" fill="#888075"/><path d="M50.356,5.159s.9-5.28-5.131-5.156S40.35,6.264,40.35,6.264c5.476-1.459,8.3-1.842,10.006-1.106" transform="translate(-33.964 0)" fill="#feba30"/><g transform="translate(8.304 3.789)" opacity="0.41" style="mix-blend-mode:multiply;isolation:isolate"><g clip-path="url(#c)"><path d="M48.071,22.674l-.108,1.251a10.737,10.737,0,0,1-4.039.966,13.882,13.882,0,0,1-4.014-1.465l-.047-.941L44.9,20.862l2.75.55Z" transform="translate(-39.863 -20.862)" fill="#744628"/></g></g><path d="M39.994,17.908l1.87,2.3a5.357,5.357,0,0,0-5.613.683L32.266,19.5c2.311-2.486,4.737-3.026,7.728-1.6" transform="translate(-23.973 -14.018)" fill="#fecf30"/><rect width="2.795" height="0.726" transform="translate(7.449 22.172)" fill="#feba30"/><rect width="2.795" height="0.363" transform="translate(7.449 23.398)" fill="#feba30"/><rect width="0.802" height="1.589" transform="translate(10.538 22.172)" fill="#feba30"/></g></g></g><g transform="translate(36.913 22.587)"><g transform="translate(0 0)" clip-path="url(#a)"><g clip-path="url(#a)"><path d="M24.22,116.18a68.45,68.45,0,0,1-4.195,20.407l-2.228-.243c2.635-9.11,1.95-20.167,1.621-22.692l2.751.229a2.235,2.235,0,0,1,2.051,2.3" transform="translate(-14.565 -93.011)" fill="#ffaa82"/><path d="M2.735,237.918l-1.46.727-1.275.6s.01.737,1.153.345c.744-.255,1.431-.562,1.382-.212-.033.241,1.517-2.017.2-1.465" transform="translate(0 -194.638)" fill="#ffaa82"/><path d="M8.209,244.649l.046.016a.486.486,0,0,1,.3.615l-1.393,3.56c-.086.252-.219.463-.471.377l-.046-.016c-.252-.087-.211-.33-.124-.582l1.073-3.67a.486.486,0,0,1,.615-.3" transform="translate(-5.282 -200.197)" fill="#ffaa82"/><path d="M12.132,247.237l.048.011a.485.485,0,0,1,.363.58l-1.016,3.686c-.06.26-.17.484-.429.424l-.048-.011c-.26-.06-.244-.306-.184-.565l.686-3.762a.486.486,0,0,1,.58-.363" transform="translate(-8.862 -202.326)" fill="#ffaa82"/><path d="M16.928,243.515l.048.008a.486.486,0,0,1,.393.56l-.817,3.735c-.046.262-.144.492-.406.446l-.048-.009c-.262-.046-.26-.292-.214-.555l.484-3.793a.485.485,0,0,1,.56-.393" transform="translate(-12.98 -199.284)" fill="#ffaa82"/><path d="M22.066,239.619l.048.008a.486.486,0,0,1,.393.56l-.817,3.734c-.046.262-.144.492-.406.446l-.048-.008c-.262-.046-.26-.293-.214-.555l.484-3.793a.485.485,0,0,1,.56-.393" transform="translate(-17.185 -196.095)" fill="#ffaa82"/><path d="M13.957,236.182l.53-2.61-.679-.8a10.21,10.21,0,0,0-2.733,1.4c-.355.523.388,1.3-.048,2.263s2.929-.251,2.929-.251" transform="translate(-8.983 -190.496)" fill="#ffaa82"/><path d="M29.748,102.347a36.634,36.634,0,0,1-.227,7.4l-4.6-.193-.289-7.462a2.288,2.288,0,0,1,2.247-2.376,2.827,2.827,0,0,1,2.87,2.634" transform="translate(-20.156 -81.604)" fill="#888075"/><path d="M83.154,250.127l-3.29-.077c-1.173-6.581-3.319-23.093-3.517-30.263H80.77c.39,7.515,1.7,24.458,2.384,30.339" transform="translate(-62.481 -179.872)" fill="#3a3630"/><path d="M34.322,79.21a3.979,3.979,0,0,0-1.765-.544,3.589,3.589,0,0,0-1.679.466c-2.715,1.819-6.977,2.941-7.036,5.787,0,0,.015,2.041,1.422,2.068l7.128.139,7.128.139c1.407.028,1.5-2.011,1.5-2.011.053-2.847-4.058-4.122-6.7-6.046" transform="translate(-19.511 -64.368)" fill="#8b837e"/><path d="M61.847,74.018h.394A1.526,1.526,0,0,0,63.763,72.5V70.383a1.526,1.526,0,0,0-1.522-1.522h-.394a1.526,1.526,0,0,0-1.522,1.522V72.5a1.526,1.526,0,0,0,1.522,1.522" transform="translate(-49.369 -56.355)" fill="#f49f7d"/><path d="M44.449,247.4l-3.283-.078c-.582-6.712-1.246-23.555-.8-30.867l4.388,3.2c-.284,7.665-.463,21.748-.305,27.747" transform="translate(-32.916 -177.14)" fill="#3a3630"/><path d="M51.282,208.8c0,2.34-2.48,4.237-5.54,4.237s-5.54-1.9-5.54-4.237,2.48-4.237,5.54-4.237,5.54,1.9,5.54,4.237" transform="translate(-32.901 -167.413)" fill="#3a3630"/><path d="M47.524,132.846l-.41,5.13s-8.408,2.73-11.658-.795c.121-4.7.285-13.223.582-16.694l-.362-1.242,11.35.568.744,1.9Z" transform="translate(-29.016 -97.589)" fill="#888075"/><path d="M48.9,391.217H46.065l.1-2.95H49Z" transform="translate(-37.699 -317.752)" fill="#9bb5c4"/><path d="M24.049,404.881l-8.427.03a2.076,2.076,0,0,1,1.948-2.474h6.524Z" transform="translate(-12.771 -329.35)" fill="#353b44"/><path d="M19.542,404.881l-3.92.03a2.052,2.052,0,0,1,1.853-2.474h.373a1.925,1.925,0,0,1,1.695,2.091Z" transform="translate(-12.772 -329.35)" fill="#53536b"/><path d="M15.58,415.911H24l.009-.529H15.589Z" transform="translate(-12.75 -339.943)" fill="#343447"/><path d="M38.3,400.057l.984-.977a3.411,3.411,0,0,0,3.087.014.3.3,0,0,1,.3.3v.664Z" transform="translate(-31.343 -326.602)" fill="#353b44"/><path d="M43.234,395.021h-.062a.958.958,0,0,1-.962-.949l0-.627a.958.958,0,0,1,.949-.962h.062a.958.958,0,0,1,.962.949l0,.627a.958.958,0,0,1-.949.962" transform="translate(-34.541 -321.204)" fill="#353b44"/><path d="M31.313,402.327A1.722,1.722,0,0,1,32.6,403.77l.662.037s-.11-1.369-1.15-1.517Z" transform="translate(-25.626 -329.229)" fill="#dcdfe2"/><path d="M38.253,402.241a1.722,1.722,0,0,1,1.292,1.443l.662.037s-.11-1.369-1.15-1.517Z" transform="translate(-31.306 -329.159)" fill="#dcdfe2"/><rect width="3.943" height="1.814" transform="translate(8.086 68.778)" fill="#3a3630"/><path d="M99.227,391.217H96.387l.1-2.95h2.839Z" transform="translate(-78.882 -317.752)" fill="#9bb5c4"/><path d="M74.371,404.881l-8.427.03a2.076,2.076,0,0,1,1.948-2.474h6.524Z" transform="translate(-53.954 -329.35)" fill="#353b44"/><path d="M69.864,404.881l-3.92.03a2.052,2.052,0,0,1,1.853-2.474h.373a1.925,1.925,0,0,1,1.695,2.091Z" transform="translate(-53.955 -329.35)" fill="#53536b"/><path d="M65.9,415.911h8.421l.009-.529H65.912Z" transform="translate(-53.934 -339.943)" fill="#343447"/><path d="M88.621,400.057l.984-.977a3.411,3.411,0,0,0,3.087.014.3.3,0,0,1,.3.3v.664Z" transform="translate(-72.526 -326.602)" fill="#353b44"/><path d="M93.557,395.021H93.5a.958.958,0,0,1-.962-.949l0-.627a.958.958,0,0,1,.949-.962h.062a.958.958,0,0,1,.962.949l0,.627a.958.958,0,0,1-.949.962" transform="translate(-75.724 -321.204)" fill="#353b44"/><path d="M81.636,402.327a1.721,1.721,0,0,1,1.292,1.443l.662.037s-.11-1.369-1.15-1.517Z" transform="translate(-66.81 -329.229)" fill="#dcdfe2"/><path d="M88.576,402.241a1.721,1.721,0,0,1,1.292,1.443l.662.037s-.11-1.369-1.15-1.517Z" transform="translate(-72.49 -329.159)" fill="#dcdfe2"/><rect width="3.943" height="1.814" transform="translate(17.225 68.778)" fill="#3a3630"/><path d="M60.326,68.183c1.486-.031,3.452.659,3.43,1.826a42.632,42.632,0,0,1,.067-4.373s-1.874,2.819-3.5,2.547" transform="translate(-49.37 -53.716)" fill="#ea8a6c"/><path d="M39.9,28.672s.275.293.449-.728c.232-1.37.31-4.484.968-4.65.183-.046,1.453-.366.773-.651-1.135-.475-2.514,1.219-2.531,1.626a13.224,13.224,0,0,0,.342,4.4" transform="translate(-32.327 -18.463)" fill="#744628"/><path d="M55.35,27.023s-1.154-3.818-.96-5l-.126-4.706c.194-1.181.963-2.319,2.056-2.324L59,14.98a2.1,2.1,0,0,1,1.9,2.38l-1.386,6.905c-.194,1.181-1.355,2.718-4.165,2.758" transform="translate(-44.409 -12.259)" fill="#ea8a6c"/><path d="M45.462,31.8l-.072.007a3.108,3.108,0,0,1-3.129-2.865l-.036-7.365a.736.736,0,0,1,.731-.738l5.355-.026c.4,0,1.23.328,1.232.732l-.354,6.22A3.851,3.851,0,0,1,45.462,31.8" transform="translate(-34.556 -17.028)" fill="#ffaa82"/><path d="M47,45.407c-.023.41.167.755.424.769s.483-.307.506-.718-.167-.755-.424-.769-.483.307-.506.718" transform="translate(-38.466 -36.573)" fill="#353b44"/><path d="M67.158,46.258c-.043.409.129.762.385.789s.5-.282.542-.691-.129-.762-.385-.789-.5.282-.542.691" transform="translate(-54.956 -37.29)" fill="#353b44"/><path d="M40.348,12.168c1.768-1.661,6.633-.352,7.453.476.04,2.022-.858,3.958.416,4.614l1.127-.16.906-3.612a2.824,2.824,0,0,0-.441-2.328l-.5-.7s-.016-.081-.023-.131c-.169-1.243-1.666-2.054-3.174-2.283-6.382-.97-5.767,4.12-5.767,4.12" transform="translate(-33.007 -6.486)" fill="#744628"/><path d="M43.686,38.48a4.111,4.111,0,0,1,1.664.026l.031-.527a3.318,3.318,0,0,0-1.72-.02Z" transform="translate(-35.732 -30.98)" fill="#744628"/><path d="M64.187,39.63a4.436,4.436,0,0,1,1.783.118l.062-.561a3.577,3.577,0,0,0-1.843-.115Z" transform="translate(-52.53 -31.918)" fill="#744628"/><path d="M52.642,56.83s.143.668.659.662a.98.98,0,0,0,.78-.5A5.018,5.018,0,0,1,53.3,57a2.988,2.988,0,0,1-.655-.167" transform="translate(-43.082 -46.509)" fill="#d38462"/><path d="M83.072,49.224c-.362.757-1.046,1.184-1.528.954a.627.627,0,0,1-.131-.084,1.475,1.475,0,0,1-.086-1.7c.362-.757,1.046-1.184,1.528-.954s.58,1.032.218,1.789" transform="translate(-66.378 -38.769)" fill="#ea8a6c"/><path d="M84.415,50.337c-.066.212.321.25.343.422.034.263-.242.618-.041.653.333.058.738-.331.9-.867s.031-1.018-.3-1.075-.738.331-.9.867" transform="translate(-69.078 -40.481)" fill="#e28061"/><path d="M80.435,27.436l1.5-4.41-1.815-2.481-.081,6.822a.206.206,0,0,0,.4.069" transform="translate(-65.5 -16.814)" fill="#744628"/><path d="M52.1,63.5l-2.714-.036a.192.192,0,0,0-.19.237,1.616,1.616,0,0,0,1.517,1.384,1.641,1.641,0,0,0,1.569-1.341A.192.192,0,0,0,52.1,63.5" transform="translate(-40.258 -51.942)" fill="#fff"/><path d="M97.892,115.218a68.454,68.454,0,0,1,1.348,20.79l-2.213.354c.133-9.482-3.45-19.965-4.434-22.313l2.713-.506a2.235,2.235,0,0,1,2.585,1.675" transform="translate(-75.777 -92.89)" fill="#ffaa82"/><path d="M103.988,238.986l-1.216,1.087-1.07.92s.2.709,1.2.029c.65-.442,1.231-.92,1.277-.57.031.241.93-2.346-.194-1.465" transform="translate(-83.232 -195.433)" fill="#ffaa82"/><path d="M114.388,245.755l.049,0a.486.486,0,0,1,.453.514l-.4,3.8c-.017.266-.089.505-.354.488l-.049,0c-.266-.017-.291-.262-.274-.528l.065-3.823a.486.486,0,0,1,.514-.453" transform="translate(-93.137 -201.122)" fill="#ffaa82"/><path d="M117.409,247.686l.049,0a.486.486,0,0,1,.5.464l-.005,3.823c.011.266-.036.512-.3.522l-.049,0c-.266.011-.316-.23-.327-.5l-.333-3.809a.485.485,0,0,1,.464-.5" transform="translate(-95.706 -202.701)" fill="#ffaa82"/><path d="M120.138,243.068l.049,0a.485.485,0,0,1,.527.436l.2,3.818c.025.265-.009.513-.273.538l-.049,0c-.265.025-.328-.213-.353-.479L119.7,243.6a.485.485,0,0,1,.436-.528" transform="translate(-97.96 -198.918)" fill="#ffaa82"/><path d="M124.064,237.952l.049,0a.485.485,0,0,1,.527.436l.2,3.818c.025.265-.009.513-.273.538l-.049,0c-.265.025-.328-.213-.353-.479l-.536-3.786a.486.486,0,0,1,.436-.528" transform="translate(-101.173 -194.731)" fill="#ffaa82"/><path d="M114.628,234.677l-.179-2.657-.866-.594s-2.062,1.474-2.265,2.073.717,1.147.552,2.195,2.758-1.017,2.758-1.017" transform="translate(-91.077 -189.396)" fill="#ffaa82"/><path d="M94.876,101.61a36.62,36.62,0,0,1,1.736,7.193l-4.489,1.03-2.25-7.12a2.287,2.287,0,0,1,1.539-2.885,2.828,2.828,0,0,1,3.464,1.782" transform="translate(-73.463 -81.604)" fill="#888075"/><path d="M40.309,5.159S39.408-.122,45.44,0s4.875,6.262,4.875,6.262c-5.476-1.459-8.3-1.842-10.006-1.106" transform="translate(-32.949 0)" fill="#feba30"/><g transform="translate(7.24 3.789)" opacity="0.41" style="mix-blend-mode:multiply;isolation:isolate"><g clip-path="url(#c)"><path d="M39.863,22.674l.108,1.251a10.737,10.737,0,0,0,4.039.966,13.882,13.882,0,0,0,4.014-1.465l.047-.941-5.033-1.623-2.75.55Z" transform="translate(-39.863 -20.862)" fill="#744628"/></g></g><path d="M34.136,17.908l-1.87,2.3a5.357,5.357,0,0,1,5.613.683L41.864,19.5c-2.311-2.486-4.737-3.026-7.728-1.6" transform="translate(-26.406 -14.018)" fill="#fecf30"/><rect width="2.795" height="0.726" transform="translate(13.508 22.172)" fill="#feba30"/><rect width="2.795" height="0.363" transform="translate(13.508 23.398)" fill="#feba30"/><rect width="0.802" height="1.589" transform="translate(12.411 22.172)" fill="#feba30"/></g></g></g><g transform="translate(-49.955 31.108)"><ellipse cx="2.408" cy="2.408" rx="2.408" ry="2.408" transform="translate(18.999 0.899)" fill="#f2f2f2"/><path d="M1.161,11.22S-2.585,6.033,3.379,0Z" transform="translate(28.53 13.519)" fill="#f2f2f2"/><path d="M10.788,4.24S8.228-1.624,0,.44Z" transform="translate(16 21.098)" fill="#f2f2f2"/><path d="M0,10.632S.765,1.087,13.413,0Z" transform="translate(75.526 34.246)" fill="#f2f2f2"/><path d="M8.6,14.8S11.377,5.63,0,0Z" transform="translate(63.033 27.948)" fill="#f2f2f2"/><path d="M37.756,2.068S36.323.635,33.026.922c0,0-31.816-3.3-32.533,2.58s-.86,9.316,1,10.605c0,0,6.091,5.518,2.938,10.39l-1.72,2.866,67.5-.573s.717-10.462,2.866-12.469,2.866-12.612,0-12.9S36.968-.44,37.756,2.068Z" transform="translate(11.925 0)" fill="#3a3630"/><path d="M14.066.006S-6.141,4.735,1.884,13.621l1.29,1.29L2.6,34.688H95.757l1-19.348,1.147-2.293s7.14-8.563-13.485-11.662l-3.713,9.369-62.773-.43S17.506-.281,14.066.006Z" transform="translate(0 13.743)" fill="#3a3630"/><rect width="5.876" height="4.443" transform="translate(4.321 47.141)" fill="#3a3630"/><rect width="5.876" height="4.443" transform="translate(88.877 47.141)" fill="#3a3630"/><path d="M36.674,4.406s-14.03-9.96-31.514.072L0,11.93l1,6.163s36.259.573,36.689-3.3S36.674,4.406,36.674,4.406Z" transform="translate(11.917 20.163)" fill="#3a3630"/><path d="M32.013,3.5S7.4-4.379,0,3.5L.914,14.825s35.972,2.723,36.546.86a32.543,32.543,0,0,0,.86-5.159Z" transform="translate(49.412 21.137)" fill="#3a3630"/><path d="M69.508,4.44s-24.615-7.882-32.013,0l.02.253c-.024-.117-.038-.181-.038-.181A31.47,31.47,0,0,0,5.159,4.44L0,11.893l1,6.163s35.11.747,37.366-2.784l.04.491s35.972,2.723,36.546.86a32.545,32.545,0,0,0,.86-5.159Z" transform="translate(11.917 20.2)" fill="#fff" opacity="0.1" style="isolation:isolate"/><path d="M0,3.01A67.964,67.964,0,0,0,19.634,0a56.206,56.206,0,0,0,3.44,19.348c-6.781-1.232-13.663-.013-20.638,3.44C3.689,16.481,2.606,9.85,0,3.01Z" transform="translate(14.64 1.853)" fill="#fdbb30"/><path d="M23.074,3.01A67.964,67.964,0,0,1,3.44,0,56.2,56.2,0,0,1,0,19.348c6.781-1.232,13.663-.013,20.638,3.44C19.385,16.481,20.468,9.85,23.074,3.01Z" transform="translate(62.794 3)" fill="#fdbb30"/></g></g></g></g></g></svg>