<svg xmlns="http://www.w3.org/2000/svg" width="75" height="75" viewBox="0 0 75 75"><g transform="translate(-621 -1127)"><circle cx="37.5" cy="37.5" r="37.5" transform="translate(621 1127)"/><path d="M-3.75-9.375A3.75,3.75,0,0,0,0-5.625a3.75,3.75,0,0,0,3.75-3.75A3.75,3.75,0,0,0,0-13.125,3.75,3.75,0,0,0-3.75-9.375Zm13.125,0a3.75,3.75,0,0,0,3.75,3.75,3.75,3.75,0,0,0,3.75-3.75,3.75,3.75,0,0,0-3.75-3.75A3.75,3.75,0,0,0,9.375-9.375Zm-22.5,3.75a3.75,3.75,0,0,0,3.75-3.75,3.75,3.75,0,0,0-3.75-3.75,3.75,3.75,0,0,0-3.75,3.75A3.75,3.75,0,0,0-13.125-5.625ZM15-3.75H11.25A3.75,3.75,0,0,0,7.5,0V1.875A1.875,1.875,0,0,0,9.375,3.75h7.5A1.875,1.875,0,0,0,18.75,1.875V0A3.75,3.75,0,0,0,15-3.75Zm-13.125,0h-3.75A3.75,3.75,0,0,0-5.625,0V1.875A1.875,1.875,0,0,0-3.75,3.75h7.5A1.875,1.875,0,0,0,5.625,1.875V0A3.75,3.75,0,0,0,1.875-3.75Zm-13.125,0H-15A3.75,3.75,0,0,0-18.75,0V1.875A1.875,1.875,0,0,0-16.875,3.75h7.5A1.875,1.875,0,0,0-7.5,1.875V0A3.75,3.75,0,0,0-11.25-3.75ZM-13.125-22.5h26.25V-15a5.582,5.582,0,0,1,3.75,1.463v-9.807a2.864,2.864,0,0,0-2.812-2.906H-14.062a2.864,2.864,0,0,0-2.812,2.906v9.807A5.583,5.583,0,0,1-13.125-15Z" transform="translate(659 1176)" fill="#fcba2f"/></g></svg>