<svg xmlns="http://www.w3.org/2000/svg" xmlns:xlink="http://www.w3.org/1999/xlink" width="38.866" height="43.095" viewBox="0 0 38.866 43.095"><defs><linearGradient id="a" x1="0.5" x2="0.5" y2="1" gradientUnits="objectBoundingBox"><stop offset="0" stop-color="#3a3630"/><stop offset="1" stop-color="#3a3630" stop-opacity="0"/></linearGradient><linearGradient id="c" x1="0.138" y1="0.165" x2="1" y2="1" gradientUnits="objectBoundingBox"><stop offset="0" stop-color="#fdbb30"/><stop offset="1" stop-color="#ff9a9a"/></linearGradient><filter id="d" x="0" y="0" width="38.866" height="38.866" filterUnits="userSpaceOnUse"><feOffset dy="3" input="SourceAlpha"/><feGaussianBlur stdDeviation="3" result="e"/><feFlood flood-opacity="0.161"/><feComposite operator="in" in2="e"/><feComposite in="SourceGraphic"/></filter></defs><g transform="translate(75.824 170.334)"><g transform="translate(-40.121 -130.046) rotate(172)" opacity="0.1"><g transform="matrix(0.966, 0.259, -0.259, 0.966, 7.453, 0)"><path d="M1.8,13.182a8.158,8.158,0,0,1,1.8.21V2.634L2.362.369A.6.6,0,0,0,1.427.137a.767.767,0,0,0-.189.231L0,2.634V13.392A8.158,8.158,0,0,1,1.8,13.182Z" transform="translate(6.299 0)" fill="url(#a)"/><path d="M8.1,16.2a8.1,8.1,0,1,1,8.1-8.1A8.1,8.1,0,0,1,8.1,16.2Zm0-4.275A3.829,3.829,0,0,1,4.275,8.1a.675.675,0,1,0-1.35,0A5.181,5.181,0,0,0,8.1,13.274a.675.675,0,0,0,0-1.35Z" transform="translate(0 12.599)" fill="url(#a)"/></g></g><ellipse cx="8" cy="7" rx="8" ry="7" transform="translate(-63.771 -161)" fill="#fff"/><g transform="translate(-66.824 -164.334)"><path d="M163.318,361.273a10.509,10.509,0,0,0,2.318-.271V374.86l-1.594,2.919a.779.779,0,0,1-1.205.3.989.989,0,0,1-.244-.3L161,374.86V361A10.509,10.509,0,0,0,163.318,361.273Z" transform="translate(-152.885 -341.158)" fill="#d5d1cb"/><g transform="matrix(1, 0, 0, 1, -9, -6)" filter="url(#d)"><path d="M59.433,87.112A10.433,10.433,0,1,0,69.866,97.545,10.433,10.433,0,0,0,59.433,87.112Zm0,5.506a4.932,4.932,0,0,0-4.927,4.927.869.869,0,1,1-1.739,0,6.674,6.674,0,0,1,6.666-6.666.869.869,0,0,1,0,1.739Z" transform="translate(-40 -81.11)" fill="url(#c)"/></g></g></g></svg>