<svg xmlns="http://www.w3.org/2000/svg" width="1004" height="78" viewBox="0 0 1004 78"><g transform="translate(0)"><path d="M6,0H998a6,6,0,0,1,6,6V36a0,0,0,0,1,0,0H0a0,0,0,0,1,0,0V6A6,6,0,0,1,6,0Z" transform="translate(0)" fill="#3a3630" opacity="0.8"/><text transform="translate(125 21)" fill="#fff" font-size="6" font-family="GothamBlack, Gotham"><tspan x="0" y="0">CREATED</tspan></text><rect width="16" height="15" rx="4" transform="translate(13 11)" fill="#fff"/><text transform="translate(329 21)" fill="#fff" font-size="6" font-family="GothamBlack, Gotham"><tspan x="0" y="0">CUSTOMER NAME</tspan></text><text transform="translate(472 21)" fill="#fff" font-size="6" font-family="GothamBlack, Gotham"><tspan x="0" y="0">ADDRESS</tspan></text><text transform="translate(743 21)" fill="#fff" font-size="6" font-family="GothamBlack, Gotham"><tspan x="0" y="0">STATUS</tspan></text><text transform="translate(228 21)" fill="#fff" font-size="6" font-family="GothamBlack, Gotham"><tspan x="0" y="0">CREATED</tspan></text><text transform="translate(675 21)" fill="#fff" font-size="6" font-family="GothamBlack, Gotham"><tspan x="0" y="0">POST CODE</tspan></text><g transform="translate(0 35.895)"><rect height="42" transform="translate(41 0.105)" fill="#d7d6d5"/><g transform="translate(1 0.105)"><rect width="40" height="41" fill="#fff"/><g transform="translate(13 13)" fill="#fff" stroke="#cecbc7" stroke-width="1"><rect width="14" height="16" rx="4" stroke="none"/><rect x="0.5" y="0.5" width="13" height="15" rx="3.5" fill="none"/></g></g><text transform="translate(125 23.105)" fill="#3a3630" font-size="8" font-family="GothamBook, Gotham Book"><tspan x="0" y="0">21/10/2021 - 13:41</tspan></text><text transform="translate(329 23.105)" fill="#3a3630" font-size="8" font-family="GothamBook, Gotham Book"><tspan x="0" y="0">Theophanis Poppodopolis</tspan></text><text transform="translate(472 23.105)" fill="#3a3630" font-size="8" font-family="GothamBook, Gotham Book"><tspan x="0" y="0">Apartment 416, Granbury Avenue, Lee...</tspan></text><rect width="1" height="42" transform="translate(0 0.105)" fill="#d7d6d5"/><rect width="1" height="42" transform="translate(1003 0.105)" fill="#d7d6d5"/><rect width="1003" height="1" transform="translate(0 41.105)" fill="#d7d6d5"/><text transform="translate(227 23.105)" fill="#3a3630" font-size="8" font-family="GothamBook, Gotham Book"><tspan x="0" y="0">21/10/2021 - 14:12</tspan></text><g transform="translate(896 6.105)"><g fill="#f7f7f7" stroke="#ebebeb" stroke-width="1"><rect width="67" height="29" rx="14.5" stroke="none"/><rect x="0.5" y="0.5" width="66" height="28" rx="14" fill="none"/></g><g transform="translate(12.668 10.557)"><text transform="translate(0.332 5.442)" fill="#888075" font-size="5" font-family="EvelethCleanRegular, Eveleth Clean"><tspan x="0" y="0">more info</tspan></text></g></g><text transform="translate(55 23.105)" fill="#3a3630" font-size="8" font-family="GothamBook, Gotham Book"><tspan x="0" y="0">1009</tspan></text><text transform="translate(743 23.105)" fill="#3a3630" font-size="8" font-family="GothamBook, Gotham Book"><tspan x="0" y="0">Dispatched</tspan></text><text transform="translate(675 23.105)" fill="#3a3630" font-size="8" font-family="GothamBook, Gotham Book"><tspan x="0" y="0">XXX XXX</tspan></text></g><g transform="translate(269.953 15.353)"><path d="M13.244,6.4c1.406,0,2.448-.632,2.448-1.832,0-1.35-1.453-1.856-2.306-2.156-.735-.253-1.019-.379-1.019-.624,0-.205.213-.419.75-.419a.9.9,0,0,1,.916.5.257.257,0,0,0,.268.213h1.1a.217.217,0,0,0,.205-.221C15.527.75,14.523,0,13.086,0c-1.406,0-2.409.735-2.409,1.911,0,1.271,1.287,1.745,2.267,2.069.742.253,1.05.411,1.05.671,0,.182-.19.379-.782.379a1.077,1.077,0,0,1-.987-.395c-.095-.166-.134-.205-.316-.205H10.843a.218.218,0,0,0-.205.221C10.749,5.781,11.846,6.4,13.244,6.4M8.727,3.972c0,.735-.316.9-.774.9-.411,0-.782-.166-.782-.9V3.649a.192.192,0,0,0-.19-.19h-1.2a.192.192,0,0,0-.19.19V4A2.233,2.233,0,0,0,7.953,6.4,2.2,2.2,0,0,0,10.3,4V.308a.192.192,0,0,0-.19-.19H8.916a.192.192,0,0,0-.19.19V3.972ZM3.467,2.045c0,.292-.158.49-.584.49H1.737a.158.158,0,0,1-.158-.158V1.714a.158.158,0,0,1,.158-.158H2.969a.451.451,0,0,1,.5.49M3.743,4.3c0,.324-.158.553-.584.553H1.737a.158.158,0,0,1-.158-.158V3.925a.159.159,0,0,1,.158-.158H3.159c.427,0,.584.213.584.529M3.333,6.279A1.771,1.771,0,0,0,5.339,4.541a1.425,1.425,0,0,0-.885-1.366.079.079,0,0,1-.008-.142,1.393,1.393,0,0,0,.616-1.216c0-.979-.671-1.7-2-1.7H.19A.192.192,0,0,0,0,.308V6.089a.192.192,0,0,0,.19.19Z" transform="translate(0)" fill="#feba30"/></g><g transform="translate(166.962 12.154)"><path d="M8.5,2.088A.1.1,0,0,0,8.4,2l-.815-.018s-.648-.631-.71-.692a.26.26,0,0,0-.237-.026s-.123.035-.324.1A2.565,2.565,0,0,0,6.155.975,1.1,1.1,0,0,0,5.183.3h0a.329.329,0,0,0-.088.009C5.086.292,5.069.283,5.06.265a.833.833,0,0,0-.675-.272A1.945,1.945,0,0,0,2.913,1.063a4.345,4.345,0,0,0-.6,1.534c-.6.184-1.025.315-1.034.324-.307.1-.315.105-.351.394C.906,3.534.1,9.712.1,9.712l6.695,1.157,2.9-.719C9.687,10.141,8.5,2.141,8.5,2.088ZM5.98,1.466c-.158.044-.333.105-.517.158A2.79,2.79,0,0,0,5.305.669C5.7.747,5.892,1.194,5.98,1.466ZM5.1,1.738c-.351.105-.736.228-1.122.342a2.707,2.707,0,0,1,.561-1.1A1.409,1.409,0,0,1,4.92.7,2.293,2.293,0,0,1,5.1,1.738ZM4.394.344a.6.6,0,0,1,.315.079A1.715,1.715,0,0,0,4.3.747,3.129,3.129,0,0,0,3.605,2.2l-.92.28C2.869,1.641,3.579.371,4.394.344Z" transform="translate(-0.1 0.007)" fill="#95bf47"/><g transform="translate(1.77 1.254)"><path d="M78.012,15.054l-.815-.018s-.648-.631-.71-.692A.167.167,0,0,0,76.4,14.3v9.613l2.9-.719s-1.183-8-1.192-8.062A.1.1,0,0,0,78.012,15.054Z" transform="translate(-71.484 -14.3)" fill="#5e8e3e"/><path d="M23.6,38.721l-.333,1.262a1.829,1.829,0,0,0-.824-.14c-.657.044-.657.456-.657.561.035.561,1.516.684,1.6,2.007a1.559,1.559,0,0,1-1.437,1.805,2.15,2.15,0,0,1-1.656-.561l.228-.964a1.99,1.99,0,0,0,1.06.412A.423.423,0,0,0,22,42.656c-.044-.736-1.253-.692-1.332-1.9a2.011,2.011,0,0,1,2.077-2.138A1.726,1.726,0,0,1,23.6,38.721Z" transform="translate(-20.3 -36.478)" fill="#fff"/></g></g><text transform="translate(55 21)" fill="#fff" font-size="6" font-family="GothamBlack, Gotham"><tspan x="0" y="0">ORDER NUM</tspan></text><path d="M0,0H66a6,6,0,0,1,6,6V36a0,0,0,0,1,0,0H0a0,0,0,0,1,0,0V0A0,0,0,0,1,0,0Z" transform="translate(932)" fill="#615e59"/><text transform="translate(957 20)" fill="#fff" font-size="8" font-family="GothamBook, Gotham Book" opacity="0.5" text-decoration="underline"><tspan x="0" y="0">Refresh</tspan></text><text transform="translate(945 21)" fill="#e6faeb" font-size="8" font-family="FontAwesome5Pro-Regular, 'Font Awesome \35  Pro'"><tspan x="0" y="0"></tspan></text></g></svg>