<svg xmlns="http://www.w3.org/2000/svg" width="75" height="75" viewBox="0 0 75 75"><g transform="translate(-621 -1127)"><circle cx="37.5" cy="37.5" r="37.5" transform="translate(621 1127)"/><path d="M-10.312-11.25H10.313a.94.94,0,0,0,.938-.937V-25.312a.94.94,0,0,0-.937-.937H3.75v7.5L0-20.625-3.75-18.75v-7.5h-6.562a.94.94,0,0,0-.937.938v13.125A.94.94,0,0,0-10.312-11.25Zm28.125,7.5a.94.94,0,0,0,.938-.937V-6.562a.94.94,0,0,0-.937-.937H-17.812a.94.94,0,0,0-.937.938v1.875a.94.94,0,0,0,.938.938H-15V0h-2.812a.94.94,0,0,0-.937.938V2.813a.94.94,0,0,0,.938.938H17.813a.94.94,0,0,0,.938-.937V.938A.94.94,0,0,0,17.813,0H15V-3.75ZM-1.875,0H-11.25V-3.75h9.375ZM11.25,0H1.875V-3.75H11.25Z" transform="translate(659 1176)" fill="#fcba2f"/></g></svg>