<svg xmlns="http://www.w3.org/2000/svg" width="250.197" height="250.414" viewBox="0 0 250.197 250.414"><path d="M91,91.014,196.082,216.037h40.033L341.2,91.014Z" transform="translate(-91 -90.622)" fill="#f1f6ff"/><path d="M236.115,255.841H196.082L91,380.863H341.2Z" transform="translate(-91 -130.481)" fill="#f1f6ff"/><path d="M94.73,400.755v-49.5h-2v51.5h51.5v-2Z" transform="translate(-91.418 -153.556)" fill="#d9e7ff"/><path d="M93.28,346.813A2.186,2.186,0,1,0,95.47,349a2.186,2.186,0,0,0-2.19-2.184Zm0,2.37A.183.183,0,0,1,93.1,349a.185.185,0,0,1,.183-.182.188.188,0,0,1,.189.182.186.186,0,0,1-.189.186Zm51.713,49.338a2.185,2.185,0,1,0,2.188,2.186A2.185,2.185,0,0,0,144.993,398.522Zm0,2.368a.182.182,0,0,1-.186-.182.186.186,0,0,1,.186-.185.183.183,0,1,1,0,.367ZM93.335,372.623v2A26.089,26.089,0,0,1,119.4,400.68h2A28.092,28.092,0,0,0,93.335,372.623Z" transform="translate(-91.024 -152.481)" fill="#d9e7ff"/><path d="M107.835,386.471l1.415,1.415,1.415-1.415-1.415-1.415Zm5.661-5.661,1.415,1.416,1.416-1.415-1.415-1.416ZM105,389.3l1.415,1.415,1.415-1.415-1.415-1.415Zm-5.661,5.661,1.415,1.415,1.415-1.415-1.415-1.415Zm-2.831,2.831,1.415,1.415,1.415-1.415-1.415-1.415Zm-2.633,2.632,1.415,1.416,1.218-1.218L95.1,399.209Zm22.448-22.446,1.415,1.415,1.415-1.415-1.415-1.415Zm-14.154,14.153,1.415,1.416L105,392.132l-1.415-1.416Zm8.492-8.492,1.415,1.415,1.415-1.415-1.415-1.415Zm25.476-25.475,1.415,1.416,1.416-1.415-1.415-1.416ZM133.311,361l1.415,1.416L136.141,361l-1.415-1.416Zm5.662-5.661,1.415,1.415,1.415-1.415-1.415-1.415Zm4.246-4.246L141.8,352.5l1.415,1.415,1.415-1.415Zm-24.061,24.06,1.415,1.415,1.415-1.415-1.415-1.415Zm5.661-5.661,1.415,1.416,1.416-1.415-1.415-1.416Zm-2.83,2.831,1.415,1.415,1.415-1.415L123.4,370.9Zm5.661-5.661,1.415,1.415,1.415-1.415-1.415-1.415Zm2.831-2.831,1.415,1.415,1.415-1.415-1.415-1.415Z" transform="translate(-91.696 -153.515)" fill="#c8dff5"/><path d="M351.344,92.573v2h49.5v49.5h2v-51.5Z" transform="translate(-153.958 -90.999)" fill="#c8dff5"/><path d="M400.833,142.683a2.186,2.186,0,1,0,2.183,2.188A2.186,2.186,0,0,0,400.833,142.683Zm0,2.37a.187.187,0,0,1-.188-.182.186.186,0,1,1,.188.182ZM349.119,90.976a2.185,2.185,0,1,0,2.188,2.184,2.185,2.185,0,0,0-2.188-2.184Zm0,2.368a.187.187,0,0,1-.186-.183.184.184,0,1,1,.186.183Zm25.6-.155h-2a28.091,28.091,0,0,0,28.062,28.056v-2a26.087,26.087,0,0,1-26.06-26.055Z" transform="translate(-152.893 -90.612)" fill="#d9e7ff"/><path d="M373.822,120.419l1.415,1.415,1.415-1.415L375.237,119Zm-5.662,5.661,1.415,1.416,1.416-1.415-1.415-1.416Zm-5.661,5.661,1.415,1.415,1.415-1.415-1.415-1.415Zm8.492-8.492,1.415,1.416,1.416-1.416-1.415-1.416Zm-5.661,5.661,1.415,1.415,1.415-1.415-1.415-1.415Zm-5.662,5.661,1.415,1.416,1.416-1.415-1.415-1.416Zm-8.492,8.492,1.415,1.415,1.415-1.415-1.415-1.415Zm2.831-2.831,1.415,1.415,1.415-1.415-1.415-1.415Zm2.83-2.831,1.415,1.416,1.416-1.415-1.415-1.416Zm19.815-19.814L378.068,119l1.415-1.415-1.415-1.415Zm14.153-14.153,1.415,1.416,1.416-1.415-1.415-1.416Zm5.662-5.661,1.415,1.415,1.415-1.415-1.415-1.415Zm-2.831,2.831,1.415,1.415,1.415-1.415-1.415-1.415Zm6.88-6.88L399.3,94.943l1.415,1.416,1.219-1.219Zm-21.033,21.033,1.415,1.416,1.416-1.415-1.415-1.416Zm8.492-8.491,1.415,1.415,1.415-1.415-1.415-1.415Zm-5.662,5.661,1.415,1.415,1.415-1.415-1.415-1.415Zm2.831-2.831,1.415,1.415,1.415-1.415-1.415-1.415Z" transform="translate(-153.918 -91.277)" fill="#c8dff5"/><path d="M400.878,351.223v49.5h-49.5v2h51.5v-51.5Z" transform="translate(-153.967 -153.547)" fill="#c8dff5"/><path d="M349.118,398.519a2.187,2.187,0,1,0,2.188,2.192,2.187,2.187,0,0,0-2.188-2.192Zm0,2.373a.183.183,0,1,1,.131-.052.184.184,0,0,1-.131.052Zm51.712-54.083A2.188,2.188,0,1,0,403.013,349a2.188,2.188,0,0,0-2.183-2.189Zm0,2.374a.184.184,0,1,1,.182-.185.181.181,0,0,1-.182.184Zm-28.085,51.471h2a26.088,26.088,0,0,1,26.056-26.06v-2A28.091,28.091,0,0,0,372.744,400.654Z" transform="translate(-152.891 -152.48)" fill="#d9e7ff"/><path d="M366.78,365.209l-1.415,1.415,1.415,1.415,1.415-1.415Zm8.491,8.492-1.415,1.416,1.416,1.415,1.415-1.416Zm-7.076-4.246,1.415,1.415,1.415-1.415-1.415-1.415Zm4.246,1.416-1.415,1.415,1.415,1.415,1.415-1.415Zm-11.322-11.323-1.415,1.415,1.415,1.415,1.415-1.415Zm-5.661-5.661-1.415,1.415,1.415,1.415,1.415-1.415Zm-4.246-1.415,1.415,1.415,1.415-1.415-1.415-1.415Zm5.661,5.661,1.415,1.415,1.415-1.415-1.415-1.415Zm5.661,5.661,1.415,1.415,1.415-1.415-1.415-1.415Zm29.721,26.891L390.84,392.1l1.416,1.415,1.415-1.416Zm1.416,4.246,1.415,1.415,1.415-1.415-1.415-1.415Zm4.246,1.416-1.415,1.415,1.415,1.415,1.415-1.415Zm2.83,2.831-1.415,1.415,1.218,1.218,1.415-1.415Zm-14.153-14.154-1.415,1.416,1.416,1.415,1.415-1.416Zm-5.661-5.661-1.415,1.416,1.416,1.415,1.415-1.416Zm2.831,2.831-1.415,1.415,1.415,1.415,1.415-1.415Zm-5.661-5.661-1.415,1.415,1.415,1.415,1.415-1.415Zm11.322,11.323-1.415,1.415,1.415,1.415,1.415-1.415Z" transform="translate(-153.926 -153.507)" fill="#c8dff5"/><path d="M92.7,92.607v51.5h2v-49.5h49.495v-2Z" transform="translate(-91.41 -91.007)" fill="#c8dff5"/><path d="M144.993,90.973a2.187,2.187,0,1,0,2.184,2.184A2.187,2.187,0,0,0,144.993,90.973Zm0,2.373a.186.186,0,0,1-.187-.189.183.183,0,0,1,.187-.182.185.185,0,0,1,.182.182.188.188,0,0,1-.182.189ZM93.281,142.682a2.188,2.188,0,1,0,2.187,2.187,2.188,2.188,0,0,0-2.187-2.187Zm0,2.373a.186.186,0,0,1-.181-.186.182.182,0,0,1,.181-.186.186.186,0,0,1,.185.186.188.188,0,0,1-.185.186Zm26.083-51.844a26.086,26.086,0,0,1-26.054,26.06v2a28.09,28.09,0,0,0,28.056-28.061Z" transform="translate(-91.022 -90.612)" fill="#d9e7ff"/><path d="M106.387,104.882l-1.415,1.415,1.415,1.415L107.8,106.3Zm2.83,2.83-1.415,1.416,1.416,1.415,1.415-1.416Zm2.831,2.831-1.415,1.415,1.415,1.415,1.415-1.415Zm2.83,2.83-1.415,1.416,1.416,1.415,1.415-1.416ZM100.726,99.22l-1.415,1.415,1.415,1.415,1.415-1.415Zm-5.464-5.464-1.415,1.415,1.218,1.218,1.415-1.415Zm8.294,8.294-1.415,1.416,1.416,1.415,1.415-1.416ZM96.48,97.8,97.9,99.22,99.311,97.8,97.9,96.39Zm21.23,18.4-1.415,1.415,1.415,1.415,1.415-1.415Zm15.568,18.4,1.415,1.415,1.415-1.415-1.415-1.415Zm5.661,5.661,1.415,1.415,1.415-1.415-1.415-1.416Zm-1.415-4.246-1.415,1.415,1.415,1.415,1.415-1.415Zm5.661,5.661L141.77,143.1l1.415,1.416L144.6,143.1Zm-11.322-11.323-1.415,1.415,1.415,1.415,1.415-1.415ZM120.54,119.035l-1.415,1.416,1.416,1.415,1.415-1.416Zm7.077,9.907,1.415,1.415,1.415-1.415-1.415-1.415Zm-5.661-5.661,1.415,1.415,1.415-1.415-1.415-1.416ZM126.2,124.7l-1.415,1.415,1.415,1.415,1.415-1.415Z" transform="translate(-91.689 -91.285)" fill="#c8dff5"/><path d="M140.525,93.136H253.987a9.343,9.343,0,0,1,9.343,9.343V329.991a9.343,9.343,0,0,1-9.343,9.343H140.524a9.342,9.342,0,0,1-9.342-9.342V102.48a9.343,9.343,0,0,1,9.343-9.343Z" transform="translate(-100.717 -91.135)" fill="#888075"/><path d="M246.971,93.136H155.835c-4.145,0-7.5,4.183-7.5,9.343V329.991c0,5.16,3.36,9.343,7.5,9.343h91.135c4.145,0,7.5-4.183,7.5-9.343V102.48C254.476,97.32,251.115,93.136,246.971,93.136Z" transform="translate(-104.864 -91.135)" fill="#92897d"/><path d="M253.349,90.5H139.886a11.358,11.358,0,0,0-11.345,11.345V329.353A11.358,11.358,0,0,0,139.886,340.7H253.349a11.357,11.357,0,0,0,11.344-11.345V101.841A11.357,11.357,0,0,0,253.349,90.5Zm7.341,238.856a7.35,7.35,0,0,1-7.341,7.342H139.886a7.35,7.35,0,0,1-7.342-7.342V101.841a7.35,7.35,0,0,1,7.342-7.341H253.349a7.35,7.35,0,0,1,7.341,7.341Z" transform="translate(-100.078 -90.496)" fill="#3a3630"/><rect width="132.148" height="186.553" transform="translate(30.465 31.825)" fill="#fff"/><rect width="106.146" height="186.553" transform="translate(43.466 31.825)" fill="#fff"/><path d="M262.851,130.492H130.7a1.5,1.5,0,0,0-1.5,1.5V318.546a1.5,1.5,0,0,0,1.5,1.5H262.851a1.5,1.5,0,0,0,1.5-1.5V131.993a1.5,1.5,0,0,0-1.5-1.5Zm-1.5,186.553H132.2V133.494H261.35Z" transform="translate(-100.238 -100.169)" fill="#3a3630"/><path d="M201.451,321.864h18.727A5.138,5.138,0,0,1,225.316,327v3.5a5.139,5.139,0,0,1-5.139,5.139H201.451a5.138,5.138,0,0,1-5.138-5.138V327a5.138,5.138,0,0,1,5.138-5.138ZM232.4,110.3H189.226a1.978,1.978,0,0,0,0,3.956H232.4a1.978,1.978,0,0,0,0-3.956Zm23.935-1.214a3.192,3.192,0,1,0,3.193,3.193,3.192,3.192,0,0,0-3.193-3.193Z" transform="translate(-114.275 -94.992)" fill="#fff"/><path d="M177.8,168.329H162.182v25.061H177.8l22.963,18.374V149.958Z" transform="translate(-108.214 -104.876)" fill="#fff"/><path d="M178.989,170.57H162.182v24.793h16.807l14.769,10.863V159.709Z" transform="translate(-97.627 -106.154)" fill="#feba30"/><path d="M222.792,149.958v52.535a26.267,26.267,0,0,0,0-52.535Z" transform="translate(-119.178 -99.471)" fill="#fff"/><path d="M222.792,163.689v34.835a17.417,17.417,0,0,0,0-34.835Z" transform="translate(-119.178 -104.353)" fill="#fff"/><path d="M222.792,177.2v17.415a8.707,8.707,0,0,0,0-17.415Z" transform="translate(-119.178 -109.159)" fill="#fff"/><path d="M194.77,147.486a1.7,1.7,0,0,0-1.8.2l-19.051,15.242H161.243a1.7,1.7,0,0,0-1.7,1.7v21.3a1.7,1.7,0,0,0,1.7,1.7h12.676l19.051,15.245a1.7,1.7,0,0,0,2.764-1.328V149.019a1.7,1.7,0,0,0-.965-1.534Zm-2.438,50.528-16.753-13.406a1.7,1.7,0,0,0-1.063-.373H162.945v-17.9h11.572a1.7,1.7,0,0,0,1.063-.373l16.753-13.4Zm8.861-50.256q-.444-.014-.891-.014h-1.276V150.3H200.3q.407,0,.81.013l1.275.04.081-2.551Z" transform="translate(-96.688 -98.532)" fill="#feba30"/><path d="M250.972,176.4q.013-.439.014-.881,0-.461-.015-.919l-.017-.525.024,0-.036-.375-.012-.373H250.9l-.051-.523c-.058-.595-.137-1.2-.234-1.787l-.086-.519.024-.005-.084-.362-.061-.372-.025,0-.119-.512c-.136-.584-.293-1.17-.466-1.741l-.153-.5.022-.008-.127-.337-.113-.371-.024.007-.186-.493c-.21-.557-.442-1.116-.69-1.663l-.217-.479.022-.012-.176-.328L248,162.98l-.023.01-.248-.463c-.283-.528-.587-1.052-.9-1.558l-.278-.446.02-.014-.218-.3-.2-.318-.021.013-.307-.427c-.349-.486-.719-.966-1.1-1.428l-.334-.406.017-.016-.25-.267-.244-.3-.019.016-.359-.384c-.408-.436-.837-.864-1.274-1.274l-.384-.36.015-.019-.288-.236-.275-.257-.017.018-.407-.334c-.462-.38-.943-.749-1.429-1.1l-.428-.307.013-.021-.315-.2-.306-.22-.014.02-.447-.279c-.51-.317-1.035-.621-1.561-.9l-.466-.25.01-.022-.34-.154-.329-.176-.012.022-.482-.218c-.546-.248-1.106-.48-1.666-.691l-.5-.186.007-.023-.35-.106-.355-.134-.009.023-.507-.153c-.572-.173-1.158-.329-1.742-.465l-.513-.119,0-.025-.379-.062-.355-.082-.006.024-.52-.085c-.592-.1-1.193-.174-1.786-.232l-1.27-.123-.246,2.54,1.27.123c.539.052,1.085.123,1.622.211l.8.13.805.187c.529.123,1.06.265,1.579.421l.79.239.761.286c.508.191,1.016.4,1.512.626l.745.338.722.387c.478.255.954.531,1.416.819l.7.434.662.475c.442.317.878.652,1.3,1l.634.521.6.558c.4.372.786.76,1.156,1.156l.566.6.514.625c.344.419.68.856,1,1.3l.478.664.432.693c.286.459.562.935.819,1.415l.387.722.337.741c.225.5.436,1,.625,1.508l.293.778.234.77c.158.518.3,1.049.423,1.578l.186.8.132.8c.088.536.16,1.081.213,1.62l.079.813.027.82q.014.416.014.835,0,.4-.012.8l-.026.818-.078.815c-.052.539-.123,1.085-.21,1.621l-.131.8-.186.806c-.122.525-.263,1.057-.421,1.579l-.233.771-.292.779c-.19.506-.4,1.014-.626,1.512l-.334.739-.389.728c-.256.478-.531.954-.819,1.417l-.428.689-.481.671c-.316.441-.651.877-1,1.3l-.522.636-.556.594c-.372.4-.761.787-1.156,1.158l-.594.557-.635.522c-.42.345-.856.681-1.3,1l-.661.475-.7.434c-.459.287-.935.562-1.414.82l-.716.385-.747.34c-.494.225-1,.436-1.507.627l-.756.286-.792.241c-.517.157-1.049.3-1.578.424l-.793.185-.811.134c-.536.088-1.081.16-1.62.213l-1.27.125.249,2.54,1.27-.125c.6-.059,1.2-.137,1.787-.235l.52-.086.006.024.368-.086.365-.06,0-.024.513-.12c.584-.136,1.169-.294,1.74-.467l.5-.153.009.024.358-.136.349-.106-.007-.023.493-.187c.558-.211,1.117-.444,1.662-.691l.478-.218.012.022.334-.179.338-.154-.01-.022.463-.249c.527-.283,1.051-.587,1.557-.9l.446-.278.015.02.307-.221.315-.2-.013-.021.427-.307c.485-.348.965-.718,1.427-1.1l.406-.334.017.018.276-.259.286-.236-.015-.019.383-.36c.436-.408.864-.837,1.273-1.275l.36-.384.018.015.235-.286.259-.277-.018-.017.334-.407c.38-.463.749-.944,1.1-1.43l.308-.429.021.013.2-.323.214-.3-.02-.014.279-.448c.317-.51.621-1.035.9-1.561l.249-.466.023.01.157-.346.173-.323-.022-.011.218-.482c.248-.548.48-1.109.69-1.667l.186-.5.025.007.112-.369.126-.336-.022-.009.153-.507c.174-.576.33-1.162.464-1.742l.118-.512.025,0,.062-.378.082-.356-.023-.005.085-.519c.1-.591.174-1.193.232-1.787l.05-.523h.024l.012-.375.036-.373-.024,0Z" transform="translate(-119.827 -98.77)" fill="#feba30"/><path d="M224.174,205.342l-1.275.04q-.4.013-.81.013h-1.276v2.552h1.276q.447,0,.891-.014l1.276-.04ZM223,161.731q-.454-.022-.912-.022h-1.276v2.552h1.276q.4,0,.79.019l1.275.061.122-2.549Z" transform="translate(-118.475 -103.649)" fill="#feba30"/><path d="M242.077,181.311q.021-.448.021-.9t-.023-.931l-.027-.558.036-.005-.054-.359-.017-.352-.035,0-.082-.552c-.09-.6-.21-1.21-.358-1.8l-.136-.542.032-.011-.116-.324-.09-.36-.036.009-.188-.526c-.2-.571-.441-1.141-.7-1.7l-.239-.5.03-.018-.181-.3-.157-.33-.032.015-.287-.478c-.312-.52-.656-1.032-1.021-1.523l-.333-.448.025-.023-.236-.26-.217-.292-.029.021-.376-.413c-.408-.45-.845-.886-1.3-1.3l-.413-.374.021-.028-.285-.212-.268-.243-.024.026-.448-.332c-.49-.364-1-.707-1.524-1.02l-.479-.288.015-.031-.32-.151-.31-.186-.018.031-.505-.239c-.55-.261-1.121-.5-1.7-.7l-.528-.189.009-.035-.35-.087-.333-.119-.012.033-.544-.135c-.592-.147-1.2-.267-1.8-.356l-1.263-.185-.371,2.525,1.262.185c.52.076,1.043.18,1.554.307l.765.19.75.268c.5.177.987.381,1.462.606l.721.342.677.406c.45.27.893.567,1.317.881l.639.475.585.53c.391.354.768.731,1.121,1.12l.538.592.469.631c.315.424.612.866.881,1.315l.412.685.337.71c.227.478.431.969.606,1.461l.272.759.189.756c.127.508.231,1.031.309,1.553l.116.779.039.8q.019.4.02.806t-.019.779l-.038.793-.115.784c-.076.521-.179,1.044-.306,1.553l-.191.769-.266.747c-.176.493-.38.985-.606,1.463l-.339.717-.408.679c-.27.452-.566.895-.88,1.317l-.472.637-.532.588c-.353.391-.73.768-1.119,1.121l-.59.536-.634.472c-.422.314-.864.611-1.315.882l-.677.408-.718.341c-.475.226-.967.43-1.462.608l-.74.266-.774.194c-.509.128-1.031.232-1.552.309l-1.262.187.375,2.524,1.262-.188c.6-.09,1.209-.21,1.8-.358l.542-.136.012.034.342-.123.341-.086-.008-.034.526-.189c.574-.206,1.143-.443,1.694-.7l.5-.24.019.031.308-.186.321-.152-.015-.032.479-.288c.522-.314,1.034-.658,1.522-1.022l.447-.333.023.026.263-.239.29-.216-.021-.028.412-.374c.45-.409.886-.846,1.3-1.3l.374-.414.028.021.213-.288.24-.265-.026-.023.332-.448c.363-.489.705-1,1.019-1.525l.287-.48.032.015.153-.323.184-.307-.03-.018.239-.506c.261-.553.5-1.124.7-1.7l.188-.527.034.008.086-.347.12-.336-.034-.012.135-.543c.147-.59.266-1.2.355-1.8l.081-.552.035,0,.017-.357.052-.355-.035-.005Z" transform="translate(-119.788 -103.657)" fill="#feba30"/><path d="M224.153,201.269l-1.275.061q-.393.019-.79.019h-1.276V203.9h1.276q.458,0,.912-.022l1.274-.061Zm-1.092-26c-.321-.031-.649-.047-.972-.047h-1.276v2.552h1.276c.242,0,.487.012.727.035l1.27.123.245-2.54Z" transform="translate(-118.475 -108.455)" fill="#feba30"/><path d="M233.294,185.24c0-.329-.016-.66-.048-.984l-.067-.683.058-.018-.088-.289-.028-.281-.056.005-.2-.656a10,10,0,0,0-.751-1.807l-.323-.6.045-.037-.186-.226-.138-.258-.051.028-.435-.529a10.1,10.1,0,0,0-1.384-1.382l-.529-.435.027-.051-.259-.138-.225-.185-.037.045-.6-.323a9.959,9.959,0,0,0-1.81-.75l-1.221-.369-.739,2.443,1.222.369a7.417,7.417,0,0,1,1.345.557l.645.345.567.465a7.549,7.549,0,0,1,1.032,1.031l.465.565.345.645a7.4,7.4,0,0,1,.559,1.344l.21.691.073.737c.024.241.036.489.036.734s-.012.486-.034.726l-.069.725-.213.7a7.337,7.337,0,0,1-.556,1.344l-.348.65-.462.563a7.466,7.466,0,0,1-1.03,1.031l-.569.467-.642.345a7.394,7.394,0,0,1-1.344.558l-1.221.371.741,2.442,1.221-.371a9.961,9.961,0,0,0,1.809-.751l.6-.323.037.044.224-.184.262-.14-.028-.052.528-.434a10.035,10.035,0,0,0,1.383-1.384l.434-.529.051.027.136-.254.189-.23-.046-.038.323-.6a9.932,9.932,0,0,0,.75-1.811l.2-.659.059.006.028-.292.083-.276-.056-.017.065-.685C233.278,185.888,233.294,185.561,233.294,185.24Z" transform="translate(-119.694 -108.486)" fill="#feba30"/><path d="M224.086,202l-1.27.123c-.24.023-.485.035-.727.035h-1.276v2.552h1.276c.323,0,.651-.016.972-.047l1.27-.123Z" transform="translate(-118.475 -117.977)" fill="#feba30"/><rect width="23.205" height="2.002" transform="translate(215.888 75.35)" fill="#d9e7ff"/><rect width="17.424" height="2.002" transform="translate(215.888 82.116)" fill="#d9e7ff"/><rect width="23.205" height="2.002" transform="translate(215.888 88.884)" fill="#d9e7ff"/><rect width="17.424" height="2.002" transform="translate(215.888 95.651)" fill="#d9e7ff"/><rect width="23.205" height="2.002" transform="translate(215.888 102.417)" fill="#d9e7ff"/><path d="M216.466,289.129l-3.707-3.519a22.475,22.475,0,0,0-.012-9.226l3.713-3.537a2.333,2.333,0,0,0,.416-2.856l-3.518-6.1a2.334,2.334,0,0,0-2.694-1.069l-4.913,1.451a22.44,22.44,0,0,0-7.99-4.624l-1.2-4.971a2.328,2.328,0,0,0-2.263-1.787h-7.045a2.332,2.332,0,0,0-2.268,1.8l-1.194,4.971a21.588,21.588,0,0,0-8,4.613l-4.906-1.451a2.33,2.33,0,0,0-2.689,1.069l-3.517,6.1a2.32,2.32,0,0,0,.416,2.856l3.7,3.514a22.468,22.468,0,0,0,0,9.243l-3.713,3.531a2.345,2.345,0,0,0-.411,2.862l3.523,6.088a2.336,2.336,0,0,0,2.683,1.081l4.912-1.457a22.221,22.221,0,0,0,8,4.624l1.194,4.983a2.34,2.34,0,0,0,2.268,1.786h7.039a2.336,2.336,0,0,0,2.269-1.786l1.2-4.988a22.1,22.1,0,0,0,4.254-1.881,22.9,22.9,0,0,0,3.754-2.738l4.9,1.457a2.352,2.352,0,0,0,2.688-1.069l3.523-6.111a2.335,2.335,0,0,0-.417-2.856Z" transform="translate(-108.742 -129.768)" fill="#eee4d0"/><path d="M212.836,291.14a22.762,22.762,0,0,0,.444-3.56l-.444-.428a22.981,22.981,0,0,0,.379-2.629,23.042,23.042,0,0,0-.39-2.7l.452-.437a22.943,22.943,0,0,0-.452-3.55l3.56-3.439-2.951-5.188a2.31,2.31,0,0,0-2.683-1.08l-4.892,1.465a22.274,22.274,0,0,0-7.957-4.67l-1.194-5.02a2.325,2.325,0,0,0-2.254-1.8h-7.015a2.329,2.329,0,0,0-2.259,1.816l-1.189,5.02a21.43,21.43,0,0,0-7.963,4.658l-4.886-1.465a2.306,2.306,0,0,0-2.678,1.08l-2.95,5.188,3.547,3.416a22.607,22.607,0,0,0-.451,3.553l.451.434a22.376,22.376,0,0,0-.385,2.651,23.387,23.387,0,0,0,.385,2.7l-.449.433a23.494,23.494,0,0,0,.449,3.555l-3.557,3.43,2.959,5.185a2.312,2.312,0,0,0,2.672,1.092l4.892-1.471a22.057,22.057,0,0,0,7.963,4.67l1.189,5.032a2.337,2.337,0,0,0,2.259,1.8h7.01a2.333,2.333,0,0,0,2.259-1.8l1.194-5.037a21.853,21.853,0,0,0,4.236-1.9,22.827,22.827,0,0,0,3.739-2.765l4.88,1.471a2.328,2.328,0,0,0,2.677-1.08l2.957-5.2Z" transform="translate(-109.405 -134.069)" fill="#aea18f"/><path d="M206.289,285.954l-4.436-7.7a1.934,1.934,0,0,0-1.657-.952h-8.87a1.9,1.9,0,0,0-1.645.952l-4.437,7.7a1.881,1.881,0,0,0,0,1.9l4.437,7.681a1.907,1.907,0,0,0,1.645.952l8.882.012a1.916,1.916,0,0,0,1.633-.964l4.443-7.681A1.88,1.88,0,0,0,206.289,285.954Z" transform="translate(-113.729 -135.672)" fill="#fff"/><path d="M215.548,286.574l-3.029-2.876a23.546,23.546,0,0,0-.01-7.959l3.028-2.885a3.724,3.724,0,0,0,.671-4.574l-3.423-5.933a3.733,3.733,0,0,0-4.3-1.713l-4.014,1.185a23.506,23.506,0,0,0-6.894-3.989l-.979-4.058a3.712,3.712,0,0,0-3.629-2.862h-6.85a3.724,3.724,0,0,0-3.628,2.87l-.974,4.056a22.333,22.333,0,0,0-6.9,3.982l-4.007-1.185a3.725,3.725,0,0,0-4.293,1.712l-3.42,5.93a3.705,3.705,0,0,0,.662,4.573l3.02,2.869a23.141,23.141,0,0,0,0,7.977l-3.046,2.9a3.735,3.735,0,0,0-.647,4.565l3.424,5.915A3.726,3.726,0,0,0,170.6,298.8l4.011-1.189a22.891,22.891,0,0,0,6.9,3.99l.977,4.076a3.726,3.726,0,0,0,3.626,2.853h6.85a3.716,3.716,0,0,0,3.628-2.857l.979-4.075a22.623,22.623,0,0,0,3.64-1.688,23.622,23.622,0,0,0,3.27-2.3L208.5,298.8a3.749,3.749,0,0,0,4.285-1.715l3.428-5.946A3.724,3.724,0,0,0,215.548,286.574Zm-1.866,3.109-3.425,5.941a.826.826,0,0,1-.937.375l-5.55-1.65-.608.544a20.875,20.875,0,0,1-3.414,2.49,20.118,20.118,0,0,1-3.858,1.7l-.777.253-1.358,5.65a.815.815,0,0,1-.787.617h-6.85a.811.811,0,0,1-.787-.618l-1.352-5.644-.778-.253a20.028,20.028,0,0,1-7.254-4.2l-.609-.549L169.783,296a.813.813,0,0,1-.94-.381l-3.43-5.927a.816.816,0,0,1,.144-.991l4.2-4-.166-.8a20.281,20.281,0,0,1,0-8.394l.17-.8-4.2-3.985a.8.8,0,0,1-.144-.988l3.423-5.936a.8.8,0,0,1,.937-.369l5.559,1.644.608-.549a19.534,19.534,0,0,1,7.248-4.181l.781-.252,1.353-5.635a.812.812,0,0,1,.787-.63h6.855a.811.811,0,0,1,.783.62l1.357,5.628.773.254a20.5,20.5,0,0,1,7.254,4.2l.608.546,5.559-1.642a.809.809,0,0,1,.947.368l3.419,5.927a.811.811,0,0,1-.143,1l-4.2,4,.168.8a20.549,20.549,0,0,1,.01,8.377l-.167.8,4.2,3.984a.809.809,0,0,1,.148.992Z" transform="translate(-108.263 -129.289)" fill="#888075"/><path d="M206.462,284.473l-4.316-7.49,0,0a3.332,3.332,0,0,0-2.877-1.654h-8.632a3.3,3.3,0,0,0-2.867,1.657l-4.31,7.479a3.289,3.289,0,0,0-.006,3.318l4.324,7.485a3.337,3.337,0,0,0,2.857,1.645l8.67.011a3.333,3.333,0,0,0,2.829-1.667l4.322-7.471A3.285,3.285,0,0,0,206.462,284.473Zm-2.535,1.845L199.6,293.8a.4.4,0,0,1-.318.2l-8.645-.011a.389.389,0,0,1-.336-.2l-4.32-7.479a.378.378,0,0,1,0-.382l4.31-7.479a.4.4,0,0,1,.342-.206h8.609a.427.427,0,0,1,.371.2l4.322,7.5a.373.373,0,0,1-.011.373Z" transform="translate(-113.671 -135.692)" fill="#888075"/><path d="M353.785,135.668,345.3,127.2l-1.832,1.826-.032.034-6.616,6.613a2.607,2.607,0,0,0,3.687,3.686l2.183-2.176v6.4h5.215v-6.413l2.183,2.183a2.608,2.608,0,1,0,3.691-3.686Z" transform="translate(-150.263 -99.371)" fill="#afd8f9"/><path d="M354.172,134.64l-8.48-8.472a1,1,0,0,0-1.414,0l-8.484,8.476a3.606,3.606,0,0,0,2.556,6.154h0a3.574,3.574,0,0,0,2.545-1.054l.475-.474v3.994a1,1,0,1,0,2,0v-6.4a1,1,0,0,0-1.707-.709l-2.185,2.178a1.588,1.588,0,0,1-1.132.468h0a1.606,1.606,0,0,1-1.138-2.74l7.772-7.766,7.771,7.763a1.608,1.608,0,0,1-2.274,2.274l-2.183-2.183a1,1,0,0,0-1.708.708v6.413a1,1,0,1,0,2,0v-4l.474.474a3.609,3.609,0,1,0,5.107-5.1Zm-6.582,11.384h0l-5.2,0a1,1,0,0,0,0,2h0l5.2,0a1,1,0,0,0,0-2Zm0,3.829-5.2,0h0a1,1,0,1,0,0,2l5.2,0h0a1,1,0,0,0,0-2Z" transform="translate(-149.943 -99.052)" fill="#6396e5"/><path d="M353.785,183.376,345.3,174.9l-1.832,1.826-.032.034-6.616,6.613a2.607,2.607,0,0,0,3.687,3.686l2.183-2.176v6.4h5.215v-6.413l2.183,2.183a2.608,2.608,0,1,0,3.691-3.686Z" transform="translate(-150.263 -110.908)" fill="#afd8f9"/><path d="M354.172,182.348l-8.481-8.472a1,1,0,0,0-1.414,0l-8.484,8.476a3.606,3.606,0,0,0,2.556,6.154h0a3.574,3.574,0,0,0,2.545-1.054l.476-.474v3.994a1,1,0,1,0,2,0v-6.4a1,1,0,0,0-1.707-.709l-2.185,2.178a1.588,1.588,0,0,1-1.132.468h0a1.606,1.606,0,0,1-1.138-2.74L344.983,176l7.771,7.763a1.608,1.608,0,1,1-2.274,2.274l-2.183-2.183a1,1,0,0,0-1.708.708v6.413a1,1,0,0,0,2,0v-4l.474.474a3.609,3.609,0,0,0,5.107-5.1Zm-6.582,11.384h0l-5.2,0a1,1,0,0,0,0,2h0l5.2,0a1,1,0,1,0,0-2Zm0,3.829-5.2,0h0a1,1,0,1,0,0,2l5.2,0h0a1,1,0,1,0,0-2Z" transform="translate(-149.943 -110.589)" fill="#6396e5"/><rect width="9.554" height="2.313" transform="translate(219.824 137.242)" fill="#d9e7ff"/><rect width="9.554" height="1.968" transform="translate(219.824 133.998)" fill="#d9e7ff"/><path d="M384.963,247.467l-7.133,6.528h1.719a.637.637,0,0,1,.638.637v6.547h9.554v-6.547a.636.636,0,0,1,.637-.637H392.1Z" transform="translate(-160.363 -128.456)" fill="#d9e7ff"/><rect width="9.554" height="2.313" transform="translate(219.824 168.506)" fill="#d9e7ff"/><rect width="9.554" height="1.968" transform="translate(219.824 165.263)" fill="#d9e7ff"/><path d="M384.963,288.7l-7.133,6.528h1.719a.637.637,0,0,1,.638.637v6.547h9.554V295.87a.636.636,0,0,1,.637-.637H392.1Z" transform="translate(-160.363 -138.429)" fill="#d9e7ff"/><rect width="3.992" height="4.839" transform="translate(160.676 163.313)" fill="#fff"/><path d="M-31.937,9.125A9.123,9.123,0,0,0-22.817,0H-41.058A9.123,9.123,0,0,0-31.937,9.125ZM-1.228-12.22c-2.755-2.96-7.909-7.413-7.909-22A22.515,22.515,0,0,0-27.378-56.341v-2.971a4.562,4.562,0,0,0-4.56-4.562,4.562,4.562,0,0,0-4.56,4.563v2.971A22.515,22.515,0,0,0-54.739-34.219c0,14.586-5.154,19.038-7.909,22a4.455,4.455,0,0,0-1.228,3.1A4.567,4.567,0,0,0-59.3-4.562H-4.577A4.566,4.566,0,0,0,0-9.125,4.453,4.453,0,0,0-1.228-12.22Z" transform="translate(194.82 167.996)" fill="#6396e5"/></svg>