<svg xmlns="http://www.w3.org/2000/svg" xmlns:xlink="http://www.w3.org/1999/xlink" width="69.491" height="158.057" viewBox="0 0 69.491 158.057"><defs><clipPath id="a"><rect width="69.491" height="158.057" fill="none"/></clipPath><clipPath id="c"><rect width="11.758" height="5.301" fill="none"/></clipPath><clipPath id="d"><rect width="19.519" height="8.55" fill="none"/></clipPath><clipPath id="e"><rect width="16.692" height="7.299" fill="none"/></clipPath></defs><g transform="translate(0 0.001)"><g transform="translate(0 -0.001)" clip-path="url(#a)"><g clip-path="url(#a)"><path d="M485.124,2458.709l-.187,1.875a6.065,6.065,0,0,1-1.484,3.386l-.389.446c0,3.833,4.542,5.3,8.251,1.349l-.591-10.776Z" transform="translate(-455.756 -2316.208)" fill="#f2a787"/><path d="M444.236,2616.177c-1.286,1.334-2.326,3.467-2.326,6.793,12.8,0,15.679,1.919,24.148-.591-.261-1.545.539-1.6-6.934-2.6-6.681-.893-5.1-5.145-7.228-3.6-3.988,2.983-7.291,3.415-7.66,0" transform="translate(-416.929 -2467.969)" fill="#0c0c1c"/><path d="M434.395,2734.153c3.7.578,5.312-.217,6.54-.08a103.531,103.531,0,0,0,10.573.529c6.1-.012,7.419-.681,7.419-1.152v-1.967c-6.6,1.474-14.2.591-24.148.591a2.849,2.849,0,0,0-.384,2.08" transform="translate(-409.797 -2577.072)" fill="#303056"/><path d="M293.658,1100.151l.465,12,1.3,33.619-.5,3.9,1.327,31.024.668,2.123-.709,1.171.841,1.045.432,1.485c-1.072,1.071-7.79,3.61-12.131,2.262l.284-1.872-1.2-1.7.191-1.966-.42-1.562-1.459-31.534-6.774-47.385Z" transform="translate(-260.372 -1037.959)" fill="#1f1f42"/><path d="M162.019,2570.639l-.074,3.066.291,3.061-8.482-.651,1.366-2.232-.273-3.664Z" transform="translate(-145.063 -2424.924)" fill="#f2a787"/><path d="M102.161,2752.547a76.561,76.561,0,0,1-13.937,0v-2.268a106.215,106.215,0,0,0,13.937,0Z" transform="translate(-83.237 -2594.807)" fill="#303056"/><path d="M88.224,2641.543c.246-2.611,1.421-1.941,3.223-4.792.929-2.062,7.763-2.473,8.717-.128l.68,1.236a4.751,4.751,0,0,1,1.317,3.685,69.987,69.987,0,0,1-13.937,0" transform="translate(-83.237 -2486.07)" fill="#0c0c1c"/><path d="M118.609,1137.887l-3.8,48.012-3.743,32.957.343,1.656-.672,1.617.341,1.908-.469.672c-3.244-.974-7.527-.9-9.4.067l-.48-.8.417-1.845-.522-.942-.136-2.946-.409-21.865-.094-9.118-1.034-47.016Z" transform="translate(-93.353 -1073.562)" fill="#303056"/><path d="M100.642,1258.585l.133,6.213c4.678,3.1,15.243,3.761,19.154,3.141l.56-9.192Z" transform="translate(-94.953 -1187.437)" fill="#1f1f42"/><path d="M414.482,344.967s-6.682,6.362-11.174,11.081c-7.929-1.868-20.852-6.673-23.9-4.076l5.292,9.737s16.875,2.3,20.346,1.12c2.756-.937,11.738-14.172,11.738-14.172Z" transform="translate(-357.958 -325.466)" fill="#ffae92"/><path d="M357.842,370.484c2.318-2.264,4.287-1.884,12.314.149,1.3.329,5.145,1.408,8.194,2.384.368.118.607-.12.949-.011.251.08.612.509.844.582a3.874,3.874,0,0,0,1.284-.022l.931.61.7-.879,1-.31,8.926-8.433c-1.185,1.314-.213,6.088,2.1,8.742-1.235,1.929-8.277,10.368-11.719,10.627-4.61.346-21.255-1.667-21.255-1.667Z" transform="translate(-337.613 -343.947)" fill="#1f1f42"/><path d="M999.889,229.576s5.153-4.709,6.209-5.131a31.822,31.822,0,0,1,6.645-1.783c1.15,2.133-6.911,3.223-6.1,6.911l-4.454,3.693Z" transform="translate(-943.365 -210.075)" fill="#ffae92"/><path d="M1040.875,310.382l3.44-1.515,1.712-.137s.369.721-.642,1.481a8.083,8.083,0,0,1-1.75,1.092c-3.021,1.48-2.757,2.734-6.375,2.883Z" transform="translate(-978.624 -291.278)" fill="#ffae92"/><path d="M87.838,448.217l-.1,21.466c-12.326,5.052-15.586,3.355-24.523,2.28l-3.835-44.477c8.879-7.3,19.019-4.618,22.76-2.854,4.077,2.038,5,12.214,5.694,23.585" transform="translate(-56.027 -398.766)" fill="#303056"/><path d="M55.267,433.043l1.121,20.93,1.094,5.369c-9.474,3.231-22.26,3.057-29.573,1.488L27.331,447.3c-3.332-23.55-3.216-34.26-3.216-34.26a20.038,20.038,0,0,1,8.163-4.9c.28-.09,2.55-.54,2.55-.54a110.279,110.279,0,0,1,11.72,19.026c.694-7.254,1.23-12.99.5-16.936,0,0-.406-1.072-.3-1.046a36.049,36.049,0,0,1,3.779,1.065c2.242,1.373,4.919,6.586,4.744,23.332" transform="translate(-22.751 -384.559)" fill="#fc6703"/><path d="M104.349,625.253l6.725,6.357,3.887-2.842,5.122,8.55s-6.18,14.781-11.9,14.781-9.867-7.251-9.867-7.251Z" transform="translate(-92.759 -589.907)" fill="#cc3e00"/><path d="M62.873,906.45c-.135,5.443.872,11.87,2.424,18.766a50.393,50.393,0,0,1-9.379-1.05l-.578-13.526c-.621-4.5-1.175-8.671-1.538-11.941Z" transform="translate(-50.761 -847.895)" fill="#cc3e00"/><path d="M113.765,1176.658l-.342-4.066c-8.474,3.031-19.524,3.078-28.7,1.374l.181,4.234c10.282,1.681,20.239,1.236,28.858-1.542" transform="translate(-79.936 -1106.306)" fill="#f2f2f2"/><path d="M65.32,947.527l-.53-4.026c10.835,1.562,22.034,1.026,29.1-2.747l.2,3.727c-6.711,3.894-18.1,4.934-28.775,3.046" transform="translate(-61.127 -887.573)" fill="#f2f2f2"/><path d="M114.166,421.6a11.2,11.2,0,0,1,2.508-1.064c6.374,5.384,10.446,18.943,10.573,33.293l-3.071-.041c-.2-15.119-4.539-27.581-10.009-32.188" transform="translate(-107.712 -396.762)" fill="#f2f2f2"/><path d="M429.731,427.394c3.149,3.214,4.317,20.526,4.26,31.116l2.564-1.055c-.076-9.892-.907-25.5-3.759-29.214a17.936,17.936,0,0,0-3.065-.847" transform="translate(-405.438 -403.233)" fill="#f2f2f2"/><path d="M192.47,284.8l-.12,4.906-2.843,2.533c.984,1.112,6.248,1.75,6.248,1.75l4.7,5.588c.55-1.2.824-7.946.824-7.946l.2-2.671Z" transform="translate(-178.794 -268.705)" fill="#ffae92"/><path d="M286.9,454.1l-5.76-4.781c3.329.892,5.919.951,7.15-.622Z" transform="translate(-265.251 -423.329)" fill="#fff"/><path d="M381.3,413.275a18.448,18.448,0,0,0,.719-6.13l.214-1.493a5.729,5.729,0,0,1,3.628,4.838L384.226,410l-.874-.6-.38-.607Z" transform="translate(-359.746 -382.72)" fill="#303056"/><path d="M147.084,378.889c1.4,1.526,2.272,3.077,4.661,3.763l4.658,5.373s-4.383-2.728-5.187-3.739l-.52,1.689-1.673.9a12.024,12.024,0,0,1-6.095-5.976l2.419-.909Z" transform="translate(-134.848 -357.47)" fill="#303056"/><path d="M379.856,462.77a.2.2,0,0,0,.177-.14l1.427-4.393.149.238a.2.2,0,0,0,.057.059l.874.6a.2.2,0,0,0,.057.027,8.862,8.862,0,0,0,1.694.294,8.519,8.519,0,0,0-1.547-.676l-.813-.561-.358-.571a.2.2,0,0,0-.366.045l-1.561,4.808a.2.2,0,0,0,.131.257.2.2,0,0,0,.08.009" transform="translate(-358.174 -431.69)" fill="#1f1f42"/><path d="M256.153,475.233a.2.2,0,0,0,.1-.372,46.938,46.938,0,0,1-5.252-4.02.2.2,0,0,0-.354.067l-.494,1.6a11.271,11.271,0,0,0-1.629,1.056,12.173,12.173,0,0,0,1.887-.728.2.2,0,0,0,.106-.123l.416-1.35a56.1,56.1,0,0,0,5.092,3.832.2.2,0,0,0,.131.034" transform="translate(-234.472 -444.153)" fill="#1f1f42"/><path d="M238.406,656.81a78.5,78.5,0,0,1,2.986,19.9l3.071.041a67.936,67.936,0,0,0-1.844-15.954Z" transform="translate(-224.929 -619.681)" fill="#ccc"/><path d="M83.737,989.645a21.428,21.428,0,0,1-3.822,4.488,57.518,57.518,0,0,1-14.595-.759l-.53-4.026s15.133.887,18.946.3" transform="translate(-61.128 -933.42)" fill="#ccc"/><path d="M92.81,1197.895c.233,1.608.472,3,.717,4.15a69.045,69.045,0,0,1-8.62-.911l-.181-4.234a68.7,68.7,0,0,0,8.084.995" transform="translate(-79.936 -1129.239)" fill="#ccc"/><path d="M137.749,108.539c.417,1.008,5.081.038,10.417-2.168s9.325-4.811,8.908-5.819c0,0-.1-.43-.909-.6-4.6-.965-16.222,4.593-17.772,6.481a2.641,2.641,0,0,0-.645,2.106" transform="translate(-129.936 -94.197)" fill="#cc3e00"/><path d="M278.613,347.634a6.467,6.467,0,0,0,4.876-1.323l-9.469-1.421a6.405,6.405,0,0,0,4.592,2.744" transform="translate(-258.531 -325.393)" fill="#b5594d"/><path d="M229.117,84.751c.7-.005,1.506,1.967,2.093,3.59a5.205,5.205,0,0,1,.17.615,24.866,24.866,0,0,0,.267,2.981c1.17,3.988,1.447,7.564-.884,8.251-3.3.974-9.058-2.275-8.816-3.112l-2.21-10Z" transform="translate(-207.314 -79.96)" fill="#ffae92"/><path d="M249.219,255.282c-.433-.387-1.344.055-2.089.4l-1.6.6c-1.668.318-2.664-.094-3,1.908-2.961-.278-3.313-1.779-3.614-2.8l-1.225-.041c.046,2.011,1.3,3.635,1.854,4.543.391.642,1.544,2.56,6.811,2.4,2.295-.068,3.348-.715,3.588-1.678a5.106,5.106,0,0,0-.214-1.744c-.385-2.836-.51-3.6-.51-3.6m-.384,4.235c-.792-.495-1.709-.33-2.872.767a2.719,2.719,0,0,1-2.408-2.695c-.054-1,1.608-.279,3.335-.79,1.373-.406,2.08-1.839,2.347.39.171,1.424-.02,2.282-.4,2.328" transform="translate(-224.253 -240.709)" fill="#c68973"/><path d="M377.607,170.146c-1.078.158-.711.5-.416,1.79a3.976,3.976,0,0,0,.66,1.677,5.652,5.652,0,0,0,.522.509c.137.383,0,.658-.59.958l-1.344.738,1.6-.6a.908.908,0,0,0,.665-1.118,3.116,3.116,0,0,0-.318-.476s-.73-2.567.918-3.446c-.184-.68-1.083-.119-1.694-.03" transform="translate(-355.159 -160.242)" fill="#e87a6b"/><path d="M298.445,183.063c.079.275.058,2.239-1.237,2.629l-.26.021-2.282-1.625c.721-.878,2.774-.822,3.778-1.026" transform="translate(-278.009 -172.714)" fill="#e87a6b"/><path d="M157.11,142.332a9.514,9.514,0,0,0,.776,3.05l-1.077,1.141s.319,1.035.717,2.448c-.914.4-.822.859-.822.859l-.159,2.575c-1.912-.052-3.59-3.541-4.205-5.376a30.376,30.376,0,0,1-.915-3.526Z" transform="translate(-142.866 -134.286)" fill="#751c32"/><path d="M392.213,73.295a1.706,1.706,0,0,1,.726.644,14.184,14.184,0,0,1,1,3.594s-.764-1.884-1.31-2.852Z" transform="translate(-370.041 -69.152)" fill="#751c32"/><path d="M155.405,38.907c.24-2.024,4.639-1.552,5.678-1.91s2.138-1.629,2.664-.607c.148-.226.276-.529-.045-1.161a5,5,0,0,0-2.992-2.278c-3.1-.972-9.052,1.14-10.587,3.872a5.143,5.143,0,0,0-.4,3.255,8.3,8.3,0,0,0,5.684-1.171" transform="translate(-141.161 -30.861)" fill="#49071d"/><path d="M384.474,163.681a14.323,14.323,0,0,0-2.25.41.184.184,0,0,0-.1.238l.06.24a.2.2,0,0,0,.257.127c.683-.214,1.366-.424,2.056-.62a.2.2,0,0,0,.142-.25.185.185,0,0,0-.167-.146" transform="translate(-360.516 -154.428)" fill="#49071d"/><path d="M422.008,165.962l-.3-.316.264-.268a1.036,1.036,0,0,1,.039.584" transform="translate(-397.866 -156.029)" fill="#49071d"/><path d="M299.5,176.007c1.073-.342,2.158-.561,3.22-.809a.214.214,0,0,1,.259.164l.046.317c.018.121-.113.218-.271.238-.933.116-1.977.251-3.07.452-.156.029-.308-.031-.326-.153a.2.2,0,0,1,.142-.211" transform="translate(-282.43 -165.289)" fill="#49071d"/><path d="M286.446,191.874c-.15-.13.753-.964.753-.964l.476.255s-1.079.839-1.229.709" transform="translate(-270.238 -180.118)" fill="#49071d"/><path d="M316.448,205.683c.067.143-.415.333-.648.347-.48.058-.52-.137-.778-.03-.661.3-.63.573-.8.516-.2-.065.2-.693,1.138-1.044a1.011,1.011,0,0,1,1.093.211" transform="translate(-296.406 -193.791)" fill="#49071d"/><path d="M392.381,190.877c.06.13-.363.249-.568.239-.423,0-.461-.167-.688-.1-.581.2-.55.436-.705.371-.18-.076.2-.6,1.027-.817a.919.919,0,0,1,.935.305" transform="translate(-368.307 -179.772)" fill="#49071d"/><path d="M400.521,197.016c.014.353-.177.628-.425.614s-.46-.31-.474-.663a.418.418,0,0,1,.483-.464c.248.013.4.16.416.512" transform="translate(-377.031 -185.395)" fill="#49071d"/><path d="M328.52,211.535c.015.353-.193.628-.464.614a.647.647,0,0,1-.518-.663.429.429,0,0,1,.484-.491.506.506,0,0,1,.5.539" transform="translate(-309.021 -199.068)" fill="#49071d"/><path d="M184.532,163.562l2.731-7.954-1.875.154-2.031,5.946c-.215.27.891,1.91,1.175,1.854" transform="translate(-172.965 -146.811)" fill="#170b28"/><path d="M191.882,213.7c-.608.348-.926.83-.5,2.58a4.143,4.143,0,0,0,1.333,2.03c.3.221.842.9,1.229.96.607.09.668-.265.719-.681a7.5,7.5,0,0,0-.477-2.43c-.536-1.92-1.4-2.979-2.307-2.459" transform="translate(-180.38 -201.498)" fill="#ffae92"/><path d="M202.567,231.233a.1.1,0,0,0,.076-.095l.009-.062a1.44,1.44,0,0,0-.029-.819.338.338,0,0,0-.226-.179.892.892,0,0,0-.239-.017c-.121,0-.137,0-.213-.177-.045-.108.033-.24.125-.366a.445.445,0,0,0,.056-.088c0,.01,0,0,.01,0a.6.6,0,0,0,.194-.459,1.483,1.483,0,0,0-.427-.88c-.212-.251-.422-.358-.629-.309-.428.1-.654.821-.664.852a.169.169,0,0,0,.057.182.084.084,0,0,0,.13-.058c0-.006.2-.637.53-.71.149-.037.291.046.452.236a1.172,1.172,0,0,1,.35.664.34.34,0,0,1-.124.259.224.224,0,0,0-.058.077l-.028.038a.68.68,0,0,0-.147.676c.134.321.245.341.413.335a.752.752,0,0,1,.2.014.106.106,0,0,1,.078.055,1.333,1.333,0,0,1-.009.6l-.01.064a.159.159,0,0,0,.08.168.075.075,0,0,0,.042,0" transform="translate(-189.261 -214.891)" fill="#e87a6b"/><path d="M128.047,14.342a2.506,2.506,0,0,1,1.1-1.635c.934-.768.321-1.64,1.95-2.54s2.5.006,3.512-.625a25.49,25.49,0,0,1,2.347-1.019c5.337-2.205,10-3.176,10.417-2.168C147.1,5.64,146.214,5.3,144.13,5.3c0,0-3.463-7.819-11.758-4.465-.143.058-.213.391-.348.452-6.685,3.026-3.964,10.086-3.964,10.086a1.6,1.6,0,0,0-.511,1.843,11.172,11.172,0,0,0,.5,1.125" transform="translate(-120.234 0)" fill="#fc6703"/><g transform="translate(12.138)" opacity="0.2"><g clip-path="url(#c)"><path d="M214.722.837C223.016-2.517,226.48,5.3,226.48,5.3c-2.932-4.248-6.448-5.874-11.758-4.465" transform="translate(-214.722 -0.001)" fill="#fff"/></g></g><g transform="translate(7.619 5.792)" opacity="0.2"><g clip-path="url(#d)"><path d="M134.974,111.013a2.506,2.506,0,0,1,1.1-1.635c.934-.768.321-1.64,1.95-2.54s2.5.006,3.512-.625a25.489,25.489,0,0,1,2.347-1.019c5.337-2.205,10-3.176,10.417-2.168-1.045-2.214-12.526,2.8-13.067,3.055s-1.842-.388-3.426.519-.918,1.808-1.853,2.576c-1.089.894-1.172,1.428-1.172,1.428Z" transform="translate(-134.78 -102.463)" fill="#fff"/></g></g><path d="M136.382,99.053l.734-.859a2.407,2.407,0,0,1,1.463-1.924,4.23,4.23,0,0,1,2.88-.331,36.146,36.146,0,0,1,10.993-2.959c-2.264-.281-6.9.682-10.974,2.518a5.867,5.867,0,0,0-3.141.331,2.348,2.348,0,0,0-1.548,2.149l-.53.7Z" transform="translate(-128.556 -87.678)" fill="#e85300"/><g transform="translate(7.204 5.301)" opacity="0.2"><g clip-path="url(#e)"><path d="M128.06,99.854l.734-.859a2.407,2.407,0,0,1,1.463-1.924,4.23,4.23,0,0,1,2.88-.331,36.143,36.143,0,0,1,10.993-2.959,37.462,37.462,0,0,0-10.993,3.227,3.733,3.733,0,0,0-2.811.213c-1.46.734-1.376,1.836-1.376,1.836-.661.708-1.393,1.323-1.511,2.022a1.781,1.781,0,0,1,.622-1.225" transform="translate(-127.438 -93.781)" fill="#fff"/></g></g><path d="M210.313,23.773l5.558-2.231c-1.422-3.065-5.011-3.609-7.309-2.945,2.032-.321,5.23-.066,6.552,2.671Z" transform="translate(-196.772 -17.308)" fill="#e85300"/><path d="M363.826,289.907c.642.386-1.343,2.154-3.4.941-.207-.122.222-.06.035-.271a5.6,5.6,0,0,0,3.368-.67" transform="translate(-339.994 -273.519)" fill="#49071d"/><path d="M364.91,288.611l-.007.308a7.168,7.168,0,0,1-3.514.706l.079-.4c.165.3,3.534-.554,3.442-.615" transform="translate(-340.96 -272.296)" fill="#fff"/><path d="M351.75,285.56l-.025,0a.172.172,0,0,1-.166-.162.752.752,0,0,1,.143-.572.574.574,0,0,1,.463-.181c-.01,0,.815-.107,1.906-.332l.237-.05a7.553,7.553,0,0,0,.764-.22c.443-.145.735-.241.929-.121a.336.336,0,0,1,.147.209.156.156,0,0,1-.107.2.158.158,0,0,1-.189-.128l.148-.034-.149.031a2.224,2.224,0,0,0-.673.165,7.75,7.75,0,0,1-.792.228c-1.22.264-2.178.386-2.188.387a.335.335,0,0,0-.266.085.446.446,0,0,0-.067.329.152.152,0,0,1-.115.167" transform="translate(-331.681 -267.824)" fill="#d4725f"/><path d="M360.314,288.3a2.427,2.427,0,0,1-2.29-.524.177.177,0,0,1-.022-.234.144.144,0,0,1,.216-.008,2.328,2.328,0,0,0,2.462.325,1.352,1.352,0,0,0,.861-.739.352.352,0,0,0,.018-.25.164.164,0,0,1,.063-.22.156.156,0,0,1,.208.083.671.671,0,0,1,0,.527,1.637,1.637,0,0,1-1.044.918q-.241.075-.469.122" transform="translate(-337.731 -270.434)" fill="#d4725f"/><path d="M387.3,313.782a2.42,2.42,0,0,1-.923.018.177.177,0,0,1-.136-.192.145.145,0,0,1,.169-.135,2.164,2.164,0,0,0,1.727-.448.147.147,0,0,1,.217.017.174.174,0,0,1,0,.234,2.167,2.167,0,0,1-1.052.506" transform="translate(-364.403 -295.292)" fill="#d4725f"/><path d="M463.5,325.917s.125-3.976.243-4.8-.226-2.046-.134-2.41l.618-2.42c.935-.122,1.266.748,1.171,2.318l.39,1.895c1.326-.385,3.065-2.155,3.91-2.821.71-.559,1.371.677,1.171,1.162.381-.251,1.087,1.112.911,1.378l-.579.87a.932.932,0,0,1,.456,1.66c.819.228.774,1.139-.089,2.049a22.455,22.455,0,0,1-2.977,3.523c-1.235,1-2.8,8.179-2.8,8.179l-3.8-6.967Z" transform="translate(-435.876 -298.391)" fill="#ffae92"/><path d="M26.5,496.591l-7.671,13.5-.777.628-.463,1.554c-.2-.405-.124-1.369-.319-1.757-.187-.372-.645-.167-.829-.523-.132-.255.088-.506-.042-.754-.212-.4-.772-.8-.979-1.178C5.747,490.208,1.364,494.846,1.364,494.846c-2.111,1.825-1.552,9.616.19,16.632,0,0,9.714,13.9,16.761,12.585s12.93-20,12.93-20c0-1.493-.242-6.823-4.75-7.47" transform="translate(-0.001 -466.361)" fill="#303056"/></g></g></g></svg>