<svg xmlns="http://www.w3.org/2000/svg" width="75" height="75" viewBox="0 0 75 75"><g transform="translate(-621 -1127)"><circle cx="37.5" cy="37.5" r="37.5" transform="translate(621 1127)"/><path d="M-8.586-11.951-.7-19.835-3.286-22.42-6.9-18.806a.463.463,0,0,1-.328.136.463.463,0,0,1-.328-.136l-.657-.657a.464.464,0,0,1,0-.657L-4.6-23.734l-1.971-1.972a1.858,1.858,0,0,0-2.629,0l-5.256,5.256a1.859,1.859,0,0,0,0,2.629Zm22.762-6.844a2.815,2.815,0,0,0,0-3.98l-2.651-2.651a2.816,2.816,0,0,0-3.981,0l-2.7,2.7L11.479-16.1ZM3.52-21.4-13.882-4l-1.1,6.3A1.244,1.244,0,0,0-13.54,3.731l6.3-1.1,17.4-17.4ZM14.456-4.679,12.485-6.65,8.87-3.036a.464.464,0,0,1-.657,0l-.657-.657a.465.465,0,0,1,0-.657l3.614-3.614L8.585-10.55.7-2.666,6.571,3.205a1.858,1.858,0,0,0,2.629,0l5.256-5.256A1.858,1.858,0,0,0,14.456-4.679Z" transform="translate(659 1176)" fill="#fcba2f"/></g></svg>