<svg xmlns="http://www.w3.org/2000/svg" xmlns:xlink="http://www.w3.org/1999/xlink" width="1838" height="130" viewBox="0 0 1838 130"><defs><clipPath id="a"><rect width="1838" height="130" transform="translate(40 2354)" fill="#f7b42f"/></clipPath><radialGradient id="b" cx="0.5" cy="0.5" r="0.967" gradientTransform="translate(1 1) rotate(180)" gradientUnits="objectBoundingBox"><stop offset="0" stop-color="#f7b42f"/><stop offset="1" stop-color="#f7b42f" stop-opacity="0.4"/></radialGradient></defs><g transform="translate(-40 -2354)" clip-path="url(#a)"><rect width="1838" height="130" transform="translate(40 2354)" fill="#f7b42f"/><g transform="matrix(0.966, -0.259, 0.259, 0.966, -543.854, 480.857)" opacity="0.2"><text transform="translate(96 2409.946)" fill="#fff" font-size="80" font-family="Eveleth"><tspan x="-64.44" y="0">CV</tspan></text><text transform="translate(230 2409.946)" fill="#fff" font-size="80" font-family="Eveleth"><tspan x="-64.44" y="0">CV</tspan></text><text transform="translate(364 2409.946)" fill="#fff" font-size="80" font-family="Eveleth"><tspan x="-64.44" y="0">CV</tspan></text><text transform="translate(498 2409.946)" fill="#fff" font-size="80" font-family="Eveleth"><tspan x="-64.44" y="0">CV</tspan></text><text transform="translate(632 2409.946)" fill="#fff" font-size="80" font-family="Eveleth"><tspan x="-64.44" y="0">CV</tspan></text><text transform="translate(766 2409.946)" fill="#fff" font-size="80" font-family="Eveleth"><tspan x="-64.44" y="0">CV</tspan></text><text transform="translate(900 2409.946)" fill="#fff" font-size="80" font-family="Eveleth"><tspan x="-64.44" y="0">CV</tspan></text><text transform="translate(1034 2409.946)" fill="#fff" font-size="80" font-family="Eveleth"><tspan x="-64.44" y="0">CV</tspan></text><text transform="translate(1168 2409.946)" fill="#fff" font-size="80" font-family="Eveleth"><tspan x="-64.44" y="0">CV</tspan></text><text transform="translate(1302 2409.946)" fill="#fff" font-size="80" font-family="Eveleth"><tspan x="-64.44" y="0">CV</tspan></text><text transform="translate(1436 2409.946)" fill="#fff" font-size="80" font-family="Eveleth"><tspan x="-64.44" y="0">CV</tspan></text><text transform="translate(1570 2409.946)" fill="#fff" font-size="80" font-family="Eveleth"><tspan x="-64.44" y="0">CV</tspan></text><text transform="translate(1704 2409.946)" fill="#fff" font-size="80" font-family="Eveleth"><tspan x="-64.44" y="0">CV</tspan></text><text transform="translate(1838 2409.946)" fill="#fff" font-size="80" font-family="Eveleth"><tspan x="-64.44" y="0">CV</tspan></text><text transform="translate(1972 2409.946)" fill="#fff" font-size="80" font-family="Eveleth"><tspan x="-64.44" y="0">CV</tspan></text><g transform="translate(0 75.054)"><text transform="translate(96 2409.946)" fill="#fff" font-size="80" font-family="Eveleth"><tspan x="-64.44" y="0">CV</tspan></text><text transform="translate(230 2409.946)" fill="#fff" font-size="80" font-family="Eveleth"><tspan x="-64.44" y="0">CV</tspan></text><text transform="translate(364 2409.946)" fill="#fff" font-size="80" font-family="Eveleth"><tspan x="-64.44" y="0">CV</tspan></text><text transform="translate(498 2409.946)" fill="#fff" font-size="80" font-family="Eveleth"><tspan x="-64.44" y="0">CV</tspan></text><text transform="translate(632 2409.946)" fill="#fff" font-size="80" font-family="Eveleth"><tspan x="-64.44" y="0">CV</tspan></text><text transform="translate(766 2409.946)" fill="#fff" font-size="80" font-family="Eveleth"><tspan x="-64.44" y="0">CV</tspan></text><text transform="translate(900 2409.946)" fill="#fff" font-size="80" font-family="Eveleth"><tspan x="-64.44" y="0">CV</tspan></text><text transform="translate(1034 2409.946)" fill="#fff" font-size="80" font-family="Eveleth"><tspan x="-64.44" y="0">CV</tspan></text><text transform="translate(1168 2409.946)" fill="#fff" font-size="80" font-family="Eveleth"><tspan x="-64.44" y="0">CV</tspan></text><text transform="translate(1302 2409.946)" fill="#fff" font-size="80" font-family="Eveleth"><tspan x="-64.44" y="0">CV</tspan></text><text transform="translate(1436 2409.946)" fill="#fff" font-size="80" font-family="Eveleth"><tspan x="-64.44" y="0">CV</tspan></text><text transform="translate(1570 2409.946)" fill="#fff" font-size="80" font-family="Eveleth"><tspan x="-64.44" y="0">CV</tspan></text><text transform="translate(1704 2409.946)" fill="#fff" font-size="80" font-family="Eveleth"><tspan x="-64.44" y="0">CV</tspan></text><text transform="translate(1838 2409.946)" fill="#fff" font-size="80" font-family="Eveleth"><tspan x="-64.44" y="0">CV</tspan></text><text transform="translate(1972 2409.946)" fill="#fff" font-size="80" font-family="Eveleth"><tspan x="-64.44" y="0">CV</tspan></text></g><g transform="translate(0 150.054)"><text transform="translate(96 2409.946)" fill="#fff" font-size="80" font-family="Eveleth"><tspan x="-64.44" y="0">CV</tspan></text><text transform="translate(230 2409.946)" fill="#fff" font-size="80" font-family="Eveleth"><tspan x="-64.44" y="0">CV</tspan></text><text transform="translate(364 2409.946)" fill="#fff" font-size="80" font-family="Eveleth"><tspan x="-64.44" y="0">CV</tspan></text><text transform="translate(498 2409.946)" fill="#fff" font-size="80" font-family="Eveleth"><tspan x="-64.44" y="0">CV</tspan></text><text transform="translate(632 2409.946)" fill="#fff" font-size="80" font-family="Eveleth"><tspan x="-64.44" y="0">CV</tspan></text><text transform="translate(766 2409.946)" fill="#fff" font-size="80" font-family="Eveleth"><tspan x="-64.44" y="0">CV</tspan></text><text transform="translate(900 2409.946)" fill="#fff" font-size="80" font-family="Eveleth"><tspan x="-64.44" y="0">CV</tspan></text><text transform="translate(1034 2409.946)" fill="#fff" font-size="80" font-family="Eveleth"><tspan x="-64.44" y="0">CV</tspan></text><text transform="translate(1168 2409.946)" fill="#fff" font-size="80" font-family="Eveleth"><tspan x="-64.44" y="0">CV</tspan></text><text transform="translate(1302 2409.946)" fill="#fff" font-size="80" font-family="Eveleth"><tspan x="-64.44" y="0">CV</tspan></text><text transform="translate(1436 2409.946)" fill="#fff" font-size="80" font-family="Eveleth"><tspan x="-64.44" y="0">CV</tspan></text><text transform="translate(1570 2409.946)" fill="#fff" font-size="80" font-family="Eveleth"><tspan x="-64.44" y="0">CV</tspan></text><text transform="translate(1704 2409.946)" fill="#fff" font-size="80" font-family="Eveleth"><tspan x="-64.44" y="0">CV</tspan></text><text transform="translate(1838 2409.946)" fill="#fff" font-size="80" font-family="Eveleth"><tspan x="-64.44" y="0">CV</tspan></text><text transform="translate(1972 2409.946)" fill="#fff" font-size="80" font-family="Eveleth"><tspan x="-64.44" y="0">CV</tspan></text></g><g transform="translate(0 -225.054)"><text transform="translate(96 2409.946)" fill="#fff" font-size="80" font-family="Eveleth"><tspan x="-64.44" y="0">CV</tspan></text><text transform="translate(230 2409.946)" fill="#fff" font-size="80" font-family="Eveleth"><tspan x="-64.44" y="0">CV</tspan></text><text transform="translate(364 2409.946)" fill="#fff" font-size="80" font-family="Eveleth"><tspan x="-64.44" y="0">CV</tspan></text><text transform="translate(498 2409.946)" fill="#fff" font-size="80" font-family="Eveleth"><tspan x="-64.44" y="0">CV</tspan></text><text transform="translate(632 2409.946)" fill="#fff" font-size="80" font-family="Eveleth"><tspan x="-64.44" y="0">CV</tspan></text><text transform="translate(766 2409.946)" fill="#fff" font-size="80" font-family="Eveleth"><tspan x="-64.44" y="0">CV</tspan></text><text transform="translate(900 2409.946)" fill="#fff" font-size="80" font-family="Eveleth"><tspan x="-64.44" y="0">CV</tspan></text><text transform="translate(1034 2409.946)" fill="#fff" font-size="80" font-family="Eveleth"><tspan x="-64.44" y="0">CV</tspan></text><text transform="translate(1168 2409.946)" fill="#fff" font-size="80" font-family="Eveleth"><tspan x="-64.44" y="0">CV</tspan></text><text transform="translate(1302 2409.946)" fill="#fff" font-size="80" font-family="Eveleth"><tspan x="-64.44" y="0">CV</tspan></text><text transform="translate(1436 2409.946)" fill="#fff" font-size="80" font-family="Eveleth"><tspan x="-64.44" y="0">CV</tspan></text><text transform="translate(1570 2409.946)" fill="#fff" font-size="80" font-family="Eveleth"><tspan x="-64.44" y="0">CV</tspan></text><text transform="translate(1704 2409.946)" fill="#fff" font-size="80" font-family="Eveleth"><tspan x="-64.44" y="0">CV</tspan></text><text transform="translate(1838 2409.946)" fill="#fff" font-size="80" font-family="Eveleth"><tspan x="-64.44" y="0">CV</tspan></text><text transform="translate(1972 2409.946)" fill="#fff" font-size="80" font-family="Eveleth"><tspan x="-64.44" y="0">CV</tspan></text></g><g transform="translate(0 -150)"><text transform="translate(96 2409.946)" fill="#fff" font-size="80" font-family="Eveleth"><tspan x="-64.44" y="0">CV</tspan></text><text transform="translate(230 2409.946)" fill="#fff" font-size="80" font-family="Eveleth"><tspan x="-64.44" y="0">CV</tspan></text><text transform="translate(364 2409.946)" fill="#fff" font-size="80" font-family="Eveleth"><tspan x="-64.44" y="0">CV</tspan></text><text transform="translate(498 2409.946)" fill="#fff" font-size="80" font-family="Eveleth"><tspan x="-64.44" y="0">CV</tspan></text><text transform="translate(632 2409.946)" fill="#fff" font-size="80" font-family="Eveleth"><tspan x="-64.44" y="0">CV</tspan></text><text transform="translate(766 2409.946)" fill="#fff" font-size="80" font-family="Eveleth"><tspan x="-64.44" y="0">CV</tspan></text><text transform="translate(900 2409.946)" fill="#fff" font-size="80" font-family="Eveleth"><tspan x="-64.44" y="0">CV</tspan></text><text transform="translate(1034 2409.946)" fill="#fff" font-size="80" font-family="Eveleth"><tspan x="-64.44" y="0">CV</tspan></text><text transform="translate(1168 2409.946)" fill="#fff" font-size="80" font-family="Eveleth"><tspan x="-64.44" y="0">CV</tspan></text><text transform="translate(1302 2409.946)" fill="#fff" font-size="80" font-family="Eveleth"><tspan x="-64.44" y="0">CV</tspan></text><text transform="translate(1436 2409.946)" fill="#fff" font-size="80" font-family="Eveleth"><tspan x="-64.44" y="0">CV</tspan></text><text transform="translate(1570 2409.946)" fill="#fff" font-size="80" font-family="Eveleth"><tspan x="-64.44" y="0">CV</tspan></text><text transform="translate(1704 2409.946)" fill="#fff" font-size="80" font-family="Eveleth"><tspan x="-64.44" y="0">CV</tspan></text><text transform="translate(1838 2409.946)" fill="#fff" font-size="80" font-family="Eveleth"><tspan x="-64.44" y="0">CV</tspan></text><text transform="translate(1972 2409.946)" fill="#fff" font-size="80" font-family="Eveleth"><tspan x="-64.44" y="0">CV</tspan></text></g><g transform="translate(0 -75)"><text transform="translate(96 2409.946)" fill="#fff" font-size="80" font-family="Eveleth"><tspan x="-64.44" y="0">CV</tspan></text><text transform="translate(230 2409.946)" fill="#fff" font-size="80" font-family="Eveleth"><tspan x="-64.44" y="0">CV</tspan></text><text transform="translate(364 2409.946)" fill="#fff" font-size="80" font-family="Eveleth"><tspan x="-64.44" y="0">CV</tspan></text><text transform="translate(498 2409.946)" fill="#fff" font-size="80" font-family="Eveleth"><tspan x="-64.44" y="0">CV</tspan></text><text transform="translate(632 2409.946)" fill="#fff" font-size="80" font-family="Eveleth"><tspan x="-64.44" y="0">CV</tspan></text><text transform="translate(766 2409.946)" fill="#fff" font-size="80" font-family="Eveleth"><tspan x="-64.44" y="0">CV</tspan></text><text transform="translate(900 2409.946)" fill="#fff" font-size="80" font-family="Eveleth"><tspan x="-64.44" y="0">CV</tspan></text><text transform="translate(1034 2409.946)" fill="#fff" font-size="80" font-family="Eveleth"><tspan x="-64.44" y="0">CV</tspan></text><text transform="translate(1168 2409.946)" fill="#fff" font-size="80" font-family="Eveleth"><tspan x="-64.44" y="0">CV</tspan></text><text transform="translate(1302 2409.946)" fill="#fff" font-size="80" font-family="Eveleth"><tspan x="-64.44" y="0">CV</tspan></text><text transform="translate(1436 2409.946)" fill="#fff" font-size="80" font-family="Eveleth"><tspan x="-64.44" y="0">CV</tspan></text><text transform="translate(1570 2409.946)" fill="#fff" font-size="80" font-family="Eveleth"><tspan x="-64.44" y="0">CV</tspan></text><text transform="translate(1704 2409.946)" fill="#fff" font-size="80" font-family="Eveleth"><tspan x="-64.44" y="0">CV</tspan></text><text transform="translate(1838 2409.946)" fill="#fff" font-size="80" font-family="Eveleth"><tspan x="-64.44" y="0">CV</tspan></text><text transform="translate(1972 2409.946)" fill="#fff" font-size="80" font-family="Eveleth"><tspan x="-64.44" y="0">CV</tspan></text></g><g transform="translate(0 -450.108)"><text transform="translate(96 2409.946)" fill="#fff" font-size="80" font-family="Eveleth"><tspan x="-64.44" y="0">CV</tspan></text><text transform="translate(230 2409.946)" fill="#fff" font-size="80" font-family="Eveleth"><tspan x="-64.44" y="0">CV</tspan></text><text transform="translate(364 2409.946)" fill="#fff" font-size="80" font-family="Eveleth"><tspan x="-64.44" y="0">CV</tspan></text><text transform="translate(498 2409.946)" fill="#fff" font-size="80" font-family="Eveleth"><tspan x="-64.44" y="0">CV</tspan></text><text transform="translate(632 2409.946)" fill="#fff" font-size="80" font-family="Eveleth"><tspan x="-64.44" y="0">CV</tspan></text><text transform="translate(766 2409.946)" fill="#fff" font-size="80" font-family="Eveleth"><tspan x="-64.44" y="0">CV</tspan></text><text transform="translate(900 2409.946)" fill="#fff" font-size="80" font-family="Eveleth"><tspan x="-64.44" y="0">CV</tspan></text><text transform="translate(1034 2409.946)" fill="#fff" font-size="80" font-family="Eveleth"><tspan x="-64.44" y="0">CV</tspan></text><text transform="translate(1168 2409.946)" fill="#fff" font-size="80" font-family="Eveleth"><tspan x="-64.44" y="0">CV</tspan></text><text transform="translate(1302 2409.946)" fill="#fff" font-size="80" font-family="Eveleth"><tspan x="-64.44" y="0">CV</tspan></text><text transform="translate(1436 2409.946)" fill="#fff" font-size="80" font-family="Eveleth"><tspan x="-64.44" y="0">CV</tspan></text><text transform="translate(1570 2409.946)" fill="#fff" font-size="80" font-family="Eveleth"><tspan x="-64.44" y="0">CV</tspan></text><text transform="translate(1704 2409.946)" fill="#fff" font-size="80" font-family="Eveleth"><tspan x="-64.44" y="0">CV</tspan></text><text transform="translate(1838 2409.946)" fill="#fff" font-size="80" font-family="Eveleth"><tspan x="-64.44" y="0">CV</tspan></text><text transform="translate(1972 2409.946)" fill="#fff" font-size="80" font-family="Eveleth"><tspan x="-64.44" y="0">CV</tspan></text></g><g transform="translate(0 -375.054)"><text transform="translate(96 2409.946)" fill="#fff" font-size="80" font-family="Eveleth"><tspan x="-64.44" y="0">CV</tspan></text><text transform="translate(230 2409.946)" fill="#fff" font-size="80" font-family="Eveleth"><tspan x="-64.44" y="0">CV</tspan></text><text transform="translate(364 2409.946)" fill="#fff" font-size="80" font-family="Eveleth"><tspan x="-64.44" y="0">CV</tspan></text><text transform="translate(498 2409.946)" fill="#fff" font-size="80" font-family="Eveleth"><tspan x="-64.44" y="0">CV</tspan></text><text transform="translate(632 2409.946)" fill="#fff" font-size="80" font-family="Eveleth"><tspan x="-64.44" y="0">CV</tspan></text><text transform="translate(766 2409.946)" fill="#fff" font-size="80" font-family="Eveleth"><tspan x="-64.44" y="0">CV</tspan></text><text transform="translate(900 2409.946)" fill="#fff" font-size="80" font-family="Eveleth"><tspan x="-64.44" y="0">CV</tspan></text><text transform="translate(1034 2409.946)" fill="#fff" font-size="80" font-family="Eveleth"><tspan x="-64.44" y="0">CV</tspan></text><text transform="translate(1168 2409.946)" fill="#fff" font-size="80" font-family="Eveleth"><tspan x="-64.44" y="0">CV</tspan></text><text transform="translate(1302 2409.946)" fill="#fff" font-size="80" font-family="Eveleth"><tspan x="-64.44" y="0">CV</tspan></text><text transform="translate(1436 2409.946)" fill="#fff" font-size="80" font-family="Eveleth"><tspan x="-64.44" y="0">CV</tspan></text><text transform="translate(1570 2409.946)" fill="#fff" font-size="80" font-family="Eveleth"><tspan x="-64.44" y="0">CV</tspan></text><text transform="translate(1704 2409.946)" fill="#fff" font-size="80" font-family="Eveleth"><tspan x="-64.44" y="0">CV</tspan></text><text transform="translate(1838 2409.946)" fill="#fff" font-size="80" font-family="Eveleth"><tspan x="-64.44" y="0">CV</tspan></text><text transform="translate(1972 2409.946)" fill="#fff" font-size="80" font-family="Eveleth"><tspan x="-64.44" y="0">CV</tspan></text></g><g transform="translate(0 -300.054)"><text transform="translate(96 2409.946)" fill="#fff" font-size="80" font-family="Eveleth"><tspan x="-64.44" y="0">CV</tspan></text><text transform="translate(230 2409.946)" fill="#fff" font-size="80" font-family="Eveleth"><tspan x="-64.44" y="0">CV</tspan></text><text transform="translate(364 2409.946)" fill="#fff" font-size="80" font-family="Eveleth"><tspan x="-64.44" y="0">CV</tspan></text><text transform="translate(498 2409.946)" fill="#fff" font-size="80" font-family="Eveleth"><tspan x="-64.44" y="0">CV</tspan></text><text transform="translate(632 2409.946)" fill="#fff" font-size="80" font-family="Eveleth"><tspan x="-64.44" y="0">CV</tspan></text><text transform="translate(766 2409.946)" fill="#fff" font-size="80" font-family="Eveleth"><tspan x="-64.44" y="0">CV</tspan></text><text transform="translate(900 2409.946)" fill="#fff" font-size="80" font-family="Eveleth"><tspan x="-64.44" y="0">CV</tspan></text><text transform="translate(1034 2409.946)" fill="#fff" font-size="80" font-family="Eveleth"><tspan x="-64.44" y="0">CV</tspan></text><text transform="translate(1168 2409.946)" fill="#fff" font-size="80" font-family="Eveleth"><tspan x="-64.44" y="0">CV</tspan></text><text transform="translate(1302 2409.946)" fill="#fff" font-size="80" font-family="Eveleth"><tspan x="-64.44" y="0">CV</tspan></text><text transform="translate(1436 2409.946)" fill="#fff" font-size="80" font-family="Eveleth"><tspan x="-64.44" y="0">CV</tspan></text><text transform="translate(1570 2409.946)" fill="#fff" font-size="80" font-family="Eveleth"><tspan x="-64.44" y="0">CV</tspan></text><text transform="translate(1704 2409.946)" fill="#fff" font-size="80" font-family="Eveleth"><tspan x="-64.44" y="0">CV</tspan></text><text transform="translate(1838 2409.946)" fill="#fff" font-size="80" font-family="Eveleth"><tspan x="-64.44" y="0">CV</tspan></text><text transform="translate(1972 2409.946)" fill="#fff" font-size="80" font-family="Eveleth"><tspan x="-64.44" y="0">CV</tspan></text></g></g><rect width="1838" height="130" transform="translate(40 2354)" fill="url(#b)"/></g></svg>