<svg id="comments-alt" xmlns="http://www.w3.org/2000/svg" width="29.764" height="26.22" viewBox="0 0 29.764 26.22">
  <path id="Path_2" data-name="Path 2" d="M18.184,14.873h-9.8L4.107,18.081a.5.5,0,0,1-.7-.1.485.485,0,0,1-.1-.3v-2.8A3.309,3.309,0,0,1,0,11.572V3.306A3.309,3.309,0,0,1,3.306,0H18.184A3.309,3.309,0,0,1,21.49,3.306v8.265a3.3,3.3,0,0,1-3.306,3.3Z" fill="#5f5d5b" opacity="0.4"/>
  <path id="Path_3" data-name="Path 3" d="M211,163.167v7.917a3.17,3.17,0,0,1-3.167,3.167H206.25v2.687a.477.477,0,0,1-.48.48.5.5,0,0,1-.287-.094l-4.1-3.073h-6.22A3.17,3.17,0,0,1,192,171.083v-3.167h7.917a4.758,4.758,0,0,0,4.75-4.75V160h3.167A3.17,3.17,0,0,1,211,163.167Z" transform="translate(-181.236 -151.196)" fill="#5f5d5b"/>
</svg>
