<?xml version="1.0" encoding="utf-8"?>
<!-- Generator: Adobe Illustrator 26.0.0, SVG Export Plug-In . SVG Version: 6.00 Build 0)  -->
<svg version="1.1" id="Layer_1" xmlns="http://www.w3.org/2000/svg" xmlns:xlink="http://www.w3.org/1999/xlink" x="0px" y="0px"
	 viewBox="0 0 179.7 88.9" style="enable-background:new 0 0 179.7 88.9;" xml:space="preserve">
<style type="text/css">
	.st0{fill:#695F50;}
	.st1{fill:#FDBB30;}
	.st2{enable-background:new    ;}
</style>
<g transform="translate(3.659 2.261)">
	<g transform="translate(127 326.541)">
		<path class="st0" d="M47.8-273.5c-0.5-2.8-5.6-6.3-5.6-6.3c-6-12.6-26.3-14.4-26.3-14.4c-15-21-33.1-30.5-33.1-30.5
			c-21.2-7.7-98.5-2.1-98.5-2.1c-12.1,0.9-10.6,4.4-10.6,4.4c-5.2,13.3-4.3,60.3-4.3,60.3c0.7,9.5,8.6,10.2,8.6,10.2l2.6,0v-0.1
			c0-10.5,8.5-19,19-19c10.5,0,19,8.5,19,19c0,0.1,0,0.3,0,0.4c22.9,0.2,56.4,0.3,78.5,0.5c0-0.3,0-0.6,0-0.9c0-10.5,8.5-19,19-19
			s19,8.5,19,19c0,0.4,0,0.8,0,1.2c2-0.2,3.9-0.6,5.9-1.1c7.7-2.6,8.1-7.2,8.1-7.2L47.8-273.5z"/>
		<path class="st1" d="M-100.4-263.9c-6.6,0-12,5.4-12,12s5.4,12,12,12s12-5.4,12-12c0,0,0,0,0,0
			C-88.4-258.6-93.8-263.9-100.4-263.9C-100.4-263.9-100.4-263.9-100.4-263.9"/>
		<path class="st1" d="M16-263.9c-6.6,0-12,5.4-12,12s5.4,12,12,12s12-5.4,12-12c0,0,0,0,0,0C28-258.6,22.7-263.9,16-263.9"/>
	</g>
	<g class="st2">
		<path class="st1" d="M28.4,23c0.2-0.2,0.4-0.3,0.6-0.3h3.2c0.2,0,0.3,0.2,0.2,0.3l-4,6c-0.1,0.2-0.1,0.4,0,0.6l4.1,6
			c0.1,0.2,0,0.3-0.2,0.3H29c-0.3,0-0.5-0.1-0.6-0.3l-2.1-3c-0.1-0.1-0.3-0.1-0.4,0l-2,3c-0.1,0.2-0.4,0.3-0.6,0.3H20
			c-0.2,0-0.3-0.2-0.2-0.3l4.1-6c0.1-0.2,0.1-0.4,0-0.6l-4-6c-0.1-0.2,0-0.3,0.2-0.3h3.2c0.3,0,0.5,0.1,0.6,0.3l2,3
			c0.1,0.2,0.3,0.2,0.4,0L28.4,23z"/>
	</g>
	<g class="st2">
		<path class="st1" d="M42.3,23.3c-0.4,0.1-0.7-0.1-0.7-0.5V18c0-0.4,0.3-0.8,0.7-1l3.7-1.3c0.4-0.1,1-0.2,1.4-0.2H50
			c0.4,0,0.7,0.3,0.7,0.7v22c0,0.4-0.3,0.7-0.7,0.7h-4.5c-0.4,0-0.7-0.3-0.7-0.7V23c0-0.3-0.3-0.5-0.6-0.4L42.3,23.3z"/>
		<path class="st1" d="M53.4,27.2c0-6.2,3.3-12.1,9.8-12.1s9.9,5.9,9.9,12.1c0,6.3-3.4,12.1-9.9,12.1S53.4,33.5,53.4,27.2z
			 M59.4,27.2c0,4,1.6,6.4,3.9,6.4s3.9-2.4,3.9-6.4s-1.7-6.3-3.9-6.3S59.4,23.3,59.4,27.2z"/>
	</g>
</g>
</svg>
