<?xml version="1.0" encoding="utf-8"?>
<!-- Generator: Adobe Illustrator 26.0.0, SVG Export Plug-In . SVG Version: 6.00 Build 0)  -->
<svg version="1.1" id="Layer_1" xmlns="http://www.w3.org/2000/svg" xmlns:xlink="http://www.w3.org/1999/xlink" x="0px" y="0px"
	 viewBox="0 0 231.4 103.6" style="enable-background:new 0 0 231.4 103.6;" xml:space="preserve">
<style type="text/css">
	.st0{fill:#695F50;}
	.st1{fill:#FFBB00;}
	.st2{enable-background:new    ;}
	.st3{fill:#FDBB30;}
</style>
<g transform="translate(-1064.517 -290.999)">
	<path class="st0" d="M1294.1,291h-170.2c-1,0-1.5,0.6-1.5,1.6v57.3c0,1-1.3,1.9-2.3,1.9s-2.3-0.8-2.3-1.9V299c0-1-0.3-1.1-1.3-1.1
		h-3.3c-1,0-2.3,0.1-2.3,1.1v4.1c0,1-0.4,1.8-1.4,1.8H1083c-1.1,0.1-2.2,0.7-2.8,1.7l-14.7,24.8c-0.6,1.1-0.9,2.3-0.9,3.5v38.5
		c0,1,0.8,1,1.9,1h9.2v0.1c0.1-5.7,2.5-11.2,6.7-15.1c4.3-4.2,9.9-5.9,15.9-5.9h0.1c12.5,0,21.8,9.2,21.8,21.7v-0.9h71.1
		c0.2-5.6,2.6-10.9,6.6-14.8c4.3-4.2,9.9-6.1,15.9-6.1h0.1c9.1,0,16.9,4.9,20.5,12.5c1.1-2.4,2.7-4.6,4.7-6.4
		c4.3-4.2,9.9-6.1,15.9-6.1h0.1c6,0,11.7,1.9,16,6.2c4,3.8,6.3,9.1,6.5,14.6h16.5c1,0,1.9,0,1.9-1v-80.7c0-0.9-0.8-1.7-1.8-1.7
		C1294.1,291,1294.1,291,1294.1,291L1294.1,291z"/>
	<path class="st1" d="M1138.2,352c-2.1,0-3.7-1.7-3.7-3.7c0-1,0.4-2,1.2-2.7l23.4-21.9l5.9,8l24.4-24c1.5-1.5,3.8-1.4,5.3,0
		s1.4,3.8,0,5.3l-30.5,30l-6-8.1l-17.3,16.2C1140,351.7,1139.1,352,1138.2,352z"/>
	<path class="st1" d="M1191.3,329c-0.1,0-0.1,0-0.2,0c-2.1-0.1-3.7-1.8-3.6-3.9l0,0l0.5-11l-11,0.3c-2.1,0.1-3.8-1.6-3.9-3.6
		c-0.1-2.1,1.6-3.8,3.6-3.9l19-0.5l-0.8,19C1194.9,327.4,1193.3,329,1191.3,329z"/>
	<path class="st1" d="M1098.1,384.2L1098.1,384.2c-4.6,0-8.3-3.8-8.3-8.4s3.8-8.3,8.4-8.2l0,0c4.6,0,8.3,3.8,8.2,8.4
		S1102.7,384.3,1098.1,384.2 M1098.3,357.3L1098.3,357.3c-10.4,0-18.7,8.4-18.6,18.7c0,10.2,8.3,18.5,18.5,18.6h0.1
		c10.3-0.1,18.6-8.4,18.6-18.7C1116.7,365.6,1108.5,357.4,1098.3,357.3"/>
	<path class="st1" d="M1254.9,384.2L1254.9,384.2c-4.6,0-8.3-3.8-8.3-8.4s3.8-8.3,8.4-8.2l0,0c4.6,0,8.3,3.8,8.2,8.4
		S1259.5,384.3,1254.9,384.2 M1255.1,357.3L1255.1,357.3c-10.4,0-18.7,8.4-18.6,18.7c0,10.2,8.3,18.5,18.5,18.6h0.1
		c10.3-0.1,18.6-8.4,18.6-18.7C1273.5,365.6,1265.3,357.4,1255.1,357.3"/>
	<path class="st1" d="M1213.7,384.2L1213.7,384.2c-4.6,0-8.3-3.8-8.3-8.4s3.8-8.3,8.4-8.2l0,0c4.6,0,8.3,3.8,8.2,8.4
		S1218.3,384.3,1213.7,384.2 M1213.8,357.3L1213.8,357.3c-10.4,0-18.7,8.4-18.6,18.7c0,10.2,8.3,18.5,18.5,18.6h0.1
		c10.3-0.1,18.6-8.4,18.6-18.7C1232.2,365.6,1224,357.4,1213.8,357.3"/>
</g>
<g class="st2">
	<path class="st3" d="M155.7,29.9c0.2-0.2,0.4-0.3,0.6-0.3h3.2c0.2,0,0.3,0.2,0.2,0.3l-4,6c-0.1,0.2-0.1,0.4,0,0.6l4.1,6
		c0.1,0.2,0,0.3-0.2,0.3h-3.3c-0.3,0-0.5-0.1-0.6-0.3l-2.1-3c-0.1-0.1-0.3-0.1-0.4,0l-2,3c-0.1,0.2-0.4,0.3-0.6,0.3h-3.3
		c-0.2,0-0.3-0.2-0.2-0.3l4.1-6c0.1-0.2,0.1-0.4,0-0.6l-4-6c-0.1-0.2,0-0.3,0.2-0.3h3.2c0.3,0,0.5,0.1,0.6,0.3l2,3
		c0.1,0.2,0.3,0.2,0.4,0L155.7,29.9z"/>
</g>
<g class="st2">
	<path class="st3" d="M185.3,39.8c0.4,0,0.7,0.3,0.7,0.7v4.5c0,0.4-0.3,0.7-0.7,0.7h-15.5c-0.4,0-0.7-0.3-0.7-0.7V42
		c0-0.5,0.2-0.9,0.5-1.2l7.7-7.2c1.9-1.8,2.8-2.6,2.8-3.9c0-1.2-0.8-2-2.2-2c-1.5,0-2.6,0.9-2.6,2.6c0,0.5-0.2,0.7-0.5,0.7h-4.8
		c-0.3,0-0.5-0.2-0.5-0.7c0-5.8,4.6-8.5,8.6-8.5c4.4,0,8.2,2.9,8.2,7.8c0,4-2.9,6.4-4.8,8.3l-1.5,1.4c-0.2,0.1-0.1,0.4,0.2,0.4
		H185.3z"/>
	<path class="st3" d="M203.8,22.4c0.4,0,0.7,0.3,0.7,0.7v4.6c0,0.4-0.3,0.7-0.7,0.7h-7.4c-0.3,0-0.6,0.3-0.7,0.6l-0.2,1
		c0,0.3,0.2,0.5,0.5,0.4c0.7-0.2,1.4-0.3,2.4-0.3c4.4,0,7.6,3.4,7.6,7.7c0,4.8-3.9,8.3-9.1,8.3c-3.9,0-6.9-2-8.7-4.5
		c-0.2-0.3-0.1-0.8,0.2-1l3.8-2.2c0.4-0.2,0.8-0.2,1.1,0.2c1,1.1,2.2,1.7,3.5,1.7c1.9,0,3-1.1,3-2.5c0-1-0.6-2.4-2.4-2.4
		c-1,0-1.9,0.4-3,1.3c-0.4,0.3-0.8,0.4-1.2,0.1l-3.7-1.7c-0.4-0.2-0.6-0.6-0.5-1l2-11.1c0.1-0.4,0.4-0.7,0.8-0.7H203.8z"/>
</g>
</svg>
