<?xml version="1.0" encoding="utf-8"?>
<!-- Generator: Adobe Illustrator 26.0.0, SVG Export Plug-In . SVG Version: 6.00 Build 0)  -->
<svg version="1.1" id="Layer_1" xmlns="http://www.w3.org/2000/svg" xmlns:xlink="http://www.w3.org/1999/xlink" x="0px" y="0px"
	 viewBox="0 0 90.8 84.7" style="enable-background:new 0 0 90.8 84.7;" xml:space="preserve">
<style type="text/css">
	.st0{fill:#FFBB00;}
	.st1{fill:#564637;}
	.st2{fill:#FFFFFF;}
</style>
<g transform="translate(-1593.955 51.263)">
	<rect x="1598.5" y="-30.6" class="st0" width="82.7" height="59.5"/>
	<g transform="translate(1911.955 702.401)">
		<path class="st1" d="M-312.5-728.2c0-2,1.7-3.7,3.7-3.7h72.4c2,0,3.7,1.7,3.7,3.7v6.6c-8.6,3-17.6,5-26.7,5.8v-4
			c0-1-0.9-1.9-1.9-1.9l0,0l-22.7,0c-1,0-1.9,0.9-1.9,1.9v0v4c-9.1-0.8-18-2.8-26.7-5.8L-312.5-728.2z M-287.9-746.2
			c0-1.1,0.9-2,2-2h26.5c1.1,0,2,0.9,2,2v8.8h-30.5L-287.9-746.2z M-280.4-716.3h15.6v8h-15.6V-716.3z M-232.7-678.1
			c0,2-1.7,3.7-3.7,3.7h-72.4c-2,0-3.7-1.7-3.7-3.7v-37.8c8.7,2.8,17.6,4.7,26.7,5.5v5.7c0,1,0.9,1.9,1.9,1.9l0,0h22.7
			c1,0,1.9-0.9,1.9-1.9v0v-5.7c9.1-0.8,18-2.7,26.7-5.5L-232.7-678.1z M-308.8-668.9h72.4c5.1,0,9.2-4.1,9.2-9.2v-50.1
			c0-5.1-4.1-9.2-9.2-9.2h-15.5v-8.8c0-4.1-3.3-7.5-7.5-7.5h-26.5c-4.1,0-7.5,3.3-7.5,7.5v8.8h-15.5c-5.1,0-9.2,4.1-9.2,9.2v50.1
			C-318-673-313.9-668.9-308.8-668.9L-308.8-668.9z"/>
	</g>
	
		<rect x="1646.4" y="3.5" transform="matrix(0.9613 -0.2757 0.2757 0.9613 60.9805 457.8704)" class="st2" width="25.7" height="16.9"/>
	<g transform="translate(1965.688 763.199)">
		<path class="st1" d="M-307-753.4L-307-753.4L-307-753.4z M-308.6-750.5C-308.6-750.5-308.6-750.5-308.6-750.5l2-0.5l-2,0.2l0-0.1
			l2.1-0.3l-2.1-0.4l0-0.1l2.1,0.4l-1.9-1.1l0-0.1l1.8,1.1l-1.5-1.5l0,0l1.5,1.6l-1-1.9l0.1,0l0.9,1.8l-0.6-1.9
			C-308.3-753-309-751.7-308.6-750.5L-308.6-750.5z M-308.5-750.2l1.7-0.8l-1.7,0.6C-308.5-750.3-308.5-750.2-308.5-750.2
			L-308.5-750.2z M-308.3-749.8l1.6-1.2l-1.8,0.9l0,0C-308.4-750-308.3-749.9-308.3-749.8 M-307.8-749.3l1.3-1.7l-1.7,1.2l0,0
			C-308.1-749.6-308-749.5-307.8-749.3 M-307.1-749l0.7-2l-1.3,1.7l0,0C-307.6-749.2-307.4-749-307.1-749L-307.1-749z M-306.4-748.8
			l0-2.1l-0.7,2C-306.9-748.9-306.6-748.9-306.4-748.8L-306.4-748.8z M-305.8-748.9L-305.8-748.9l-0.6-2l0,2.1l0,0
			C-306.2-748.9-306-748.9-305.8-748.9L-305.8-748.9z M-306.4-753.5L-306.4-753.5c-0.2,0-0.5,0-0.7,0.1l0.6,2.1L-306.4-753.5z
			 M-305.7-749L-305.7-749c0.1,0,0.2-0.1,0.3-0.1l-0.9-1.7L-305.7-749z M-304.8-749.5l-1.4-1.5l0.9,1.9
			C-305.1-749.2-305-749.3-304.8-749.5L-304.8-749.5z M-304.4-750l-1.8-1l1.4,1.5C-304.6-749.7-304.5-749.8-304.4-750 M-304.2-750.7
			l-2.1-0.4l1.8,1C-304.3-750.2-304.2-750.5-304.2-750.7 M-304.1-751.4l-2.1,0.3l2,0.4l0,0C-304.1-751-304.1-751.2-304.1-751.4
			L-304.1-751.4z M-304.2-751.8C-304.2-751.8-304.2-751.8-304.2-751.8l-1.9,0.6l2-0.2l0,0C-304.1-751.6-304.2-751.7-304.2-751.8
			 M-304.3-752.1l-1.6,0.8l1.7-0.6C-304.3-752-304.3-752-304.3-752.1 M-304.5-752.5l-1.6,1.2l1.8-0.8l0,0
			C-304.4-752.2-304.4-752.4-304.5-752.5 M-304.9-752.9l-1.3,1.7l1.7-1.2C-304.7-752.7-304.8-752.8-304.9-752.9L-304.9-752.9z
			 M-305.6-753.3l-0.7,2l1.3-1.7l0,0C-305.2-753.1-305.4-753.2-305.6-753.3L-305.6-753.3z M-306.3-753.5l0,2.1l0.7-2
			C-305.9-753.4-306.1-753.5-306.3-753.5 M-304-751.8c0.4,1.3-0.4,2.7-1.7,3.1s-2.7-0.4-3.1-1.7c-0.4-1.3,0.4-2.7,1.7-3
			C-305.8-753.9-304.4-753.2-304-751.8C-304-751.9-304-751.9-304-751.8L-304-751.8z M-316.4-739.5l-1.6-5.4l24.7-7.1l1.6,5.4
			L-316.4-739.5z"/>
	</g>
	
		<rect x="1644.9" y="3.8" transform="matrix(0.9613 -0.2756 0.2756 0.9613 62.3928 457.1475)" class="st1" width="25.7" height="5.6"/>
	<rect x="1598.5" y="-30.6" class="st0" width="82.7" height="59.5"/>
	<path class="st1" d="M1679.3,24.3c0,2-1.7,3.7-3.7,3.7h-72.4c-2,0-3.7-1.7-3.7-3.7v-50.1c0-2,1.7-3.7,3.7-3.7h72.4
		c2,0,3.7,1.7,3.7,3.7L1679.3,24.3z M1654.6-35h-30.5v-8.8c0-1.1,0.9-2,2-2h26.5c1.1,0,2,0.9,2,2L1654.6-35z M1684.7,24.3v-50.1
		c0-5.1-4.1-9.2-9.2-9.2h-15.5v-8.8c0-4.1-3.3-7.5-7.5-7.5h-26.5c-4.1,0-7.5,3.3-7.5,7.5v8.8h-15.5c-5.1,0-9.2,4.1-9.2,9.2v50.1
		c0,5.1,4.1,9.2,9.2,9.2h72.4C1680.6,33.5,1684.7,29.4,1684.7,24.3"/>
	<path class="st1" d="M1595.2-16.7c11.8,4.6,27.1,7.3,44.1,7.3c15.9,0,30.4-2.4,41.9-6.5V-22c-11.6,4.4-26.3,6.9-41.9,6.9
		c-16.6,0-32.2-2.8-44.1-7.8V-16.7z"/>
	<rect x="1622.3" y="-2.6" class="st2" width="34.1" height="22.5"/>
	<g transform="translate(1940.279 759.086)">
		<g transform="translate(0 0)">
			<path class="st1" d="M-300.9-753.4L-300.9-753.4z M-304-750.3c0,0,0,0.1,0,0.1l2.7-0.1l-2.7-0.4l0-0.1l2.8,0.4l-2.5-1.3l0-0.1
				l2.6,1.3l-2-2.1l0.1-0.1l2,2l-1.3-2.5l0.1,0l1.3,2.5l-0.5-2.8l0.1,0l0.5,2.6l-0.1-2.6C-302.6-753.4-304-752-304-750.3L-304-750.3
				z M-303.9-749.8l2.4-0.4l-2.4,0.1C-303.9-750-303.9-749.9-303.9-749.8L-303.9-749.8z M-303.8-749.3l2.5-0.9l-2.6,0.4l0,0
				C-303.9-749.6-303.8-749.4-303.8-749.3 M-303.4-748.5l2.3-1.7l-2.6,1l0,0C-303.6-749-303.5-748.7-303.4-748.5 M-302.6-747.8
				l1.6-2.3l-2.3,1.7l0,0C-303.1-748.2-302.9-748-302.6-747.8L-302.6-747.8z M-301.8-747.4l0.8-2.7l-1.6,2.3
				C-302.3-747.6-302.1-747.5-301.8-747.4z M-300.9-747.3L-300.9-747.3l0-2.8l-0.8,2.7l0,0C-301.4-747.3-301.2-747.3-300.9-747.3
				L-300.9-747.3z M-300-753.3L-300-753.3c-0.3-0.1-0.6-0.1-0.9-0.1l0.1,2.9L-300-753.3z M-300.8-747.3L-300.8-747.3
				c0.1,0,0.3,0,0.4,0l-0.5-2.5L-300.8-747.3z M-299.5-747.6l-1.3-2.4l0.5,2.7C-300-747.4-299.7-747.5-299.5-747.6L-299.5-747.6z
				 M-298.8-748.1l-1.9-2l1.3,2.4C-299.2-747.8-299-747.9-298.8-748.1 M-298.2-748.9l-2.5-1.3l1.9,2
				C-298.5-748.4-298.3-748.6-298.2-748.9 M-297.9-749.8l-2.7-0.4l2.5,1.2l0,0C-298-749.2-298-749.5-297.9-749.8L-297.9-749.8z
				 M-297.8-750.3C-297.8-750.4-297.8-750.4-297.8-750.3l-2.6,0.1l2.6,0.4l0,0C-297.9-750-297.8-750.2-297.8-750.3 M-297.9-750.8
				l-2.3,0.4l2.4-0.1C-297.9-750.6-297.9-750.7-297.9-750.8 M-298-751.3l-2.4,0.9l2.6-0.4l0,0C-297.9-751-298-751.1-298-751.3
				 M-298.4-752.1l-2.2,1.7l2.6-0.9C-298.1-751.6-298.2-751.9-298.4-752.1L-298.4-752.1z M-299.1-752.8l-1.6,2.3l2.3-1.7l0,0
				C-298.6-752.4-298.8-752.6-299.1-752.8z M-299.9-753.3l-0.8,2.7l1.6-2.3C-299.4-753-299.7-753.2-299.9-753.3 M-297.6-750.3
				c0,1.8-1.5,3.3-3.3,3.3c-1.8,0-3.3-1.5-3.3-3.3c0-1.8,1.5-3.3,3.3-3.3C-299.1-753.7-297.6-752.2-297.6-750.3
				C-297.6-750.4-297.6-750.4-297.6-750.3L-297.6-750.3z M-318-746.6h34.1v7.5H-318V-746.6z"/>
		</g>
	</g>
	<rect x="1622.3" y="-2.6" class="st1" width="34.1" height="7.5"/>
</g>
</svg>
