<svg xmlns="http://www.w3.org/2000/svg" xmlns:xlink="http://www.w3.org/1999/xlink" width="350" height="619" viewBox="0 0 350 619"><defs><clipPath id="a"><rect width="350" height="619" transform="translate(100 305)" opacity="0.2"/></clipPath></defs><g transform="translate(-100 -305)" clip-path="url(#a)"><rect width="350" height="619" rx="12" transform="translate(100 305)" fill="#fff"/><g transform="translate(6.659 10.032)"><g transform="translate(127 326.541)"><path d="M316.917,179.328c-.463-2.795-5.595-6.292-5.595-6.292C305.272,160.461,285,158.6,285,158.6c-15.024-20.967-33.073-30.516-33.073-30.516-21.2-7.69-98.542-2.1-98.542-2.1-12.109.931-10.595,4.428-10.595,4.428-5.242,13.273-4.31,60.332-4.31,60.332.7,9.549,8.615,10.249,8.615,10.249l2.565.017v-.137a18.984,18.984,0,0,1,37.969,0c0,.132-.009.262-.009.39,22.876.151,56.412.344,78.532.516-.01-.3-.021-.6-.021-.908a18.988,18.988,0,0,1,37.976,0c0,.421-.024.831-.048,1.244a37.369,37.369,0,0,0,5.875-1.125c7.682-2.561,8.147-7.223,8.147-7.223Z" transform="translate(-138.417 -124.019)" fill="#695f50"/><path d="M171.64,199.541a12,12,0,1,0,12,11.995,11.994,11.994,0,0,0-12-11.995" transform="translate(-141.414 -134.679)" fill="#fdbb30"/><path d="M307.257,199.541a12,12,0,1,0,12,11.995,12,12,0,0,0-12-11.995" transform="translate(-160.556 -134.679)" fill="#fdbb30"/></g><text transform="translate(163.341 364.739)" fill="#fdbb30" font-size="17" font-family="EvelethCleanRegular, Eveleth Clean"><tspan x="-13.056" y="0">X</tspan></text><text transform="translate(171.341 367.739)" fill="#fdbb30" font-size="30" font-family="EvelethCleanRegular, Eveleth Clean"><tspan x="0" y="0">145</tspan></text><g transform="translate(-1064.517 -290.999)"><path d="M1473.394,724.967H1303.185c-1.031,0-1.474.615-1.474,1.645v57.281c0,1.031-1.3,1.872-2.314,1.872s-2.314-.841-2.314-1.872v-50.9c0-1.031-.3-1.085-1.32-1.085h-3.308c-1.03,0-2.314.054-2.314,1.085v4.095c0,1.021-.407,1.762-1.428,1.762h-26.369a3.728,3.728,0,0,0-2.83,1.663l-14.707,24.8a8.329,8.329,0,0,0-.949,3.507v38.461c0,1.03.841.985,1.871.985h9.193a.945.945,0,0,1-.009.118,20.847,20.847,0,0,1,6.653-15.087c4.267-4.248,9.935-5.857,15.945-5.857h.1c12.465,0,21.784,9.22,21.784,21.685v-.859h71.11a21.311,21.311,0,0,1,6.617-14.752c4.266-4.248,9.925-6.074,15.945-6.074h.108c9.112,0,16.949,4.917,20.484,12.456a20.537,20.537,0,0,1,4.718-6.382c4.257-4.248,9.916-6.074,15.936-6.074h.1c6.039,0,11.706,1.889,15.955,6.183a21.223,21.223,0,0,1,6.508,14.643h16.515c1.03,0,1.88.045,1.88-.985V726.613a1.708,1.708,0,0,0-1.88-1.645Z" fill="#695f50"/><path d="M1317.5,785.993a3.745,3.745,0,0,1-2.56-6.479l23.438-21.942,5.921,7.977,24.368-23.989a3.745,3.745,0,0,1,5.255,5.338l-30.5,30.029-6.049-8.149-17.308,16.2A3.732,3.732,0,0,1,1317.5,785.993Z" fill="#fb0"/><path d="M1370.629,762.959c-.056,0-.112,0-.169,0a3.745,3.745,0,0,1-3.576-3.907l.486-10.961-10.967.313a3.745,3.745,0,1,1-.214-7.487l19.02-.543-.842,19.009A3.745,3.745,0,0,1,1370.629,762.959Z" fill="#fb0"/><path d="M1277.47,818.179h-.037a8.307,8.307,0,0,1,.136-16.614h.036a8.307,8.307,0,0,1-.135,16.614m.135-26.955h-.081a18.644,18.644,0,0,0-.082,37.287h.082a18.644,18.644,0,0,0,.081-37.287" fill="#fb0"/><path d="M1434.273,818.179h-.037a8.307,8.307,0,0,1,.127-16.614h.045a8.307,8.307,0,0,1-.135,16.614m.126-26.955h-.081a18.644,18.644,0,0,0-.082,37.287h.082a18.644,18.644,0,0,0,.081-37.287" fill="#fb0"/><path d="M1393.026,818.179h-.036a8.307,8.307,0,0,1,.136-16.614h.045a8.307,8.307,0,0,1-.145,16.614m.127-26.955h-.081a18.644,18.644,0,0,0-.082,37.287h.082a18.644,18.644,0,0,0,.081-37.287" fill="#fb0"/></g><text transform="translate(339.341 476.739)" fill="#fdbb30" font-size="17" font-family="EvelethCleanRegular, Eveleth Clean"><tspan x="-13.056" y="0">X</tspan></text><text transform="translate(347.341 479.739)" fill="#fdbb30" font-size="30" font-family="EvelethCleanRegular, Eveleth Clean"><tspan x="0" y="0">25</tspan></text></g><g transform="translate(-766.62 -121.779)"><rect width="134.773" height="69.071" transform="translate(919.216 752.005)" fill="#564637"/><path d="M911.383,761.924l-5.057-6.938,80.287-58.519,80.267,58.52-5.058,6.938-75.209-54.832Z" fill="#564637"/><path d="M913.549,755.032l73.063-53.253,73.04,53.253Z" fill="#564637"/><rect width="109.166" height="59.802" transform="translate(932.02 764.301)" fill="#fff"/><text transform="translate(945.514 752.509)" fill="#fb0" font-size="12.239" font-family="EvelethCleanRegular, Eveleth Clean"><tspan x="0" y="0">250,000 </tspan></text><text transform="translate(1004.112 752.509)" fill="#fb0" font-size="7.415" font-family="EvelethCleanRegular, Eveleth Clean"><tspan x="0" y="0">sq ft</tspan></text><rect width="30.772" height="22.964" transform="translate(997.705 813.342)" fill="#fb0"/><rect width="30.773" height="22.964" transform="translate(1034.45 813.342)" fill="#fb0"/><rect width="30.776" height="22.964" transform="translate(1071.192 813.342)" fill="#fb0"/><rect width="30.772" height="22.964" transform="translate(1034.45 786.078)" fill="#fb0"/><rect width="30.776" height="22.964" transform="translate(1071.195 786.078)" fill="#fb0"/><rect width="30.776" height="22.964" transform="translate(1107.937 813.342)" fill="#fb0"/><rect width="30.776" height="22.964" transform="translate(1107.937 786.078)" fill="#fb0"/><rect width="30.776" height="22.964" transform="translate(1071.195 758.814)" fill="#fb0"/><rect width="30.776" height="22.964" transform="translate(1107.937 758.814)" fill="#fb0"/><rect width="30.776" height="22.964" transform="translate(1107.937 731.55)" fill="#fb0"/><rect width="30.776" height="22.964" transform="translate(1144.682 813.342)" fill="#fb0"/><rect width="30.776" height="22.964" transform="translate(1144.682 786.078)" fill="#fb0"/><rect width="30.776" height="22.964" transform="translate(1144.682 758.814)" fill="#fb0"/><rect width="30.776" height="22.964" transform="translate(1144.682 731.55)" fill="#fb0"/><rect width="30.776" height="22.964" transform="translate(1144.682 704.287)" fill="#fb0"/></g><g transform="translate(-758.195 692.715)"><path d="M924.754,100.263l24.557,24.557-8.34,5.328s-10.657.695-11.12,0-7.877-6.255-7.877-6.255l-3.243-8.5s1.39-7.717,1.39-8.644,2.781-6.65,2.781-6.65Z" transform="translate(-8.093 -0.796)" fill="#fdbb30"/><path d="M923.256,102.294l22.865,22.436a16.634,16.634,0,0,1-21.826-1.147,15.486,15.486,0,0,1-4.7-11.158,15.816,15.816,0,0,1,3.656-10.131m12.624,29.587a20.01,20.01,0,0,0,14.071-5.713,1.852,1.852,0,0,0,.543-1.313v-.139a1.8,1.8,0,0,0-.541-1.29l-11.4-11.186,11.4-11.256a1.807,1.807,0,0,0-2.54-2.572l-11.445,11.3-11.516-11.3a1.975,1.975,0,0,0-1.3-.517h-.005s0,0,0,0h-.025a1.749,1.749,0,0,0-1.473.794,19.454,19.454,0,0,0-5.661,13.74,19.066,19.066,0,0,0,5.782,13.742,20.062,20.062,0,0,0,14.111,5.713" transform="translate(-7.104 0)" fill="#695f50"/><path d="M901.637,156.435,911,143.608l9.476,12.827Zm24.032,2.621a1.807,1.807,0,0,0-.16-1.888L912.442,139.48a1.809,1.809,0,0,0-1.453-.733h-.005a1.807,1.807,0,0,0-1.454.742l-12.907,17.687a1.807,1.807,0,0,0,1.46,2.873h25.974a1.808,1.808,0,0,0,1.613-.993" transform="translate(0 -14.723)" fill="#695f50"/><rect width="33.36" height="26.641" transform="translate(941.72 161.074)" fill="#fdbb30"/><path d="M997.335,219.385a1.8,1.8,0,0,1-1.857,1.857H968.389a1.8,1.8,0,0,1-1.858-1.857V197.873a1.8,1.8,0,0,1,1.858-1.858h27.089a1.8,1.8,0,0,1,1.857,1.858ZM995.478,192.4H968.389a5.414,5.414,0,0,0-5.472,5.472v21.512a5.413,5.413,0,0,0,5.472,5.471h11.737v3.079H969.663a1.807,1.807,0,0,0,0,3.615H994.2a1.807,1.807,0,0,0,0-3.615H983.74v-3.079h11.737a5.413,5.413,0,0,0,5.471-5.471V197.873a5.413,5.413,0,0,0-5.471-5.472" transform="translate(-24.016 -34.058)" fill="#695f50"/><path d="M1137.862,223.743c-.165-1-2-2.247-2-2.247-2.161-4.492-9.4-5.159-9.4-5.159a38.486,38.486,0,0,0-11.813-10.9c-7.573-2.747-35.2-.749-35.2-.749-4.326.333-3.785,1.582-3.785,1.582-1.873,4.741-1.539,21.551-1.539,21.551a3.615,3.615,0,0,0,3.078,3.661l.916.006v-.049a6.781,6.781,0,0,1,13.562,0c0,.047,0,.093,0,.139,8.171.054,20.15.123,28.051.184,0-.107-.008-.214-.008-.324a6.782,6.782,0,0,1,13.565,0c0,.15-.008.3-.017.444a13.357,13.357,0,0,0,2.1-.4c2.744-.915,2.91-2.58,2.91-2.58Z" transform="translate(-64.083 -38.233)" fill="#695f50"/><path d="M1088.569,240.207a4.285,4.285,0,1,0,4.287,4.285,4.284,4.284,0,0,0-4.287-4.285" transform="translate(-67.752 -51.286)" fill="#fdbb30"/><path d="M1153.612,240.207a4.285,4.285,0,1,0,4.285,4.285,4.286,4.286,0,0,0-4.285-4.285" transform="translate(-91.19 -51.286)" fill="#fdbb30"/><path d="M1053.094,158.218a1.391,1.391,0,0,1,1.388-1.388h0a1.392,1.392,0,0,1,1.394,1.388h0a1.4,1.4,0,0,1-1.394,1.394h0A1.4,1.4,0,0,1,1053.094,158.218Zm-5.526,0a1.387,1.387,0,0,1,1.388-1.388h0a1.392,1.392,0,0,1,1.395,1.388h0a1.4,1.4,0,0,1-1.395,1.394h0A1.392,1.392,0,0,1,1047.567,158.218Zm-5.526,0a1.387,1.387,0,0,1,1.388-1.388h0a1.392,1.392,0,0,1,1.394,1.388h0a1.4,1.4,0,0,1-1.394,1.394h0A1.392,1.392,0,0,1,1042.041,158.218Zm-5.526,0a1.387,1.387,0,0,1,1.388-1.388h0a1.387,1.387,0,0,1,1.388,1.388h0a1.392,1.392,0,0,1-1.388,1.394h0A1.392,1.392,0,0,1,1036.515,158.218Zm-5.527,0a1.387,1.387,0,0,1,1.388-1.388h0a1.387,1.387,0,0,1,1.388,1.388h0a1.392,1.392,0,0,1-1.388,1.394h0A1.392,1.392,0,0,1,1030.988,158.218Zm-5.526,0a1.387,1.387,0,0,1,1.388-1.388h0a1.387,1.387,0,0,1,1.388,1.388h0a1.392,1.392,0,0,1-1.388,1.394h0A1.392,1.392,0,0,1,1025.462,158.218Zm-5.527,0a1.387,1.387,0,0,1,1.388-1.388h0a1.387,1.387,0,0,1,1.388,1.388h0a1.392,1.392,0,0,1-1.388,1.394h0A1.392,1.392,0,0,1,1019.935,158.218Zm-5.533,0a1.392,1.392,0,0,1,1.394-1.388h0a1.387,1.387,0,0,1,1.388,1.388h0a1.392,1.392,0,0,1-1.388,1.394h0A1.4,1.4,0,0,1,1014.4,158.218Zm-5.526,0a1.392,1.392,0,0,1,1.394-1.388h0a1.387,1.387,0,0,1,1.388,1.388h0a1.392,1.392,0,0,1-1.388,1.394h0A1.4,1.4,0,0,1,1008.876,158.218Zm-5.526,0a1.392,1.392,0,0,1,1.394-1.388h0a1.387,1.387,0,0,1,1.388,1.388h0a1.392,1.392,0,0,1-1.388,1.394h0A1.4,1.4,0,0,1,1003.349,158.218Zm-5.526,0a1.392,1.392,0,0,1,1.394-1.388h0a1.391,1.391,0,0,1,1.388,1.388h0a1.4,1.4,0,0,1-1.388,1.394h0A1.4,1.4,0,0,1,997.823,158.218Zm-5.526,0a1.387,1.387,0,0,1,1.388-1.388h0a1.392,1.392,0,0,1,1.394,1.388h0a1.4,1.4,0,0,1-1.394,1.394h0A1.392,1.392,0,0,1,992.3,158.218Zm-5.526,0a1.387,1.387,0,0,1,1.388-1.388h0a1.392,1.392,0,0,1,1.394,1.388h0a1.4,1.4,0,0,1-1.394,1.394h0A1.392,1.392,0,0,1,986.77,158.218Z" transform="translate(-32.611 -21.24)" fill="#fdbb30"/><path d="M1099.1,174.45a1.387,1.387,0,0,1,1.388-1.388h0a1.387,1.387,0,0,1,1.388,1.388h0a1.392,1.392,0,0,1-1.388,1.394h0A1.392,1.392,0,0,1,1099.1,174.45Zm0-6.332a1.387,1.387,0,0,1,1.388-1.388h0a1.387,1.387,0,0,1,1.388,1.388h0a1.392,1.392,0,0,1-1.388,1.394h0A1.392,1.392,0,0,1,1099.1,168.118Z" transform="translate(-73.091 -24.807)" fill="#fdbb30"/><path transform="translate(-30.281 -22.023)" fill="#fdbb30"/><path d="M938.055,218.048a1.391,1.391,0,0,1,1.388-1.388h0a1.391,1.391,0,0,1,1.388,1.388h0a1.388,1.388,0,0,1-1.388,1.394h0A1.388,1.388,0,0,1,938.055,218.048Zm-5.565,0a1.4,1.4,0,0,1,1.394-1.388h0a1.391,1.391,0,0,1,1.388,1.388h0a1.388,1.388,0,0,1-1.388,1.394h0A1.394,1.394,0,0,1,932.49,218.048Z" transform="translate(-13.051 -42.8)" fill="#fdbb30"/><path d="M923.8,204.587a1.392,1.392,0,0,1,1.388-1.394h0a1.4,1.4,0,0,1,1.395,1.394h0a1.392,1.392,0,0,1-1.395,1.388h0A1.387,1.387,0,0,1,923.8,204.587Zm0-6.332a1.392,1.392,0,0,1,1.388-1.394h0a1.4,1.4,0,0,1,1.395,1.394h0a1.392,1.392,0,0,1-1.395,1.388h0A1.387,1.387,0,0,1,923.8,198.254Z" transform="translate(-9.919 -35.665)" fill="#fdbb30"/><path transform="translate(-10.703 -32.882)" fill="#fdbb30"/><path d="M1045.318,218.048a1.4,1.4,0,0,1,1.394-1.388h0a1.391,1.391,0,0,1,1.388,1.388h0a1.388,1.388,0,0,1-1.388,1.394h0A1.394,1.394,0,0,1,1045.318,218.048Zm-5.558,0a1.391,1.391,0,0,1,1.388-1.388h0a1.4,1.4,0,0,1,1.394,1.388h0a1.393,1.393,0,0,1-1.394,1.394h0A1.388,1.388,0,0,1,1039.76,218.048Z" transform="translate(-51.707 -42.8)" fill="#fdbb30"/><path transform="translate(-49.358 -43.584)" fill="#fdbb30"/><path d="M990.486,220.35h2.358v-6.441H995.4v-2.066h-7.462v2.066h2.552Zm-6,0h2.37v-8.507h-2.37Z" transform="translate(-31.787 -41.064)" fill="#695f50"/></g><g transform="translate(-1593.955 51.263)"><rect width="82.703" height="59.506" transform="translate(1916.493 723.089)" fill="#fb0"/><g transform="translate(1911.955 702.401)"><path d="M1917.418,727.851a3.7,3.7,0,0,1,3.7-3.7h72.448a3.7,3.7,0,0,1,3.7,3.7v6.561a111.534,111.534,0,0,1-26.664,5.8v-3.968a1.9,1.9,0,0,0-1.9-1.9l-22.716.008a1.9,1.9,0,0,0-1.9,1.9v3.967a112.021,112.021,0,0,1-26.665-5.783Zm24.658-17.981a2.006,2.006,0,0,1,2.005-2.005H1970.6a2.006,2.006,0,0,1,2.006,2.005v8.821h-30.526Zm7.469,29.939h15.586v7.99h-15.586Zm47.715,38.171a3.7,3.7,0,0,1-3.7,3.7h-72.444a3.7,3.7,0,0,1-3.7-3.7V740.214a119.486,119.486,0,0,0,26.665,5.488v5.662a1.9,1.9,0,0,0,1.9,1.9H1968.7a1.9,1.9,0,0,0,1.9-1.9V745.7a118.863,118.863,0,0,0,26.664-5.5Zm-76.143,9.164h72.448a9.174,9.174,0,0,0,9.164-9.164l0-50.128a9.174,9.174,0,0,0-9.164-9.164l-15.495,0V709.87a7.475,7.475,0,0,0-7.47-7.469h-26.513a7.475,7.475,0,0,0-7.47,7.469v8.821h-15.495a9.171,9.171,0,0,0-9.164,9.16V777.98a9.172,9.172,0,0,0,9.164,9.164Z" transform="translate(-1911.955 -702.401)" fill="#564637"/></g><rect width="25.664" height="16.938" transform="translate(1962.576 761.069) rotate(-16.002)" fill="#fff"/><g transform="translate(1965.688 763.199)"><path d="M1999.852,789.721l-.028.008Zm-1.574,2.863c.009.033.021.064.032.1l1.926-.644-2.02.247-.008-.059,2.125-.26-2.105-.4.01-.059,2.12.407-1.874-1.08.029-.051,1.849,1.066-1.475-1.547.042-.041,1.484,1.553-.959-1.925.052-.026.882,1.773-.587-1.892a2.31,2.31,0,0,0-1.523,2.847Zm.137.355,1.655-.786-1.742.582c.026.071.055.139.086.206Zm.214.366,1.615-1.169-1.8.858h0a2.159,2.159,0,0,0,.189.312m.462.477,1.286-1.668-1.712,1.239h0a2.327,2.327,0,0,0,.426.43m.672.362.677-2.016-1.3,1.691h0a2.335,2.335,0,0,0,.629.326Zm.7.12.032-2.106-.672,2a2.3,2.3,0,0,0,.64.1Zm.669-.089.049-.014-.624-2.007-.033,2.111h0a2.3,2.3,0,0,0,.608-.088Zm-.6-4.544h0a2.3,2.3,0,0,0-.675.087l.641,2.066Zm.7,4.511h0a2.45,2.45,0,0,0,.285-.117l-.853-1.715Zm.842-.508-1.435-1.5.93,1.867a2.283,2.283,0,0,0,.5-.364Zm.4-.508-1.787-1.029,1.427,1.5a2.337,2.337,0,0,0,.36-.467m.268-.7-2.051-.393,1.81,1.044a2.3,2.3,0,0,0,.24-.651m.036-.7-2.063.253,2.037.391h0a2.32,2.32,0,0,0,.025-.645Zm-.078-.408c0-.013-.008-.025-.012-.038l-1.874.626,1.957-.241h0a2.321,2.321,0,0,0-.072-.349m-.11-.295-1.61.765,1.688-.564a2.019,2.019,0,0,0-.078-.2m-.2-.365-1.587,1.15,1.763-.837h0a2.268,2.268,0,0,0-.175-.312m-.441-.487-1.278,1.657,1.685-1.217a2.329,2.329,0,0,0-.407-.441Zm-.66-.385-.682,2.03,1.3-1.682h0a2.339,2.339,0,0,0-.615-.348Zm-.7-.147-.033,2.145.676-2.017a2.249,2.249,0,0,0-.643-.128m2.279,1.631a2.478,2.478,0,1,1-3.07-1.717A2.477,2.477,0,0,1,2002.87,791.268Zm-12.419,12.34-1.556-5.427,24.67-7.075,1.556,5.428Z" transform="translate(-1988.895 -789.456)" fill="#564637"/></g><rect width="25.664" height="5.646" transform="translate(1962.576 761.068) rotate(-15.999)" fill="#564637"/><rect width="82.703" height="59.506" transform="translate(1916.493 723.089)" fill="#fb0"/><path d="M1997.261,777.98a3.7,3.7,0,0,1-3.7,3.7h-72.444a3.7,3.7,0,0,1-3.7-3.7v-50.13a3.7,3.7,0,0,1,3.7-3.7h72.448a3.7,3.7,0,0,1,3.7,3.7Zm-24.658-59.29h-30.526v-8.821a2.006,2.006,0,0,1,2.005-2.005H1970.6a2.006,2.006,0,0,1,2.006,2.005Zm30.127,59.29,0-50.129a9.174,9.174,0,0,0-9.164-9.164l-15.495,0v-8.821a7.476,7.476,0,0,0-7.47-7.47h-26.514a7.475,7.475,0,0,0-7.469,7.47v8.821h-15.495a9.171,9.171,0,0,0-9.164,9.159V777.98a9.172,9.172,0,0,0,9.164,9.163h72.447a9.174,9.174,0,0,0,9.164-9.163" transform="translate(0)" fill="#564637"/><path d="M1913.775,749.2c11.812,4.58,27.143,7.313,44.116,7.313,15.911,0,30.375-2.4,41.855-6.476v-6.11c-11.564,4.431-26.258,6.857-41.855,6.857-16.632,0-32.24-2.758-44.116-7.766Z" transform="translate(-0.549 -12.25)" fill="#564637"/><rect width="34.126" height="22.523" transform="translate(1940.279 751.103)" fill="#fff"/><g transform="translate(1940.279 759.086)"><g transform="translate(0 0)"><path d="M1969.617,783.8h0Zm-3.062,3.082c0,.045,0,.089.006.135l2.7-.117-2.673-.424.012-.078,2.811.445-2.543-1.288.034-.071,2.56,1.3-2-2.067.056-.054,1.973,2.039-1.318-2.518.068-.037,1.328,2.529-.522-2.812.078-.015.478,2.59-.058-2.634a3.072,3.072,0,0,0-2.99,3.081Zm.045.506,2.4-.4-2.439.105c.007.1.019.2.035.295Zm.14.546,2.493-.9-2.621.434h0a2.848,2.848,0,0,0,.128.469m.415.779,2.255-1.661-2.642.955h0a3.1,3.1,0,0,0,.387.707m.726.71,1.6-2.329-2.286,1.684v0a3.107,3.107,0,0,0,.684.648Zm.845.409.814-2.68-1.593,2.313a3.063,3.063,0,0,0,.779.367Zm.888.132h.068l-.061-2.794-.817,2.686h0a3.02,3.02,0,0,0,.809.11Zm.9-6.027h0a3.041,3.041,0,0,0-.9-.135l.063,2.875Zm-.76,6.023h0a3.269,3.269,0,0,0,.406-.045l-.462-2.505Zm1.263-.341-1.284-2.447.5,2.727a3.032,3.032,0,0,0,.779-.28Zm.7-.5-1.907-1.971,1.275,2.436a3.154,3.154,0,0,0,.632-.465m.6-.8-2.476-1.254,1.931,2a3.075,3.075,0,0,0,.545-.744m.3-.883-2.73-.434,2.461,1.247h0a3.079,3.079,0,0,0,.267-.814Zm.05-.551c0-.017,0-.034,0-.052l-2.625.113,2.59.409h0a3.039,3.039,0,0,0,.036-.472m-.032-.416-2.34.388,2.365-.1a2.7,2.7,0,0,0-.025-.285m-.12-.54-2.45.888,2.56-.424h0a3.039,3.039,0,0,0-.11-.462m-.385-.786-2.241,1.65,2.6-.938a3.075,3.075,0,0,0-.358-.714Zm-.7-.734-1.616,2.344,2.273-1.674h0a3.132,3.132,0,0,0-.657-.67Zm-.842-.444-.829,2.73,1.6-2.33a2.977,2.977,0,0,0-.775-.4m2.316,2.919a3.294,3.294,0,1,1-3.295-3.319A3.292,3.292,0,0,1,1972.909,786.886Zm-20.4,3.714h34.126v7.508h-34.126Z" transform="translate(-1952.512 -783.567)" fill="#564637"/></g></g><rect width="34.126" height="7.508" transform="translate(1940.279 751.104)" fill="#564637"/></g></g></svg>