<?xml version="1.0" encoding="utf-8"?>
<!-- Generator: Adobe Illustrator 26.0.0, SVG Export Plug-In . SVG Version: 6.00 Build 0)  -->
<svg version="1.1" id="Layer_1" xmlns="http://www.w3.org/2000/svg" xmlns:xlink="http://www.w3.org/1999/xlink" x="0px" y="0px"
	 viewBox="0 0 269.1 139.8" style="enable-background:new 0 0 269.1 139.8;" xml:space="preserve">
<style type="text/css">
	.st0{fill:#564637;}
	.st1{fill:#FFFFFF;}
	.st2{fill:#FFBB00;}
	.st3{font-family:'EvelethCleanRegular';}
	.st4{font-size:12.239px;}
	.st5{font-size:7.415px;}
</style>
<g transform="translate(-766.62 -121.779)">
	<rect x="779.5" y="177.3" class="st0" width="134.8" height="69.1"/>
	<path class="st0" d="M771.7,187.2l-5.1-6.9l80.3-58.5l80.3,58.5l-5.1,6.9l-75.2-54.8L771.7,187.2z"/>
	<path class="st0" d="M773.8,180.3l73.1-53.3l73,53.3H773.8z"/>
	<rect x="792.3" y="189.6" class="st1" width="109.2" height="59.8"/>
	<text transform="matrix(1 0 0 1 805.808 177.8209)" class="st2 st3 st4">250,000</text>
	<text transform="matrix(1 0 0 1 864.406 177.8209)" class="st2 st3 st5">sq ft</text>
	<rect x="858" y="238.7" class="st2" width="30.8" height="23"/>
	<rect x="894.7" y="238.7" class="st2" width="30.8" height="23"/>
	<rect x="931.5" y="238.7" class="st2" width="30.8" height="23"/>
	<rect x="894.7" y="211.4" class="st2" width="30.8" height="23"/>
	<rect x="931.5" y="211.4" class="st2" width="30.8" height="23"/>
	<rect x="968.2" y="238.7" class="st2" width="30.8" height="23"/>
	<rect x="968.2" y="211.4" class="st2" width="30.8" height="23"/>
	<rect x="931.5" y="184.1" class="st2" width="30.8" height="23"/>
	<rect x="968.2" y="184.1" class="st2" width="30.8" height="23"/>
	<rect x="968.2" y="156.9" class="st2" width="30.8" height="23"/>
	<rect x="1005" y="238.7" class="st2" width="30.8" height="23"/>
	<rect x="1005" y="211.4" class="st2" width="30.8" height="23"/>
	<rect x="1005" y="184.1" class="st2" width="30.8" height="23"/>
	<rect x="1005" y="156.9" class="st2" width="30.8" height="23"/>
	<rect x="1005" y="129.6" class="st2" width="30.8" height="23"/>
</g>
</svg>
