<?xml version="1.0" encoding="UTF-8"?><svg id="Layer_1" xmlns="http://www.w3.org/2000/svg" xmlns:xlink="http://www.w3.org/1999/xlink" viewBox="0 0 256.98 63.11"><defs><style>.cls-1{fill:#04da8d;}.cls-2{clip-path:url(#clippath);}.cls-3{fill:none;}.cls-4{fill:#191919;}.cls-5{fill:#005128;}</style><clipPath id="clippath"><rect class="cls-3" width="256.98" height="63.11"/></clipPath></defs><g class="cls-2"><g><path class="cls-4" d="M67.53,22.37h26.02v4.85h-10.23v27.29h-5.63V27.22h-10.19v-4.85h.02Zm24.91,8.87h4.81v4.49h.09c.16-.64,.45-1.25,.88-1.84,.43-.59,.95-1.16,1.57-1.63,.61-.5,1.29-.88,2.04-1.2,.75-.3,1.52-.45,2.29-.45,.59,0,1.02,.02,1.25,.05,.23,.02,.45,.07,.7,.09v4.95c-.36-.07-.73-.11-1.11-.16-.38-.05-.75-.07-1.11-.07-.86,0-1.68,.18-2.45,.52-.77,.34-1.43,.86-2,1.52-.57,.68-1.02,1.5-1.36,2.5-.34,1-.5,2.13-.5,3.43v11.07h-5.13V31.24h.02Zm37.2,23.28h-5.04v-3.24h-.09c-.63,1.18-1.56,2.11-2.81,2.81-1.25,.7-2.52,1.07-3.81,1.07-3.06,0-5.29-.75-6.65-2.27-1.36-1.52-2.04-3.81-2.04-6.87v-14.77h5.13v14.27c0,2.04,.39,3.49,1.18,4.33,.77,.84,1.88,1.27,3.29,1.27,1.09,0,1.97-.16,2.7-.5,.73-.34,1.32-.77,1.75-1.34,.45-.54,.77-1.22,.98-2,.2-.77,.29-1.61,.29-2.52v-13.5h5.13v23.25Zm8.73-7.46c.16,1.5,.73,2.54,1.7,3.15,1,.59,2.18,.91,3.56,.91,.48,0,1.02-.05,1.63-.11,.61-.07,1.2-.23,1.72-.43,.54-.2,.98-.52,1.34-.93,.34-.41,.5-.93,.48-1.59-.02-.66-.27-1.2-.73-1.61-.45-.43-1.02-.75-1.72-1.02-.7-.25-1.5-.48-2.4-.66-.91-.18-1.82-.39-2.75-.59-.95-.2-1.88-.48-2.77-.77-.88-.29-1.68-.7-2.38-1.23-.7-.5-1.27-1.16-1.68-1.95-.43-.79-.63-1.77-.63-2.95,0-1.27,.32-2.31,.93-3.18,.61-.86,1.41-1.54,2.34-2.06,.95-.52,2-.88,3.15-1.11,1.16-.2,2.27-.32,3.31-.32,1.2,0,2.36,.14,3.45,.39,1.09,.25,2.09,.66,2.97,1.25,.88,.57,1.61,1.32,2.2,2.22,.59,.91,.95,2.02,1.11,3.31h-5.35c-.25-1.23-.79-2.06-1.68-2.47-.88-.43-1.9-.64-3.04-.64-.36,0-.79,.02-1.29,.09-.5,.07-.95,.18-1.41,.34-.43,.16-.79,.41-1.11,.73-.29,.32-.45,.73-.45,1.25,0,.64,.23,1.13,.66,1.52,.43,.39,1,.7,1.7,.98,.7,.25,1.5,.48,2.4,.66,.91,.18,1.84,.39,2.79,.59,.93,.2,1.84,.48,2.74,.77,.91,.29,1.7,.7,2.4,1.22,.7,.52,1.27,1.16,1.7,1.93s.66,1.75,.66,2.88c0,1.38-.32,2.54-.95,3.52-.64,.95-1.45,1.75-2.45,2.34-1,.59-2.13,1.04-3.36,1.32-1.23,.27-2.45,.41-3.65,.41-1.48,0-2.84-.16-4.08-.5-1.25-.34-2.34-.84-3.24-1.5-.91-.68-1.63-1.52-2.15-2.52-.52-1-.79-2.2-.84-3.58h5.17v-.05Zm16.92-15.81h3.88v-6.99h5.13v6.99h4.63v3.83h-4.63v12.43c0,.54,.02,1,.07,1.41,.04,.39,.16,.73,.32,1,.16,.27,.41,.48,.75,.61,.34,.14,.77,.2,1.36,.2,.36,0,.73,0,1.09-.02,.36-.02,.73-.07,1.09-.16v3.97c-.57,.07-1.13,.11-1.66,.18-.54,.07-1.09,.09-1.66,.09-1.36,0-2.45-.14-3.27-.39-.82-.25-1.48-.64-1.93-1.13-.48-.5-.77-1.11-.95-1.86-.16-.75-.27-1.61-.29-2.56v-13.72h-3.88v-3.88h-.05Zm17.26,0h4.86v3.15h.09c.73-1.36,1.72-2.31,3.02-2.9,1.29-.59,2.68-.88,4.2-.88,1.84,0,3.43,.32,4.79,.98,1.36,.64,2.5,1.52,3.4,2.65,.91,1.13,1.57,2.45,2.02,3.95,.45,1.5,.68,3.11,.68,4.81,0,1.57-.2,3.09-.61,4.54-.41,1.47-1.02,2.77-1.84,3.9-.82,1.13-1.86,2.02-3.13,2.7-1.27,.68-2.74,1.02-4.47,1.02-.75,0-1.5-.07-2.25-.2-.75-.14-1.48-.36-2.15-.66-.68-.29-1.34-.68-1.91-1.16-.59-.48-1.07-1.02-1.47-1.63h-.09v11.61h-5.13V31.24Zm17.92,11.66c0-1.04-.14-2.06-.41-3.06-.27-1-.68-1.86-1.22-2.63-.54-.77-1.23-1.38-2.02-1.84-.82-.45-1.75-.7-2.79-.7-2.16,0-3.79,.75-4.88,2.25-1.09,1.5-1.63,3.49-1.63,5.99,0,1.18,.14,2.27,.43,3.27,.29,1,.7,1.86,1.29,2.59,.57,.73,1.25,1.29,2.04,1.7,.79,.43,1.72,.64,2.77,.64,1.18,0,2.15-.25,2.97-.73s1.48-1.11,2-1.86c.52-.77,.91-1.63,1.13-2.61,.2-.98,.32-1.97,.32-2.99Zm9.05-20.53h5.13v4.85h-5.13v-4.85Zm0,8.87h5.13v23.28h-5.13V31.24Zm9.71-8.87h5.13V54.51h-5.13V22.37Zm20.85,32.78c-1.86,0-3.52-.32-4.97-.93-1.45-.61-2.68-1.47-3.7-2.54-1-1.09-1.77-2.38-2.29-3.88-.52-1.5-.79-3.15-.79-4.95s.27-3.4,.79-4.9c.52-1.5,1.29-2.79,2.29-3.88,1-1.09,2.25-1.93,3.7-2.54,1.45-.61,3.11-.93,4.97-.93s3.52,.32,4.97,.93c1.45,.61,2.68,1.47,3.7,2.54,1,1.09,1.77,2.38,2.29,3.88,.52,1.5,.79,3.13,.79,4.9s-.27,3.45-.79,4.95c-.52,1.5-1.29,2.79-2.29,3.88-1,1.09-2.25,1.93-3.7,2.54-1.45,.61-3.11,.93-4.97,.93Zm0-4.06c1.13,0,2.13-.25,2.97-.73,.84-.48,1.52-1.11,2.07-1.88,.54-.77,.93-1.66,1.2-2.63,.25-.98,.39-1.97,.39-2.99s-.14-1.97-.39-2.97c-.25-1-.66-1.86-1.2-2.63-.54-.77-1.23-1.38-2.07-1.86-.84-.48-1.84-.73-2.97-.73s-2.13,.25-2.97,.73c-.84,.48-1.52,1.11-2.06,1.86-.54,.77-.93,1.63-1.2,2.63-.25,1-.39,1.97-.39,2.97s.14,2.02,.39,2.99c.25,.98,.66,1.86,1.2,2.63,.54,.77,1.22,1.41,2.06,1.88,.84,.5,1.84,.73,2.97,.73Zm13.25-19.85h3.88v-6.99h5.13v6.99h4.63v3.83h-4.63v12.43c0,.54,.02,1,.07,1.41,.04,.39,.16,.73,.32,1,.16,.27,.41,.48,.75,.61,.34,.14,.77,.2,1.36,.2,.36,0,.73,0,1.09-.02,.36-.02,.73-.07,1.09-.16v3.97c-.57,.07-1.14,.11-1.66,.18-.54,.07-1.09,.09-1.66,.09-1.36,0-2.45-.14-3.27-.39-.82-.25-1.48-.64-1.93-1.13-.48-.5-.77-1.11-.95-1.86-.16-.75-.27-1.61-.29-2.56v-13.72h-3.88v-3.88h-.05Z"/><path class="cls-1" d="M61.54,22.37h-23.5L30.78,0l-7.28,22.37-23.5-.02,19.03,13.84-7.28,22.34,19.03-13.82,19.01,13.82-7.26-22.34,19.01-13.82Z"/><path class="cls-5" d="M44.17,41.24l-1.63-5.06-11.75,8.53,13.38-3.47Z"/></g></g></svg>