<svg width="20" height="20" viewBox="0 0 20 20" fill="none" xmlns="http://www.w3.org/2000/svg">
<g id="phone" clip-path="url(#clip0_4431_108)">
<path id="Vector" d="M10.0001 0.416672C4.71591 0.416672 0.416748 4.71584 0.416748 10C0.416748 15.2842 4.71591 19.5833 10.0001 19.5833C13.2084 19.5833 16.3451 17.9075 17.4584 15.5992C17.8642 14.7583 17.6809 14.1833 17.4551 13.8492C17.0951 13.315 16.3567 13.0317 15.4167 13.0058V12.505C15.4167 11.9692 14.9809 11.5333 14.4442 11.5333C13.8164 11.5346 13.1924 11.4353 12.5959 11.2392C12.2559 11.1217 11.8367 11.2325 11.6426 11.4342L10.5142 12.2858C9.22091 11.5817 8.40675 10.7683 7.71175 9.48417L8.52591 8.4C8.78591 8.14084 8.87842 7.76334 8.76675 7.40751C8.56997 6.80973 8.4701 6.18433 8.47091 5.55501C8.47102 5.42744 8.44599 5.30111 8.39725 5.18323C8.34851 5.06534 8.27702 4.95822 8.18686 4.86798C8.0967 4.77774 7.98964 4.70616 7.8718 4.65732C7.75395 4.60848 7.62764 4.58334 7.50008 4.58334H5.55591C5.01925 4.58334 4.58341 5.01917 4.58341 5.55584C4.58341 10.9933 9.00758 15.4167 14.4442 15.4167C14.9801 15.4167 15.4167 14.9808 15.4167 14.4442V13.83C16.0584 13.8492 16.5642 14.0183 16.7642 14.315C16.9151 14.5375 16.8959 14.8475 16.7084 15.2358C15.7259 17.2725 12.9042 18.75 10.0001 18.75C5.17508 18.75 1.25008 14.825 1.25008 10C1.25008 5.175 5.17508 1.25001 10.0001 1.25001C14.8251 1.25001 18.7501 5.175 18.7501 10C18.7501 10.1105 18.794 10.2165 18.8721 10.2946C18.9503 10.3728 19.0562 10.4167 19.1667 10.4167C19.2773 10.4167 19.3832 10.3728 19.4614 10.2946C19.5395 10.2165 19.5834 10.1105 19.5834 10C19.5834 4.71584 15.2842 0.416672 10.0001 0.416672Z" fill="#000"/>
</g>
<defs>
<clipPath id="clip0_4431_108">
<rect width="20" height="20" fill="white"/>
</clipPath>
</defs>
</svg>
