<svg xmlns="http://www.w3.org/2000/svg" width="75" height="75" viewBox="0 0 75 75"><g transform="translate(-621 -1127)"><circle cx="37.5" cy="37.5" r="37.5" transform="translate(621 1127)"/><path d="M14.625-10.125a14.479,14.479,0,0,0-2.355-7.952l.042-.042,2.067-2.067a.844.844,0,0,0,0-1.2l-1.99-1.99a.845.845,0,0,0-1.2,0L9.26-21.438a14.536,14.536,0,0,0-7.01-3.136V-27H4.219a.846.846,0,0,0,.844-.844v-2.812a.846.846,0,0,0-.844-.844H-4.219a.846.846,0,0,0-.844.844v2.813A.846.846,0,0,0-4.219-27H-2.25v2.426A14.618,14.618,0,0,0-14.625-10.125,14.623,14.623,0,0,0,0,4.5,14.623,14.623,0,0,0,14.625-10.125ZM2.25-7.594a.846.846,0,0,1-.844.844H-1.406a.846.846,0,0,1-.844-.844V-18.246a.846.846,0,0,1,.844-.844H1.406a.846.846,0,0,1,.844.844Z" transform="translate(659 1178)" fill="#fcba2f"/></g></svg>