<svg xmlns="http://www.w3.org/2000/svg" xmlns:xlink="http://www.w3.org/1999/xlink" width="88.872" height="131.995" viewBox="0 0 88.872 131.995"><defs><linearGradient id="a" x1="0.138" y1="0.165" x2="1" y2="1" gradientUnits="objectBoundingBox"><stop offset="0" stop-color="#fdbb30"/><stop offset="1" stop-color="#ff9a9a"/></linearGradient><filter id="b" x="0" y="0" width="88.872" height="88.872" filterUnits="userSpaceOnUse"><feOffset dy="3" input="SourceAlpha"/><feGaussianBlur stdDeviation="3" result="c"/><feFlood flood-opacity="0.161"/><feComposite operator="in" in2="c"/><feComposite in="SourceGraphic"/></filter></defs><g transform="translate(-498.571 -352.092)"><ellipse cx="26.447" cy="25.957" rx="26.447" ry="25.957" transform="translate(516.561 367.57)" fill="#fff"/><g transform="translate(507.571 358.092)"><path d="M168.875,361.921a35.7,35.7,0,0,0,7.875-.919v47.069l-5.414,9.913A2.646,2.646,0,0,1,167.242,419a3.358,3.358,0,0,1-.829-1.011L161,408.071V361A35.7,35.7,0,0,0,168.875,361.921Z" transform="translate(-133.439 -293.602)" fill="#d5d1cb"/><g transform="matrix(1, 0, 0, 1, -9, -6)" filter="url(#b)"><path d="M84.436,87.112a35.436,35.436,0,1,0,35.436,35.436A35.436,35.436,0,0,0,84.436,87.112Zm0,18.7A16.751,16.751,0,0,0,67.7,122.548a2.953,2.953,0,0,1-5.906,0,22.667,22.667,0,0,1,22.64-22.64,2.953,2.953,0,0,1,0,5.906Z" transform="translate(-40 -81.11)" fill="url(#a)"/></g></g></g></svg>