<svg width="143" height="32" viewBox="0 0 143 32" fill="none" xmlns="http://www.w3.org/2000/svg">
<g clip-path="url(#clip0_213_12853)">
<g clip-path="url(#clip1_213_12853)">
<g clip-path="url(#clip2_213_12853)">
<path d="M30 14.0041C29.9996 17.1661 28.9287 20.2349 26.9617 22.711C24.9946 25.1871 22.2472 26.9247 19.1667 27.641L16 32L12.8333 27.641C9.75277 26.9247 7.00537 25.1871 5.03833 22.711C3.07128 20.2349 2.00041 17.1661 2 14.0041C2 13.6003 2.01695 13.2006 2.05084 12.8052C2.34939 9.31199 3.94829 6.05803 6.5313 3.68686C9.1143 1.3157 12.4933 0 16 0C19.5067 0 22.8857 1.3157 25.4687 3.68686C28.0517 6.05803 29.6506 9.31199 29.9492 12.8052C29.9831 13.2001 30 13.5997 30 14.0041Z" fill="#FFA300"/>
<path d="M21.9507 9.41L16.6666 12.4617C16.4639 12.5787 16.234 12.6403 15.9999 12.6403C15.7659 12.6403 15.5359 12.5787 15.3333 12.4617L10.0491 9.41C9.99858 9.3807 9.95665 9.33864 9.92751 9.28804C9.89836 9.23744 9.88302 9.18006 9.88302 9.12167C9.88302 9.06327 9.89836 9.0059 9.92751 8.9553C9.95665 8.90469 9.99858 8.86264 10.0491 8.83333L15.3333 5.7825C15.5359 5.66548 15.7659 5.60387 15.9999 5.60387C16.234 5.60387 16.4639 5.66548 16.6666 5.7825L21.9507 8.83333C22.0013 8.86264 22.0432 8.90469 22.0723 8.9553C22.1015 9.0059 22.1168 9.06327 22.1168 9.12167C22.1168 9.18006 22.1015 9.23744 22.0723 9.28804C22.0432 9.33864 22.0013 9.3807 21.9507 9.41Z" fill="white"/>
<path d="M15 15.3491V21.1783C15.0001 21.2368 14.9848 21.2943 14.9555 21.3451C14.9263 21.3958 14.8842 21.438 14.8336 21.4673C14.7829 21.4966 14.7253 21.5121 14.6668 21.5121C14.6082 21.5121 14.5507 21.4967 14.5 21.4674L9.33333 18.4841C9.13121 18.3674 8.96325 18.1997 8.84626 17.9977C8.72927 17.7958 8.66734 17.5666 8.66667 17.3332V11.4999C8.66658 11.4413 8.68192 11.3838 8.71114 11.3331C8.74036 11.2823 8.78243 11.2402 8.83312 11.2109C8.88381 11.1815 8.94132 11.1661 8.99988 11.1661C9.05843 11.1661 9.11596 11.1815 9.16667 11.2107L14.3333 14.1941C14.5361 14.3111 14.7044 14.4795 14.8214 14.6822C14.9385 14.885 15.0001 15.115 15 15.3491Z" fill="white"/>
<path d="M23.3333 11.4999V17.3332C23.3334 17.5673 23.2718 17.7973 23.1548 18.0001C23.0378 18.2028 22.8694 18.3712 22.6667 18.4882L17.5 21.4716C17.4493 21.5009 17.3918 21.5163 17.3332 21.5162C17.2747 21.5162 17.2171 21.5008 17.1665 21.4715C17.1158 21.4421 17.0737 21.4 17.0445 21.3493C17.0153 21.2985 16.9999 21.241 17 21.1824V15.3491C16.9999 15.115 17.0615 14.885 17.1786 14.6822C17.2956 14.4795 17.4639 14.3111 17.6667 14.1941L22.8333 11.2107C22.884 11.1815 22.9416 11.1661 23.0001 11.1661C23.0587 11.1661 23.1162 11.1815 23.1669 11.2109C23.2176 11.2402 23.2596 11.2823 23.2889 11.3331C23.3181 11.3838 23.3334 11.4413 23.3333 11.4999Z" fill="white"/>
</g>
<g clip-path="url(#clip3_213_12853)">
<path fill-rule="evenodd" clip-rule="evenodd" d="M49.9806 21.0383H50.024V22.6358H52.885V9.33705H50.024V10.9778H49.9806C49.2437 9.85518 47.7265 8.99162 45.7325 8.99162C41.3976 8.99162 38.6667 12.7049 38.6667 15.9864C38.6667 19.4407 41.2242 23.0244 45.6024 23.0244C47.4231 23.0244 49.0703 22.2472 49.9806 21.0383ZM50.154 15.9807C50.154 18.3555 48.2033 20.2985 45.9492 20.2985C43.6084 20.2985 41.701 18.3555 41.701 15.9807C41.701 13.6059 43.6084 11.6629 45.9492 11.6629C48.2033 11.6629 50.154 13.6059 50.154 15.9807Z" fill="black"/>
<path fill-rule="evenodd" clip-rule="evenodd" d="M56.7412 12.1124H54.8772V9.43535H56.7412V7.19009C56.7412 4.72896 58.2584 2.35417 61.7263 2.35417C62.4198 2.35417 63.3302 2.48371 63.937 2.69959L62.7666 5.29027C62.3765 5.11756 62.0297 5.0312 61.5095 5.0312C60.3391 5.0312 59.6455 5.98111 59.6455 6.97421V9.39217H62.5065V12.0692H59.6455V22.691H56.7845V12.1124H56.7412Z" fill="black"/>
<path fill-rule="evenodd" clip-rule="evenodd" d="M65.5674 12.0244H63.9202V9.34737H65.5674V5.375H68.4284V9.34737H70.4658V12.0244H68.4284V22.6462H65.5674V12.0244Z" fill="black"/>
<path fill-rule="evenodd" clip-rule="evenodd" d="M78.7778 23.0245C81.162 23.0245 83.3728 21.8155 84.9767 19.7862L82.5492 18.4045C81.5521 19.743 80.2517 20.477 78.6911 20.477C76.6971 20.477 74.7898 19.009 74.6164 16.9796H85.7136V16.4615C85.7136 11.2801 81.5521 8.9917 78.7778 8.9917C74.0962 8.9917 71.4086 12.4459 71.4086 15.9865C71.4086 19.5271 74.0962 23.0245 78.7778 23.0245ZM78.3109 11.4902C80.1316 11.4902 81.6488 12.5697 82.2557 14.599H74.5396C75.0164 12.6129 76.4903 11.4902 78.3109 11.4902Z" fill="black"/>
<path fill-rule="evenodd" clip-rule="evenodd" d="M87.8961 9.26209H90.5837V10.7301H90.627C91.1039 9.6507 92.1009 8.91667 93.2713 8.91667C93.9215 8.91667 94.4417 9.08938 94.8318 9.34845L93.7915 12.1982C93.5314 11.9823 93.0112 11.8096 92.7078 11.8096C91.6674 11.8096 90.7137 12.5868 90.7137 13.839V22.6472H87.8527V9.26209H87.8961Z" fill="black"/>
<path fill-rule="evenodd" clip-rule="evenodd" d="M96.9422 18.6562C97.9826 19.7356 99.6299 20.5992 101.147 20.5992C102.794 20.5992 103.791 19.6492 103.791 18.9152C103.791 18.0517 103.098 17.5767 102.057 17.3608L100.41 17.0586C96.6388 16.3677 95.5984 15.1587 95.5984 13.2589C95.5984 11.0137 97.5058 8.89795 100.844 8.89795C102.708 8.89795 104.312 9.45926 106.132 10.7546L104.485 12.784C103.098 11.6182 101.841 11.3159 100.887 11.3159C99.6299 11.3159 98.4161 11.9204 98.4161 12.9998C98.4161 13.7771 99.0663 14.2088 100.15 14.3815L103.054 14.9429C105.439 15.3746 106.609 16.4973 106.609 18.4834C106.609 20.4264 105.005 22.9739 100.93 22.9739C98.6762 22.9739 96.7255 22.1967 94.9049 20.6423L96.9422 18.6562Z" fill="black"/>
<path fill-rule="evenodd" clip-rule="evenodd" d="M108.301 5.375H111.162V11.0313H111.205C111.986 9.77914 113.459 9.00194 115.28 9.00194C118.098 9.00194 120.482 11.3335 120.482 14.6582V22.6893H117.621V15.2627C117.621 12.8448 116.364 11.8517 114.456 11.8517C112.592 11.8517 111.162 13.0175 111.162 15.2196V22.6893H108.301V5.375V5.375Z" fill="black"/>
<path fill-rule="evenodd" clip-rule="evenodd" d="M125.997 6.43771C125.997 5.57416 125.26 4.84013 124.393 4.84013C123.483 4.84013 122.79 5.53098 122.79 6.43771C122.79 7.30128 123.526 8.0353 124.393 8.0353C125.26 8.0353 125.997 7.30128 125.997 6.43771ZM125.838 9.36617H122.976V22.665H125.838V9.36617Z" fill="black"/>
<path fill-rule="evenodd" clip-rule="evenodd" d="M131.415 10.9287H131.372V9.33114H128.511V27.25H131.372V20.9892H131.415C132.152 22.1118 133.669 22.9754 135.663 22.9754C139.998 22.9754 142.729 19.2621 142.729 15.9805C142.729 12.5263 140.171 8.94254 135.793 8.94254C133.972 8.94254 132.455 9.67656 131.415 10.9287ZM131.241 15.9804C131.241 13.6057 133.192 11.6627 135.446 11.6627C137.787 11.6627 139.694 13.6057 139.694 15.9804C139.694 18.3552 137.787 20.2982 135.446 20.2982C133.192 20.2982 131.241 18.3552 131.241 15.9804Z" fill="black"/>
</g>
</g>
</g>
<defs>
<clipPath id="clip0_213_12853">
<rect width="143" height="32" fill="white"/>
</clipPath>
<clipPath id="clip1_213_12853">
<rect width="142.75" height="32" fill="white"/>
</clipPath>
<clipPath id="clip2_213_12853">
<rect width="32" height="32" fill="white"/>
</clipPath>
<clipPath id="clip3_213_12853">
<rect width="104.083" height="32" fill="white" transform="translate(38.6667)"/>
</clipPath>
</defs>
</svg>
