<svg width="207" height="16" viewBox="0 0 207 16" fill="none" xmlns="http://www.w3.org/2000/svg">
<path d="M31.0816 15.3219C27.8956 15.3219 25.3936 13.9179 25.1416 11.3439C25.1236 11.0919 25.3576 10.8399 25.6096 10.8399H28.0396C28.4536 10.8399 28.5436 10.9299 28.7596 11.3079C29.0116 11.7759 29.7496 12.2079 31.0096 12.2079C32.3596 12.2079 32.7916 11.7579 32.7916 11.3439C32.7916 10.7499 32.0896 10.3899 30.3976 9.81394C28.1656 9.07594 25.2316 7.99594 25.2316 5.09794C25.2316 2.41594 27.5176 0.741943 30.7216 0.741943C33.9976 0.741943 36.2836 2.45194 36.4636 4.97194C36.4816 5.22394 36.2476 5.47594 35.9956 5.47594H33.4936C33.1516 5.47594 32.9896 5.31394 32.8816 4.98994C32.6656 4.39594 31.9816 3.85594 30.7936 3.85594C29.5696 3.85594 29.0836 4.34194 29.0836 4.80994C29.0836 5.36794 29.7316 5.65594 31.4056 6.23194C33.3496 6.91594 36.6616 8.06794 36.6616 11.1459C36.6616 13.8819 34.2856 15.3219 31.0816 15.3219Z" fill="#FEBA30"/>
<path d="M20.0649 9.79595V1.44395C20.0649 1.20995 20.2629 1.01195 20.4969 1.01195H23.2149C23.4489 1.01195 23.6469 1.20995 23.6469 1.44395V9.84995C23.6469 13.6119 21.2169 15.3219 18.3009 15.3219C15.4929 15.3219 12.9189 13.6119 12.9189 9.84995V9.05795C12.9189 8.82395 13.1169 8.62595 13.3509 8.62595H16.0869C16.3209 8.62595 16.5189 8.82395 16.5189 9.05795V9.79595C16.5189 11.4699 17.3649 11.8479 18.3009 11.8479C19.3449 11.8479 20.0649 11.4699 20.0649 9.79595Z" fill="#FEBA30"/>
<path d="M7.596 15.0519H0.432C0.198 15.0519 0 14.8539 0 14.6199V1.44395C0 1.20995 0.198 1.01195 0.432 1.01195H6.984C10.008 1.01195 11.538 2.64995 11.538 4.88195C11.538 6.15995 10.998 7.05995 10.134 7.65395C10.008 7.74395 10.008 7.90595 10.152 7.97795C11.394 8.55395 12.168 9.57995 12.168 11.0919C12.168 13.4139 10.44 15.0519 7.596 15.0519ZM8.532 10.5339C8.532 9.81395 8.172 9.32795 7.2 9.32795H3.96C3.762 9.32795 3.6 9.48995 3.6 9.68795V11.4339C3.6 11.6319 3.762 11.7939 3.96 11.7939H7.2C8.172 11.7939 8.532 11.2719 8.532 10.5339ZM7.902 5.40395C7.902 4.73795 7.524 4.28795 6.768 4.28795H3.96C3.762 4.28795 3.6 4.44995 3.6 4.64795V6.15995C3.6 6.35795 3.762 6.51995 3.96 6.51995H6.57C7.542 6.51995 7.902 6.06995 7.902 5.40395Z" fill="#FEBA30"/>
<path d="M192.816 1.01195H196.182C196.452 1.01195 196.704 1.15595 196.83 1.38995L199.53 5.79995C199.602 5.94395 199.818 5.94395 199.89 5.79995L202.59 1.37195C202.734 1.15595 202.986 1.01195 203.256 1.01195H206.64C206.838 1.01195 206.946 1.20995 206.838 1.37195L201.708 9.59795C201.582 9.77795 201.51 10.0479 201.51 10.2639V14.6199C201.51 14.8539 201.312 15.0519 201.078 15.0519H198.36C198.126 15.0519 197.928 14.8539 197.928 14.6199V10.2639C197.928 10.0479 197.856 9.77795 197.73 9.59795L192.618 1.37195C192.51 1.20995 192.618 1.01195 192.816 1.01195Z" fill="#24292C"/>
<path d="M180.685 14.6199V1.44395C180.685 1.20995 180.883 1.01195 181.117 1.01195H187.543C191.143 1.01195 192.799 3.35195 192.799 6.14195C192.799 7.99595 192.025 9.72395 190.351 10.6419C190.171 10.7319 190.135 10.9479 190.243 11.1099L192.817 14.6919C192.925 14.8539 192.817 15.0519 192.637 15.0519H189.199C188.929 15.0519 188.677 14.9079 188.515 14.6919L186.319 11.5779C186.193 11.3979 185.959 11.2899 185.743 11.2899H184.627C184.429 11.2899 184.267 11.4519 184.267 11.6499V14.6199C184.267 14.8539 184.069 15.0519 183.835 15.0519H181.117C180.883 15.0519 180.685 14.8539 180.685 14.6199ZM189.325 6.17795C189.325 5.09795 188.785 4.28795 187.345 4.28795H184.627C184.429 4.28795 184.267 4.44995 184.267 4.64795V7.67195C184.267 7.86995 184.429 8.03195 184.627 8.03195H187.345C188.785 8.03195 189.325 7.14995 189.325 6.17795Z" fill="#24292C"/>
<path d="M178.502 15.0519H168.584C168.35 15.0519 168.152 14.8539 168.152 14.6199V1.44395C168.152 1.20995 168.35 1.01195 168.584 1.01195H178.502C178.736 1.01195 178.934 1.20995 178.934 1.44395V4.07195C178.934 4.30595 178.736 4.50395 178.502 4.50395H172.112C171.914 4.50395 171.752 4.66595 171.752 4.86395V6.15995C171.752 6.35795 171.914 6.51995 172.112 6.51995H177.224C177.458 6.51995 177.656 6.71795 177.656 6.95195V9.34595C177.656 9.57995 177.458 9.77795 177.224 9.77795H172.112C171.914 9.77795 171.752 9.93995 171.752 10.1379V11.2179C171.752 11.4159 171.914 11.5779 172.112 11.5779H178.502C178.736 11.5779 178.934 11.7759 178.934 12.0099V14.6199C178.934 14.8539 178.736 15.0519 178.502 15.0519Z" fill="#24292C"/>
<path d="M166.908 1.40795L161.544 14.6559C161.454 14.8899 161.202 15.0519 160.95 15.0519H158.25C157.998 15.0519 157.746 14.8899 157.656 14.6559L152.31 1.40795C152.238 1.22795 152.364 1.01195 152.58 1.01195H155.64C155.892 1.01195 156.126 1.17395 156.216 1.40795L159.474 10.1019C159.51 10.2279 159.69 10.2279 159.726 10.1019L163.002 1.40795C163.092 1.17395 163.326 1.01195 163.578 1.01195H166.638C166.854 1.01195 166.98 1.22795 166.908 1.40795Z" fill="#24292C"/>
<path d="M147.462 14.6199V1.44395C147.462 1.20995 147.66 1.01195 147.894 1.01195H150.63C150.864 1.01195 151.062 1.20995 151.062 1.44395V14.6199C151.062 14.8539 150.864 15.0519 150.63 15.0519H147.894C147.66 15.0519 147.462 14.8539 147.462 14.6199Z" fill="#24292C"/>
<path d="M145.708 15.0519H136.258C136.024 15.0519 135.826 14.8539 135.826 14.6199V1.44395C135.826 1.20995 136.024 1.01195 136.258 1.01195H138.976C139.21 1.01195 139.408 1.20995 139.408 1.44395V11.2179C139.408 11.4159 139.57 11.5779 139.768 11.5779H145.708C145.942 11.5779 146.14 11.7759 146.14 12.0099V14.6199C146.14 14.8539 145.942 15.0519 145.708 15.0519Z" fill="#24292C"/>
<path d="M133.642 15.0519H123.724C123.49 15.0519 123.292 14.8539 123.292 14.6199V1.44395C123.292 1.20995 123.49 1.01195 123.724 1.01195H133.642C133.876 1.01195 134.074 1.20995 134.074 1.44395V4.07195C134.074 4.30595 133.876 4.50395 133.642 4.50395H127.252C127.054 4.50395 126.892 4.66595 126.892 4.86395V6.15995C126.892 6.35795 127.054 6.51995 127.252 6.51995H132.364C132.598 6.51995 132.796 6.71795 132.796 6.95195V9.34595C132.796 9.57995 132.598 9.77795 132.364 9.77795H127.252C127.054 9.77795 126.892 9.93995 126.892 10.1379V11.2179C126.892 11.4159 127.054 11.5779 127.252 11.5779H133.642C133.876 11.5779 134.074 11.7759 134.074 12.0099V14.6199C134.074 14.8539 133.876 15.0519 133.642 15.0519Z" fill="#24292C"/>
<path d="M115.078 15.0519H108.994C108.76 15.0519 108.562 14.8539 108.562 14.6199V1.44395C108.562 1.20995 108.76 1.01195 108.994 1.01195H115.078C119.47 1.01195 121.72 4.21595 121.72 8.03195C121.72 11.8659 119.47 15.0519 115.078 15.0519ZM118.084 8.03195C118.084 5.92595 116.95 4.50395 114.808 4.50395H112.522C112.324 4.50395 112.162 4.66595 112.162 4.86395V11.2179C112.162 11.4159 112.324 11.5779 112.522 11.5779H114.808C116.95 11.5779 118.084 10.1379 118.084 8.03195Z" fill="#24292C"/>
<path d="M101.316 15.0519H91.3983C91.1643 15.0519 90.9663 14.8539 90.9663 14.6199V1.44395C90.9663 1.20995 91.1643 1.01195 91.3983 1.01195H101.316C101.55 1.01195 101.748 1.20995 101.748 1.44395V4.07195C101.748 4.30595 101.55 4.50395 101.316 4.50395H94.9263C94.7283 4.50395 94.5663 4.66595 94.5663 4.86395V6.15995C94.5663 6.35795 94.7283 6.51995 94.9263 6.51995H100.038C100.272 6.51995 100.47 6.71795 100.47 6.95195V9.34595C100.47 9.57995 100.272 9.77795 100.038 9.77795H94.9263C94.7283 9.77795 94.5663 9.93995 94.5663 10.1379V11.2179C94.5663 11.4159 94.7283 11.5779 94.9263 11.5779H101.316C101.55 11.5779 101.748 11.7759 101.748 12.0099V14.6199C101.748 14.8539 101.55 15.0519 101.316 15.0519Z" fill="#24292C"/>
<path d="M77.0405 8.21195V14.6199C77.0405 14.8539 76.8425 15.0519 76.6085 15.0519H73.8905C73.6565 15.0519 73.4585 14.8539 73.4585 14.6199V1.44395C73.4585 1.20995 73.6565 1.01195 73.8905 1.01195H76.6445C76.8965 1.01195 77.1485 1.17395 77.2745 1.38995L80.9645 8.73395C81.0365 8.87795 81.2165 8.87795 81.2885 8.73395L84.9965 1.38995C85.1225 1.17395 85.3745 1.01195 85.6265 1.01195H88.3805C88.6145 1.01195 88.8125 1.20995 88.8125 1.44395V14.6199C88.8125 14.8539 88.6145 15.0519 88.3805 15.0519H85.6625C85.4285 15.0519 85.2305 14.8539 85.2305 14.6199V8.21195C85.2305 8.12195 85.1045 8.08595 85.0685 8.17595L82.5125 13.3059C82.3865 13.5219 82.1345 13.6839 81.8825 13.6839H80.3885C80.1365 13.6839 79.8845 13.5219 79.7585 13.3059L77.2025 8.17595C77.1665 8.08595 77.0405 8.12195 77.0405 8.21195Z" fill="#24292C"/>
<path d="M64.5121 15.3219C60.4621 15.3219 57.0601 12.0459 57.0601 8.03194C57.0601 4.01794 60.4621 0.741943 64.5121 0.741943C68.6161 0.741943 71.9641 4.01794 71.9641 8.03194C71.9641 12.0459 68.6161 15.3219 64.5121 15.3219ZM64.5121 4.21594C62.4061 4.21594 60.6961 5.90794 60.6961 8.03194C60.6961 10.1559 62.4061 11.8479 64.5121 11.8479C66.6721 11.8479 68.3281 10.1559 68.3281 8.03194C68.3281 5.90794 66.6721 4.21594 64.5121 4.21594Z" fill="#24292C"/>
<path d="M51.9676 6.10595V1.44395C51.9676 1.20995 52.1656 1.01195 52.3996 1.01195H55.1356C55.3696 1.01195 55.5676 1.20995 55.5676 1.44395V14.6199C55.5676 14.8539 55.3696 15.0519 55.1356 15.0519H52.3996C52.1656 15.0519 51.9676 14.8539 51.9676 14.6199V10.1919C51.9676 9.99395 51.8056 9.83195 51.6076 9.83195H46.6036C46.4056 9.83195 46.2436 9.99395 46.2436 10.1919V14.6199C46.2436 14.8539 46.0456 15.0519 45.8116 15.0519H43.0936C42.8596 15.0519 42.6616 14.8539 42.6616 14.6199V1.44395C42.6616 1.20995 42.8596 1.01195 43.0936 1.01195H45.8116C46.0456 1.01195 46.2436 1.20995 46.2436 1.44395V6.10595C46.2436 6.30395 46.4056 6.46595 46.6036 6.46595H51.6076C51.8056 6.46595 51.9676 6.30395 51.9676 6.10595Z" fill="#24292C"/>
</svg>
