<svg width="32" height="33" viewBox="0 0 32 33" fill="none" xmlns="http://www.w3.org/2000/svg">
<path d="M10.845 24.24H13.625V12.52H11.67C11.635 12.71 11.575 12.91 11.48 13.125C11.385 13.34 11.24 13.54 11.04 13.72C10.84 13.9 10.575 14.055 10.235 14.175C9.89996 14.295 9.46496 14.355 8.93496 14.355H8.58496V16.11H10.835V24.24H10.845ZM20.76 24.24H23.345V21.97H24.435V19.82H23.345V12.755H20.365L16.555 19.825V21.975H20.76V24.24ZM18.76 19.82L20.73 15.895H20.76V19.82H18.76Z" fill="white"/>
<path d="M12.9851 5.93005H12.9751L12.7051 7.37505H13.2601L12.9851 5.93005Z" fill="white"/>
<path d="M15.3402 8.05498C15.3752 8.09498 15.4252 8.11498 15.4902 8.11498C15.5552 8.11498 15.6102 8.09998 15.6452 8.06498C15.6852 8.02998 15.7102 7.97998 15.7302 7.91498C15.7502 7.84998 15.7602 7.76998 15.7652 7.67998C15.7702 7.58998 15.7702 7.48498 15.7702 7.37498C15.7702 7.27498 15.7702 7.17998 15.7652 7.08498C15.7602 6.98998 15.7502 6.90998 15.7302 6.83998C15.7102 6.76998 15.6852 6.70998 15.6452 6.66498C15.6052 6.61998 15.5502 6.59998 15.4852 6.59998C15.3752 6.59998 15.3052 6.66498 15.2702 6.78998C15.2352 6.91498 15.2202 7.09998 15.2202 7.33998C15.2202 7.44998 15.2202 7.54998 15.2252 7.64498C15.2302 7.73998 15.2402 7.81998 15.2602 7.88998C15.2802 7.95998 15.3052 8.01498 15.3402 8.05498Z" fill="white"/>
<path d="M26.9549 4.035H26.0249C26.0499 3.96 26.0749 3.88 26.0749 3.795C26.0749 3.355 25.7149 3 25.2799 3C24.8399 3 24.4849 3.355 24.4849 3.795C24.4849 3.88 24.5099 3.955 24.5349 4.035H21.4899C21.5149 3.96 21.5399 3.88 21.5399 3.795C21.5399 3.355 21.1799 3 20.7449 3C20.3049 3 19.9499 3.355 19.9499 3.795C19.9499 3.88 19.9749 3.955 19.9999 4.035H16.9549C16.9799 3.96 17.0049 3.88 17.0049 3.795C17.0049 3.355 16.6499 3 16.2099 3C15.7699 3 15.4149 3.355 15.4149 3.795C15.4149 3.88 15.4399 3.955 15.4649 4.035H12.3999C12.4249 3.96 12.4499 3.88 12.4499 3.795C12.4499 3.355 12.0949 3 11.6549 3C11.2149 3 10.8599 3.355 10.8599 3.795C10.8599 3.88 10.8849 3.955 10.9099 4.035H7.86492C7.88992 3.96 7.91492 3.88 7.91492 3.795C7.91492 3.355 7.55992 3 7.11992 3C6.67992 3 6.32492 3.355 6.32492 3.795C6.32492 3.88 6.34992 3.955 6.37492 4.035H5.44492C4.18992 4.035 3.16992 5.055 3.16992 6.31V27.83C3.16992 29.085 4.18992 30.105 5.44492 30.105H24.3949L29.2399 25.26V6.31C29.2299 5.055 28.2099 4.035 26.9549 4.035ZM19.7449 5.335H20.4799V8.585H19.7449V5.335ZM18.5649 5.3H19.2999V5.865H18.5649V5.3ZM18.5649 6.125H19.2999V8.59H18.5649V6.125ZM16.8599 6.125H17.5699V6.47H17.5799C17.6299 6.36 17.6999 6.265 17.7949 6.185C17.8899 6.105 18.0149 6.065 18.1699 6.065H18.2249C18.2349 6.065 18.2599 6.07 18.2899 6.075V6.765C18.2549 6.76 18.2199 6.755 18.1849 6.75C18.1549 6.745 18.1199 6.745 18.0799 6.745C17.9299 6.745 17.8149 6.78 17.7249 6.845C17.6399 6.91 17.5949 7.025 17.5949 7.19V8.585H16.8599V6.125ZM14.4999 6.125H15.2099V6.425H15.2199C15.2299 6.385 15.2499 6.345 15.2749 6.3C15.2999 6.255 15.3349 6.215 15.3799 6.18C15.4249 6.145 15.4749 6.115 15.5349 6.095C15.5949 6.075 15.6649 6.06 15.7499 6.06C15.8699 6.06 15.9799 6.085 16.0749 6.13C16.1699 6.175 16.2499 6.25 16.3149 6.355C16.3799 6.455 16.4299 6.59 16.4599 6.75C16.4949 6.91 16.5099 7.105 16.5099 7.335C16.5099 7.525 16.4999 7.7 16.4849 7.865C16.4649 8.025 16.4299 8.165 16.3799 8.28C16.3299 8.395 16.2549 8.49 16.1599 8.555C16.0649 8.62 15.9449 8.655 15.7949 8.655C15.6949 8.655 15.5949 8.635 15.4899 8.59C15.3849 8.545 15.3049 8.46 15.2449 8.325H15.2349V9.395H14.4999V6.125ZM12.5199 5.335H13.4749L14.2849 8.585H13.4949L13.3749 7.965H12.5949L12.4799 8.585H11.6899L12.5199 5.335ZM27.9849 24.745L27.7299 25H25.7799C24.8699 25 24.1249 25.745 24.1249 26.655V28.605L23.8699 28.86H5.43492C4.86492 28.86 4.39992 28.395 4.39992 27.825V10.45H27.9849V24.745Z" fill="white"/>
</svg>
