<svg width="99" height="23" viewBox="0 0 99 23" fill="none" xmlns="http://www.w3.org/2000/svg">
<g clip-path="url(#clip0_107_45800)">
<path d="M5.8733 11.6198C5.05204 11.6198 4.28054 11.4705 3.55882 11.1719C2.8371 10.8732 2.23982 10.4502 1.69231 9.92753C1.16968 9.40491 0.746606 8.80762 0.447964 8.11079C0.149321 7.41396 0 6.66735 0 5.89586C0 5.12436 0.149321 4.37776 0.447964 3.68092C0.746606 2.98409 1.16968 2.38681 1.69231 1.86418C2.23982 1.34156 2.86199 0.918481 3.55882 0.619839C4.28054 0.321196 5.05204 0.171875 5.8733 0.171875C6.6448 0.171875 7.29186 0.296309 7.86425 0.520291C8.43665 0.744273 8.9095 0.993142 9.28281 1.2669C9.73077 1.59043 10.1041 1.96373 10.4027 2.36192L9.08371 3.60626C8.85973 3.30762 8.58597 3.05875 8.26244 2.80988C7.98869 2.61079 7.66516 2.43658 7.26697 2.26237C6.86878 2.08816 6.39593 2.0135 5.8733 2.0135C5.35068 2.0135 4.82805 2.11305 4.38009 2.31215C3.90724 2.51124 3.50905 2.785 3.16063 3.13341C2.81222 3.48183 2.53846 3.88002 2.33937 4.35287C2.14027 4.82572 2.04072 5.32346 2.04072 5.84608C2.04072 6.36871 2.14027 6.89133 2.33937 7.3393C2.53846 7.81215 2.81222 8.21034 3.16063 8.55875C3.50905 8.90717 3.90724 9.18092 4.38009 9.38002C4.85294 9.57911 5.35068 9.67866 5.8733 9.67866C6.42081 9.67866 6.91855 9.604 7.31674 9.42979C7.71493 9.25559 8.06335 9.08138 8.3371 8.8574C8.66063 8.60853 8.93439 8.33477 9.15837 8.03613L10.4774 9.38002C10.1538 9.77821 9.78054 10.1515 9.30769 10.475C8.9095 10.7488 8.43665 10.9977 7.86425 11.2216C7.31674 11.4954 6.6448 11.6198 5.8733 11.6198Z" fill="black"/>
<path d="M18.4661 11.6198C17.6448 11.6198 16.8733 11.4705 16.1516 11.1719C15.4299 10.8732 14.8077 10.4502 14.2851 9.95242C13.7625 9.42979 13.3394 8.83251 13.0407 8.13568C12.7421 7.43884 12.5928 6.69224 12.5928 5.92074C12.5928 5.14925 12.7421 4.40264 13.0407 3.70581C13.3394 3.00898 13.7625 2.41169 14.2851 1.88907C14.8077 1.34156 15.4299 0.918481 16.1516 0.619839C16.8733 0.321196 17.6448 0.171875 18.4661 0.171875C19.2873 0.171875 20.0588 0.321196 20.7806 0.619839C21.5023 0.918481 22.1244 1.34156 22.6471 1.8393C23.1697 2.36192 23.5928 2.95921 23.8914 3.65604C24.1901 4.35287 24.3394 5.09948 24.3394 5.87097C24.3394 6.64246 24.1901 7.38907 23.8914 8.0859C23.5928 8.78273 23.1697 9.38002 22.6471 9.90264C22.1244 10.4253 21.5023 10.8235 20.7806 11.1221C20.0588 11.4705 19.2873 11.6198 18.4661 11.6198ZM18.4661 9.72844C19.0136 9.72844 19.5113 9.62889 19.9842 9.42979C20.457 9.2307 20.8552 8.95694 21.2036 8.63341C21.552 8.285 21.8258 7.88681 22 7.41396C22.1991 6.94111 22.2987 6.44337 22.2987 5.89586C22.2987 5.34835 22.1991 4.85061 22 4.37776C21.8009 3.90491 21.5272 3.50672 21.2036 3.1583C20.8552 2.80988 20.457 2.53613 19.9842 2.36192C19.5113 2.16283 19.0136 2.06328 18.4661 2.06328C17.9186 2.06328 17.3959 2.16283 16.948 2.36192C16.5 2.56102 16.0769 2.83477 15.7285 3.1583C15.3801 3.50672 15.1063 3.90491 14.9321 4.37776C14.7579 4.85061 14.6335 5.34835 14.6335 5.89586C14.6335 6.44337 14.733 6.96599 14.9321 7.41396C15.1312 7.88681 15.405 8.285 15.7285 8.63341C16.0769 8.98183 16.4751 9.25559 16.948 9.42979C17.3959 9.62889 17.9186 9.72844 18.4661 9.72844Z" fill="black"/>
<path d="M29.2915 2.28839H26.0811V0.421875H34.4679V2.31328H31.2575V11.3721H29.2915V2.28839Z" fill="black"/>
<path d="M40.665 11.6198C39.9681 11.6198 39.3708 11.5203 38.8731 11.3461C38.3505 11.1719 37.9274 10.9728 37.6039 10.7488C37.2057 10.4999 36.8822 10.2013 36.6084 9.87776L37.9523 8.53387C38.1514 8.75785 38.3754 8.98183 38.6491 9.15604C38.8731 9.30536 39.1717 9.45468 39.4953 9.57911C39.8437 9.70355 40.2419 9.77821 40.6898 9.77821C41.312 9.77821 41.8098 9.62889 42.1333 9.33025C42.4817 9.0316 42.6559 8.68319 42.6559 8.285C42.6559 7.91169 42.5066 7.63794 42.2328 7.43884C41.9591 7.23975 41.6107 7.06554 41.1876 6.91622C40.7645 6.7669 40.3165 6.61758 39.8188 6.46826C39.3211 6.31893 38.8731 6.11984 38.45 5.87097C38.0269 5.6221 37.6785 5.29857 37.4048 4.90038C37.131 4.50219 36.9817 3.95468 36.9817 3.30762C36.9817 2.90943 37.0812 2.51124 37.2555 2.11305C37.4297 1.71486 37.6785 1.39133 38.0269 1.11758C38.3505 0.818934 38.7736 0.594952 39.2464 0.420744C39.7193 0.246536 40.2419 0.171875 40.8392 0.171875C41.4365 0.171875 41.9591 0.246536 42.3822 0.395857C42.8052 0.545178 43.1785 0.719386 43.4772 0.918481C43.8256 1.14246 44.1242 1.39133 44.3482 1.66509L43.0043 2.98409C42.855 2.785 42.6559 2.63568 42.4319 2.48635C42.2328 2.36192 42.0088 2.23749 41.7351 2.13794C41.4613 2.03839 41.1378 1.96373 40.7894 1.96373C40.1921 1.96373 39.7441 2.08816 39.4455 2.36192C39.1469 2.63568 38.9975 2.93432 38.9975 3.30762C38.9975 3.68092 39.1469 3.95468 39.4206 4.15378C39.6944 4.35287 40.0428 4.52708 40.4659 4.6764C40.8889 4.82572 41.3369 4.97504 41.8346 5.12436C42.3324 5.27368 42.7803 5.47278 43.2034 5.72165C43.6265 5.97052 43.9749 6.29405 44.2487 6.69224C44.5224 7.09043 44.6717 7.63794 44.6717 8.30988C44.6717 8.73296 44.5722 9.15604 44.398 9.55423C44.1989 9.95242 43.95 10.3008 43.6016 10.5995C43.2532 10.8981 42.8301 11.147 42.3324 11.3212C41.8346 11.5203 41.2871 11.6198 40.665 11.6198Z" fill="black"/>
<path d="M46.5635 0.421875H48.6042L51.1178 8.3359L53.6065 0.421875H55.4979L58.0114 8.3359L60.525 0.421875H62.5657L58.9571 11.3721H56.9911L54.5522 3.53273L52.1381 11.3721H50.1721L46.5635 0.421875Z" fill="black"/>
<path d="M69.9319 11.6208C69.1106 11.6208 68.3391 11.4715 67.6174 11.1729C66.8957 10.8742 66.2735 10.4512 65.7509 9.95343C65.2283 9.4308 64.8052 8.83352 64.5066 8.13668C64.2079 7.43985 64.0586 6.69324 64.0586 5.92175C64.0586 5.15026 64.2079 4.40365 64.5066 3.70682C64.8052 3.00999 65.2283 2.4127 65.7509 1.89008C66.2735 1.36745 66.8957 0.969263 67.6174 0.67062C68.3391 0.371978 69.1106 0.222656 69.9319 0.222656C70.7532 0.222656 71.5247 0.371978 72.2464 0.67062C72.9681 0.969263 73.5903 1.39234 74.1129 1.89008C74.6355 2.4127 75.0586 3.00999 75.3572 3.70682C75.6559 4.40365 75.8052 5.15026 75.8052 5.92175C75.8052 6.69324 75.6559 7.43985 75.3572 8.13668C75.0586 8.83352 74.6355 9.4308 74.1129 9.95343C73.5903 10.4761 72.9681 10.8742 72.2464 11.1729C71.5247 11.4715 70.7532 11.6208 69.9319 11.6208ZM69.9319 9.72944C70.4794 9.72944 70.9771 9.6299 71.45 9.4308C71.9229 9.23171 72.321 8.95795 72.6695 8.63442C73.0179 8.28601 73.2916 7.88781 73.4658 7.41496C73.6649 6.94211 73.7645 6.44438 73.7645 5.89686C73.7645 5.34935 73.6649 4.85162 73.4658 4.37876C73.2667 3.90591 72.993 3.50772 72.6695 3.15931C72.321 2.81089 71.9229 2.53714 71.45 2.36293C70.9771 2.16383 70.4794 2.06429 69.9319 2.06429C69.3844 2.06429 68.8618 2.16383 68.4138 2.36293C67.9409 2.56202 67.5428 2.83578 67.1943 3.15931C66.8459 3.50772 66.5722 3.90591 66.398 4.37876C66.2238 4.85162 66.0993 5.34935 66.0993 5.89686C66.0993 6.44438 66.1989 6.967 66.398 7.41496C66.5971 7.88781 66.8708 8.28601 67.1943 8.63442C67.5428 8.98284 67.9409 9.25659 68.4138 9.4308C68.8618 9.6299 69.3844 9.72944 69.9319 9.72944Z" fill="black"/>
<path d="M79.1152 0.421875H81.0813V9.50558H86.3324V11.3721H79.1152V0.421875Z" fill="black"/>
<path d="M89.1943 0.421875H93.0269C93.8482 0.421875 94.6197 0.571196 95.3165 0.844952C96.0133 1.11871 96.6106 1.5169 97.1332 2.01464C97.6559 2.51237 98.0541 3.08477 98.3278 3.75672C98.6016 4.42866 98.7509 5.15038 98.7509 5.89699C98.7509 6.64359 98.6016 7.36531 98.3278 8.03726C98.0292 8.7092 97.631 9.2816 97.1332 9.77934C96.6355 10.2771 96.0133 10.6504 95.3165 10.949C94.6197 11.2228 93.8482 11.3721 93.0269 11.3721H89.1943V0.421875ZM93.0518 9.58025C93.5744 9.58025 94.0722 9.4807 94.5201 9.30649C94.9681 9.13228 95.3663 8.85853 95.6898 8.535C96.0133 8.21147 96.2871 7.81328 96.4613 7.36531C96.6355 6.91735 96.7351 6.41961 96.7351 5.89699C96.7351 5.37436 96.6355 4.87663 96.4613 4.42866C96.2871 3.9807 96.0133 3.58251 95.6898 3.25898C95.3663 2.93545 94.9681 2.68658 94.5201 2.48749C94.0722 2.31328 93.5744 2.21373 93.0518 2.21373H91.1604V9.58025H93.0518Z" fill="black"/>
<path d="M35.3142 22.1705C35.0405 22.1705 34.7916 22.1208 34.5427 22.0212C34.3187 21.9217 34.0948 21.7972 33.9206 21.623C33.7463 21.4488 33.6219 21.2497 33.5224 21.0257C33.4228 20.8018 33.373 20.5529 33.373 20.304C33.373 20.0551 33.4228 19.8063 33.5224 19.5823C33.6219 19.3583 33.7463 19.1592 33.9206 18.985C34.0948 18.8108 34.2939 18.6864 34.5427 18.5868C34.7916 18.4873 35.0405 18.4375 35.3142 18.4375C35.5631 18.4375 35.7871 18.4624 35.9613 18.537C36.1355 18.6117 36.3097 18.6864 36.4341 18.7859C36.5835 18.8855 36.7079 19.0099 36.8074 19.1343L36.2848 19.657C36.2102 19.5574 36.1355 19.4827 36.0111 19.4081C35.9364 19.3334 35.812 19.2837 35.7124 19.2339C35.588 19.1841 35.4387 19.1592 35.2893 19.1592C35.14 19.1592 34.9907 19.1841 34.8414 19.2588C34.692 19.3085 34.5676 19.4081 34.4681 19.5076C34.3685 19.6072 34.269 19.7316 34.2192 19.8809C34.1694 20.0303 34.1197 20.1796 34.1197 20.3289C34.1197 20.4782 34.1445 20.6275 34.2192 20.7769C34.269 20.9262 34.3685 21.0506 34.4681 21.1502C34.5676 21.2497 34.692 21.3493 34.8414 21.399C34.9907 21.4488 35.14 21.4986 35.2893 21.4986C35.4635 21.4986 35.6129 21.4737 35.7373 21.4239C35.8617 21.3742 35.9613 21.3244 36.0608 21.2497C36.1604 21.1751 36.2599 21.1004 36.3346 21.0008L36.8572 21.5235C36.7577 21.6479 36.6332 21.7723 36.4839 21.8719C36.3595 21.9714 36.1853 22.0461 36.0111 22.1208C35.7871 22.1456 35.5631 22.1705 35.3142 22.1705Z" fill="black"/>
<path d="M39.8933 22.1705C39.6196 22.1705 39.3707 22.1208 39.1218 22.0212C38.8978 21.9217 38.6739 21.7972 38.4997 21.623C38.3255 21.4488 38.201 21.2497 38.1015 21.0257C38.0019 20.8018 37.9521 20.5529 37.9521 20.304C37.9521 20.0551 38.0019 19.8063 38.1015 19.5823C38.201 19.3583 38.3255 19.1592 38.4997 18.985C38.6739 18.8108 38.873 18.6864 39.1218 18.5868C39.3707 18.4873 39.6196 18.4375 39.8933 18.4375C40.1671 18.4375 40.4159 18.4873 40.6648 18.5868C40.8888 18.6864 41.1128 18.8108 41.287 18.985C41.4612 19.1592 41.5856 19.3583 41.6852 19.5823C41.7847 19.8063 41.8345 20.0551 41.8345 20.304C41.8345 20.5529 41.7847 20.8018 41.6852 21.0257C41.5856 21.2497 41.4612 21.4488 41.287 21.623C41.1128 21.7972 40.9137 21.9217 40.6648 22.0212C40.4159 22.1208 40.1671 22.1705 39.8933 22.1705ZM39.8933 21.4737C40.0426 21.4737 40.192 21.4488 40.3413 21.3742C40.4906 21.2995 40.615 21.2248 40.7146 21.1253C40.8141 21.0257 40.9137 20.9013 40.9635 20.752C41.0132 20.6027 41.063 20.4533 41.063 20.304C41.063 20.1547 41.0381 20.0054 40.9635 19.8561C40.9137 19.7067 40.8141 19.5823 40.7146 19.4827C40.615 19.3832 40.4906 19.2837 40.3413 19.2339C40.192 19.1841 40.0426 19.1343 39.8933 19.1343C39.744 19.1343 39.5947 19.1592 39.4454 19.2339C39.296 19.2837 39.1716 19.3832 39.0721 19.4827C38.9725 19.5823 38.873 19.7067 38.8232 19.8561C38.7734 20.0054 38.7236 20.1547 38.7236 20.304C38.7236 20.4533 38.7485 20.6027 38.8232 20.752C38.873 20.9013 38.9725 21.0257 39.0721 21.1253C39.1716 21.2248 39.296 21.3244 39.4454 21.3742C39.5698 21.4239 39.7191 21.4737 39.8933 21.4737Z" fill="black"/>
<path d="M43.2285 18.5352H43.9253L45.1448 20.0533L46.3643 18.5352H47.0611V22.1189H46.2896V19.7795L45.1448 21.1981L44 19.7795V22.1189H43.2285V18.5352Z" fill="black"/>
<path d="M48.9023 18.5352H50.4204C50.6195 18.5352 50.7937 18.56 50.9431 18.6347C51.0924 18.6845 51.2417 18.784 51.3413 18.8836C51.4408 18.9831 51.5404 19.1076 51.615 19.2569C51.6897 19.4062 51.7146 19.5555 51.7146 19.7297C51.7146 19.9039 51.6897 20.0533 51.615 20.2026C51.5404 20.3519 51.4657 20.4763 51.3413 20.5759C51.2168 20.6754 51.0924 20.775 50.9431 20.8247C50.7937 20.8745 50.6195 20.9243 50.4204 20.9243H49.6738V22.094H48.9023V18.5352ZM50.3707 20.2026C50.52 20.2026 50.6444 20.1528 50.744 20.0781C50.8435 20.0035 50.8933 19.879 50.8933 19.7297C50.8933 19.5804 50.8435 19.4809 50.744 19.3813C50.6444 19.2818 50.52 19.2569 50.3707 19.2569H49.649V20.2275H50.3707V20.2026Z" fill="black"/>
<path d="M53.8297 18.5352H54.7008L56.0695 22.1189H55.2483L54.9496 21.2976H53.5808L53.2822 22.1189H52.4609L53.8297 18.5352ZM54.7008 20.6008L54.2777 19.4311H54.2528L53.8297 20.6008H54.7008Z" fill="black"/>
<path d="M57.3643 18.5352H58.0611L59.8032 20.7501V18.5352H60.5747V22.1189H59.8778L58.1358 19.9039V22.1189H57.3643V18.5352Z" fill="black"/>
<path d="M63.2619 20.8247L61.918 18.5352H62.8139L63.6352 20.0533H63.6601L64.4813 18.5352H65.3772L64.0333 20.8247V22.094H63.2619V20.8247Z" fill="black"/>
</g>
<defs>
<clipPath id="clip0_107_45800">
<rect width="98.776" height="22" fill="white" transform="translate(0 0.171875)"/>
</clipPath>
</defs>
</svg>
