<svg width="32" height="33" viewBox="0 0 32 33" fill="none" xmlns="http://www.w3.org/2000/svg">
<g clip-path="url(#clip0_1_2586)">
<path d="M18.317 18.8231L21.1117 17.7886C21.1117 17.7886 20.8542 16.4288 18.4834 14.0581C16.1121 11.6869 14.8151 11.4921 14.8151 11.4921L13.7345 14.211L2.61789 22.3513C-0.491609 25.4607 0.073063 28.2287 2.12881 30.2845L2.25629 30.4119C4.31204 32.4677 7.0803 33.0327 10.1898 29.923L18.317 18.8231ZM13.4393 18.1249L5.0074 25.0324C4.64164 25.3455 4.16746 25.3086 3.87678 25.0179L3.87543 25.0166C3.58493 24.726 3.67095 24.2113 4.03601 23.8987L12.4681 16.9915C12.834 16.6778 13.2412 16.7825 13.5319 17.0733L13.5333 17.0745C13.824 17.3654 13.805 17.8118 13.4393 18.1249ZM7.54749 28.6887L7.54615 28.6873C7.25546 28.3965 7.21873 27.9224 7.53188 27.5567L14.4392 19.1248C14.7524 18.7591 15.1988 18.7401 15.4895 19.0308L15.4909 19.0322C15.7815 19.3228 15.889 19.7273 15.5753 20.0932L8.66346 28.5299C8.35095 28.895 7.83799 28.9792 7.54749 28.6887ZM20.0614 14.1491L30.6509 3.55965C30.6509 3.55965 31.3063 1.79537 30.9679 1.45706C30.6297 1.11882 28.8654 1.77418 28.8654 1.77418L18.2656 12.3739C18.6052 12.6721 18.9067 12.9476 19.258 13.2989C19.534 13.5745 19.8019 13.858 20.0614 14.1491ZM30.2409 3.38929C29.8773 3.28618 30.7347 1.88618 30.7347 1.88618C30.7347 1.88618 30.4786 3.45668 30.2409 3.38929ZM29.0633 2.2769C29.009 2.0273 30.5718 1.67997 30.5718 1.67997C29.6385 2.36375 29.0992 2.44202 29.0633 2.2769Z" fill="white"/>
</g>
<defs>
<clipPath id="clip0_1_2586">
<rect width="32" height="32" fill="white" transform="translate(0 0.5)"/>
</clipPath>
</defs>
</svg>
