<svg width="171" height="81" viewBox="0 0 171 81" fill="none" xmlns="http://www.w3.org/2000/svg">
<g clip-path="url(#clip0_2240_5070)">
<mask id="mask0_2240_5070" style="mask-type:luminance" maskUnits="userSpaceOnUse" x="0" y="0" width="165" height="41">
<path d="M164.071 0.5H0.5V40.5H164.071V0.5Z" fill="white"/>
</mask>
<g mask="url(#mask0_2240_5070)">
<path d="M43.4837 14.6777H60.0458V17.7517H53.5343V35.0485H49.9507V17.7517H43.4646V14.6777H43.4773H43.4837ZM59.3393 20.2997H62.4009V23.1455H62.4582C62.56 22.7398 62.7446 22.3532 63.0183 21.9793C63.292 21.6053 63.623 21.244 64.0176 20.9462C64.4059 20.6292 64.8387 20.3884 65.3161 20.1856C65.7935 19.9954 66.2836 19.9004 66.7738 19.9004C67.1493 19.9004 67.423 19.913 67.5694 19.9321C67.7158 19.9447 67.8558 19.9764 68.015 19.9891V23.1265C67.7858 23.0821 67.5503 23.0568 67.3084 23.0251C67.0665 22.9934 66.831 22.9807 66.6019 22.9807C66.0545 22.9807 65.5325 23.0948 65.0424 23.3103C64.5523 23.5258 64.1322 23.8554 63.7694 24.2737C63.4066 24.7047 63.1202 25.2244 62.9037 25.8582C62.6873 26.492 62.5855 27.2082 62.5855 28.0322V35.0485H59.3202V20.2997H59.3329H59.3393ZM83.0176 35.0549H79.8096V33.0013H79.7523C79.3513 33.7492 78.7593 34.3386 77.9637 34.7823C77.168 35.226 76.3597 35.4605 75.5385 35.4605C73.5908 35.4605 72.1714 34.9851 71.3057 34.0217C70.4401 33.0583 70.0072 31.6069 70.0072 29.6674V20.306H73.2726V29.3505C73.2726 30.6435 73.5208 31.5625 74.0236 32.0949C74.5138 32.6273 75.2203 32.8999 76.1178 32.8999C76.8116 32.8999 77.3717 32.7985 77.8364 32.583C78.301 32.3675 78.6766 32.0949 78.9503 31.7337C79.2367 31.3914 79.4404 30.9604 79.5741 30.466C79.7014 29.978 79.7586 29.4456 79.7586 28.8688V20.3123H83.024V35.0485L83.0176 35.0549ZM88.5744 30.3266C88.6762 31.2773 89.039 31.9365 89.6564 32.3231C90.293 32.6971 91.044 32.8999 91.9224 32.8999C92.228 32.8999 92.5717 32.8682 92.9599 32.8302C93.3482 32.7858 93.7238 32.6844 94.0547 32.5576C94.3985 32.4309 94.6785 32.228 94.9077 31.9682C95.1241 31.7083 95.2259 31.3787 95.2132 30.9604C95.2005 30.5421 95.0413 30.1998 94.7486 29.94C94.4621 29.6674 94.0993 29.4646 93.6537 29.2935C93.2082 29.135 92.699 28.9893 92.1261 28.8752C91.5469 28.7611 90.9677 28.628 90.3757 28.5012C89.771 28.3745 89.179 28.197 88.6125 28.0132C88.0524 27.8294 87.5432 27.5695 87.0976 27.2336C86.6521 26.9167 86.2893 26.4984 86.0283 25.9977C85.7546 25.4969 85.6273 24.8758 85.6273 24.1279C85.6273 23.323 85.831 22.6638 86.2193 22.1124C86.6075 21.5673 87.1167 21.1363 87.7087 20.8067C88.3134 20.4771 88.9817 20.249 89.7137 20.1032C90.4521 19.9764 91.1586 19.9004 91.8206 19.9004C92.5844 19.9004 93.3228 19.9891 94.0166 20.1475C94.7104 20.306 95.3469 20.5659 95.907 20.9398C96.4671 21.3011 96.9318 21.7765 97.3073 22.3469C97.6829 22.9237 97.912 23.6272 98.0139 24.4448H94.6085C94.4494 23.6652 94.1057 23.1392 93.5392 22.8793C92.979 22.6067 92.3298 22.4736 91.6042 22.4736C91.375 22.4736 91.1013 22.4863 90.7831 22.5307C90.4648 22.5751 90.1784 22.6448 89.8856 22.7462C89.6119 22.8476 89.3827 23.0061 89.1791 23.2089C88.9945 23.4117 88.8926 23.6716 88.8926 24.0011C88.8926 24.4068 89.039 24.7173 89.3127 24.9645C89.5864 25.2117 89.9492 25.4082 90.3948 25.5857C90.8403 25.7441 91.3496 25.8899 91.9224 26.004C92.5017 26.1181 93.0936 26.2512 93.6983 26.3779C94.2903 26.5047 94.8695 26.6822 95.4424 26.866C96.0216 27.0498 96.5244 27.3096 96.97 27.6392C97.4155 27.9688 97.7784 28.3745 98.0521 28.8625C98.3258 29.3505 98.4722 29.9717 98.4722 30.6879C98.4722 31.5625 98.2685 32.2978 97.8675 32.9189C97.4601 33.521 96.9445 34.0281 96.308 34.402C95.6715 34.776 94.9522 35.0612 94.1693 35.2387C93.3864 35.4098 92.6099 35.4985 91.846 35.4985C90.904 35.4985 90.0383 35.3971 89.2491 35.1816C88.4534 34.9661 87.7596 34.6492 87.1868 34.2309C86.6075 33.7999 86.1492 33.2675 85.8182 32.6337C85.4873 31.9999 85.3154 31.2393 85.2836 30.3646H88.5744V30.3329V30.3266ZM99.3442 20.306H101.814V15.8756H105.079V20.306H108.026V22.7335H105.079V30.6118C105.079 30.9541 105.092 31.2456 105.124 31.5055C105.149 31.7527 105.226 31.9682 105.327 32.1393C105.429 32.3104 105.588 32.4435 105.805 32.5259C106.021 32.6147 106.295 32.6527 106.67 32.6527C106.9 32.6527 107.135 32.6527 107.364 32.64C107.593 32.6273 107.829 32.5957 108.058 32.5386V35.0549C107.695 35.0992 107.339 35.1246 107.001 35.1689C106.658 35.2133 106.308 35.226 105.945 35.226C105.079 35.226 104.385 35.1372 103.863 34.9788C103.341 34.8203 102.921 34.5732 102.635 34.2626C102.329 33.9457 102.145 33.5591 102.03 33.0837C101.928 32.6083 101.858 32.0632 101.846 31.4611V22.7652H99.376V20.306H99.3442ZM110.33 20.306H113.424V22.3025H113.481C113.946 21.4405 114.576 20.8384 115.403 20.4645C116.225 20.0905 117.109 19.9067 118.077 19.9067C119.248 19.9067 120.26 20.1095 121.126 20.5278C121.991 20.9335 122.717 21.4912 123.29 22.2074C123.869 22.9237 124.289 23.7603 124.576 24.711C124.862 25.6617 125.008 26.6822 125.008 27.7597C125.008 28.7547 124.881 29.7181 124.62 30.6372C124.359 31.5689 123.971 32.3928 123.449 33.109C122.927 33.8253 122.265 34.3893 121.457 34.8203C120.648 35.2513 119.713 35.4668 118.611 35.4668C118.134 35.4668 117.657 35.4225 117.179 35.3401C116.702 35.2513 116.237 35.1119 115.811 34.9218C115.378 34.7379 114.958 34.4908 114.595 34.1865C114.22 33.8823 113.914 33.54 113.659 33.1534H113.602V40.512H110.337V20.2997L110.33 20.306ZM121.737 27.6963C121.737 27.0371 121.648 26.3906 121.476 25.7568C121.304 25.123 121.043 24.5779 120.699 24.0899C120.356 23.6018 119.916 23.2152 119.413 22.9237C118.892 22.6384 118.3 22.48 117.638 22.48C116.263 22.48 115.225 22.9553 114.531 23.9061C113.838 24.8568 113.494 26.1181 113.494 27.7026C113.494 28.4505 113.583 29.1414 113.768 29.7752C113.952 30.409 114.213 30.9541 114.589 31.4168C114.952 31.8794 115.384 32.2344 115.887 32.4942C116.39 32.7668 116.982 32.8999 117.65 32.8999C118.401 32.8999 119.019 32.7414 119.541 32.4372C120.063 32.133 120.483 31.7337 120.814 31.2583C121.145 30.7703 121.393 30.2252 121.533 29.6041C121.66 28.9829 121.737 28.3554 121.737 27.7089V27.6963ZM127.497 14.6841H130.763V17.7581H127.497V14.6841ZM127.497 20.306H130.763V35.0612H127.497V20.2997V20.306ZM133.678 14.6841H136.943V35.0485H133.678V14.6777V14.6841ZM146.949 35.4605C145.765 35.4605 144.709 35.2577 143.786 34.871C142.863 34.4844 142.08 33.9393 141.431 33.2612C140.794 32.5703 140.304 31.7527 139.973 30.802C139.642 29.8512 139.47 28.8054 139.47 27.6646C139.47 26.5237 139.642 25.5096 139.973 24.5589C140.304 23.6082 140.794 22.7906 141.431 22.0997C142.067 21.4088 142.863 20.8764 143.786 20.4898C144.709 20.1032 145.765 19.9004 146.949 19.9004C148.133 19.9004 149.19 20.1032 150.113 20.4898C151.035 20.8764 151.818 21.4215 152.468 22.0997C153.104 22.7906 153.594 23.6082 153.925 24.5589C154.256 25.5096 154.428 26.5427 154.428 27.6646C154.428 28.7864 154.256 29.8512 153.925 30.802C153.594 31.7527 153.104 32.5703 152.468 33.2612C151.831 33.952 151.035 34.4844 150.113 34.871C149.19 35.2577 148.133 35.4605 146.949 35.4605ZM146.949 32.8872C147.668 32.8872 148.305 32.7288 148.84 32.4245C149.374 32.1203 149.807 31.721 150.157 31.233C150.501 30.7449 150.749 30.1808 150.921 29.566C151.08 28.9449 151.169 28.3174 151.169 27.6709C151.169 27.0244 151.08 26.4223 150.921 25.7885C150.762 25.1547 150.501 24.6096 150.157 24.1216C149.813 23.6335 149.374 23.2469 148.84 22.9427C148.305 22.6384 147.668 22.48 146.949 22.48C146.23 22.48 145.593 22.6384 145.059 22.9427C144.524 23.2469 144.091 23.6462 143.747 24.1216C143.404 24.6096 143.155 25.1547 142.984 25.7885C142.824 26.4223 142.735 27.0371 142.735 27.6709C142.735 28.3047 142.824 28.9512 142.984 29.566C143.143 30.1872 143.404 30.7449 143.747 31.233C144.091 31.721 144.524 32.1266 145.059 32.4245C145.593 32.7414 146.23 32.8872 146.949 32.8872ZM155.383 20.306H157.853V15.8756H161.118V20.306H164.065V22.7335H161.118V30.6118C161.118 30.9541 161.131 31.2456 161.162 31.5055C161.188 31.7527 161.264 31.9682 161.366 32.1393C161.468 32.3104 161.627 32.4435 161.844 32.5259C162.06 32.6147 162.334 32.6527 162.709 32.6527C162.938 32.6527 163.174 32.6527 163.403 32.64C163.632 32.6273 163.868 32.5957 164.097 32.5386V35.0549C163.734 35.0992 163.371 35.1246 163.04 35.1689C162.696 35.2133 162.346 35.226 161.984 35.226C161.118 35.226 160.424 35.1372 159.902 34.9788C159.38 34.8203 158.96 34.5732 158.674 34.2626C158.368 33.9457 158.184 33.5591 158.069 33.0837C157.967 32.6083 157.897 32.0632 157.884 31.4611V22.7652H155.415V20.306H155.383Z" fill="#191919"/>
<path d="M39.6711 14.6784H24.713L20.0919 0.5L15.4581 14.6784L0.5 14.6657L12.6129 23.4377L7.97904 37.5971L20.0919 28.8378L32.192 37.5971L27.5709 23.4377L39.6711 14.6784Z" fill="#04DA8D"/>
<path d="M28.6149 26.6387L27.5774 23.4316L20.0984 28.8381L28.6149 26.6387Z" fill="#005128"/>
</g>
</g>
<rect width="30" height="30" transform="translate(0.5 50.5)" fill="#00B67A"/>
<g clip-path="url(#clip1_2240_5070)">
<path d="M26.0713 63.1434H17.9976L15.5038 55.5L13.0022 63.1434L4.92847 63.1357L11.4669 67.8643L8.96533 75.5L15.5038 70.7791L22.0345 75.5L19.5407 67.8643L26.0713 63.1434Z" fill="white"/>
<path d="M20.1019 69.5939L19.5408 67.8652L15.5039 70.78L20.1019 69.5939Z" fill="#F0F0F0"/>
</g>
<rect width="30" height="30" transform="translate(35.5 50.5)" fill="#00B67A"/>
<g clip-path="url(#clip2_2240_5070)">
<path d="M61.0713 63.1434H52.9976L50.5038 55.5L48.0022 63.1434L39.9285 63.1357L46.4669 67.8643L43.9653 75.5L50.5038 70.7791L57.0345 75.5L54.5407 67.8643L61.0713 63.1434Z" fill="white"/>
<path d="M55.1019 69.5939L54.5408 67.8652L50.5039 70.78L55.1019 69.5939Z" fill="#F0F0F0"/>
</g>
<rect width="30" height="30" transform="translate(70.5 50.5)" fill="#00B67A"/>
<g clip-path="url(#clip3_2240_5070)">
<path d="M96.0713 63.1434H87.9976L85.5038 55.5L83.0022 63.1434L74.9285 63.1357L81.4669 67.8643L78.9653 75.5L85.5038 70.7791L92.0345 75.5L89.5407 67.8643L96.0713 63.1434Z" fill="white"/>
<path d="M90.1019 69.5939L89.5408 67.8652L85.5039 70.78L90.1019 69.5939Z" fill="#F0F0F0"/>
</g>
<rect width="30" height="30" transform="translate(105.5 50.5)" fill="#00B67A"/>
<g clip-path="url(#clip4_2240_5070)">
<path d="M131.071 63.1434H122.998L120.504 55.5L118.002 63.1434L109.928 63.1357L116.467 67.8643L113.965 75.5L120.504 70.7791L127.034 75.5L124.541 67.8643L131.071 63.1434Z" fill="white"/>
<path d="M125.102 69.5939L124.541 67.8652L120.504 70.78L125.102 69.5939Z" fill="#F0F0F0"/>
</g>
<rect width="30" height="30" transform="translate(140.5 50.5)" fill="#00B67A"/>
<rect x="155.5" y="50.5" width="15" height="30" fill="#D9D9D9"/>
<g clip-path="url(#clip5_2240_5070)">
<path d="M166.072 63.1434H157.998L155.504 55.5L153.002 63.1434L144.929 63.1357L151.467 67.8643L148.966 75.5L155.504 70.7791L162.035 75.5L159.541 67.8643L166.072 63.1434Z" fill="white"/>
<path d="M160.102 69.5939L159.541 67.8652L155.504 70.78L160.102 69.5939Z" fill="#F0F0F0"/>
</g>
<defs>
<clipPath id="clip0_2240_5070">
<rect width="163.571" height="40" fill="white" transform="translate(0.5 0.5)"/>
</clipPath>
<clipPath id="clip1_2240_5070">
<rect width="21.1429" height="20" fill="white" transform="translate(4.92847 55.5)"/>
</clipPath>
<clipPath id="clip2_2240_5070">
<rect width="21.1429" height="20" fill="white" transform="translate(39.9285 55.5)"/>
</clipPath>
<clipPath id="clip3_2240_5070">
<rect width="21.1429" height="20" fill="white" transform="translate(74.9285 55.5)"/>
</clipPath>
<clipPath id="clip4_2240_5070">
<rect width="21.1429" height="20" fill="white" transform="translate(109.928 55.5)"/>
</clipPath>
<clipPath id="clip5_2240_5070">
<rect width="21.1429" height="20" fill="white" transform="translate(144.929 55.5)"/>
</clipPath>
</defs>
</svg>
